<?xml version="1.0" encoding="UTF-8"?>
<svg width="1200pt" height="1200pt" version="1.1" viewBox="0 0 1200 1200" xmlns="http://www.w3.org/2000/svg">
 <path d="m1086.3 658.26c0.70312-1.8281 1.0781-3.7031 1.125-5.625 0-0.14062 0.09375-0.28125 0.09375-0.42188v-0.046875c0-2.0625-0.46875-4.125-1.2188-6.0938-0.23438-0.65625-0.60938-1.2188-0.9375-1.8281-0.42188-0.79688-0.65625-1.6406-1.2188-2.3438-0.32812-0.42188-0.75-0.70312-1.0781-1.0781-0.51562-0.5625-1.0312-1.0781-1.5938-1.5469-1.0781-0.9375-2.2031-1.6875-3.4219-2.2969-0.60938-0.32812-1.1719-0.65625-1.8281-0.89062-1.875-0.70312-3.7969-1.125-5.8125-1.1719-0.09375 0-0.1875-0.046875-0.28125-0.046875h-328.69l-123.98-247.87v-169.97c0-28.781-23.438-52.219-52.219-52.219h-174.1c-28.781 0-52.219 23.438-52.219 52.219v69.656c0 28.781 23.438 52.219 52.219 52.219h191.53v48.094l-123.98 247.87-328.78-0.046875c-0.046874 0-0.09375 0.046875-0.14062 0.046875-2.0625 0-4.0781 0.46875-5.9531 1.2188-0.65625 0.23438-1.1719 0.5625-1.7812 0.89062-1.2188 0.65625-2.3906 1.4062-3.4219 2.3438-0.5625 0.51562-1.0781 0.98438-1.5938 1.5469-0.32813 0.375-0.79688 0.65625-1.0781 1.0781-0.51562 0.75-0.79687 1.5938-1.2188 2.3438-0.32812 0.60938-0.70312 1.1719-0.9375 1.8281-0.75 1.9688-1.2188 4.0312-1.2188 6.0938v0.046875c0 0.14062 0.09375 0.28125 0.09375 0.42188 0.046876 1.9219 0.46875 3.7969 1.125 5.625 0.28125 0.70312 0.60938 1.3125 0.98438 1.9688 0.375 0.70312 0.5625 1.4531 1.0312 2.1094l261.14 365.63c0.42188 0.60938 0.98438 1.0781 1.4531 1.5938 0.14062 0.1875 0.23438 0.42188 0.375 0.5625 0.09375 0.09375 0.23438 0.14062 0.375 0.23438 1.4531 1.4062 3.1406 2.4844 4.9688 3.2812 0.375 0.1875 0.75 0.28125 1.125 0.42188 1.875 0.65625 3.7969 1.125 5.8594 1.125h417.84c2.0625 0 3.9844-0.46875 5.8594-1.125 0.375-0.14062 0.75-0.23438 1.125-0.42188 1.8281-0.79688 3.5156-1.9219 4.9688-3.2812 0.09375-0.09375 0.23437-0.14062 0.375-0.23438 0.1875-0.1875 0.23437-0.42188 0.375-0.5625 0.46875-0.51562 1.0312-1.0312 1.4531-1.5938l261.14-365.63c0.46875-0.65625 0.70312-1.4062 1.0312-2.1094 0.32812-0.65625 0.70312-1.2656 0.98438-1.9688zm-123.47 11.391-174.79 58.266-29.156-58.266zm-248.29-10.734 40.078 80.156-137.21 45.75v-319.97l97.125 194.11zm-340.87-372.32v-69.656c0-9.6094 7.7812-17.391 17.391-17.391h174.1c9.6094 0 17.391 7.8281 17.391 17.391v87.047h-191.53c-9.6094 0-17.391-7.8281-17.391-17.391zm208.97 498.19-137.21-45.75 40.078-80.156 97.125-194.11zm-170.58-56.859-174.79-58.266h203.95zm155.72 88.641-174.47 174.47-218.11-305.34zm32.25 16.969 166.87 166.87h-333.79l166.87-166.87zm206.72 157.5-174.47-174.47 392.58-130.87z"/>
</svg>
