<?xml version="1.0" encoding="UTF-8"?>
<svg width="1200pt" height="1200pt" version="1.1" viewBox="0 0 1200 1200" xmlns="http://www.w3.org/2000/svg">
 <path d="m253.78 622.92h242.06v81.375l-112.31 15.469c-8.8594 1.2188-15.469 8.8594-15.469 17.859v66.609c0 9.9375 8.0625 18 18 18h428.06c9.9375 0 18-8.0625 18-18v-66.609c0-9-6.6094-16.547-15.469-17.859l-112.31-15.469v-81.375h242.06c29.766 0 54-24.234 54-54.141l-0.09375-412.64c0-29.859-24.234-54.141-54-54.141h-692.53c-29.766 0-54 24.234-54 54.141v412.69c0 29.859 24.234 54.141 54 54.141zm-18-466.78c0-9.9375 8.0625-18.141 18-18.141h692.39c9.9375 0 18 8.1562 18 18.141v302.53l-728.39-0.046875zm728.44 412.64c0 9.9375-8.0625 18.141-18 18.141h-692.25c-9.9375 0-18-8.1562-18-18.141v-74.156h728.39v74.156zm-296.06 133.22h-136.22v-79.078h136.22zm127.78 84.234h-392.06v-32.859l111.14-15.375h169.69l111.14 15.375v32.859z"/>
 <path d="m226.78 1098h746.39c14.156 0 27.234-7.0781 34.922-18.938s9-26.625 3.2344-39.609l-65.766-149.06c-6.8438-15.469-22.219-25.453-39.141-25.453h-613.03c-16.922 0-32.297 9.9375-39.141 25.453l-65.766 149.06c-5.7656 12.938-4.5469 27.703 3.2344 39.609 7.6875 11.859 20.766 18.938 34.922 18.938zm66.609-197.16h613.22c2.625 0 5.0625 1.5469 6.1406 3.9375l65.766 149.06c1.0781 2.5312 0.23438 4.4531-0.46875 5.3906-0.60938 0.9375-2.0625 2.625-4.7812 2.625h-746.48c-2.7656 0-4.2188-1.6875-4.7812-2.625-0.60938-0.9375-1.5469-3-0.46875-5.3906l65.766-149.06c1.0781-2.3906 3.4688-3.9375 6.1406-3.9375z"/>
 <path d="m495.94 1041.6h217.22c11.297 0 21.703-5.5312 27.938-14.859 6.2344-9.375 7.4531-21.141 3.1406-31.547l-7.3125-17.859c-5.1562-12.609-17.391-20.766-31.078-20.766h-202.45c-13.688 0-25.922 8.1562-31.078 20.766l-7.3125 17.859c-4.3125 10.453-3.1406 22.219 3.1406 31.547 6.2344 9.375 16.688 14.859 27.938 14.859zm208.22-49.078 5.3906 13.078h-210l5.3906-13.078z"/>
</svg>
