<?xml version="1.0" encoding="UTF-8"?>
<svg width="1200pt" height="1200pt" version="1.1" viewBox="0 0 1200 1200" xmlns="http://www.w3.org/2000/svg">
 <path d="m1076.1 817.03c-20.25-27.375-66.375-14.672-69.656 19.125-3.4219 26.391-64.781 39.984-115.69 46.781-57.891 7.6875-105.14 33.422-140.06 60.047 24.75-64.031 69.469-112.73 133.13-144.94 207.37-105.09 199.5-286.82 197.9-307.31-1.3594-20.906-21.797-37.969-42.516-35.484-20.953 1.4062-37.781 21.562-35.484 42.469 0.046875 0.51562 3.6562 50.297-26.297 108.56-19.734-11.062-47.719-30.891-67.219-61.922-11.344-39.094-18.562-114.05 57.797-123.47 88.125-14.953 100.5-103.59 94.734-148.36-2.25-20.766-22.969-36.703-43.594-33.656-21.375 2.5781-36.703 22.125-34.125 43.641 0.70312 5.625 5.8125 55.125-30.047 61.219-21.281 3.6094-40.266 9.8906-56.672 18.844 10.781-78.234 14.859-175.18-75.656-245.26-17.156-13.172-41.766-9.9844-54.797 7.0312-13.359 16.266-10.031 42.469 6.8906 54.938 121.18 95.016-23.672 258.84 64.031 398.02 1.2656 2.8594 2.9062 5.5312 4.8281 7.875 20.812 33.422 51.328 63.047 86.859 84.703-17.203 17.156-37.266 32.578-59.906 46.078-3.4688-23.203-14.156-51.609-51.797-74.578-5.9062-3.5625-11.906-7.1719-17.625-10.453-62.109-36.562-75.047-44.156-63.469-113.81 3.6094-21.234-10.828-41.531-32.156-45.141-20.719-3.9375-42.094 11.344-45.047 32.156-21.234 127.18 36.75 156.37 108.09 198.42 3.2344 1.875 6.5625 3.8438 10.078 5.9531 12.797 7.6406 13.828 14.297 14.25 16.969 2.7188 16.172-11.297 41.156-21.75 54.656-12.609 11.016-24.375 22.922-35.062 35.531-12.984-34.781-34.031-67.078-62.344-95.906-3.5156-4.2656-105.8-111.61-107.2-223.03 0-29.391 16.078-50.25 40.406-81.938 37.312-48.703 83.766-109.27 84-226.6-1.2188-51.469-76.547-52.312-78.234-0.23438-0.09375 38.812-6.2344 71.859-19.266 102.28-53.625-89.859-52.266-188.76-51.938-200.44 2.5312-34.172-39.891-54.656-64.969-31.453-7.875 6.9375-12.516 16.547-13.078 26.812-0.09375 1.5469-9.8438 151.18 84.562 277.82-27.984 36.703-59.531 75.469-59.766 133.82 0 38.109 9.0469 78.469 26.578 120.37-9.9844-4.5469-19.781-8.8594-29.016-12.938-15.469-15.844-73.172-82.547-56.766-180.66 7.3125-51.047-67.594-63.656-77.203-12.891-7.8281 47.016-4.2656 93 10.688 137.11-35.25-17.766-62.25-34.125-84.422-51.047 44.109-75.047 93.281-240.98 73.781-369.28-2.5312-20.766-23.953-36.609-44.438-32.812-20.906 2.5781-36.609 23.812-32.953 44.531 16.969 111.75-26.906 238.82-53.484 297.05-20.812-33.422-29.531-71.625-26.625-116.2 1.9688-20.906-15.422-40.734-36.422-41.625-21.75-1.3594-40.266 14.953-41.672 36.375-13.781 206.21 153.71 279.89 315.66 351.14 157.45 62.062 249.24 138.79 242.06 248.39-27-28.266-62.719-49.781-106.31-64.078-10.219-5.9062-86.766-52.219-99.234-112.31-4.3125-21.094-25.031-34.734-46.219-30.469-58.922 17.578-19.875 86.859 4.9688 122.11-62.859 1.7812-117.89-17.859-153.47-59.344-38.906-44.344-51.234-102.94-46.219-141.37 3.1406-20.859-12.938-41.531-33.984-43.781-21.281-2.5312-40.969 12.562-43.734 33.797-6.7031 51.984 6.3281 136.36 65.062 203.11 34.359 39.141 97.594 85.781 203.68 85.781 47.719 0 88.688 5.4375 123.79 16.5 59.156 16.453 106.27 65.859 109.69 118.27-0.14062 5.25-0.14062 12.328 0.1875 19.359-75.891 11.016-75-44.484-147.24-30.75-64.734 14.531-82.031 77.438-82.125 108.7 0 3.1875 1.2656 6.2344 3.5156 8.5312 2.25 2.25 5.2969 3.5156 8.4844 3.5156h577.31c5.1562 0 9.75-3.3281 11.391-8.25s-0.09375-10.312-4.2188-13.406c-5.7188-4.2188-131.39-96.281-259.36-90 30.281-32.391 78.422-71.156 140.95-79.547 84.75-11.297 172.74-33.703 182.86-114.52 1.3594-10.406-1.4531-20.672-7.875-28.922zm-512.34-435.24c5.1094-7.1719 16.594-16.969 8.8594-26.297-94.828-120.89-85.312-267.24-85.172-268.87 0.28125-8.0625 7.9688-14.953 16.031-14.25 8.25 0.46875 14.625 7.6406 14.109 16.688-0.42187 13.219-1.9688 132.05 67.547 232.45 2.3906 3.4219 6.4688 5.3906 10.547 5.1562 4.1719-0.23438 7.9219-2.625 9.8906-6.2812 21.188-39.234 31.078-81.328 31.219-132.42 0.28125-19.828 30.047-19.875 30.234 0.09375-0.23437 109.27-43.922 166.31-79.125 212.21-25.312 32.906-45.328 58.922-45.328 96.469 0 62.016 29.766 123.19 58.734 168.1-14.859-9.9844-44.25-27.469-52.969-32.062-23.906-47.953-36-93.75-36-136.03 0-47.625 24.891-80.156 51.469-114.89zm407.9 745.87h-523.45c3.2812-20.953 15.656-62.859 62.203-73.312 24.984-5.5781 37.078 1.5469 53.766 11.391 21.094 12.516 47.391 28.078 103.5 18.047 18.516-2.3906 44.344-12.891 65.812-16.734 90.281-16.547 188.21 30.984 238.22 60.562zm-73.734-190.97c-84.047 11.297-143.76 70.875-173.34 107.77-16.125 2.9531-33.562 9.8438-48.328 13.078 4.4062-69.891-52.078-135.84-128.39-156.89-36.188-11.344-79.641-17.109-129.19-17.109-172.26 1.6406-257.63-141.19-244.87-261.84 2.9531-19.547 32.203-15.891 30.094 3.8438-5.7656 43.781 8.1094 110.34 51.984 160.31 48.609 57.094 117.8 69.703 197.02 68.391 10.219 0.9375 16.828-12.562 9.5156-20.062-25.078-27.609-40.875-56.438-46.922-85.547-3.6094-19.641 25.266-25.406 29.672-6.0938 16.312 74.109 101.72 123.42 114.14 129.94 42.703 13.781 76.922 34.922 101.91 62.953 3.7969 4.125 7.2188 8.625 10.359 12.844 5.4375 7.7812 18.75 5.625 21.141-3.75 0.98438-3.6094 2.5781-7.2188 3.4688-11.016 43.5-334.45-583.64-254.11-555.71-617.29 1.6875-19.5 31.172-17.953 30.188 2.0625-3.7969 58.172 10.266 106.83 42.938 148.78 5.0156 6.7969 16.359 5.8125 20.062-1.7812 30.844-58.547 84.047-202.82 64.734-329.86-0.60937-3.9844 0.375-7.9688 2.7656-11.203 7.3125-10.453 25.688-6.5156 27.141 6.7031 18.703 123.32-31.641 293.95-75.938 361.97-3.3281 5.1562-2.2969 11.953 2.4844 15.844 30.422 24.797 69.094 47.672 125.34 74.156 9.7031 4.9688 20.906-6.1875 15.984-15.891-22.406-48.422-29.344-99.703-20.531-152.53 1.6875-12.938 20.062-17.156 27.234-6.2344 2.3438 3.2812 3.2812 7.2188 2.5781 11.203-18.938 113.34 50.906 189.19 65.062 203.26 19.5 10.875 42.75 19.125 64.406 30.094 9.4219 4.0781 84.656 49.641 120.05 81.844 32.156 32.719 54.469 69.609 65.016 109.22 2.25 9.4219 15.75 12.094 21.281 3.9844 13.406-18.234 29.062-35.203 46.547-50.344 4.875-5.5781 33.75-42.281 28.828-75.797-1.5-20.391-24.703-34.172-42.797-43.969-66.984-39.281-107.44-63-89.578-169.74 3.6094-19.688 32.812-14.531 29.859 5.1094-18.469 93.516 25.875 109.17 92.438 148.82 35.859 24 40.828 43.781 40.828 73.406-0.75 8.9531 9.7031 15.703 17.578 11.25 37.172-19.547 68.719-43.641 93.797-71.625 5.2031-5.5312 3.4688-15.234-3.2812-18.609-22.172-11.016-69.609-44.25-95.438-90.562-82.875-126.89 64.594-299.48-70.547-405.66-15.422-12 2.625-35.953 18.609-23.953 90.047 69.75 74.812 169.55 62.578 249.71-1.9688 10.641 11.672 18.188 19.641 10.969 17.531-14.859 40.641-24.844 68.766-29.578 47.016-7.9688 53.438-58.969 49.875-87.797-0.98438-8.2969 4.9219-15.891 13.266-16.875 7.9219-1.1719 15.938 4.9219 16.781 12.891 4.7344 36.844-4.7812 109.73-74.953 121.64-34.125 5.7656-57.375 19.734-71.062 42.656-24.984 42-8.7656 101.44-5.25 112.97 24 43.5 68.016 69.938 89.344 80.344 5.6719 2.7656 12.516 0.65625 15.703-4.7812 40.359-70.219 34.922-132.61 34.922-132.79-1.5469-19.5 27.984-22.594 30.188-2.8125 1.4531 18.75 8.5781 185.9-184.82 283.92-72.75 36.797-122.81 93.609-148.74 168.79-2.2031 9.8906-4.4531 19.828-7.5 28.875-4.0312 11.344 11.156 21.141 19.688 12.422 32.719-31.266 86.625-70.547 157.45-79.922 89.766-11.953 131.81-32.766 136.31-67.594 2.625-19.594 32.297-15.984 29.953 3.7969-8.1094 64.641-86.578 83.672-162.24 93.75z"/>
</svg>
