<?xml version="1.0" encoding="UTF-8"?>
<svg width="1200pt" height="1200pt" version="1.1" viewBox="0 0 1200 1200" xmlns="http://www.w3.org/2000/svg">
 <path d="m1149.4 853.08-161.06-203.39c-1.7812-2.0625-4.2188-3.4688-6.7031-4.3125-0.89062-5.1562-80.109 37.781-83.062 38.391 0.65625-14.25 2.9531-28.922-0.60938-42.938 27.188-15.422 66.891-35.156 71.625-66.469 28.031-25.172 57.938-60 61.547-96.609 198.61-152.26-64.219-379.18-132.98-400.18-7.2188-3.75-16.781 1.6406-17.156 9.9375 9.1875 25.875 27.703 49.969 17.766 80.391-1.2188 4.9219 0.84375 10.078 5.0625 12.844 18 11.531 27.234 31.688 23.766 51.938-1.3125 7.3125-1.5469 10.781 3.375 15.609 6.375 6.1406 22.078 15.938 23.531 25.453 4.5469 13.547-12.141 29.297-19.688 39.375-6.4219 12.422 5.3438 27.281-2.0625 40.922-14.109-33.188-24.047-69.234-61.688-81.375 13.594-58.641-33.75-104.44-25.172-168.94-20.812-59.062-132.94 163.64-61.219 296.86-46.125 47.438 68.391 92.578 108.14 100.45-4.7812 11.766-9 23.625-11.859 34.312-13.359 9.4688-32.25 29.297-45.844 47.062-43.781-9.6094-88.172-16.781-132.84-20.766l7.6875-26.859c26.766-6.7031 22.078-46.922-5.8594-47.062-20.531-0.70312-31.781 26.391-17.297 40.453l-9 31.453c-51.797-3.6562-103.73-3.6562-155.53 0l-9-31.453c14.531-14.062 3.2344-41.156-17.297-40.453-27.938 0.14062-32.625 40.312-5.8594 47.062l7.6875 26.859c-44.625 3.9375-89.062 11.109-132.84 20.766-14.297-18.562-32.953-37.781-45.844-47.062-4.6875-16.781-12.375-37.078-20.625-54 19.453-11.391 63.844-36.141 37.781-60.703 45.703-105.28-20.625-223.6-42.844-220.55-5.0625 1.7812-8.3906 6.6094-8.1562 12 6.1406 44.391-27.516 77.062-17.859 117.14-21.609 6.6094-31.266 27.609-38.062 45.938 8.8594-16.641-14.25-26.297-14.062-41.062 1.6875-11.625 22.688-15.469 19.688-28.781-3.1406-13.688 2.1562-28.219 14.766-36 4.2188-2.7656 6.2344-7.9219 5.0625-12.844-4.9219-18.703 2.1562-34.219 11.297-49.453 6-9.8438-5.7656-22.219-15.938-16.547-61.359 19.125-243.84 196.26-81.141 295.22 9.9375 32.297 33.938 65.766 61.453 88.688 4.9219 31.781 45.281 51.75 71.625 66.469-3.5625 14.062-1.2188 28.734-0.60938 42.938-11.25-0.70312-80.25-51.141-89.766-34.078l-161.06 203.39c-8.9531 10.641 6.0938 25.828 16.781 16.781l169.45-133.78c0.14062 0 79.688 40.781 79.781 40.688 0.375 1.4531 0.70312 2.7656 1.0781 4.2188-9.0469 4.0312-99.516 0.1875-100.45 15.609l-56.766 179.06c-4.2188 12.609 13.219 21.609 21.141 10.688l91.922-125.29 68.062-6.9375c3.8906 11.062 9.6562 21.516 16.922 30.703-7.4531 6.5625-98.953 28.875-95.531 43.922l-4.7812 177.71c-0.46875 13.219 18.703 17.156 23.297 4.5469l50.766-137.76 109.22-43.547c103.55 25.734 213.42 25.5 317.06 0l109.22 43.547 74.062 133.22-4.7812-177.71c3.75-14.672-88.453-37.922-95.531-43.922 7.2656-9.1875 13.031-19.688 16.922-30.703l68.062 6.9375 91.922 125.29c7.7812 10.781 25.312 2.0625 21.141-10.688l-56.766-179.06c-0.51562-15.234-91.875-11.906-100.45-15.609 0.375-1.4531 0.70312-2.7656 1.0781-4.2188 0.09375 0.14063 79.734-40.688 79.781-40.688l169.45 133.78c10.922 8.7656 25.688-5.8594 16.781-16.781zm-1016.2-65.625 81.609-103.08 7.3125 32.766zm823.92-234c-12.375-10.922-32.766-20.859-49.453-23.766 21.938-69.141 39.703-79.406 99.609-48.609-8.625 25.453-28.078 53.297-50.156 72.375zm-133.36-408.14c2.3906 41.953 28.125 72.844 25.828 111.14-10.922 33.844 13.172 38.062 36.469 51.844 10.453 22.312 20.297 44.766 30 67.922-19.219 10.547-57.469 17.625-106.55 19.453-50.297-91.453-12.375-196.55 14.297-250.31zm-27.562 277.31c91.359-12.234 173.29-7.5938 161.29-99.469 28.641-26.391 28.453-68.203-5.7656-88.781 3.4688-26.156-6.9375-52.312-27.938-68.859 2.5312-16.078 1.3125-32.156-3.2344-47.062 106.5 53.297 237.56 242.58 96.469 339.84-38.016-19.922-98.438-30.984-114 20.156-42.234-6.7031-81-26.859-106.78-55.781zm-533.16-63.844c20.672-7.4062 35.344-24.094 25.078-45.938 6-20.156 13.312-37.922 17.766-60 17.531 38.859 36.703 103.92 6.6094 161.29-33.703-1.3125-56.625-6-68.859-11.625 4.6875-11.062 11.156-25.688 19.453-43.688zm-134.29 13.078c0.9375-63.375 62.766-115.08 101.53-141.37-1.3125 7.6875-1.4531 15.609-0.375 23.531-14.156 12.141-21.469 30.234-19.547 48.703-23.906 14.953-24.328 45.797-4.2188 64.922-5.5781 61.312 42.516 67.219 111 70.781-8.625 8.7656-18.938 16.219-30.469 21.938-17.531-32.812-84.469-17.297-109.78 2.5312-31.688-16.453-48.844-48.234-48.141-91.078zm114.09 181.6c-22.078-19.078-41.531-46.922-50.156-72.375 60.234-30.891 77.438-20.484 99.609 48.609-16.688 2.8594-37.078 12.844-49.453 23.766zm3.1406 160.31-7.7812-34.688c0.14062 0 66.094 33.094 66.234 33 1.4531 11.438 3.2344 22.828 5.3906 34.219-0.046875 0.14063-63.75-32.531-63.844-32.531zm64.922-95.391c-20.625-9.9375-42.469-25.547-56.297-42.609 34.172-33.375 54.797-27.844 86.062 14.391 0 0.09375 0.046875 0.14062 0.14062 0.23437-12.469 6.4688-22.688 16.078-29.859 27.938zm-105.47 294.94 27.844-87.703 18.844 24.234zm67.078-76.312-20.766-26.625 72.609-5.8594c2.9062 8.8125 5.5781 17.719 8.7656 26.391l-60.609 6.1406zm11.625 197.29 2.2969-82.078 22.078 16.219zm40.547-83.906-24.609-18 77.062-28.922c8.0625 6.4688 17.109 11.297 26.625 15.234zm591.14 83.906-24.375-65.859 22.078-16.219zm-15.984-101.91-24.609 18-79.078-31.688c9.5625-3.9375 18.562-8.7656 26.625-15.234zm-50.25-125.16c-31.594 161.72-310.97 121.22-430.22 91.594-66.844-5.3438-126.14-245.72-75.844-282 155.72-52.641 332.76-42.516 492.71-9.75 77.531 29.719 24 141.1 13.312 200.16zm144.94 106.08-46.688-63.469 18.844-24.234zm-46.312-102.94-20.766 26.625-60.609-6.1406c3.1875-8.6719 5.8594-17.625 8.7656-26.391l72.609 5.8594zm-89.016-219.98c0.09375-0.09375 0.14062-0.14062 0.14062-0.23438 33.562-43.406 50.812-47.344 86.062-14.391-13.688 16.688-34.781 32.625-56.156 42.703-7.2188-11.859-17.391-21.609-30-28.078zm94.781 123.37c-0.14062 0-63.703 32.625-63.844 32.531 2.1562-11.344 3.9375-22.781 5.5312-34.219l66.141-33-7.7812 34.688zm23.859 3.375 7.3125-32.766 81.609 103.08z"/>
</svg>
