<svg width="205" height="205" viewBox="0 0 205 205" fill="none" xmlns="http://www.w3.org/2000/svg">
<path d="M155.124 122.175H131.069V102.877H132.633C135.317 102.877 137.501 100.695 137.501 98.01V89.2041C137.501 86.5201 135.318 84.3374 132.633 84.3374H123.828C121.144 84.3374 118.96 86.5201 118.96 89.2041V98.01C118.96 100.694 121.143 102.877 123.828 102.877H125.392V122.175H111.786C111.058 120.401 109.316 119.148 107.284 119.148H98.4768C96.4442 119.148 94.7017 120.401 93.9749 122.175H86.0206L83.5194 110.284C83.4988 110.186 83.4734 110.092 83.4427 109.997C82.726 107.775 80.6761 106.283 78.3425 106.283L50.5376 106.283C47.5834 106.283 45.1798 108.688 45.1798 111.643V158.403C45.1798 159.97 46.4497 161.24 48.0172 161.24C49.584 161.24 50.8545 159.969 50.8545 158.403L50.8552 111.959H78.0707L80.9395 125.596C81.2157 126.91 82.3749 127.85 83.7169 127.85H93.6091V132.82C93.6091 135.504 95.7919 137.688 98.4765 137.688H107.282C109.966 137.688 112.15 135.505 112.15 132.82V127.85H125.393V134.85C125.393 136.417 126.663 137.688 128.23 137.688C129.797 137.688 131.068 136.416 131.068 134.85V127.85H155.121C155.418 127.85 155.661 128.092 155.661 128.388V190.132C155.661 192.092 154.066 193.687 152.105 193.687H54.4069C52.4469 193.687 50.852 192.092 50.852 190.132V169.755C50.852 168.188 49.5807 166.918 48.0146 166.918C46.4477 166.918 45.1772 168.189 45.1772 169.755V190.132C45.1772 195.221 49.3186 199.363 54.4075 199.363H152.107C157.196 199.363 161.337 195.221 161.337 190.132L161.337 128.388C161.337 124.962 158.549 122.175 155.123 122.175L155.124 122.175ZM106.474 132.012H99.2847V124.823H106.474V132.012ZM124.635 97.2017V90.0127H131.824V97.2017H124.635Z" fill="#003A59"/>
<path d="M98.4753 92.2842H107.281C109.965 92.2842 112.149 90.1014 112.149 87.4168V78.6108C112.149 75.9269 109.966 73.7441 107.281 73.7441H98.4753C95.7913 73.7441 93.6079 75.9269 93.6079 78.6108V87.4168C93.6086 90.1014 95.7913 92.2842 98.4753 92.2842ZM99.2834 79.4196H106.472V86.6086H99.2834V79.4196Z" fill="#1D88A4"/>
<path d="M123.827 80.5547H132.633C135.317 80.5547 137.5 78.3719 137.5 75.6873V66.8814C137.5 64.1974 135.317 62.0146 132.633 62.0146H123.827C121.143 62.0146 118.959 64.1974 118.959 66.8814V75.6873C118.96 78.3719 121.143 80.5547 123.827 80.5547ZM124.636 67.6901H131.825V74.8791H124.636V67.6901Z" fill="#7A2D4A"/>
<path d="M159.118 96.4456H150.312C147.628 96.4456 145.444 98.6283 145.444 101.312V110.118C145.444 112.802 147.627 114.986 150.312 114.986H159.118C161.802 114.986 163.985 112.803 163.985 110.118V101.312C163.985 98.6283 161.802 96.4456 159.118 96.4456ZM158.31 109.31H151.121V102.121H158.31V109.31Z" fill="#7A2D4A"/>
<path d="M159.118 53.312H150.312C147.628 53.312 145.444 55.4948 145.444 58.1787V66.9847C145.444 69.6686 147.627 71.852 150.312 71.852H159.118C161.802 71.852 163.985 69.6693 163.985 66.9847V58.1787C163.985 55.4948 161.802 53.312 159.118 53.312ZM158.31 66.1766H151.121V58.9876H158.31V66.1766Z" fill="#A4832E"/>
<path d="M123.827 58.9871H132.633C135.317 58.9871 137.5 56.8043 137.5 54.1197V45.3137C137.5 42.6298 135.317 40.447 132.633 40.447H123.827C121.143 40.447 118.959 42.6298 118.959 45.3137V54.1197C118.96 56.8043 121.143 58.9871 123.827 58.9871ZM124.636 46.1224H131.825V53.3115H124.636V46.1224Z" fill="#003A59"/>
<path d="M73.1252 58.9871H74.6901V73.9322C74.6901 75.4991 75.9613 76.7696 77.5274 76.7696C79.0943 76.7696 80.3648 75.4984 80.3648 73.9322V58.9871H81.9297C84.6136 58.9871 86.7971 56.8043 86.7971 54.1197V45.3137C86.7971 42.6298 84.6143 40.447 81.9297 40.447H73.1237C70.4398 40.447 68.2563 42.6298 68.2563 45.3137V54.1197C68.2577 56.8043 70.4412 58.9871 73.1252 58.9871ZM73.9333 46.1224H81.1223V53.3115H73.9333V46.1224Z" fill="#003A59"/>
<path d="M47.4472 69.582V77.7166C47.4472 79.2835 48.7185 80.554 50.2846 80.554C51.8515 80.554 53.122 79.2827 53.122 77.7166V69.582H54.6868C57.3708 69.582 59.5542 67.3993 59.5542 64.7146L59.5549 55.9087C59.5549 53.2247 57.3721 51.042 54.6875 51.042H45.8815C43.1976 51.042 41.0142 53.2247 41.0142 55.9087V64.7146C41.0142 67.3986 43.1969 69.582 45.8815 69.582H47.4472ZM46.6905 56.7174H53.8795V63.9064H46.6905V56.7174Z" fill="#1D88A4"/>
<path d="M73.1252 37.4211H81.9311C84.6151 37.4211 86.7985 35.2384 86.7985 32.5538V23.7478C86.7985 21.0638 84.6158 18.8811 81.9311 18.8811H73.1252C70.4412 18.8811 68.2578 21.0638 68.2578 23.7478V32.5538C68.2578 35.2384 70.4412 37.4211 73.1252 37.4211ZM73.9333 24.5565H81.1223V31.7455H73.9333V24.5565Z" fill="#7A2D4A"/>
<path d="M98.4753 114.986H107.281C109.965 114.986 112.149 112.804 112.149 110.119V101.313C112.149 98.629 109.966 96.4463 107.281 96.4463H98.4753C95.7913 96.4463 93.6079 98.629 93.6079 101.313V110.119C93.6086 112.804 95.7913 114.986 98.4753 114.986ZM99.2834 102.122H106.472V109.311H99.2834V102.122Z" fill="#A4832E"/>
<path d="M107.282 183.099C109.966 183.099 112.149 180.916 112.149 178.232V169.426C112.149 166.742 109.966 164.559 107.282 164.559H98.4758C95.7918 164.559 93.6084 166.742 93.6084 169.426L93.6091 178.232C93.6091 180.916 95.7918 183.099 98.4764 183.099H107.282ZM99.284 170.235H106.473V177.424H99.284V170.235Z" fill="#1D88A4"/>
<path d="M98.4753 46.8801H107.281C109.965 46.8801 112.149 44.6974 112.149 42.0127V33.2068C112.149 30.5228 109.966 28.3401 107.281 28.3401H98.4753C95.7913 28.3401 93.6079 30.5228 93.6079 33.2068V42.0127C93.6086 44.6974 95.7913 46.8801 98.4753 46.8801ZM99.2834 34.0155H106.472V41.2045H99.2834V34.0155Z" fill="#A4832E"/>
<path d="M98.475 24.178H107.281C109.965 24.178 112.148 21.9952 112.148 19.3106L112.148 10.5046C112.148 7.82068 109.965 5.63794 107.28 5.63794H98.4743C95.7904 5.63794 93.6069 7.82068 93.6069 10.5046V19.3106C93.6083 21.9952 95.791 24.178 98.475 24.178ZM99.2831 11.3134H106.472V18.5024H99.2831V11.3134Z" fill="#A4832E"/>
<path d="M50.2846 85.0955C48.7178 85.0955 47.4473 86.3667 47.4473 87.9328V91.3382C47.4473 92.9051 48.7185 94.1756 50.2846 94.1756C51.8515 94.1756 53.122 92.9044 53.122 91.3382V87.9335C53.122 86.3666 51.8514 85.0955 50.2846 85.0955Z" fill="#1D88A4"/>
<path d="M131.067 150.742V144.688C131.067 143.121 129.797 141.85 128.229 141.85C126.661 141.85 125.392 143.122 125.392 144.688V150.742C125.392 152.309 126.662 153.579 128.229 153.579C129.797 153.58 131.067 152.309 131.067 150.742Z" fill="#003A59"/>
<path d="M77.5278 80.1755C75.9609 80.1755 74.6904 81.4468 74.6904 83.0129V86.0399C74.6904 87.6068 75.9617 88.8773 77.5278 88.8773C79.0947 88.8773 80.3652 87.606 80.3652 86.0399V83.0129C80.3652 81.4467 79.0946 80.1755 77.5278 80.1755Z" fill="#003A59"/>
</svg>
