<?xml version="1.0" encoding="UTF-8"?>
<svg width="1200pt" height="1200pt" version="1.1" viewBox="0 0 1200 1200" xmlns="http://www.w3.org/2000/svg">
 <path d="m1122 480c7.4062-22.641-1.5-47.438-21.562-60.281s-46.266-10.5-63.75 5.7188l-201.19 190.87-95.812-63 44.25-30.938c16.312-11.391 25.406-30.516 23.906-50.344-1.5-19.875-13.406-37.406-31.219-46.219l-251.63-124.5c-46.641-22.781-102.94-8.1562-132.56 34.5l-75 108.38c-92.906 29.109-172.6 90.047-225 172.13-23.203 30.656-23.203 73.031 0 103.69l26.438 34.875c74.297 97.453 189.84 154.55 312.37 154.31 49.266-0.046875 98.109-9.5625 143.81-27.938 0 0 131.26 18.75 133.13 18.75 27.984 0.32812 51.938-19.969 56.25-47.625l14.438-93.75 59.625-39.188 182.81 118.12c18.891 12.328 43.547 11.109 61.125-3 17.578-14.156 24.094-37.969 16.125-59.062l-21.75-58.688c-12.094-31.453-12.844-66.141-2.0625-98.062zm-698.63-122.81c18.891-27.422 55.078-36.844 84.938-22.125l251.63 124.31c5.9531 2.9062 9.9375 8.8125 10.453 15.422 0.51562 6.6562-2.5312 13.031-8.0156 16.828l-56.25 39.562-60.562-39.938c-80.672-53.25-178.22-74.625-273.74-60zm-120.94 490.31c60.703-68.906 83.25-163.45 60.188-252.37-2.5781-10.031-12.844-16.078-22.875-13.5s-16.078 12.844-13.5 22.875c20.625 80.766-1.7812 166.5-59.25 226.87-58.688-31.875-108.47-77.953-144.74-134.06-12.984-17.297-12.984-41.016 0-58.312l26.625-34.875c54.375-71.203 133.69-119.2 222-134.29 88.312-15.141 179.06 3.7031 254.06 52.734l202.5 133.69c4.0781 2.7656 6.5156 7.3594 6.5156 12.281 0 4.9219-2.4375 9.5156-6.5156 12.281l-202.5 132.94c-95.719 62.672-215.86 75.281-322.5 33.75zm424.31-1.6875c-1.5469 10.172-11.016 17.203-21.188 15.75l-71.062-9.75 101.44-66.188zm314.26-116.81 21.562 58.5c2.4375 5.9531 0.65625 12.844-4.3125 16.875-5.0156 4.0781-12.094 4.3594-17.438 0.75l-175.13-112.5c8.25-16.031 7.5469-35.25-1.875-50.625l198.74-188.63c4.2656-6.8906 13.266-9.0469 20.156-4.7812s9.0469 13.266 4.7812 20.156l-47.25 139.31c-13.641 39.188-13.359 81.891 0.75 120.94z"/>
 <path d="m225 600c-10.359 0-18.75 8.3906-18.75 18.75s8.3906 18.75 18.75 18.75 18.75-8.3906 18.75-18.75-8.3906-18.75-18.75-18.75z"/>
 <path d="m532.87 620.06-78 13.125c-10.359 1.6875-17.344 11.484-15.656 21.844s11.484 17.344 21.844 15.656l78-12.938c2.25-0.51562 4.5469 0.51562 5.6719 2.4844 1.1719 1.9688 0.9375 4.4531-0.60938 6.1406l-79.125 94.5c-5.8125 8.0156-4.4062 19.172 3.2344 25.453 7.6406 6.3281 18.891 5.5781 25.641-1.6406l78.938-94.875c11.156-13.828 12.703-33.094 3.8906-48.516-8.8594-15.422-26.25-23.859-43.828-21.234z"/>
</svg>
