<?xml version="1.0" encoding="UTF-8"?>
<svg width="1200pt" height="1200pt" version="1.1" viewBox="0 0 1200 1200" xmlns="http://www.w3.org/2000/svg">
 <path d="m253.97 927.28h-55.922v-42.844h55.922c2.2031-18 7.0781-35.156 14.297-51.094l-49.312-29.953 22.219-36.609 49.359 30c9-11.391 19.359-21.656 30.891-30.516l-30.188-51.047 36.844-21.797 30.141 51c15.375-6.75 31.875-11.344 49.172-13.453v-59.25h42.797v59.25c17.297 2.1094 33.797 6.7031 49.172 13.453l30.141-51 36.844 21.797-30.188 51.047c11.484 8.8594 21.891 19.125 30.891 30.516l49.359-30 22.219 36.609-49.312 29.953c7.2188 15.891 12.094 33.094 14.297 51.094h55.969v42.844h-55.969c-2.2031 18-7.0781 35.203-14.297 51.094l49.312 29.953-22.219 36.609-49.359-30c-9 11.391-19.359 21.656-30.891 30.516l30.188 51.047-36.844 21.797-30.141-51c-15.375 6.75-31.875 11.344-49.172 13.453v59.25h-42.797v-59.25c-17.297-2.1094-33.797-6.7031-49.172-13.453l-30.141 51-36.844-21.797 30.188-51.047c-11.531-8.8594-21.891-19.125-30.891-30.516l-49.359 30-22.219-36.609 49.312-29.953c-7.2188-15.891-12.141-33.094-14.297-51.094zm174.89-154.74c-73.594 0-133.36 59.766-133.36 133.36 0 73.594 59.766 133.31 133.36 133.31 73.594 0 133.36-59.766 133.36-133.31 0-73.594-59.766-133.36-133.36-133.36zm0 46.547c47.906 0 86.812 38.906 86.812 86.812s-38.906 86.812-86.812 86.812-86.812-38.906-86.812-86.812 38.906-86.812 86.812-86.812zm0 42.797c-24.281 0-43.969 19.734-43.969 43.969 0 24.281 19.688 43.969 43.969 43.969s43.969-19.688 43.969-43.969-19.688-43.969-43.969-43.969z" fill-rule="evenodd"/>
 <path d="m596.29 661.13h-55.969v-42.844h55.969c2.2031-18 7.0781-35.156 14.297-51.094l-49.312-29.953 22.219-36.609 49.359 30c9-11.391 19.359-21.656 30.891-30.516l-30.188-51.047 36.844-21.797 30.141 51c15.375-6.75 31.875-11.344 49.172-13.406v-59.25h42.797v59.25c17.297 2.1094 33.797 6.7031 49.172 13.406l30.141-51 36.844 21.797-30.188 51.047c11.531 8.8594 21.891 19.125 30.891 30.516l49.359-30 22.219 36.609-49.312 29.953c7.2188 15.938 12.141 33.094 14.297 51.094h55.922v42.844h-55.922c-2.2031 18-7.0781 35.156-14.297 51.094l49.312 29.953-22.219 36.609-49.359-30c-9 11.391-19.359 21.656-30.891 30.516l30.188 51.047-36.844 21.797-30.141-51c-15.375 6.75-31.875 11.344-49.172 13.453v59.25h-42.797v-59.25c-17.297-2.1094-33.797-6.7031-49.172-13.453l-30.141 51-36.844-21.797 30.188-51.047c-11.484-8.8594-21.891-19.125-30.891-30.516l-49.359 30-22.219-36.609 49.312-29.953c-7.2188-15.938-12.094-33.094-14.297-51.094zm174.89-154.74c-73.594 0-133.36 59.766-133.36 133.31 0 73.594 59.766 133.36 133.36 133.36 73.59 0 133.36-59.766 133.36-133.36 0-73.594-59.766-133.31-133.36-133.31zm0 46.547c47.906 0 86.812 38.906 86.812 86.812s-38.906 86.812-86.812 86.812-86.812-38.906-86.812-86.812 38.906-86.812 86.812-86.812zm0 42.844c-24.281 0-43.969 19.734-43.969 43.969 0 24.281 19.688 43.969 43.969 43.969s43.969-19.734 43.969-43.969c0-24.281-19.688-43.969-43.969-43.969z" fill-rule="evenodd"/>
 <path d="m331.45 315.52h-55.922v-42.844h55.922c2.2031-18 7.0781-35.203 14.297-51.094l-49.312-29.953 22.219-36.609 49.359 30c9-11.391 19.359-21.656 30.891-30.516l-30.188-51.047 36.844-21.797 30.188 51c15.375-6.75 31.875-11.344 49.172-13.453v-59.25h42.844v59.25c17.297 2.1094 33.797 6.7031 49.172 13.453l30.141-51 36.844 21.797-30.188 51.047c11.484 8.8594 21.891 19.125 30.891 30.516l49.359-30 22.219 36.609-49.312 29.953c7.2188 15.891 12.094 33.094 14.297 51.094h55.969v42.844h-55.969c-2.2031 18-7.0781 35.156-14.297 51.094l49.312 29.953-22.219 36.609-49.359-30c-9 11.391-19.359 21.656-30.891 30.516l30.188 51.047-36.844 21.797-30.141-51c-15.375 6.75-31.875 11.344-49.172 13.453v59.25h-42.844v-59.25c-17.297-2.1094-33.797-6.7031-49.172-13.453l-30.188 51-36.844-21.797 30.188-51.047c-11.531-8.8594-21.891-19.125-30.891-30.516l-49.359 30-22.219-36.609 49.312-29.953c-7.2188-15.891-12.094-33.094-14.297-51.094zm174.89-154.74c-73.594 0-133.31 59.766-133.31 133.31 0 73.594 59.766 133.36 133.31 133.36 73.594 0 133.36-59.766 133.36-133.36 0-73.594-59.766-133.31-133.36-133.31zm0 46.547c47.906 0 86.812 38.906 86.812 86.812s-38.906 86.812-86.812 86.812-86.812-38.906-86.812-86.812 38.906-86.812 86.812-86.812zm0 42.844c-24.281 0-43.969 19.688-43.969 43.969s19.688 43.969 43.969 43.969 43.969-19.734 43.969-43.969c0-24.281-19.734-43.969-43.969-43.969z" fill-rule="evenodd"/>
</svg>
