<?xml version="1.0" encoding="UTF-8"?>
<svg width="1200pt" height="1200pt" version="1.1" viewBox="0 0 1200 1200" xmlns="http://www.w3.org/2000/svg">
 <path d="m954.66 718.6c9.7031-55.828-5.0156-96-20.578-138.52-23.578-64.406-50.344-137.44-10.453-294.37 2.7188-9.3281-7.8281-18.188-16.547-13.922-1.5 0.65625-149.26 69.047-118.03 237.28 30.188 163.31-19.125 257.02-59.109 303.79-6-84.375-29.062-165-81.141-228.24 1.6875-100.78-15.703-209.76-62.812-295.31-71.531-130.08-71.016-228.14-71.016-229.13 0.32812-13.547-19.641-16.828-23.484-3.7031-1.875 6.1406-45.328 151.45-10.031 294.84 8.6719 35.156 15.047 68.297 19.312 99.891-55.453-51.188-110.67-132.32-150.89-351.28-0.14062-1.2656-0.46875-2.6719-0.84375-3.7031-4.4062-12.938-24.047-8.3438-23.109 5.0156-8.625 338.76 67.453 354.89 178.97 485.39-3.9375 43.5-13.406 84.281-28.547 123.71-108.14-93.234-162.47-73.172-200.53-323.58-0.375-11.719-16.688-15.609-22.125-5.2031-0.046874 0.046875-0.046874 0.09375-0.09375 0.14062-0.65625 1.1719-1.0781 2.3906-1.3594 3.7031-43.547 303.1 61.781 289.22 169.4 432.37-63.609 108.98-61.312 216.94-52.547 277.13-32.859 17.766-54.141 33.375-56.438 35.062-9.1406 6.375-4.125 22.031 7.1719 21.656h575.68c6.4219 0.14062 12.188-5.5781 12-12.047-0.09375-31.172-17.344-93.891-81.891-108.42-25.641-5.7656-42.609-0.98438-57.094 6.3281 45.984-120.24 163.31-189.42 186.05-318.94zm-302.11-87.422c37.922 59.297 52.5 135.05 55.125 210.28 0 0.5625 0 1.125 0.046875 1.6875 1.1719 35.344-0.1875 70.5-3.1875 103.73-0.14062 0.75-0.23438 1.5-0.23438 2.2969-3.8906 42.375-10.219 81.328-16.547 113.58-19.875-1.3594-35.766-5.1094-57.984-12.141 1.6406-63.984-0.14062-156.84-17.203-253.36 17.531-45.422 30.234-106.78 34.641-173.9 1.7812 2.625 3.5625 5.1562 5.2969 7.875zm-82.5 256.6c7.5-17.719 15.75-34.969 24.469-51.562 11.203 79.219 12.562 154.87 11.438 208.22-8.1562-1.8281-16.5-2.7656-24.75-3.5156 1.4062-46.359-0.60938-100.55-11.156-153.14zm-70.031-756.42c9.1875 42.703 27.703 101.72 64.969 169.5 45.703 83.016 62.25 188.9 60.281 286.36-2.9531 115.03-24.234 190.6-64.547 262.55-5.9062-20.297-13.359-39.938-22.688-58.406 102-172.74 19.688-452.76 6.3281-478.03-5.7188-14.578-27.75-6.5625-22.5 8.3906 7.6875 9.4219 90.094 285.14 1.7812 444.61-8.25-13.219-19.031-26.578-28.828-37.312 18.422-45.234 29.812-92.766 34.031-143.86 0.1875-0.79688 0.23438-1.5469 0.23438-2.3438 2.5781-33.094 2.1562-67.781-1.1719-104.11-3.8438-41.812-11.484-85.969-23.109-133.13-19.312-78.516-13.453-159.37-4.8281-214.26zm-23.812 388.26c-60.703-61.969-118.5-121.08-126.66-309.19 44.109 169.45 100.36 230.68 155.29 276.05 1.9219 22.641 2.625 44.438 2.1562 65.578-10.219-11.344-20.625-22.078-30.797-32.484zm-109.5 202.4c-57.234-52.547-107.72-99.047-99.703-249.37 32.156 140.16 84.234 176.06 138.84 213.66 129.89 77.531 155.86 212.53 151.36 353.72-15.797 0.09375-31.453 1.5469-46.828 4.125-2.2969-46.031-9.7031-102.7-28.688-157.55-19.125-63.516-67.922-125.44-114.94-164.58zm69.281 119.48c8.3438 15.516 15.375 31.641 21.281 48.047-20.203 41.156-38.109 91.688-25.547 156.37 3.3281 15.469 26.297 10.922 23.578-4.5938-8.9531-46.031-0.375-84.562 12.797-117.33 11.859 44.156 16.828 88.172 18.469 124.87-34.922 8.2969-67.406 21.281-94.641 34.453-6.9844-55.828-6.7031-147.74 44.062-241.82zm384.52 213.1c46.781 10.5 58.922 52.125 62.062 73.031h-521.9c49.875-29.484 147.47-76.781 237.47-60.281 33.234 7.3594 66.891 20.906 98.484 19.781 0.46875 0.046875 0.98438 0.14062 1.4531 0 33.422-0.23438 52.688-11.578 68.812-21.141 16.641-9.8438 28.688-16.969 53.578-11.391zm-83.062 0.046875c-7.1719 3.3281-15.234 6.0469-25.125 7.4531 6.0469-31.594 11.906-69.047 15.703-109.64 21.281-39.703 51.562-78.375 95.297-121.5 129.05-127.4 18.141-266.63 39.281-408.74 2.3906-15.422-20.719-19.688-23.672-4.0312-24.469 137.16 87.141 277.78-32.484 395.72-30.984 30.562-55.5 59.109-75.141 87.422 0.70312-18.094 0.89062-36.422 0.375-54.891 48.047-48.562 115.83-146.48 80.953-341.68-20.719-111.52 44.531-172.74 81.234-197.68-31.922 145.97-4.5938 220.64 17.625 281.29 15.094 41.156 28.078 76.688 19.5 126.14-26.25 134.72-156.37 204.19-193.55 340.18z"/>
</svg>
