<?xml version="1.0" encoding="UTF-8"?>
<svg width="1200pt" height="1200pt" version="1.1" viewBox="0 0 1200 1200" xmlns="http://www.w3.org/2000/svg">
 <path d="m1100 480c-62 0-104.36 40.719-145.34 80.121-31.66 30.441-64.379 62-106.38 74.98-11.227 3.4805-23.438 1.3828-32.859-5.6406-9.7305-7.0938-15.465-18.422-15.422-30.461 0.30469-43.59 14.703-85.906 41.039-120.64 38.488-51.48 59.184-114.08 58.961-178.36 0-79.566-31.605-155.87-87.867-212.13-56.262-56.262-132.57-87.867-212.13-87.867s-155.87 31.605-212.13 87.867c-56.262 56.262-87.867 132.57-87.867 212.13-0.22266 64.258 20.457 126.84 58.922 178.32 26.359 34.738 40.77 77.074 41.078 120.68 0.042969 12.039-5.6914 23.367-15.422 30.461-9.4023 7.0508-21.621 9.1484-32.84 5.6406-42-13.059-74.738-44.539-106.4-74.98-40.98-39.402-83.34-80.121-145.34-80.121-32.445-1.332-63.883 11.414-86.238 34.961-8.9531 9.9375-13.859 22.863-13.762 36.238-0.023438 15.902 6.9023 31.016 18.961 41.379 12.766 10.797 29.621 15.461 46.117 12.762 24.879-4.1602 56 1.1602 75.52 79.539h0.003906c7.7031 35.043 21.879 68.34 41.797 98.18-42.871-15.73-89.074-20.16-134.16-12.859-14.906 2.0117-28.336 10.062-37.137 22.262-9.168 12.637-12.852 28.434-10.223 43.82 1.707 9.8281 5.9531 19.039 12.32 26.719 12.809 15.23 32.672 22.625 52.32 19.48 15.57-2.5117 31.523-0.96094 46.32 4.5 26.625 10.254 49.875 27.703 67.16 50.398 30.168 36.145 72.297 60.273 118.74 68-53.676 21.152-99.035 59.156-129.26 108.3-5.6055 8.8203-8.5508 19.07-8.4805 29.52 0.070312 15.113 6.1289 29.582 16.855 40.23 10.723 10.648 25.23 16.609 40.344 16.57 9.8008 0.066406 19.445-2.4531 27.965-7.3047 8.5195-4.8477 15.609-11.855 20.555-20.316 8.0156-13.566 19.336-24.883 32.902-32.898 24.961-13.863 53.25-20.602 81.777-19.48 105.78 0 184.36-41.461 219.4-110.76h0.003906c12.363 24.602 30.316 45.965 52.418 62.383 49.141 33.703 107.84 50.668 167.38 48.379 73.5 0 103.4 32.82 114.64 52.34h-0.003907c4.9531 8.4688 12.047 15.484 20.574 20.344 8.5234 4.8555 18.176 7.3789 27.988 7.3164 10.184-0.003906 20.184-2.7188 28.973-7.8672 8.7891-5.1523 16.047-12.547 21.027-21.434 4.9453-8.6758 7.457-18.531 7.2656-28.52-0.1875-9.9844-3.0742-19.734-8.3477-28.219-30.258-49.246-75.691-87.336-129.46-108.54 46.457-7.7188 88.602-31.844 118.78-68 17.344-22.754 40.672-40.23 67.383-50.48 14.75-5.4375 30.664-6.957 46.18-4.4023 14.664 2.3633 29.668-1.1523 41.75-9.7891 12.086-8.6367 20.273-21.691 22.789-36.328 2.6836-15.445-0.99609-31.316-10.199-44-8.7773-12.18-22.168-20.219-37.043-22.242-45.113-7.3086-91.348-2.8906-134.26 12.84 19.922-29.848 34.098-63.152 41.801-98.199 19.641-78.34 50.621-83.762 75.719-79.48 16.469 2.6719 33.277-2.0078 46-12.801 12.004-10.375 18.883-25.473 18.84-41.34 0.125-13.266-4.7031-26.102-13.539-36-22.371-23.691-53.906-36.531-86.461-35.199zm55.02 82.18c-3.7617 3.1406-8.7031 4.4922-13.539 3.6992-59.34-9.8594-100.22 26.82-120.88 109.24-13.621 54.16-36 108.62-105.04 141.7l-0.003906 0.003906c-14.465-0.85156-28.445-5.5391-40.5-13.586-12.055-8.0469-21.746-19.16-28.078-32.195-7.457-15.227-16.391-29.684-26.68-43.16-3.1562-4.3789-7.9492-7.3008-13.289-8.0938-5.3398-0.79297-10.773 0.60547-15.066 3.875-4.293 3.2734-7.082 8.1445-7.7305 13.504-0.64844 5.3594 0.89844 10.754 4.2852 14.957 8.6406 11.328 16.156 23.473 22.441 36.258 9.9336 20.414 25.352 37.656 44.527 49.809 19.176 12.148 41.352 18.727 64.051 18.992 20.793 0.35547 41.348-4.4531 59.82-14 72.52-37.219 119.12-40.281 166.9-33.379 4.4531 0.83594 8.3828 3.4219 10.906 7.1836 2.5234 3.7617 3.4297 8.3789 2.5156 12.816-0.73438 4.125-3.0234 7.8086-6.3945 10.297-3.3711 2.4883-7.5664 3.5938-11.727 3.082-22.188-3.7148-44.961-1.6484-66.117 6-33.691 12.598-63.199 34.344-85.203 62.801-23.816 27.445-56.035 46.25-91.645 53.488s-72.613 2.5-105.25-13.469c-9.9922-13.59-16.277-29.547-18.242-46.301-15.52-144.04-91.84-145.7-95.078-145.7-5.1367 0.019531-10.059 2.0469-13.719 5.6523-3.6562 3.6016-5.7617 8.4922-5.8594 13.629-0.10938 5.2148 1.793 10.277 5.3125 14.133 3.5156 3.8555 8.3789 6.2109 13.586 6.5859 0.44141 0 44.621 4.5586 56 110.12 2.9453 25.406 12.906 49.488 28.758 69.559 0.14062 0.21875 0.19922 0.46094 0.35938 0.67969s0.28125 0.28125 0.39844 0.42188h0.003906c0.25781 0.35547 0.55859 0.67969 0.89844 0.95703 18.906 23.613 45.359 39.996 74.922 46.402 32.117 5.9648 62.645 18.531 89.652 36.906 27.008 18.371 49.906 42.152 67.246 69.832 1.5234 2.4414 2.3477 5.25 2.3945 8.125s-0.69141 5.707-2.1328 8.1953c-3.0312 4.9531-8.3281 8.0742-14.129 8.3242-5.8047 0.24609-11.348-2.4062-14.793-7.082-15.559-27.062-55.68-72.441-149.3-72.441-50.879 2.2422-101.13-11.91-143.36-40.379-37.359-28.133-58.406-72.906-56.238-119.62 0-7.1445-3.8125-13.746-10-17.32-6.1875-3.5742-13.812-3.5742-20 0-6.1875 3.5742-10 10.176-10 17.32 0 148.46-152.78 160-199.6 160-35.855-1.1836-71.344 7.5742-102.54 25.301-19.336 11.52-35.441 27.742-46.82 47.16-1.4258 2.3711-3.4609 4.3242-5.8945 5.6484-2.4336 1.3242-5.1758 1.9766-7.9453 1.8906-6.0078 0.015625-11.574-3.168-14.609-8.3516-3.0352-5.1875-3.0859-11.598-0.12891-16.828 17.312-27.652 40.176-51.414 67.145-69.773 26.973-18.359 57.461-30.918 89.535-36.887 30.316-6.4961 57.383-23.434 76.48-47.859 16.098-20.238 26.172-44.602 29.059-70.301 11.18-103.5 54-109.72 56-110 7.1445-0.12109 13.684-4.0469 17.152-10.293 3.4648-6.25 3.3359-13.875-0.33984-20-3.6797-6.1289-10.348-9.8281-17.492-9.707-3.2383 0-79.559 1.6602-95.059 145.48-1.9141 16.777-8.1602 32.766-18.121 46.398-32.652 16.012-69.688 20.77-105.33 13.535-35.641-7.2344-67.887-26.059-91.711-53.535-21.949-28.402-51.387-50.125-85-62.719-21.207-7.6289-44.012-9.6953-66.242-6-4.1953 0.51172-8.4297-0.60547-11.824-3.125-3.3945-2.5195-5.6914-6.25-6.4141-10.414-0.82422-4.418 0.13672-8.9805 2.6758-12.684 2.5391-3.707 6.4492-6.2539 10.863-7.0781 47.738-6.8203 94.32-3.8203 166.74 33.359 18.738 9.75 39.648 14.57 60.762 14 22.535-0.33984 44.531-6.9375 63.535-19.055 19.004-12.117 34.27-29.277 44.086-49.562 6.3086-12.859 13.855-25.07 22.539-36.461 3.3867-4.2031 4.9336-9.5977 4.2852-14.957-0.64844-5.3594-3.4375-10.23-7.7305-13.5-4.293-3.2734-9.7266-4.6719-15.066-3.8789-5.3398 0.79687-10.133 3.7148-13.289 8.0938-10.328 13.539-19.301 28.062-26.777 43.363-6.3281 12.988-16 24.062-28.02 32.078-12.02 8.0195-25.957 12.691-40.383 13.539-69.121-33.078-91.48-87.559-105.12-141.72-20.637-82.441-61.219-119.16-120.68-109.32-4.4766 0.89062-9.1211-0.21484-12.715-3.0273-3.5977-2.8125-5.7891-7.0508-6.0039-11.613-0.082031-3.3672 1.0781-6.6523 3.2617-9.2188 14.785-15.277 35.52-23.309 56.738-21.98 45.879 0 79.121 32 117.62 68.961 33.379 32.102 71.199 68.461 122.26 84.34h-0.003906c23.523 7.1484 49.039 2.7266 68.781-11.926 19.742-14.648 31.371-37.793 31.34-62.375-0.29297-52.199-17.469-102.91-48.961-144.54-33.32-44.586-51.234-98.801-51.039-154.46 0-68.957 27.395-135.09 76.152-183.85 48.758-48.758 114.89-76.152 183.85-76.152s135.09 27.395 183.85 76.152c48.758 48.758 76.152 114.89 76.152 183.85 0.19531 55.68-17.734 109.91-51.078 154.5-31.469 41.629-48.629 92.316-48.922 144.5-0.023438 24.586 11.609 47.727 31.352 62.375 19.746 14.652 45.266 19.074 68.789 11.926 51.039-15.879 88.859-52.238 122.24-84.34 38.5-36.961 71.742-68.961 117.62-68.961 21.332-1.3164 42.168 6.8086 56.98 22.219 2.2773 2.9492 3.3477 6.6602 2.9805 10.371-0.36328 3.7109-2.1328 7.1406-4.9414 9.5898z"/>
 <path d="m480 280c-21.219 0-41.566 8.4297-56.57 23.43-15 15.004-23.43 35.352-23.43 56.57s8.4297 41.566 23.43 56.57c15.004 15 35.352 23.43 56.57 23.43s41.566-8.4297 56.57-23.43c15-15.004 23.43-35.352 23.43-56.57s-8.4297-41.566-23.43-56.57c-15.004-15-35.352-23.43-56.57-23.43zm0 120c-10.609 0-20.781-4.2148-28.285-11.715-7.5-7.5039-11.715-17.676-11.715-28.285s4.2148-20.781 11.715-28.285c7.5039-7.5 17.676-11.715 28.285-11.715s20.781 4.2148 28.285 11.715c7.5 7.5039 11.715 17.676 11.715 28.285s-4.2148 20.781-11.715 28.285c-7.5039 7.5-17.676 11.715-28.285 11.715z"/>
 <path d="m800 360c0-21.219-8.4297-41.566-23.43-56.57-15.004-15-35.352-23.43-56.57-23.43s-41.566 8.4297-56.57 23.43c-15 15.004-23.43 35.352-23.43 56.57s8.4297 41.566 23.43 56.57c15.004 15 35.352 23.43 56.57 23.43s41.566-8.4297 56.57-23.43c15-15.004 23.43-35.352 23.43-56.57zm-80 40c-10.609 0-20.781-4.2148-28.285-11.715-7.5-7.5039-11.715-17.676-11.715-28.285s4.2148-20.781 11.715-28.285c7.5039-7.5 17.676-11.715 28.285-11.715s20.781 4.2148 28.285 11.715c7.5 7.5039 11.715 17.676 11.715 28.285s-4.2148 20.781-11.715 28.285c-7.5039 7.5-17.676 11.715-28.285 11.715z"/>
</svg>
