<?xml version="1.0" encoding="UTF-8"?>
<svg width="1200pt" height="1200pt" version="1.1" viewBox="0 0 1200 1200" xmlns="http://www.w3.org/2000/svg">
 <path d="m959.06 800.44c14.156-8.7188 22.688-24.328 22.312-40.969s-9.5156-31.828-24.094-39.938c-14.531-8.0625-32.297-7.8281-46.594 0.60938-14.344 8.4844-23.109 23.906-23.062 40.547 0 12.797 5.2969 25.031 14.625 33.75h-7.125c-6.0469 0.046875-11.906-2.0625-16.5-6l-62.812-52.688c-2.4844-2.4844-6.5156-2.4844-9 0l-1.5 1.875c1.3125-5.4375 2.25-10.922 2.8125-16.5 7.125-80.438-33.562-144.19-131.26-206.26l16.875-8.625c147-79.125 110.25-233.63 109.69-235.13-0.60938-3-3.3281-5.1094-6.375-5.0625h-62.062c-1.9688 0-3.8438 0.89062-5.0625 2.4375-1.3125 1.4062-1.875 3.375-1.5 5.25 3.7969 27.75 1.7344 55.969-6 82.875h-244.87c-7.7344-26.953-9.7969-55.266-6-83.062 0.375-1.875-0.1875-3.8438-1.5-5.25-1.2188-1.5469-3.0938-2.4375-5.0625-2.4375h-63c-3.0469 0-5.6719 2.1094-6.375 5.0625 0 1.5-37.5 156 109.88 235.13l17.438 9.375c-97.5 61.5-138.19 125.26-131.26 206.26 0.5625 5.5781 1.5 11.062 2.8125 16.5l-1.5-1.875c-2.4844-2.4844-6.5156-2.4844-9 0l-62.812 52.688c-4.5938 3.9375-10.453 6.0469-16.5 6h-7.125c9.3281-8.7188 14.625-20.953 14.625-33.75 0.046875-16.641-8.7188-32.062-23.062-40.547-14.297-8.4375-32.062-8.6719-46.594-0.60938-14.578 8.1094-23.719 23.297-24.094 39.938s8.1562 32.25 22.312 40.969c-39.703 14.625-64.219 54.562-59.25 96.562l1.6875 16.5c2.1562 18.469 15.281 33.844 33.188 38.812l2.0625 146.81c0 3.6094 2.9531 6.5625 6.5625 6.5625 19.922 0.046875 36.422-15.516 37.5-35.438l3.9375-54.562 7.125 54.938c2.4844 20.297 19.875 35.391 40.312 35.062 3.6094 0 6.5625-2.9531 6.5625-6.5625v-237.19c0-10.5 4.8281-20.391 13.125-26.812l54.562-42.562c8.4844-6.6094 13.828-16.453 14.812-27.188 0.09375-1.4531 0.09375-2.8594 0-4.3125 21.562 45.188 71.438 75.938 123.74 102.75-16.922 8.8594-33.234 18.844-48.75 30-72.562 54.188-72.75 103.12-72.75 165v39.562c-0.046875 1.7344 0.65625 3.4219 1.875 4.6875 1.2188 1.2656 2.9062 2.0156 4.6875 2.0625h51.938c1.7812 0 3.5156-0.75 4.6875-2.0625 1.2188-1.3125 1.9219-3.0469 1.875-4.875-2.25-27.984-0.1875-56.109 6.1875-83.438h247.87c6.5156 27.281 8.8594 55.453 6.9375 83.438-0.14062 1.8281 0.46875 3.6094 1.7344 4.9688 1.2188 1.3125 3 2.0156 4.8281 1.9688h51.938c1.7812-0.046876 3.4688-0.79688 4.6875-2.0625 1.2188-1.2656 1.9219-2.9531 1.875-4.6875v-39.562c0-61.875 0-110.81-72.75-165-15.516-11.156-31.828-21.141-48.75-30 52.312-26.812 102.19-57.562 123.74-102.75-0.09375 1.4531-0.09375 2.8594 0 4.3125 0.98438 10.734 6.3281 20.578 14.812 27.188l54.562 42.375c8.2969 6.4219 13.125 16.312 13.125 26.812v236.81c0 3.6094 2.9531 6.5625 6.5625 6.5625 20.156-0.046875 37.125-15.094 39.562-35.062l7.125-54.938 3.1875 54.562c0.79688 20.109 17.344 36 37.5 36 3.6094 0 6.5625-2.9531 6.5625-6.5625l2.0625-146.81c17.906-4.9688 31.031-20.344 33.188-38.812l1.6875-16.5c4.9688-42-19.547-81.938-59.25-96.562zm-727.31-39.75c0-13.641 8.2031-25.969 20.812-31.172 12.656-5.25 27.141-2.3438 36.797 7.3125s12.562 24.141 7.3125 36.797c-5.2031 12.609-17.531 20.812-31.172 20.812-18.656 0-33.75-15.094-33.75-33.75zm148.31 22.125-54.562 42.188c-11.766 8.8594-18.703 22.734-18.75 37.5v229.31c-10.547-3.0938-18.234-12.141-19.5-23.062l-15.375-120.19c-0.375-3.2812-3.0938-5.7188-6.375-5.8125-3.3281 0.14062-6 2.7188-6.375 6l-9 120c-0.79688 10.688-8.3438 19.688-18.75 22.312l-3-222.19c0-3.6094-2.9531-6.5625-6.5625-6.5625s-6.5625 2.9531-6.5625 6.5625v68.438c-10.922-4.4062-18.516-14.391-19.875-26.062l-1.875-16.312c-2.3906-21.188 3.7969-42.469 17.25-59.062 13.406-16.547 32.953-27.047 54.188-29.062h38.812c9.0938 0 17.953-3.1875 24.938-9l58.312-47.812c2.3438 4.3594 3.3281 9.3281 2.8125 14.25-0.46875 7.3125-3.9844 14.062-9.75 18.562zm337.5-412.5c-6.7969 18.516-17.25 35.484-30.75 49.875h-174.19c-13.359-14.484-23.766-31.453-30.75-49.875zm-117.56 103.31-35.812-17.062c-13.5-6.0469-26.109-13.875-37.5-23.25h146.63c-11.391 9.4219-24 17.25-37.5 23.25zm-88.125 21.75c-38.625-19.547-69.75-51.234-88.641-90.188-18.844-38.953-24.422-83.016-15.797-125.44h50.25c-2.8125 30-5.0625 140.44 101.06 188.81l26.438 12.375-16.875 9-6.75 3.5625c-9 4.875-17.625 9.75-25.688 14.625zm-106.88 225c-6.9375-77.438 34.688-138.94 134.44-199.5 18.75-11.25 39.938-22.875 63.375-34.5 12.375-6 25.125-12.188 38.438-18.75 19.688-8.625 37.5-21 52.5-36.375 0.5625-0.46875 1.0312-0.9375 1.5-1.5 35.672-41.391 52.688-95.672 47.062-150h50.25c8.5312 42.422 2.9531 86.484-15.891 125.39-18.891 38.953-49.969 70.641-88.547 90.234l-27.188 14.625-2.0625 0.9375c-21.938 11.812-42.75 22.875-62.062 33.75-84.375 47.062-159.37 95.438-147.56 171.19 8.0625 52.312 65.25 85.875 135.56 119.81-14.812 7.125-29.625 14.062-43.875 21.375-66.188-33.562-130.31-71.812-135.94-136.31zm195 108c-31.312-13.969-61.359-30.609-89.812-49.688h179.63c-28.453 19.078-58.5 35.719-89.812 49.688zm106.12-62.812h-212.26c-14.156-11.625-24.562-27.141-30-44.625h272.26c-5.4375 17.484-15.844 33-30 44.625zm32.25-57.75h-276.74c-1.5-16.922 2.2969-33.891 10.875-48.562h255c8.5781 14.672 12.375 31.641 10.875 48.562zm-257.26-61.688c13.922-17.156 30.281-32.203 48.562-44.625h140.44c18.375 12.375 34.781 27.422 48.75 44.625zm67.875-57.75c15.188-9.9375 32.25-20.062 51-30.562 18.75 10.5 35.812 20.625 51 30.562zm-69.188 413.81c2.9062-7.6875 6.75-15 11.438-21.75 6.6562-8.8125 14.203-16.922 22.5-24.188h172.31c8.3906 7.3125 15.984 15.516 22.688 24.375 4.6875 6.75 8.5312 14.062 11.438 21.75zm120.19-101.06c24.516 12 47.953 26.062 70.125 42h-140.26c22.172-15.938 45.609-30 70.125-42zm114.19 3.75c67.312 50.25 67.5 93.75 67.5 154.5v33.188h-37.5c1.6875-38.812-1.6875-88.688-24.75-119.81-28.688-33.703-64.5-60.703-104.81-78.938l21.938-10.875 22.688-11.25c19.172 9.5625 37.547 20.672 54.938 33.188zm80.812-184.13c-5.625 65.438-71.812 104.25-138.74 137.81l-25.5 12.562-33.562 16.688c-44.625 22.875-89.812 48.938-116.25 84.938-23.25 31.125-26.438 81-24.75 119.81h-37.5v-33.188c0-60.562 0-104.25 67.5-154.5 18.234-13.078 37.5-24.656 57.562-34.688 15.375-7.875 31.5-15.562 47.625-23.25l11.25-5.25c76.125-35.438 139.5-70.5 147.37-125.81 11.25-72.562-56.25-120.19-137.26-165.37l14.625-8.0625 8.0625-4.5 27.562-14.625c98.25 59.812 138.74 120.94 132 197.44zm105 39.938c0-13.641 8.2031-25.969 20.812-31.172 12.656-5.25 27.141-2.3438 36.797 7.3125s12.562 24.141 7.3125 36.797c-5.2031 12.609-17.531 20.812-31.172 20.812-18.609-0.09375-33.656-15.141-33.75-33.75zm104.62 135-1.875 16.312c-1.4062 11.297-8.6719 21-19.125 25.5v-68.438c0-3.6094-2.8125-6.5625-6.375-6.75-3.5625 0.1875-6.4688 3-6.75 6.5625l-3 222.19c-10.406-2.625-17.953-11.625-18.75-22.312l-8.8125-120.19c-0.375-3.2812-3.0469-5.8594-6.375-6-3.2812 0.09375-6 2.5312-6.375 5.8125l-14.438 120.37c-1.5 10.922-9.4219 19.828-20.062 22.688v-228.94c-0.046875-14.766-6.9844-28.641-18.75-37.5l-54.562-42.375c-5.8125-4.5469-9.3281-11.391-9.75-18.75-0.51562-4.9219 0.46875-9.8906 2.8125-14.25l56.25 48.188c6.9844 5.8125 15.844 9 24.938 9h38.812c21.234 2.0156 40.781 12.516 54.188 29.062 13.453 16.594 19.641 37.875 17.25 59.062z"/>
 <path d="m227.81 590.63c-0.09375 10.125 5.9531 19.266 15.281 23.156 9.2812 3.9375 20.062 1.8281 27.234-5.25 7.1719-7.125 9.3281-17.859 5.4844-27.234-3.8438-9.3281-12.938-15.422-23.062-15.422-13.688 0-24.844 11.062-24.938 24.75zm36.562 0c0.09375 4.8281-2.7656 9.1875-7.2188 11.062-4.4062 1.875-9.5625 0.89062-12.938-2.5312-3.4219-3.375-4.4062-8.5312-2.5312-12.938 1.875-4.4531 6.2344-7.3125 11.062-7.2188 6.4219 0 11.625 5.2031 11.625 11.625z"/>
 <path d="m344.06 625.87c9.9375-0.23438 18.797-6.375 22.453-15.656s1.4062-19.828-5.7188-26.766c-7.125-6.9844-17.719-9-26.906-5.1562-9.1875 3.8906-15.141 12.891-15.141 22.828 0 6.6562 2.6719 13.031 7.4531 17.719 4.7344 4.6406 11.203 7.1719 17.859 7.0312zm0-36.375c6.4219 0 11.625 5.2031 11.625 11.625s-5.2031 11.625-11.625 11.625-11.625-5.2031-11.625-11.625 5.2031-11.625 11.625-11.625z"/>
 <path d="m356.26 414.19c-9.9844 0.09375-18.938 6.1406-22.734 15.422-3.75 9.2344-1.5938 19.875 5.4844 26.906 7.0781 7.0312 17.719 9.0938 26.953 5.25 9.2344-3.8438 15.234-12.844 15.234-22.828 0-6.6094-2.625-12.938-7.3125-17.578s-11.016-7.2188-17.625-7.1719zm0 35.812c-4.6875-0.09375-8.8594-2.9531-10.594-7.3125-1.7344-4.3594-0.70312-9.3281 2.625-12.609 3.3281-3.2812 8.3438-4.2188 12.656-2.4375 4.3125 1.8281 7.125 6.0469 7.125 10.734 0 3.0938-1.2656 6.0938-3.4688 8.2969-2.2031 2.1562-5.25 3.375-8.3438 3.3281z"/>
 <path d="m344.63 533.44c0.09375-10.125-5.9531-19.266-15.328-23.203-9.3281-3.8906-20.109-1.7812-27.234 5.3906-7.1719 7.125-9.2812 17.906-5.3906 27.234 3.9375 9.375 13.078 15.422 23.203 15.328 6.5625 0 12.844-2.625 17.484-7.2656s7.2656-10.922 7.2656-17.484zm-24.75 11.625c-4.6875 0-8.9531-2.8125-10.734-7.1719-1.8281-4.3594-0.79688-9.3281 2.5312-12.656s8.2969-4.3594 12.656-2.5312c4.3594 1.7812 7.1719 6.0469 7.1719 10.734-0.09375 6.375-5.25 11.531-11.625 11.625z"/>
 <path d="m393.74 564.37c10.125 0.09375 19.266-5.9531 23.156-15.281 3.9375-9.2812 1.8281-20.062-5.25-27.234-7.125-7.1719-17.859-9.3281-27.234-5.4844-9.3281 3.8438-15.422 12.938-15.422 23.062 0 13.688 11.062 24.844 24.75 24.938zm0-37.5c4.8281-0.09375 9.1875 2.7656 11.062 7.2188 1.875 4.4062 0.89062 9.5625-2.5312 12.938-3.375 3.4219-8.5312 4.4062-12.938 2.5312-4.4531-1.875-7.3125-6.2344-7.2188-11.062 0.46875-6.0469 5.5312-10.688 11.625-10.688z"/>
 <path d="m922.5 590.63c0 10.031 6.0469 19.031 15.281 22.875s19.875 1.6875 26.953-5.3906 9.2344-17.719 5.3906-26.953-12.844-15.281-22.875-15.281c-13.688 0-24.75 11.062-24.75 24.75zm36.562 0c0.09375 4.7812-2.7656 9.1406-7.1719 11.062-4.4062 1.875-9.5156 0.89062-12.938-2.4375-3.4219-3.375-4.4531-8.4844-2.625-12.891 1.8281-4.4531 6.1406-7.3594 10.922-7.3594 6.4688 0 11.719 5.1562 11.812 11.625z"/>
 <path d="m855.94 625.87c10.031 0 19.031-6.0469 22.875-15.281s1.6875-19.875-5.3906-26.953-17.719-9.2344-26.953-5.3906-15.281 12.844-15.281 22.875c0 13.688 11.062 24.75 24.75 24.75zm0-36.375c4.6875 0 8.9531 2.8125 10.734 7.1719 1.8281 4.3594 0.79688 9.3281-2.5312 12.656s-8.2969 4.3594-12.656 2.5312c-4.3594-1.7812-7.1719-6.0469-7.1719-10.734 0-6.4219 5.2031-11.625 11.625-11.625z"/>
 <path d="m843.74 463.69c9.9844-0.09375 18.938-6.1406 22.734-15.422 3.75-9.2344 1.5938-19.875-5.4844-26.906-7.0781-7.0312-17.719-9.0938-26.953-5.25-9.2344 3.8438-15.234 12.844-15.234 22.828 0 6.6094 2.625 12.938 7.3125 17.578s11.016 7.2188 17.625 7.1719zm0-36.375c4.6875 0.09375 8.8594 2.9531 10.594 7.3125 1.7344 4.3594 0.70312 9.3281-2.625 12.609-3.3281 3.2812-8.3438 4.2188-12.656 2.4375-4.3125-1.8281-7.125-6.0469-7.125-10.734 0-3.0938 1.2656-6.0938 3.4688-8.2969 2.2031-2.1562 5.25-3.375 8.3438-3.3281z"/>
 <path d="m904.87 533.44c0-10.031-6.0469-19.031-15.281-22.875s-19.875-1.6875-26.953 5.3906-9.2344 17.719-5.3906 26.953 12.844 15.281 22.875 15.281c6.5625 0 12.844-2.625 17.484-7.2656s7.2656-10.922 7.2656-17.484zm-24.75 11.625c-4.6875-0.09375-8.8594-2.9531-10.594-7.3125s-0.70312-9.3281 2.625-12.609 8.3438-4.2188 12.656-2.4375c4.3125 1.8281 7.125 6.0469 7.125 10.734 0 3.0938-1.2656 6.0938-3.4688 8.2969-2.2031 2.1562-5.25 3.375-8.3438 3.3281z"/>
 <path d="m782.44 539.44c0 10.031 6.0469 19.031 15.281 22.875s19.875 1.6875 26.953-5.3906 9.2344-17.719 5.3906-26.953-12.844-15.281-22.875-15.281c-13.641 0.09375-24.656 11.109-24.75 24.75zm36.375 0c0 4.6875-2.8125 8.9531-7.1719 10.734-4.3594 1.8281-9.3281 0.79688-12.656-2.5312s-4.3594-8.2969-2.5312-12.656c1.7812-4.3594 6.0469-7.1719 10.734-7.1719 6.375 0.09375 11.531 5.25 11.625 11.625z"/>
 <path d="m664.31 105.38c-7.5938-11.391-23.016-14.438-34.406-6.8438s-14.438 23.016-6.8438 34.406c3.6094 5.4844 9.2812 9.2812 15.75 10.5 1.6406 0.1875 3.2344 0.1875 4.875 0 4.875 0 9.6562-1.5 13.688-4.3125 5.5781-3.5156 9.4219-9.2344 10.5-15.75 1.1719-6.2344-0.09375-12.656-3.5625-18zm-9.1875 15.938c-0.5625 3.0938-2.3906 5.8125-5.0625 7.5-5.3438 3.4688-12.469 2.0625-16.125-3.1875-1.7344-2.5781-2.3438-5.7656-1.6875-8.8125 0.5625-3.0469 2.3438-5.7188 4.875-7.5 1.9688-1.2656 4.2188-1.875 6.5625-1.875 3.8906 0 7.4531 2.0156 9.5625 5.25 1.7812 2.4844 2.4844 5.625 1.875 8.625z"/>
 <path d="m586.13 165.94c1.3594-6.4688 0.046875-13.219-3.5625-18.75-3.75-5.4375-9.4688-9.2344-15.938-10.5-6.4688-1.3594-13.219-0.046875-18.75 3.5625-5.4375 3.75-9.2344 9.4688-10.5 15.938-2.6719 13.172 5.625 26.062 18.75 29.062 1.6406 0.1875 3.2344 0.1875 4.875 0 11.766-0.1875 21.797-8.5312 24.188-20.062zm-12.75-2.4375c-0.70312 3-2.4844 5.625-5.0625 7.3125-2.5312 1.8281-5.7188 2.4844-8.8125 1.875-3-0.70312-5.625-2.4844-7.3125-5.0625-1.8281-2.5312-2.4844-5.7188-1.875-8.8125 0.70312-3 2.4844-5.625 5.0625-7.3125 2.1562-1.2656 4.6406-1.7812 7.125-1.5h2.4375c3 0.70312 5.625 2.4844 7.3125 5.0625 1.4531 2.5781 1.875 5.5781 1.125 8.4375z"/>
 <path d="m637.5 327.19h4.875c4.875 0.046875 9.6562-1.4062 13.688-4.125 11.438-7.6406 14.531-23.062 6.9375-34.5-3.75-5.4375-9.4688-9.2344-15.938-10.5-13.172-2.6719-26.062 5.625-29.062 18.75-2.5781 13.219 5.6719 26.109 18.75 29.25zm-7.125-27.188c0.46875-3.0938 2.25-5.8125 4.875-7.5 1.9219-1.3594 4.2188-2.0625 6.5625-2.0625h2.25c4.6875 0.89062 8.3438 4.5469 9.2344 9.1875 0.89062 4.6875-1.125 9.4219-5.1094 12-2.5312 1.6875-5.625 2.2969-8.625 1.6875-3.0938-0.5625-5.8125-2.3906-7.5-5.0625-1.6875-2.3906-2.2969-5.3906-1.6875-8.25z"/>
 <path d="m633.37 225c11.391-7.5938 14.438-23.016 6.8438-34.406s-23.016-14.438-34.406-6.8438c-10.875 7.8281-13.453 22.922-5.8125 33.938 3.5625 5.5781 9.2344 9.4688 15.75 10.688h4.875c4.4531 0 8.8594-1.1719 12.75-3.375zm-23.438-14.25c-3.5625-5.3438-2.1562-12.562 3.1875-16.125 1.875-1.3125 4.0781-2.0156 6.375-2.0625 3.9375 0 7.5938 1.9688 9.75 5.25 3.6094 5.3906 2.1562 12.656-3.1875 16.312-2.625 1.6875-5.7656 2.2969-8.8125 1.6875-3.0938-0.70312-5.7656-2.6719-7.3125-5.4375z"/>
 <path d="m560.44 215.06c-13.219-2.6719-26.156 5.625-29.25 18.75-1.4531 7.3125 0.42188 14.859 5.1562 20.578 4.7344 5.7656 11.766 9.0938 19.219 9.0469 4.875 0.046875 9.6562-1.4062 13.688-4.125 8.25-5.625 12.375-15.609 10.453-25.406s-9.5156-17.484-19.266-19.594zm2.0625 34.125c-5.3906 3.4688-12.609 2.0625-16.312-3.1875-1.6406-2.625-2.25-5.7656-1.6875-8.8125s2.3438-5.7188 4.875-7.5c1.9688-1.2656 4.2188-1.875 6.5625-1.875h2.25c3 0.65625 5.6719 2.3906 7.5 4.875 3.6094 5.4375 2.2031 12.797-3.1875 16.5z"/>
</svg>
