<?xml version="1.0" encoding="UTF-8"?>
<svg width="1200pt" height="1200pt" version="1.1" viewBox="0 0 1200 1200" xmlns="http://www.w3.org/2000/svg">
 <path d="m932.72 431.95c-74.25-35.062-150.61-20.344-209.58 4.125 47.859-65.297 88.828-140.9 177.32-132.14 19.969 1.6875 37.219-13.172 38.859-32.953s-13.172-37.266-32.906-38.859c-76.641-6.375-129.1 26.578-168.56 67.453 25.547-67.688 40.125-150.42-12.094-234.24-10.406-16.875-32.578-22.125-49.5-11.719-8.2031 5.0625-13.922 13.031-16.125 22.406-2.2031 9.4219-0.5625 19.125 4.5469 27.234 50.344 81.234 10.734 165.19-21.562 232.82 1.875-37.219 9.7031-76.125 28.172-112.03 15-27.328-13.781-61.078-43.031-50.719-24.656 8.3438-29.906 39.375-38.953 60.281-11.766-77.484-40.359-122.26-40.688-122.68-26.438-39.656-84.562-2.8594-61.125 37.875 3.9844 6.9375 38.812 70.594 34.406 169.6-0.60938 14.109-1.2656 29.484-1.4062 45.562-32.297-65.672-78.891-129.47-170.76-146.39-19.031-3.8906-38.812 9.7969-41.906 28.969-3.5625 19.5 9.3281 38.297 28.828 41.906 81.938 14.906 114.89 93.609 146.86 169.55-113.2-12.422-214.36 44.953-219 47.625-40.312 25.266-5.3438 84.938 36.234 62.297 0.9375-0.5625 84.469-47.203 173.16-38.25-3.6094 6.7031-3.3281 14.953-2.3438 22.359 15 159.79 8.1562 320.86-19.969 478.97-13.078-2.4844-26.109-5.2031-39.141-8.3906-16.219-4.1719-31.641 10.453-31.172 26.906v90.188c0 6.6094 5.3906 12 12 12h403.13c6.6094 0 12-5.3906 12-12v-90.188c0.42188-16.453-14.906-31.125-31.172-26.906-10.969 2.6719-21.984 4.9688-32.953 7.1719-28.078-157.55-34.875-318.71-19.828-479.34 1.875-10.969 0.1875-22.781-8.2969-30.656 44.953-24.656 120-53.859 185.9-22.688 43.406 19.078 73.031-43.875 30.75-65.156zm-248.34 104.39c1.4531 0.23438 2.9062-0.14062 4.3125-0.5625 5.6719-1.1719 12.469-1.4531 12.375 6.0469-2.3438 24.562-4.2188 49.172-5.5781 73.781-84.188 14.062-155.11 7.9219-195.14 1.6875-1.3594-24.656-3.2344-49.359-5.5781-73.969-0.23438-2.5781 1.0312-4.2656 1.8281-5.0156 0.84375-0.79688 2.5312-2.0156 5.25-1.6875 20.859 2.9531 43.125 5.0156 65.906 5.8594 1.0781 0.23438 2.1562 0.375 3.2812 0.09375 13.453 0.42188 27.656 0.51562 42.797 0.046875 0.42188 0.14062 0.79688 0.046875 1.1719-0.046875 14.438-0.46875 29.531-1.4531 45.234-3.0938 0.5625-0.046875 1.125-0.046875 1.6875-0.14062 7.3125-0.79688 14.859-1.8281 22.406-2.9062zm-181.55 214.45c56.953 8.5781 125.72 8.8125 190.13-1.6875 0.46875 28.078 1.6875 56.156 3.4688 84.141-84.422 14.203-156.19 8.1094-197.16 1.7344 1.8281-28.031 3.0469-56.109 3.5625-84.141zm189.89-26.016c-78 12.703-144.32 8.5781-189.56 1.6875 0.14062-28.312-0.51562-56.578-1.7344-84.891 54.516 8.5312 128.76 9.0469 193.08-1.7344-1.2188 28.312-1.875 56.625-1.7812 84.891zm-194.9 134.21c56.062 9.0469 133.74 9.75 200.16-1.8281 2.1562 27.844 5.1094 55.594 8.5312 83.297-94.031 17.531-172.78 9.75-217.31 1.8281 3.4688-27.703 6.4688-55.453 8.625-83.25zm406.6-602.95c15.656 1.5938 13.828 25.031-1.9688 23.953-120.42-10.359-155.53 98.906-222.28 168.28 4.125-18.75 10.312-39.609 19.594-62.016 0.32812-0.51562 0.75-1.0781 1.3594-1.875 45.609-64.312 97.453-137.21 203.29-128.39zm-219.37-165.47c-8.1562-13.453 11.766-25.969 20.344-12.609 87.234 148.13-31.078 255.56-51.047 376.18-3.7969-16.781-7.3594-36.562-9.5625-58.219 34.312-96.656 109.41-190.26 40.266-305.34zm-56.484 111.66c7.1719-13.922 28.547-3 21.375 10.969-30.328 59.016-34.219 125.29-29.203 180.89-0.046875 1.125 0.046875 2.1562 0.32812 3.2344 6.2344 63.891 24.047 112.92 26.438 119.11-8.5312 0.75-16.828 1.3125-24.938 1.6875-12.562-36.047-59.156-189.05 6.0469-315.89zm-120.61-65.906c-4.6875-7.0781 0.46875-17.438 8.8594-18.188 4.5938-0.51562 9 1.6406 11.578 5.7656 0.46875 0.75 46.969 74.109 41.344 197.16-2.3438 52.969-4.8281 112.92 18.328 166.69 3.3281 12.609 6.6094 23.156 9.2344 31.078-7.0312 0.046875-13.828 0-20.438-0.14062-36.844-64.781-33.562-142.18-31.031-199.4 4.5938-103.31-30.516-170.02-37.922-182.9zm-167.02 128.63c-15.422-3.1406-11.156-26.297 4.4062-23.672 106.36 19.594 146.63 113.58 178.78 189.74 3.7969 28.828 11.25 58.266 24.938 86.344-3.2344-0.23438-6.5156-0.42188-9.6094-0.70312-56.438-92.578-73.828-229.87-198.56-251.76zm-52.219 282.24c-13.828 7.5938-25.594-12.516-12.141-20.766 4.4062-2.5312 107.25-60.75 217.92-42.469 3.8906 9.375 8.4844 18.516 13.359 27.281-108.38-26.672-218.68 35.625-219.19 35.953zm494.06 498.79c0.32812 0.09375 1.5938 1.2188 1.5938 3.6094v78.188h-379.13v-78.188c0-2.3438 1.2656-3.5156 1.5469-3.6094 124.74 30.234 251.26 30.234 375.98 0zm-307.55-10.828c4.0781-22.969 7.6406-46.031 10.828-69.094 61.828 11.625 149.48 12.609 223.55-1.9219 3.2344 23.391 6.8438 46.734 10.969 70.031-81.609 13.594-163.74 13.922-245.39 1.0312zm452.9-565.5c-2.8125 5.9531-9.9375 8.5781-15.938 5.7656-89.062-42.141-189.19 10.453-230.95 37.172-2.9531 0.42187-5.8594 0.79687-8.7656 1.1719 0.046876-7.0781 0.375-15.516 1.2656-25.219 54.281-33.703 154.4-79.359 248.72-34.828 5.9531 2.8125 8.4844 9.9375 5.6719 15.938z"/>
</svg>
