<?xml version="1.0" encoding="UTF-8"?>
<svg width="1200pt" height="1200pt" version="1.1" viewBox="0 0 1200 1200" xmlns="http://www.w3.org/2000/svg">
 <path d="m517.18 244.92c-22.078 0-40.031 17.953-40.031 40.031 0 7.3594 5.9531 13.312 13.312 13.312s13.312-5.9531 13.312-13.312 6-13.359 13.359-13.359 13.359 6 13.359 13.359 5.9531 13.312 13.312 13.312 13.312-5.9531 13.312-13.312c0.09375-22.078-17.859-40.031-39.938-40.031z"/>
 <path d="m682.82 244.92c-22.078 0-40.031 17.953-40.031 40.031 0 7.3594 5.9531 13.312 13.312 13.312s13.312-5.9531 13.312-13.312 6-13.359 13.359-13.359 13.359 6 13.359 13.359 5.9531 13.312 13.312 13.312 13.312-5.9531 13.312-13.312c0.046875-22.078-17.906-40.031-39.938-40.031z"/>
 <path d="m966 722.11c0-39.141-31.828-70.969-70.969-70.969-3.9375 0-7.7812 0.46875-11.578 1.125l-98.859-77.625v-75.562c0-7.3594-5.9531-13.312-13.312-13.312h-109.17v-87.844h92.672c32.859 0 59.578-26.719 59.578-59.578l0.046875-201.71c0-32.859-26.719-59.578-59.578-59.578-27.047 0-50.766 18.281-57.656 44.484l-9.2344 35.391c-3.7969 14.484-16.922 24.609-31.875 24.609h-112.12c-14.953 0-28.078-10.125-31.828-24.562l-9.2812-35.391c-6.8438-26.203-30.562-44.484-57.656-44.484-32.859 0-59.578 26.719-59.578 59.578v201.61c0 32.859 26.719 59.578 59.578 59.578h92.672v87.844h-109.17c-7.3594 0-13.312 5.9531-13.312 13.312v75.562l-98.859 77.625c-3.7969-0.65625-7.6875-1.125-11.578-1.125-39.141 0-70.969 31.828-70.969 70.969 0 23.109 11.344 44.531 30.047 57.844l4.125 90.094c-5.0625 4.5-9.4219 9.5625-13.078 15.141-11.391 17.484-15.375 38.578-11.109 59.484l8.625 40.406c3.6562 17.25 19.125 29.719 36.703 29.719 2.8594 0 5.4375-0.28125 7.875-0.79688 20.25-4.3125 33.234-24.328 28.922-44.531l-8.5312-40.453c-0.1875-0.98438-0.046875-1.8281 0.60938-2.8594 0.5625-0.84375 1.3125-1.3594 1.9688-1.5 1.1719-0.23438 2.25-0.046875 2.8594 0.375 0.98438 0.70312 1.6406 1.5469 1.8281 2.4844l8.4844 40.453c4.3125 20.25 24.328 33.234 44.578 28.922 9.7969-2.1094 18.234-7.875 23.719-16.312s7.3594-18.469 5.25-28.266l-8.4844-40.453c-4.4062-20.578-16.5-38.25-34.266-49.828-2.8594-1.8281-5.9062-3.4688-9.1875-5.0156l-3.6562-81.328c15.469-13.406 24.562-32.953 24.562-53.625 0-1.7344-0.375-3.3281-0.51562-5.0156l39.938-31.359v115.31c0 7.3594 5.9531 13.312 13.312 13.312h18.047l-23.719 210.14c-0.89062 7.9219-7.5469 13.875-15.516 13.875h-15.984c-23.344 0-42.328 18.984-42.328 42.328s18.984 42.328 42.328 42.328h121.13c21.984 0 40.125-16.5 42.141-38.438l24.75-270.19h40.875l24.75 270.19c2.0156 21.938 20.109 38.438 42.141 38.438h121.13c23.344 0 42.328-18.984 42.328-42.328s-18.984-42.328-42.328-42.328h-15.984c-7.9688 0-14.625-6-15.516-13.875l-23.719-210.14h18.047c7.3594 0 13.312-5.9531 13.312-13.312v-115.31l39.938 31.406c-0.14062 1.6875-0.51562 3.3281-0.51562 5.0156 0 20.672 9.0938 40.172 24.562 53.625l-3.6562 81.328c-3.3281 1.5-6.3281 3.1875-9.2812 5.0625-17.625 11.531-29.766 29.203-34.172 49.828l-8.4844 40.359c-2.1094 9.7969-0.23438 19.875 5.25 28.312 5.4844 8.3906 13.875 14.203 23.719 16.312 20.203 4.2656 40.266-8.6719 44.578-29.016l8.4844-40.359c0.23437-1.0312 0.84375-1.875 1.4062-2.2969 1.0781-0.65625 2.1562-0.89062 3-0.70312 0.98437 0.1875 1.7344 0.75 2.3438 1.6875 0.60937 0.89062 0.75 1.7344 0.51562 2.7656l-8.4844 40.359c-4.3125 20.25 8.6719 40.266 28.922 44.578 2.4375 0.51562 5.0156 0.79688 7.875 0.79688 17.625 0 33.047-12.516 36.703-29.719l8.625-40.5c4.2656-20.766 0.28125-41.859-11.156-59.438-3.6094-5.4844-8.0156-10.547-13.031-15.047l4.125-90.047c18.938-13.219 30.328-34.734 30.328-57.844zm-705.32 0c0-24.422 19.875-44.297 44.297-44.297 3.8438 0 7.6406 0.51562 11.531 1.6406 16.219 4.3125 28.781 17.672 31.922 34.266 0.5625 2.7656 0.84375 5.5312 0.84375 8.3906 0 14.531-7.125 28.172-19.078 36.422-13.688 9.4219-32.062 10.312-46.641 2.3906-14.109-7.875-22.875-22.734-22.875-38.812zm111.7 195.28 8.4844 40.453c0.60938 2.8594 0.046875 5.7656-1.5 8.2031-1.5938 2.4375-4.0312 4.125-6.8906 4.7344-5.8594 1.3594-11.672-2.5312-12.938-8.3906l-8.4844-40.5c-1.6875-7.7344-6.2812-14.484-13.359-19.312-6.7031-4.1719-14.672-5.7188-22.734-4.125-7.9219 1.6875-14.719 6.375-19.031 13.078-4.5 6.8438-6.0469 15-4.3125 22.922l8.4844 40.453c1.2656 5.9062-2.5312 11.672-8.4375 12.938-0.60938 0.14062-1.3125 0.1875-2.2969 0.1875-5.1094 0-9.5625-3.6094-10.641-8.625l-8.625-40.219c-2.8125-13.828-0.23438-27.844 7.3125-39.375 3.2344-4.875 7.4531-9.3281 12.469-13.078 3.5156-2.625 5.4844-6.8438 5.2969-11.25l-3.8438-83.859c4.5 0.89062 9.0938 1.5 13.688 1.5 6.9375 0 13.781-1.0781 20.344-3l3.4688 76.828c0.23438 5.4375 3.7969 10.219 8.9531 12 4.875 1.6875 8.7188 3.4688 12 5.5781 11.625 7.5469 19.688 19.266 22.594 32.859zm42.984-265.64-47.625 37.406c-5.3906-10.219-13.266-18.938-22.781-25.453l70.359-55.266zm29.812-280.55c-18.141 0-32.953-14.766-32.953-32.953l0.046875-201.61c0-18.141 14.766-32.953 32.953-32.953 14.953 0 28.078 10.125 31.828 24.562l9.2812 35.391c6.8438 26.203 30.562 44.484 57.656 44.484h112.12c27.047 0 50.766-18.281 57.656-44.484l9.2344-35.391c3.7969-14.484 16.875-24.562 31.828-24.562 18.141 0 32.953 14.766 32.953 32.953v201.61c0 18.141-14.766 32.953-32.953 32.953zm190.31 26.672v87.844h-70.922v-87.844zm-107.25 684.19c-0.75 8.1094-7.4531 14.203-15.562 14.203h-121.13c-8.625 0-15.656-7.0312-15.656-15.656s7.0312-15.656 15.656-15.656h15.984c21.562 0 39.609-16.125 42.047-37.547l24.047-213.1h79.172zm264.24-17.062h15.984c8.625 0 15.656 7.0312 15.656 15.656s-7.0312 15.656-15.656 15.656h-121.13c-8.1562 0-14.812-6.0938-15.562-14.203l-24.562-267.74h79.172l24.047 213.1c2.4375 21.422 20.531 37.547 42.047 37.547zm-34.5-277.31h-315.94v-275.29h315.89zm74.25-98.531-47.625-37.406v-43.266l70.406 55.266c-9.5156 6.5625-17.391 15.234-22.781 25.406zm97.734 249.89-8.625 40.406c-1.0781 5.0156-5.5312 8.625-10.594 8.625-0.98438 0-1.7344-0.046875-2.2969-0.1875-5.9062-1.2656-9.6562-7.0781-8.4375-12.984l8.4844-40.359c1.7344-7.9688 0.1875-16.125-4.2656-22.875-4.4062-6.8438-11.156-11.531-19.406-13.266-7.7812-1.5-15.703 0-22.875 4.5-6.7031 4.5469-11.297 11.297-12.938 19.078l-8.4844 40.359c-1.2656 5.9062-7.0312 9.6562-12.938 8.4375-2.8594-0.60938-5.3438-2.2969-6.9375-4.7344s-2.1094-5.3438-1.5-8.25l8.4844-40.359c2.9062-13.641 10.922-25.359 22.547-32.953 3.375-2.1562 7.2188-3.9844 12.094-5.6719 5.1562-1.7812 8.7188-6.5625 8.9531-12l3.4688-76.828c6.5625 1.9688 13.406 3 20.344 3 4.5938 0 9.1406-0.60938 13.688-1.5l-3.8438 83.859c-0.1875 4.5 1.7812 8.7188 5.2969 11.344 5.0156 3.7969 9.1875 8.2031 12.375 13.031 7.5938 11.578 10.219 25.594 7.4062 39.328zm-13.359-178.18c-14.859 8.0625-33.141 7.0781-46.688-2.2969-12-8.2969-19.125-21.938-19.125-36.469 0-2.8594 0.28125-5.625 0.84375-8.5312 3.1406-16.453 15.656-29.859 32.156-34.219 3.6562-1.0312 7.4531-1.5469 11.297-1.5469 24.422 0 44.297 19.875 44.297 44.297-0.046875 16.078-8.8125 30.938-22.781 38.766z"/>
</svg>
