<?xml version="1.0" encoding="UTF-8"?>
<svg width="1200pt" height="1200pt" version="1.1" viewBox="0 0 1200 1200" xmlns="http://www.w3.org/2000/svg">
 <path d="m103.59 669.14c-8.4375 0-15.281-6.8438-15.281-15.281s6.8438-15.281 15.281-15.281h86.391v-30.75c0-8.4375 6.8438-15.281 15.281-15.281h64.969c8.4375 0 15.281 6.8438 15.281 15.281v30.75h41.391v-30.75c0-8.4375 6.8438-15.281 15.281-15.281h64.969c8.4375 0 15.281 6.8438 15.281 15.281v30.75h37.734v-30.75c0-8.4375 6.8438-15.281 15.281-15.281h64.969c8.4375 0 15.281 6.8438 15.281 15.281v30.75h89.438c8.4375 0 15.281 6.8438 15.281 15.281s-6.8438 15.281-15.281 15.281h-26.438v322.03h34.688c8.4375 0 15.281 6.8438 15.281 15.281s-6.8438 15.281-15.281 15.281h-558.05c-8.4375 0-15.281-6.8438-15.281-15.281s6.8438-15.281 15.281-15.281h35.438v-322.03zm494.72-256.82c-5.5312 6.375-4.8281 15.984 1.5469 21.516l5.3906 4.6406-30.844 35.766c-6.4688 6.9375-5.8125 16.734 0.79688 22.453l60.094 51.703 0.046875-0.046876c6.375 5.4844 15.984 4.7812 21.469-1.5938l31.594-36.656 5.3438 4.5938c6.375 5.5312 15.984 4.8281 21.516-1.5469l41.156-47.719 51.328 42.141c22.828 18.703 56.625 15.375 75.328-7.4062l6.2344-7.5938h72.516c15.656 0 26.25 15.938 31.359 36.375 4.5938 18.375 4.5938 40.547 0 58.969-5.1094 20.391-15.703 36.375-31.359 36.375h-162.32c-8.4375 0-15.281 6.8438-15.281 15.281v130.13l-133.13-0.046875c-8.4375 0-15.281 6.8438-15.281 15.281v106.45c0 8.4375 6.8438 15.281 15.281 15.281h403.31c8.4375 0 15.281-6.8438 15.281-15.281v-106.45c0-8.4375-6.8438-15.281-15.281-15.281h-133.13v-33.75c106.55 11.766 198.71-71.25 198.71-177.47 0-111.52-100.97-195.47-210.24-175.82l-48-39.375 24.703-28.641c5.5312-6.375 4.8281-15.984-1.5469-21.516l-6.0938-5.25 20.578-23.859c15.797-18.328 13.734-46.031-4.5469-61.781-5.1094-4.4062-10.453-8.7656-15.422-13.266-9.1875-7.875-20.672-11.344-31.781-10.5-10.781 0.79688-21.234 5.5312-29.016 14.016l-0.23438 0.23438c-7.2188 8.1562-14.297 16.453-21.375 24.703l-6-5.1562c-6.375-5.5312-15.984-4.8281-21.516 1.5469zm221.86-175.03 21.141-24.469c4.125-4.7344 12.984-5.25 17.578-1.3125l16.031 13.781c5.4844 4.7344 6.1406 13.312 1.4062 18.75l-20.625 23.906zm21.656 129.05 48.891 40.078c9.75 8.0156 11.25 22.688 3.2344 32.438l-34.406 41.953c-8.0156 9.75-22.688 11.25-32.438 3.2344l-50.812-41.672zm-176.53 123.89-21.609 25.078-36.938-31.828 21.609-25.078zm117.33-245.02 70.781 60.984-151.26 175.5-70.781-60.984zm32.203 524.44v-114.84h75.891v114.84zm224.29 30.609h-372.71v75.891h372.71zm-117.84-145.45h40.594c87.328 0 87.328-192.84 0-192.84h-47.438l3.0938-3.75c11.109-13.547 14.578-31.172 10.453-47.297 87.047-7.6406 161.44 60.562 161.44 147.47 0 89.625-78.891 158.63-168.1 146.76zm-430.45 182.48c3.5625-7.3125 2.0625-20.438 13.406-33.938 5.3906-6.4219 12.75-10.875 21-11.766v-168.52h-34.406zm34.406-10.219c-3.5625 8.3438-1.8281 19.594-12.891 32.859-5.5781 6.6562-13.125 11.297-21.516 12.562v25.781c0 19.078 13.453 25.875 24.047 20.906 5.8125-2.7188 10.359-9.6094 10.359-20.906zm-64.969-157.92h-37.734v229.13c0 42.422-37.5 62.625-67.547 48.516-15.75-7.4062-28.031-23.672-28.031-48.516v-229.13h-41.391v229.13c0 42.422-37.5 62.625-67.547 48.516-15.75-7.4062-28.031-23.672-28.031-48.516v-229.13h-28.688v322.03h426.89l0.046874-322.03h-32.438v229.13c0 42.422-37.5 62.625-67.547 48.516-15.75-7.4062-28.031-23.672-28.031-48.516v-229.13zm-102.7 73.219c3.5625-7.3125 2.0625-20.438 13.406-33.938 5.3906-6.4219 12.75-10.875 21-11.766v-73.594h-34.406zm34.406-10.219c-3.5625 8.3438-1.8281 19.594-12.891 32.859-5.5781 6.6562-13.125 11.297-21.516 12.562v120.66c0 19.078 13.453 25.875 24.047 20.906 5.8125-2.7188 10.359-9.6094 10.359-20.906l-0.046875-166.08zm-171.37 46.312c3.5625-7.3125 2.0625-20.438 13.406-33.938 5.3906-6.4219 12.75-10.875 21-11.766v-109.64h-34.406zm34.406-10.266c-3.5625 8.3438-1.8281 19.594-12.891 32.859-5.5781 6.6562-13.125 11.297-21.516 12.562v84.609c0 19.078 13.453 25.875 24.047 20.906 5.8125-2.7188 10.359-9.6094 10.359-20.906z" fill-rule="evenodd"/>
</svg>
