<?xml version="1.0" encoding="UTF-8"?>
<svg width="1200pt" height="1200pt" version="1.1" viewBox="0 0 1200 1200" xmlns="http://www.w3.org/2000/svg">
 <path d="m494.53 581.06c0.32812 4.1719-2.8125 7.8281-7.0312 8.1094-1.5938 0.14062-3.1875 0.1875-4.7344 0.1875-26.906 0-47.344-17.016-53.953-34.828-1.4531-3.9375 0.51562-8.2969 4.4531-9.75s8.2969 0.51562 9.75 4.4531c4.9219 13.219 21.844 26.438 43.406 24.844 4.1719-0.28125 7.8281 2.8125 8.1094 7.0312zm581.48-35.016c0.28125 37.688-30.141 68.531-67.781 68.812h-0.51562c-24.703 0-46.359-13.219-58.359-33l-107.02 49.312c7.5938 9.9844 13.547 21.516 17.062 34.312 14.766 53.672-16.875 109.36-70.594 124.13-8.9062 2.4375-17.906 3.6094-26.766 3.6094-3.375 0-6.7031-0.23438-10.031-0.5625l13.266 129.37c22.875-2.2969 46.453 6.4688 62.016 25.547 24.703 30.234 20.156 74.859-10.031 99.562-13.125 10.734-28.969 15.938-44.719 15.938-20.531 0-40.875-8.8594-54.844-25.969-11.953-14.625-17.484-33.047-15.609-51.844s11.016-35.766 25.641-47.719c4.7812-3.8906 9.9375-6.9844 15.281-9.4219l-14.438-140.68c-30.188-10.641-54.844-35.344-63.938-68.438-6.4688-23.438-4.2188-47.906 6.0469-69.656l-104.48-63.984c-12.891 16.547-30.938 29.344-52.688 35.344-8.9062 2.4375-17.906 3.6094-26.766 3.6094-44.344 0-85.078-29.438-97.406-74.203-1.5-5.3906-2.3906-10.828-2.9531-16.219l-130.69-1.0312c-1.4531 6.4219-3.5156 12.75-6.8438 18.609-8.8125 15.516-23.156 26.672-40.359 31.406-5.9062 1.6406-11.859 2.3906-17.672 2.3906-29.297 0-56.297-19.5-64.406-49.078-4.7344-17.203-2.4844-35.203 6.3281-50.719s23.156-26.672 40.359-31.406 35.203-2.4844 50.719 6.3281 26.672 23.156 31.406 40.359c0.84375 3.0938 1.2188 6.2344 1.5938 9.375l129.71 0.98438c4.875-39.422 32.812-73.969 73.406-85.172 8.4844-2.3438 17.016-3.375 25.453-3.5156l17.438-157.22c-15.609-5.6719-28.453-16.594-36.188-31.406-8.2031-15.703-9.7969-33.656-4.5-50.531 5.2969-16.922 16.875-30.75 32.578-38.953 15.703-8.2031 33.656-9.7969 50.531-4.5 34.875 10.922 54.375 48.234 43.453 83.109-8.8594 28.312-35.109 46.5-63.328 46.5h-0.09375l-17.203 155.26c35.531 7.7344 65.719 34.406 76.031 71.859 6.6094 24.047 3.8438 48.422-5.9531 69.422l104.53 63.984c13.266-16.969 31.453-29.297 52.594-35.109 32.531-8.9531 65.766-0.75 90.188 18.984l115.41-53.156c-0.9375-4.4062-1.4531-9-1.5-13.688-0.28125-37.688 30.141-68.531 67.781-68.812h0.51562c37.453 0 68.016 30.328 68.297 67.781zm-563.58-301.26c22.922 7.1719 47.391-5.625 54.609-28.547 7.1719-22.922-5.625-47.391-28.547-54.609-4.3125-1.3594-8.7188-2.0156-13.078-2.0156-6.9375 0-13.781 1.6875-20.109 4.9688-10.312 5.3906-17.906 14.484-21.375 25.594s-2.4375 22.875 2.9531 33.188 14.484 17.906 25.594 21.375zm-279.14 262.08c-3.1406-11.344-10.453-20.812-20.672-26.625-6.7031-3.8438-14.156-5.7656-21.703-5.7656-3.9375 0-7.875 0.51562-11.766 1.5938-11.344 3.1406-20.812 10.453-26.625 20.672s-7.3125 22.125-4.1719 33.422c6.4219 23.391 30.703 37.219 54.141 30.797 23.391-6.4219 37.219-30.703 30.797-54.141zm328.87-4.2188c-11.438-41.578-54.562-66.094-96.141-54.656-41.578 11.438-66.094 54.562-54.656 96.141s54.562 66.094 96.141 54.656c41.578-11.438 66.094-54.562 54.656-96.141zm199.08 443.29c-1.4062 0.89062-3 1.5-4.7344 1.6875-0.23437 0.046875-0.46875 0.046875-0.75 0.046875-4.7812 1.7812-9.4219 4.1719-13.594 7.5469-9.9375 8.1094-16.125 19.594-17.391 32.344-1.2656 12.75 2.4844 25.266 10.594 35.156 16.734 20.484 47.062 23.531 67.547 6.7969 20.484-16.734 23.531-47.062 6.7969-67.547-12.047-14.766-31.078-20.297-48.469-16.125zm76.219-274.4c-5.5312-20.156-18.609-36.938-36.75-47.25-18.141-10.312-39.234-12.984-59.391-7.4062-20.156 5.5312-36.938 18.609-47.25 36.75s-12.984 39.234-7.4062 59.391c11.438 41.578 54.562 66.094 96.141 54.656 41.578-11.438 66.094-54.562 54.656-96.141zm215.81-125.34c-0.1875-24.984-20.578-45.234-45.562-45.234h-0.32812c-25.125 0.1875-45.422 20.766-45.234 45.891 0.1875 24.984 20.578 45.234 45.562 45.234h0.32812c25.125-0.1875 45.422-20.766 45.234-45.891zm-441.24 115.5c5.3906 19.688-6.1875 40.125-25.875 45.516-3.2812 0.89062-6.5625 1.3125-9.7969 1.3125-16.266 0-31.219-10.781-35.719-27.188-5.3906-19.688 6.1875-40.078 25.875-45.516 9.5156-2.625 19.5-1.3594 28.125 3.5156 8.5781 4.875 14.766 12.844 17.391 22.359zm-21.938 6.0469c-1.0312-3.6562-3.375-6.75-6.7031-8.625s-7.1719-2.3438-10.828-1.3594c-7.5938 2.0625-12.047 9.9375-9.9844 17.531 2.1094 7.5938 9.9375 12.047 17.531 9.9844 7.5938-2.1094 12.047-9.9375 9.9844-17.531zm-268.45-26.531c6.8906 24.984-7.875 50.906-32.859 57.797-4.1719 1.125-8.3438 1.6875-12.469 1.6875-20.625 0-39.609-13.734-45.328-34.547-6.8906-24.984 7.875-50.906 32.859-57.797 24.984-6.8906 50.906 7.875 57.797 32.859zm-21.938 6.0469c-3.5625-12.891-16.922-20.531-29.812-16.969s-20.484 16.922-16.969 29.812c3.5625 12.891 16.922 20.484 29.812 16.969 12.891-3.5625 20.484-16.922 16.969-29.812zm272.53 127.22c2.625 9.5156 1.3594 19.5-3.5156 28.125-4.875 8.5781-12.844 14.766-22.359 17.391-3.2812 0.89062-6.5625 1.3594-9.8906 1.3594-6.3281 0-12.609-1.6406-18.234-4.875-8.5781-4.875-14.766-12.844-17.391-22.359s-1.3594-19.5 3.5156-28.125c4.875-8.5781 12.844-14.766 22.359-17.391s19.5-1.3594 28.125 3.5156c8.5781 4.875 14.766 12.844 17.391 22.359zm-21.938 6.0469c-1.0312-3.6562-3.375-6.75-6.7031-8.625-2.1562-1.2188-4.5938-1.875-7.0312-1.875-1.2656 0-2.5312 0.1875-3.7969 0.51562-3.6562 1.0312-6.75 3.375-8.625 6.7031s-2.3438 7.1719-1.3594 10.828c2.1094 7.5938 9.9375 12.047 17.531 9.9844 7.5938-2.1094 12.047-9.9375 9.9844-17.531zm-311.34-467.48c-2.8594-10.359-1.5-21.188 3.7969-30.516s13.922-16.031 24.281-18.891c21.375-5.8594 43.5 6.7031 49.406 28.078 5.8594 21.375-6.7031 43.5-28.078 49.406-3.5625 0.98438-7.125 1.4531-10.734 1.4531-6.8906 0-13.641-1.7812-19.781-5.25-9.3281-5.2969-16.031-13.922-18.891-24.281zm21.938-6.0469c1.2188 4.5 4.125 8.2031 8.2031 10.547 4.0312 2.2969 8.7656 2.9062 13.219 1.6406 9.2812-2.5312 14.719-12.141 12.188-21.422-2.1094-7.7344-9.1406-12.797-16.781-12.797-1.5469 0-3.0938 0.1875-4.5938 0.60938-4.5 1.2188-8.2031 4.125-10.5 8.2031-2.2969 4.0312-2.9062 8.7656-1.6406 13.219zm78.562 86.859c2.4844 9.0938 1.3125 18.656-3.375 26.859s-12.234 14.109-21.375 16.594c-3.1406 0.84375-6.2812 1.2656-9.375 1.2656-15.516 0-29.812-10.312-34.125-25.969-5.1562-18.797 5.9062-38.297 24.703-43.453s38.297 5.9062 43.453 24.703zm-37.453-2.7656c-6.7031 1.8281-10.641 8.8125-8.8125 15.469 1.8281 6.7031 8.8125 10.641 15.516 8.8125 3.2344-0.89062 5.9531-3 7.5938-5.9062s2.1094-6.3281 1.2188-9.5625c-1.8281-6.7031-8.8125-10.641-15.516-8.8125zm74.109-64.266c-2.4844-9.0938-1.3125-18.656 3.375-26.859s12.234-14.109 21.375-16.594c18.797-5.1562 38.297 5.9062 43.453 24.703s-5.9062 38.297-24.703 43.453c-3.0938 0.84375-6.2812 1.2656-9.4219 1.2656-6.0469 0-12-1.5469-17.438-4.6406-8.2031-4.6875-14.109-12.234-16.594-21.375zm21.938-6.0469c0.89062 3.2344 3 5.9531 5.9062 7.5938s6.3281 2.1094 9.5625 1.2188c6.7031-1.8281 10.641-8.8125 8.8125-15.516-1.5469-5.5781-6.6094-9.2812-12.141-9.2812-1.125 0-2.2031 0.14062-3.3281 0.46875-3.2344 0.89062-5.9531 3-7.5938 5.9062s-2.1094 6.3281-1.2188 9.5625zm577.36 354.47c5.1562 18.797-5.9062 38.297-24.703 43.453-3.1406 0.84375-6.2812 1.2656-9.375 1.2656-15.516 0-29.812-10.312-34.125-25.969-2.4844-9.0938-1.3125-18.656 3.375-26.859s12.234-14.109 21.375-16.594c9.0938-2.4844 18.656-1.3125 26.859 3.375s14.109 12.234 16.594 21.375zm-21.938 6.0469c-0.89062-3.2344-3-5.9531-5.9062-7.5938-1.9219-1.0781-4.0312-1.6406-6.1875-1.6406-1.125 0-2.25 0.14062-3.375 0.46875-3.2344 0.89062-5.9531 3-7.5938 5.9062-1.6875 2.9062-2.1094 6.3281-1.2188 9.5625 1.8281 6.7031 8.8125 10.641 15.516 8.8125s10.641-8.8125 8.8125-15.516zm-60.516 154.18c2.4844 9.0938 1.3125 18.656-3.375 26.859s-12.234 14.109-21.375 16.594c-3.0938 0.84375-6.2812 1.2656-9.4219 1.2656-6.0469 0-12-1.5469-17.438-4.6406-8.2031-4.6875-14.109-12.234-16.594-21.375-5.1562-18.797 5.9062-38.297 24.703-43.453s38.297 5.9062 43.453 24.703zm-21.938 6.0469c-1.5469-5.5781-6.6094-9.2812-12.141-9.2812-1.125 0-2.2031 0.14062-3.3281 0.46875-6.7031 1.8281-10.641 8.8125-8.8125 15.516s8.8125 10.641 15.469 8.8125c6.7031-1.8281 10.641-8.8125 8.8125-15.516zm-99.656-382.36c8.2031 4.6875 14.109 12.234 16.594 21.375 2.4844 9.0938 1.3125 18.656-3.375 26.859s-12.234 14.109-21.375 16.594c-3.1406 0.84375-6.2812 1.2656-9.4219 1.2656-6.0469 0-12-1.5469-17.438-4.6406-8.2031-4.6875-14.109-12.234-16.594-21.375-2.4844-9.0938-1.3125-18.656 3.375-26.859s12.234-14.109 21.375-16.594c9.0938-2.4844 18.656-1.3125 26.859 3.375zm-17.484 18.141c-1.125 0-2.2031 0.14062-3.3281 0.46875-3.2344 0.89062-5.9531 3-7.5938 5.9062s-2.1094 6.3281-1.2188 9.5625c1.8281 6.7031 8.8125 10.641 15.469 8.8125 6.7031-1.8281 10.641-8.8125 8.8125-15.469-1.5469-5.5781-6.6094-9.2812-12.141-9.2812zm6 156.28c-4.1719 0.32812-7.3125 3.9375-7.0312 8.1094 0.32812 4.1719 3.9375 7.3125 8.1094 7.0312 21.562-1.5938 38.484 11.625 43.406 24.844 1.125 3.0469 4.0312 4.9219 7.125 4.9219 0.89062 0 1.7812-0.14062 2.6719-0.46875 3.9375-1.4531 5.9062-5.8125 4.4531-9.75-7.0312-18.844-29.438-36.797-58.734-34.688zm-164.9-286.31c10.031-2.7656 20.531-1.4531 29.578 3.7031s15.516 13.5 18.281 23.531 1.4531 20.531-3.7031 29.578-13.5 15.516-23.531 18.281c-3.4219 0.9375-6.9375 1.4062-10.406 1.4062-6.6562 0-13.219-1.7344-19.172-5.1094-9.0469-5.1562-15.516-13.5-18.281-23.531s-1.4531-20.531 3.7031-29.578 13.5-15.516 23.531-18.281zm-5.25 41.812c1.125 4.1719 3.8438 7.6406 7.5938 9.75 3.75 2.1562 8.1094 2.6719 12.281 1.5469s7.6406-3.8438 9.75-7.5938c2.1562-3.75 2.6719-8.1094 1.5469-12.281-1.9688-7.1719-8.4844-11.906-15.609-11.906-1.4062 0-2.8594 0.1875-4.2656 0.5625-8.5781 2.3438-13.688 11.297-11.297 19.875zm109.83-9.75c-5.1562-18.797 5.9062-38.297 24.703-43.453s38.297 5.9062 43.453 24.703-5.9062 38.297-24.703 43.453c-3.1406 0.84375-6.2812 1.2656-9.4219 1.2656-6.0469 0-12-1.5469-17.438-4.6406-8.2031-4.6875-14.109-12.234-16.594-21.375zm21.938-6.0469c1.8281 6.7031 8.8125 10.641 15.516 8.8125s10.641-8.8125 8.8125-15.516c-1.5469-5.5781-6.6094-9.2812-12.141-9.2812-1.125 0-2.2031 0.14062-3.3281 0.46875-6.7031 1.8281-10.641 8.8125-8.8125 15.516z"/>
</svg>
