<?xml version="1.0" encoding="UTF-8"?>
<svg width="1200pt" height="1200pt" version="1.1" viewBox="0 0 1200 1200" xmlns="http://www.w3.org/2000/svg">
 <path d="m1047 802.03c0-5.25-4.2656-9.4688-9.4688-9.4688h-353.26c67.172-31.641 113.86-99.844 113.86-178.87 0-2.7656-0.1875-5.5312-0.32812-8.2969 0-0.46875 0-0.89062-0.046876-1.3594-3.5625-74.391-48.188-139.97-116.25-170.63v-144.42c7.4062-3.5156 12.516-10.828 12.516-19.312v-23.953c0-11.906-10.031-21.609-22.359-21.609h-144.37c-12.328 0-22.359 9.7031-22.359 21.609v23.953c0 9.0938 5.8594 16.828 14.062 20.016v143.68c-67.594 30.469-112.08 95.391-116.16 169.13-0.375 1.3594-0.375 2.7188-0.14062 4.0312-0.09375 2.3906-0.28125 4.7344-0.28125 7.125 0 79.031 46.688 147.19 113.86 178.87h-257.58c-58.312 0-105.75 36-105.75 80.297v120c0 44.297 47.438 80.297 105.75 80.297h778.78c5.25 0 9.4688-4.2656 9.4688-9.4688v-44.062c0-0.1875-0.09375-0.32812-0.09375-0.46875-0.046874-0.60938-0.23437-1.2188-0.375-1.8281-0.14062-0.60938-0.28125-1.2188-0.5625-1.7812-0.09375-0.14062-0.046874-0.32812-0.14062-0.46875-30.891-55.641-30.891-109.41 0-164.39 0.09375-0.14063 0.09375-0.32813 0.14062-0.46875 0.28125-0.5625 0.42188-1.1719 0.5625-1.7812 0.14063-0.60938 0.32813-1.2188 0.375-1.8281 0-0.1875 0.09375-0.32812 0.09375-0.51562v-43.922zm-762.52 151.97h-50.625v-40.594h50.625zm-50.625 24.703v-5.7656h50.625v36.656c-23.531-0.65625-40.453-1.7344-46.594-5.5312-3.8438-2.3906-4.1719-8.1562-4.0781-25.406zm69.609-65.297h84.703v109.41l-38.203-30.984c-3.5625-2.8594-8.625-2.8125-12.141 0.14062l-34.359 29.297v-107.91zm701.53 0c-1.5469 13.5-1.5 27.047 0.23438 40.594h-598.13v-40.594zm-597.89 59.531h601.74c3.0469 12.375 7.4062 24.75 13.219 37.125h-614.95zm601.18-78.516-774.37 0.046875v-2.25c0-22.922 0.60938-29.016 6.0938-31.922 9.375-4.875 35.016-4.875 73.875-4.875h708.14c-6.1406 12.984-10.688 25.969-13.734 39.047zm-476.16-446.21h0.046875c1.1719-0.46875 2.2031-1.1719 3.0938-2.0625 0.42188-0.42188 0.70312-1.0312 1.0312-1.5469s0.75-0.9375 0.98438-1.5c0.46875-1.125 0.75-2.3906 0.75-3.6094v-157.74c0-5.25-4.2656-9.4688-9.4688-9.4688-0.23438 0-0.375 0.09375-0.60938 0.14063-0.1875 0-0.375-0.14063-0.60938-0.14063-2.0156 0-3.375-1.4062-3.375-2.625v-23.953c0-1.2656 1.4062-2.625 3.375-2.625h144.37c2.0156 0 3.375 1.4062 3.375 2.625v23.953c0 1.2656-1.4062 2.625-3.375 2.625-5.25 0-9.4688 4.2656-9.4688 9.4688 0 0.60938 0.23438 1.1719 0.375 1.7344v36.281h-24.422c-5.25 0-9.4688 4.2656-9.4688 9.4688 0 5.25 4.2656 9.4688 9.4688 9.4688h24.422v12.375h-39.891c-5.25 0-9.4688 4.2656-9.4688 9.4688 0 5.25 4.2656 9.4688 9.4688 9.4688h39.891v69.422c0 1.2656 0.23438 2.4844 0.75 3.6094 0.23438 0.60937 0.70312 1.0781 1.0781 1.6406 0.32812 0.46875 0.5625 0.98438 0.9375 1.4062 0.89062 0.89063 1.9219 1.5938 3.0938 2.0625h0.046875c60.094 24.797 101.11 79.312 109.17 142.5-98.531-36-142.31-17.016-184.6 1.4531-40.875 17.906-79.734 34.688-170.86 6 5.6719-66.375 47.531-124.22 110.02-149.95zm-110.53 169.74c35.062 10.641 63.094 14.766 86.531 14.766 39.656 0 66.281-11.672 92.438-23.109 41.719-18.281 81.375-35.391 178.45 1.9688 0 0.70312 0.09375 1.4062 0.09375 2.1094 0 98.625-80.25 178.87-178.87 178.87-97.172 0-176.34-77.953-178.64-174.56zm-249.71 374.86v-120c0-33.234 39.75-61.312 86.812-61.312h769.26v24.938l-714.1 0.046875c-49.219 0-69.703 0.28125-82.688 7.0312-16.266 8.4844-16.266 24.516-16.266 48.703v86.391c-0.09375 19.406-0.14062 33.469 13.078 41.625 9.7969 6.0469 25.453 7.5 56.531 8.3438v13.266c0 3.7031 2.1562 7.0781 5.5312 8.625s7.3125 0.98438 10.125-1.4062l44.016-37.547 47.531 38.531c1.7344 1.4062 3.8438 2.1094 5.9531 2.1094 1.4062 0 2.7656-0.28125 4.0781-0.9375 3.2812-1.5938 5.3906-4.9219 5.3906-8.5781v-13.688h620.9v25.125l-769.31 0.09375c-47.062 0-86.812-28.078-86.812-61.312zm388.08-324.79c0-12.844-10.453-23.297-23.297-23.297s-23.297 10.453-23.297 23.297 10.453 23.297 23.297 23.297 23.297-10.453 23.297-23.297zm-23.297 8.1562c-4.5 0-8.1562-3.6562-8.1562-8.1562s3.6562-8.1562 8.1562-8.1562 8.1562 3.6562 8.1562 8.1562-3.6562 8.1562-8.1562 8.1562zm30.844 15c-10.125 0-18.375 8.25-18.375 18.375s8.25 18.375 18.375 18.375 18.375-8.25 18.375-18.375-8.25-18.375-18.375-18.375zm0 21.562c-1.7812 0-3.1875-1.4531-3.1875-3.1875 0-1.7812 1.4531-3.1875 3.1875-3.1875 1.7812 0 3.1875 1.4531 3.1875 3.1875 0 1.7812-1.4531 3.1875-3.1875 3.1875zm185.86-53.344c-2.5781 29.438-26.484 69.844-60.656 83.812-1.1719 0.46875-2.3906 0.70312-3.6094 0.70312-3.75 0-7.2656-2.2031-8.7656-5.9062-1.9688-4.8281 0.32812-10.406 5.1562-12.375 26.297-10.781 46.875-44.438 48.938-67.922 0.46875-5.2031 5.0625-9.0938 10.266-8.625s9.0938 5.0625 8.625 10.266zm-142.87-485.95c12.844 0 23.297-10.453 23.297-23.297s-10.453-23.297-23.297-23.297-23.297 10.453-23.297 23.297 10.453 23.297 23.297 23.297zm0-31.453c4.5 0 8.1562 3.6562 8.1562 8.1562s-3.6562 8.1562-8.1562 8.1562-8.1562-3.6562-8.1562-8.1562 3.6562-8.1562 8.1562-8.1562zm-30.844 68.062c10.125 0 18.375-8.25 18.375-18.375s-8.25-18.375-18.375-18.375-18.375 8.25-18.375 18.375 8.25 18.375 18.375 18.375zm0-21.562c1.7812 0 3.1875 1.4531 3.1875 3.1875 0 1.7812-1.4531 3.1875-3.1875 3.1875-1.7812 0-3.1875-1.4531-3.1875-3.1875 0-1.7812 1.4531-3.1875 3.1875-3.1875z"/>
</svg>
