<?xml version="1.0" encoding="UTF-8"?>
<svg width="1200pt" height="1200pt" version="1.1" viewBox="0 0 1200 1200" xmlns="http://www.w3.org/2000/svg">
 <path d="m406 89.969c-45.145 0-82.383 37.238-82.383 82.383 0 45.145 37.238 82.383 82.383 82.383h4.9219v665.92c0 104.28 84.793 189.38 189.08 189.38s189.14-85.098 189.14-189.38v-665.92h4.8633c45.145 0 82.383-37.238 82.383-82.383 0-45.145-37.238-82.383-82.383-82.383zm0 60.059h388.01c12.941 0 22.617 9.3828 22.617 22.324 0 12.941-9.6758 22.383-22.617 22.383h-388.01c-12.941 0-22.324-9.4414-22.324-22.383 0-12.941 9.3828-22.324 22.324-22.324zm64.922 104.71h258.22v665.92c0 72.09-57.066 129.38-129.14 129.38s-129.08-57.285-129.08-129.38v-15.938l40.547 0.003906c10.559-0.23438 20.219-6.0039 25.434-15.191 5.2109-9.1836 5.2109-20.438 0-29.621-5.2148-9.1875-14.875-14.957-25.434-15.188h-40.547v-48.047h100.55c8.0703 0.17578 15.875-2.9023 21.648-8.5508 5.7695-5.6445 9.0234-13.379 9.0234-21.449 0-8.0742-3.2539-15.809-9.0234-21.453-5.7734-5.6445-13.578-8.7266-21.648-8.5469h-100.55v-47.875h40.547c8.0703 0.17969 15.875-2.9023 21.648-8.5469 5.7695-5.6445 9.0234-13.379 9.0234-21.453 0-8.0703-3.2539-15.805-9.0234-21.449-5.7734-5.6484-13.578-8.7266-21.648-8.5508h-40.547v-47.812h100.55c10.727 0 20.641-5.7227 26.008-15.012 5.3633-9.293 5.3633-20.738 0-30.031-5.3672-9.2891-15.281-15.012-26.008-15.012h-100.55v-47.812h40.547c8.0703 0.17578 15.875-2.9023 21.648-8.5508 5.7695-5.6445 9.0234-13.379 9.0234-21.449 0-8.0742-3.2539-15.809-9.0234-21.453-5.7734-5.6445-13.578-8.7266-21.648-8.5469h-40.547v-48.105h100.55v-0.003907c8.0703 0.17969 15.875-2.8984 21.648-8.5469 5.7734-5.6445 9.0273-13.379 9.0273-21.453 0-8.0742-3.2539-15.805-9.0273-21.453-5.7734-5.6445-13.578-8.7227-21.648-8.5469h-100.55z"/>
</svg>
