<svg width="205" height="202" viewBox="0 0 205 202" fill="none" xmlns="http://www.w3.org/2000/svg">
<path d="M89.4815 130.944L90.8763 127.695C87.5746 126.282 84.5907 124.252 82.0304 121.692C76.6983 116.359 73.7496 109.262 73.7496 101.723C73.7496 94.1837 76.6806 87.0854 82.0304 81.7537C86.4092 77.3749 92.1298 74.5853 98.2384 73.7554V77.7104C98.2384 78.3813 98.6092 78.9816 99.2095 79.2818C99.4567 79.4054 99.7215 79.476 100.004 79.476C100.375 79.476 100.746 79.3524 101.063 79.1229L109.062 73.1198C109.503 72.7843 109.768 72.2546 109.768 71.7073C109.768 71.1599 109.503 70.6302 109.062 70.2948L101.063 64.2917C100.534 63.8856 99.8098 63.8326 99.2094 64.1328C98.609 64.4329 98.2384 65.0509 98.2384 65.7042V70.1713C91.1936 71.0188 84.555 74.2146 79.5406 79.2466C73.5375 85.2497 70.2358 93.2303 70.2358 101.723C70.2358 110.216 73.5375 118.197 79.5406 124.2C82.4186 127.078 85.7733 129.356 89.4988 130.945L89.4815 130.944ZM101.752 69.2352L105.054 71.7071L101.752 74.1789V69.2352Z" fill="#A4832E"/>
<path d="M102.936 139.154C103.254 139.383 103.624 139.507 103.995 139.507C104.26 139.507 104.543 139.436 104.79 139.313C105.39 139.013 105.761 138.395 105.761 137.741V133.257C112.806 132.409 119.426 129.249 124.459 124.199C130.462 118.196 133.763 110.215 133.763 101.722C133.763 93.2295 130.462 85.2489 124.459 79.2457C121.687 76.4737 118.491 74.2843 114.959 72.6953L113.511 75.9264C116.654 77.3389 119.497 79.2987 121.951 81.7529C127.283 87.0851 130.232 94.1829 130.232 101.722C130.232 109.261 127.301 116.359 121.951 121.691C117.572 126.07 111.852 128.859 105.743 129.689V125.734C105.743 125.063 105.372 124.463 104.772 124.163C104.172 123.863 103.465 123.933 102.918 124.322L94.9196 130.325C94.4782 130.66 94.2134 131.19 94.2134 131.737C94.2134 132.285 94.4782 132.814 94.9196 133.15L102.918 139.153L102.936 139.154ZM102.23 129.266V134.21L98.928 131.738L102.23 129.266Z" fill="#7A2D4A"/>
<path d="M93.0656 114.33C93.2069 114.259 93.3835 114.242 93.4894 114.312C94.1956 114.789 94.9372 115.195 95.6965 115.548C95.8024 115.601 95.8377 115.725 95.8377 115.813V117.738C95.8377 118.532 96.3674 119.238 97.1443 119.45C98.7509 119.874 100.375 120.104 101.982 120.104H102.212C103.712 120.104 105.266 119.874 106.82 119.45C107.597 119.238 108.127 118.55 108.127 117.738V115.831C108.127 115.725 108.179 115.601 108.268 115.566C109.045 115.213 109.786 114.807 110.492 114.33C110.581 114.259 110.775 114.277 110.916 114.348L112.629 115.301C113.3 115.672 114.147 115.584 114.712 115.036C117.061 112.794 118.756 109.969 119.585 106.879C119.797 106.102 119.444 105.272 118.738 104.884L116.831 103.807C116.884 103.348 116.902 102.889 116.902 102.43C116.902 101.97 116.884 101.529 116.831 101.052L118.738 99.9929C119.444 99.6045 119.797 98.7746 119.585 97.9977C118.756 94.8902 117.078 92.0652 114.73 89.8229C114.165 89.2932 113.335 89.1873 112.647 89.5581L110.916 90.5115C110.775 90.5998 110.598 90.5998 110.493 90.5292C109.786 90.0525 109.045 89.6464 108.285 89.2932C108.18 89.2403 108.144 89.1167 108.144 89.0284V87.1038C108.144 86.3093 107.615 85.603 106.838 85.3911C105.16 84.9497 103.465 84.7202 101.77 84.7555C100.27 84.7555 98.7158 84.985 97.162 85.4088C96.3852 85.6207 95.8555 86.3092 95.8555 87.1215V89.0284C95.8555 89.1343 95.8025 89.2579 95.7142 89.2932C94.9373 89.6463 94.1958 90.0524 93.4895 90.5291C93.3836 90.5998 93.207 90.5821 93.0658 90.5115L91.3531 89.558C90.6821 89.1873 89.8346 89.2932 89.2696 89.8229C86.9213 92.0652 85.2263 94.8902 84.3965 97.9801C84.1846 98.757 84.5378 99.5868 85.244 99.9753L87.1509 101.035C87.0979 101.494 87.0803 101.953 87.0803 102.412C87.0803 102.871 87.0979 103.312 87.1509 103.789L85.244 104.848C84.5378 105.237 84.1846 106.067 84.3965 106.844C85.2264 109.951 86.9037 112.776 89.2519 115.018C89.8169 115.548 90.6467 115.654 91.3354 115.283L93.0656 114.33ZM88.2278 107.25L89.9405 106.296C90.6115 105.925 90.9646 105.166 90.8233 104.425C90.6821 103.736 90.6291 103.083 90.6291 102.447C90.6291 101.812 90.6997 101.158 90.8233 100.47C90.9646 99.7281 90.6115 98.9688 89.9405 98.5981L88.2278 97.6447C88.8105 96.0732 89.6932 94.6255 90.8056 93.3542L91.3353 93.6544C92.6419 94.3783 94.2487 94.3253 95.4493 93.5308C95.979 93.16 96.5616 92.8599 97.1443 92.595C98.5039 91.9947 99.369 90.6175 99.369 89.0991V88.587C100.181 88.4458 100.993 88.3575 101.806 88.3575C102.759 88.3222 103.677 88.4281 104.613 88.587V89.0991C104.613 90.6175 105.478 91.977 106.838 92.595C107.42 92.8599 107.985 93.1777 108.533 93.5308C109.733 94.343 111.358 94.396 112.646 93.6544L113.176 93.3542C114.288 94.6255 115.171 96.0733 115.754 97.6624L114.041 98.6158C113.37 98.9866 113.017 99.7458 113.158 100.487C113.3 101.194 113.353 101.847 113.353 102.483C113.353 103.118 113.282 103.772 113.158 104.478C113.017 105.219 113.37 105.979 114.041 106.349L115.754 107.303C115.171 108.874 114.289 110.322 113.176 111.593L112.646 111.293C111.34 110.569 109.716 110.604 108.533 111.417C108.003 111.787 107.42 112.088 106.838 112.352C105.496 112.97 104.613 114.33 104.613 115.848V116.36C103.801 116.502 102.988 116.59 102.176 116.59C101.223 116.59 100.305 116.519 99.369 116.36V115.848C99.369 114.348 98.5038 112.97 97.1443 112.352C96.5616 112.088 95.9966 111.77 95.4493 111.417C94.2487 110.604 92.642 110.551 91.3353 111.293L90.8056 111.593C89.6933 110.322 88.8104 108.874 88.2278 107.285V107.25Z" fill="#2D6A7A"/>
<path d="M102 109.491C105.902 109.491 109.062 106.331 109.062 102.429C109.062 98.5269 105.902 95.3665 102 95.3665C98.0979 95.3665 94.9375 98.5269 94.9375 102.429C94.9375 106.331 98.0979 109.491 102 109.491ZM102 98.8977C103.942 98.8977 105.531 100.487 105.531 102.429C105.531 104.371 103.942 105.96 102 105.96C100.058 105.96 98.4688 104.371 98.4688 102.429C98.4688 100.487 100.058 98.8977 102 98.8977Z" fill="#A4832E"/>
<path d="M135 136.823L132.563 134.281C131.804 135.005 131.027 135.711 130.215 136.382L132.475 139.101C133.34 138.377 134.188 137.618 135.017 136.823L135 136.823Z" fill="#2D6A7A"/>
<path d="M71.5425 65.7566C70.6773 66.4805 69.8298 67.2397 69 68.0343L71.4366 70.5768C72.1958 69.8529 72.9726 69.1466 73.7849 68.4757L71.5249 65.7567L71.5425 65.7566Z" fill="black"/>
<path d="M57.8591 63.5852C57.8591 64.2385 58.2123 64.8387 58.7949 65.1389C59.0598 65.2802 59.3423 65.3508 59.6248 65.3508C59.9602 65.3508 60.3134 65.2449 60.5958 65.0507L71.1896 57.9882C71.6839 57.6527 71.9841 57.1054 71.9841 56.5227C71.9841 55.9401 71.6839 55.375 71.1896 55.0573L60.5958 47.9948C60.0485 47.624 59.3599 47.6064 58.7773 47.9065C58.1947 48.2067 57.8415 48.807 57.8415 49.4603V54.7572H47.2656V58.2884H57.8594L57.8591 63.5852ZM61.3904 52.7617L67.0404 56.5225L61.3904 60.2833V52.7617Z" fill="#2D6A7A"/>
<path d="M155.939 146.866L145.345 139.804C144.798 139.451 144.109 139.415 143.526 139.716C142.944 140.016 142.591 140.616 142.591 141.269V146.566H101.981C77.6334 146.566 57.8405 126.773 57.8405 102.426C57.8405 91.8139 61.6543 81.5733 68.5755 73.5578L65.9095 71.2449C58.4232 79.8964 54.3091 90.9671 54.3091 102.408C54.3091 128.699 75.6906 150.08 101.981 150.08H142.59V155.377C142.59 156.03 142.943 156.631 143.526 156.931C143.791 157.072 144.073 157.143 144.356 157.143C144.691 157.143 145.045 157.037 145.327 156.843L155.921 149.78C156.415 149.445 156.715 148.897 156.715 148.315C156.715 147.732 156.415 147.167 155.921 146.849L155.939 146.866ZM146.14 152.093V144.571L151.79 148.332L146.14 152.093Z" fill="#7A2D4A"/>
<path d="M138.071 133.592C145.558 124.941 149.672 113.87 149.672 102.429C149.672 76.1386 128.29 54.7571 102 54.7571H75.5156V58.2883H102C126.348 58.2883 146.141 78.0812 146.141 102.429C146.141 113.041 142.327 123.281 135.406 131.297L138.072 133.61L138.071 133.592Z" fill="#A4832E"/>
</svg>
