<?xml version="1.0" encoding="utf-8"?>
<svg xmlns="http://www.w3.org/2000/svg" fill="none" height="100%" overflow="visible" preserveAspectRatio="none" style="display: block;" viewBox="0 0 533.159 533.159" width="100%">
<g clip-path="url(#clip0_0_35)" id="Logo DNA">
<path d="M529.826 141.065C525.383 136.622 518.719 136.622 514.276 141.065C483.175 172.166 430.97 179.941 368.768 164.391C352.107 102.189 360.993 51.0943 392.094 18.8827C396.537 14.4397 396.537 7.77522 392.094 3.33223C387.651 -1.11075 380.986 -1.11075 376.543 3.33223C342.11 38.8761 331.003 93.3027 345.442 157.726C326.56 153.283 309.898 152.172 293.237 152.172C244.364 152.172 205.488 169.944 179.941 202.156C153.283 236.589 146.619 287.683 158.837 345.442C93.3027 331.003 38.8761 342.11 4.44298 376.543C-7.82311e-06 380.986 -7.82311e-06 387.651 4.44298 392.094C8.88597 396.537 15.5504 396.537 19.9934 392.094C51.0944 360.993 103.299 353.217 165.501 368.768C182.162 430.97 173.277 482.064 142.176 514.276C137.733 518.719 137.733 525.383 142.176 529.826C144.397 532.048 146.619 533.158 149.951 533.158C153.283 533.158 155.505 532.048 157.726 529.826C192.159 494.282 203.267 439.856 188.827 375.432C207.71 379.875 224.371 380.986 241.032 380.986C289.905 380.986 328.781 363.214 354.328 331.003C380.986 296.569 387.651 245.475 375.432 187.716C394.315 192.159 412.087 194.381 428.748 194.381C470.957 194.381 505.39 182.162 530.937 156.615C534.269 153.283 534.269 145.508 529.826 141.065ZM336.556 317.674C316.563 344.332 283.24 358.771 241.032 358.771C223.26 358.771 203.267 356.55 182.162 350.996C167.723 295.459 173.277 246.586 196.602 215.485C216.596 188.827 249.918 174.387 292.126 174.387C309.898 174.387 329.892 176.609 350.996 182.162C365.436 237.7 359.882 286.573 336.556 317.674Z" fill="var(--fill-0, #2D6A7A)" id="Vector"/>
<path d="M390.983 57.7588L475.4 142.176C477.621 144.397 480.953 145.508 483.175 145.508C486.507 145.508 488.729 144.397 490.95 142.176C495.393 137.733 495.393 131.068 490.95 126.625L406.533 42.2084C402.09 37.7654 395.426 37.7654 390.983 42.2084C387.651 46.6514 387.651 53.3158 390.983 57.7588Z" fill="var(--fill-0, #7A2D4A)" id="Vector_2"/>
<path d="M374.322 85.5275C369.879 89.9705 369.879 96.635 374.322 101.078L432.081 158.837C434.302 161.058 437.634 162.169 439.856 162.169C443.188 162.169 445.41 161.058 447.631 158.837C452.074 154.394 452.074 147.729 447.631 143.286L389.872 85.5275C385.429 81.0845 378.765 81.0845 374.322 85.5275Z" fill="var(--fill-0, #A4832E)" id="Vector_3"/>
<path d="M142.176 474.289L57.7588 389.872C53.3158 385.429 46.6514 385.429 42.2084 389.872C37.7654 394.315 37.7654 400.98 42.2084 405.423L126.625 489.839C128.847 492.061 132.179 493.172 134.4 493.172C136.622 493.172 139.954 492.061 142.176 489.839C146.619 486.507 146.619 478.732 142.176 474.289Z" fill="var(--fill-0, #1D88A4)" id="Vector_4"/>
<path d="M151.062 449.852C154.394 449.852 156.615 448.742 158.837 446.52C163.28 442.077 163.28 435.413 158.837 430.97L101.078 373.211C96.635 368.768 89.9705 368.768 85.5275 373.211C81.0845 377.654 81.0845 384.318 85.5275 388.761L143.286 446.52C145.508 448.742 148.84 449.852 151.062 449.852Z" fill="var(--fill-0, #A4832E)" id="Vector_5"/>
<path d="M232.146 216.596C227.703 212.153 221.039 212.153 216.596 216.596C212.153 221.039 212.153 227.703 216.596 232.146L301.012 316.563C303.234 318.784 306.566 319.895 308.788 319.895C312.12 319.895 314.341 318.784 316.563 316.563C321.006 312.12 321.006 305.455 316.563 301.012L232.146 216.596Z" fill="var(--fill-0, #A4832E)" id="Vector_6"/>
<path d="M209.931 265.469C205.488 261.026 198.824 261.026 194.381 265.469C189.938 269.911 189.938 276.576 194.381 281.019L252.14 338.778C254.361 340.999 257.693 342.11 259.915 342.11C263.247 342.11 265.468 340.999 267.69 338.778C272.133 334.335 272.133 327.67 267.69 323.227L209.931 265.469Z" fill="var(--fill-0, #1D88A4)" id="Vector_7"/>
<path d="M281.019 194.381C276.576 189.938 269.911 189.938 265.469 194.381C261.026 198.824 261.026 205.488 265.469 209.931L323.227 267.69C325.449 269.911 328.781 271.022 331.003 271.022C333.224 271.022 336.556 269.911 338.778 267.69C343.221 263.247 343.221 256.583 338.778 252.14L281.019 194.381Z" fill="var(--fill-0, #7A2D4B)" id="Vector_8"/>
</g>
<defs>
<clipPath id="clip0_0_35">
<rect fill="white" height="533.159" width="533.159"/>
</clipPath>
</defs>
</svg>