<?xml version="1.0" encoding="UTF-8"?>
<svg width="1200pt" height="1200pt" version="1.1" viewBox="0 0 1200 1200" xmlns="http://www.w3.org/2000/svg">
 <path d="m1086.1 579.36c-3.6602-56.426-11.773-148.64-12.191-153.43l-0.94922-10.777-9.9727-4.2227c-4.5977-1.957-45.781-19.031-73.992-19.031-4.957 0-9.3008 0.49219-13.297 1.5-31.078 7.8945-45.742 45.348-47.316 49.598l-22.402 110.87-0.77734 2.582 0.58984 3.3242c0.023438 0.37109 0.070312 2.3398-1.5977 4.1289-1.3672 1.4648-7.2344 6.2148-25.57 6.2148-2.0742 0-4.2461-0.058594-6.5508-0.17969-51.816-2.832-219.36-15.707-253.85-18.359-53.555-50.363-137.73-68.566-199.96-74.844-73.43-7.3438-143.11 62.988-146.03 65.988-0.63672 0.66016-0.91016 1.5-1.4414 2.2188-30.371 4.2461-82.223 17.605-103.5 23.258l5.4961-116.3c0.46875-9.9375-7.1992-18.359-17.137-18.828-9.8633-0.51562-18.359 7.1992-18.828 17.137l-5.8906 124.78c-13.441 0.28906-35.328 16.32-35.844 27.035-0.51563 10.738 19.754 29.734 33.047 31.922l-5.9414 125.79c-0.46875 9.9375 7.1992 18.359 17.137 18.828 0.28906 0.011719 0.57422 0.011719 0.86328 0.011719 9.5508 0 17.508-7.5117 17.977-17.148l3.6836-78.047c5.2422 7.5234 12.469 15.324 22.512 20.953 0.86328 0.49219 6.4062 3.5039 15.562 7.7891l-3.1211 65.93c-9.2891 5.2188-15.719 14.688-16.199 25.836-0.76953 17.352 13.188 32.496 31.117 33.73l2.3516 0.085938c17.473 0 31.727-13.262 32.449-30.191 0.46875-11.062-5.0742-21.191-13.777-27.422l2.5195-53.316c39.938 14.652 100.46 31.055 171.5 31.055l5.0391-0.023438c8.1719-0.097656 18.637-0.67188 30.637-1.5977l24.035 33.457c-2.1484 4.8828-3.5391 10.211-3.793 15.875-1.1055 24.086 17.293 45.023 41.004 46.668 1.0078 0.070312 2.0273 0.10938 3.0352 0.10938 22.992 0 41.809-18.266 42.863-41.594 1.0664-24.059-17.34-44.977-41.027-46.633-5.2422-0.39453-10.223 0.32422-14.93 1.6914l-9.6406-13.48c173-18.504 526.87-77.891 557.02-82.98 1.0781-0.035156 2.543-0.16797 4.1523-0.37109 7.8359 0.33594 15.492 0.53906 22.754 0.53906 29.473 0 78.781 0 80.734-41.148 1.3555-28.332-21.242-41.688-62.559-48.961zm-123.5-125c3.3828-8.1953 12.312-23.605 21.961-26.051 0.58984-0.15625 1.957-0.40625 4.4531-0.40625 13.754 0 35.82 7.0312 50.004 12.289 2.207 25.535 7.6445 89.578 10.691 134.53-5.4844-0.50391-11.09-0.98438-16.969-1.4023-14.555-1.043-28.488-1.5859-41.41-1.5859-15.707 0-37.008 0.058593-53.82 6.2891 3.3008-6.8984 4.5117-13.969 4.2852-19.621zm-547.93 58.188c44.281 4.4648 122.54 18.059 171.98 59.051-6.5898 3.8164-18.781 7.1055-39.156 5.6055-55.836-4.043-204.2-11.531-223.2-12.492-5.1836-1.5117-10.848-3.8398-14.074-5.6875v-2.4258c23.215-19.68 65.926-48.047 104.45-44.051zm-3.2305 209.22-4.6445 0.023437c-116.33 0-203.93-48.406-204.8-48.898-9.9102-5.543-14.953-17.207-16.465-21.238l-3.2266-50.195c32.762-8.5938 77.004-19.141 97.668-21.422 8.7109 10.98 25.465 16.992 36.887 19.969l3.6484 0.55078c1.6445 0.085937 165.38 8.2695 224.39 12.539 4.4531 0.32422 8.6055 0.46875 12.516 0.46875 37.633 0 55.453-13.883 63.793-25.68 44.461 3.4219 199.21 15.254 248.91 17.965 2.9883 0.16797 5.8203 0.23828 8.5078 0.23828 13.68 0 25.066-2.207 34.535-6.1914-1.4648 3.793-2.3984 8.0742-2.6406 12.973-0.83984 17.555 7.5469 29.34 23.809 37.512-156.07 25.363-444.45 70.508-522.88 71.387zm656.48-88.285c-11.629 0-24.852-0.48047-38.867-1.5-45.898-3.3125-82.859-11.113-82.559-17.387 0.20312-4.3672 18.359-6.8633 44.832-6.8633 11.605 0 24.816 0.48047 38.809 1.4883 45.898 3.3242 82.859 11.125 82.559 17.398-0.19141 4.3789-18.336 6.8633-44.773 6.8633z"/>
 <path d="m472.44 628.84c-10.223-0.27734-20.137-0.40625-29.555-0.40625-93.59 0-100.52 9.9844-100.81 26.426-0.23828 14.363-0.49219 29.219 128.98 32.773 10.32 0.28906 20.328 0.42188 29.844 0.42188 93.312 0 100.23-9.9727 100.54-26.438 0.23828-14.355 0.47656-29.203-128.99-32.777z"/>
</svg>
