<?xml version="1.0" encoding="UTF-8"?>
<svg width="1200pt" height="1200pt" version="1.1" viewBox="0 0 1200 1200" xmlns="http://www.w3.org/2000/svg">
 <path d="m1150.7 600.19c-9.7031-7.2188-18.703-14.625-26.719-21.984-29.297-26.859-75.188-26.859-104.48 0-8.0156 7.3594-17.062 14.766-26.812 22.031-10.312 7.6875-20.344 7.6406-30.656 0-9.75-7.2656-18.75-14.672-26.812-22.031-29.297-26.859-75.188-26.859-104.44 0-8.0625 7.4062-17.062 14.812-26.766 21.984-10.312 7.6875-20.391 7.6875-30.703 0-9.75-7.2656-18.75-14.672-26.766-21.984-29.297-26.859-75.188-26.859-104.48 0-8.0156 7.3594-17.016 14.719-26.766 21.984-10.312 7.6875-20.391 7.6875-30.703 0-9.75-7.2188-18.75-14.625-26.766-21.984-29.297-26.859-75.188-26.859-104.48 0-8.0625 7.3594-17.062 14.766-26.766 21.984-10.312 7.6875-20.391 7.6875-30.703 0-9.75-7.2188-18.75-14.625-26.766-21.984-29.672-27.188-74.906-26.906-105.28 0.70312-5.1562 4.6875-10.312 9.0469-15.328 13.031-15.094 12.094-36.938 12.047-52.031 0-4.9688-3.9844-10.172-8.3438-15.328-13.031-30.328-27.609-75.609-27.938-105.28-0.70312-8.0156 7.3594-17.016 14.719-26.719 21.984-7.9688 5.9062-9.6562 17.203-3.7031 25.172s17.203 9.6562 25.172 3.7031c10.688-7.9688 20.672-16.125 29.578-24.328 15.844-14.531 40.266-14.156 56.719 0.79688 5.7188 5.2031 11.484 10.078 17.062 14.531 28.125 22.5 68.906 22.5 97.031 0 5.5312-4.4531 11.297-9.2812 17.016-14.531 16.5-15 40.875-15.375 56.719-0.79688 8.9062 8.1562 18.891 16.359 29.578 24.328 23.062 17.109 50.578 17.156 73.641 0 10.688-7.9688 20.672-16.125 29.625-24.328 15.656-14.344 40.172-14.344 55.828 0 8.9062 8.1562 18.891 16.359 29.625 24.328 23.062 17.109 50.578 17.109 73.688 0 10.734-7.9688 20.672-16.172 29.625-24.328 15.656-14.344 40.172-14.344 55.828 0 8.9062 8.1562 18.844 16.359 29.625 24.328 23.062 17.109 50.578 17.156 73.688 0 10.688-7.9219 20.625-16.125 29.625-24.328 15.656-14.344 40.172-14.344 55.828 0 8.9531 8.2031 18.938 16.406 29.625 24.375 11.531 8.5781 24.141 12.844 36.797 12.844s25.266-4.2656 36.797-12.844c10.734-7.9688 20.719-16.172 29.625-24.375 15.656-14.344 40.125-14.344 55.828 0 8.9531 8.2031 18.938 16.406 29.578 24.328 7.9688 5.9531 19.266 4.3125 25.172-3.7031 6-7.9688 4.3125-19.219-3.6562-25.172z"/>
</svg>
