<?xml version="1.0" encoding="UTF-8"?>
<svg width="1200pt" height="1200pt" version="1.1" viewBox="0 0 1200 1200" xmlns="http://www.w3.org/2000/svg">
 <path d="m1107.2 753.94-78.703-139.78c-2.1094-3.7969-6.1406-6.1406-10.453-6.1406s-8.3438 2.3438-10.453 6.0938l-78.844 139.78c-4.5938 7.5938 1.5469 18.188 10.453 17.906h39.234c-6.6562 56.578-66.938 98.062-201.37 129.37-72.609 15.891-103.22 33.281-119.34 47.203l-5.1094-322.92c29.438-36.562 54.047-76.969 73.359-119.72 0.89063-1.2656 1.7812-2.7188 1.9688-4.3594 8.4375-19.031 15.75-38.531 21.984-58.359 0.46875-0.89062 0.98437-1.7812 0.9375-2.8125 2.9062-9.4219 5.5312-18.891 7.875-28.406h10.594c34.219 32.859 93.984 6.6094 93.094-40.828 1.2656-44.812-54.609-72.141-89.297-43.922 0.9375-10.219 1.5938-20.578 1.9688-31.078 0.1875-0.60938 0.28125-1.2188 0.046876-1.8281 1.1719-26.531 1.7812-55.078-8.2969-79.875-10.219-27.891-29.953-52.031-55.875-67.969-6.75-55.641-54.234-98.344-111-98.344-119.86 1.6875-154.74 161.95-46.875 213.52l-0.84375 66.562h-124.22c-34.781-29.625-91.547-2.8125-90.609 42.938-0.9375 47.344 58.922 73.734 93 40.781h120.42l-3.7031 229.31-1.6875 1.8281s-0.046875 0.046876-0.09375 0.046876c0.046875 0-33.094 36.234-33.094 36.234-39.75 43.453-62.156 100.59-62.062 159.89v68.719c-131.06-28.734-221.53-67.312-228.71-136.03h39.234c8.8594 0.28125 15.094-10.266 10.453-17.906l-78.844-139.78c-4.2656-7.5469-16.641-7.5938-20.906 0l-78.703 139.78c-4.5938 7.5938 1.5469 18.188 10.453 17.859h33.234c2.0156 41.906 26.391 172.36 245.9 223.97 154.03 36.234 206.21 147.98 206.72 149.11 3.7969 9.2812 18.047 9.3281 21.891 0.046874 0.51562-1.125 52.688-112.88 206.72-149.11 220.55-51.844 244.13-183.28 245.95-223.97h33.188c8.9062 0.28125 15.047-10.266 10.453-17.859zm-618.98 165.61c-4.5469-1.6875-9.3281-3.2344-14.016-4.7812v-49.406l20.531 3.8906v52.734c-2.1562-0.79688-4.3125-1.5938-6.5156-2.3906zm22.594-199.4 16.406 12.141c-8.7656 13.172-15.891 27.234-21.141 42.047l-17.953-10.875c5.8125-15.234 13.5-29.719 22.688-43.312zm-11.531 78.094c-3.3281 15.094-4.8281 30.844-4.5469 46.547l-20.531-3.8906c-0.14062-18.281 2.25-36.375 6.6562-53.812zm19.453 40.922c0-32.578 9.375-63.984 26.672-90.938l-3.1875 200.29c-5.625-4.7812-13.219-10.125-23.484-15.609zm67.219-174.66-14.906-13.922c9.4219-10.312 22.219-24.094 30.938-34.781l16.781 12.516c-3.8906 4.7812-28.219 31.125-32.812 36.188zm63.188-252.66h35.625c-8.625 29.719-20.344 59.016-34.219 86.578l-1.3594-86.578zm-10.781-262.08c0.23438 0 0.46875-0.09375 0.70312-0.09375 13.641 0.23438 27.141 2.4844 39.75 7.3594l-27.656 13.734c-7.7812-0.98438-21.047-0.46875-29.016-0.60938-13.406-0.23438-13.406-20.156 0-20.391zm70.875 334.92-23.203-5.8125c5.5781-12.703 10.594-25.734 14.953-38.906l22.688 6.2812c-4.3594 12.984-9.0938 25.828-14.438 38.438zm-33.938 66.188-20.812-9.75c7.6406-12.938 14.812-26.344 21.422-40.078l23.203 5.8125c-7.2188 15.047-15.234 29.719-23.812 44.016zm32.906-133.82c4.6875-14.906 8.3906-30.234 11.578-45.422l22.125 5.625c-2.8125 15.562-6.5625 30.891-10.969 46.078zm39.797-78.328c-0.5625 4.9219-1.4062 9.8438-2.1094 14.766l-21.844-5.5781c2.5312-13.547 3.8906-27.234 5.1094-40.969h21.656c-0.60938 10.734-1.5 21.328-2.7656 31.734zm3.6562-77.016c0 4.3125 0.046875 17.156-0.1875 21.234h-20.766c0.51562-15.469 1.6875-31.453-2.6719-46.406l19.359-5.2031c2.7188 9.75 4.2188 19.922 4.2188 30.328zm-57.656-41.297c22.641 30.703 10.922 72.281 8.7188 107.67h-55.031l-0.84375-66.609c19.406-9 35.766-23.391 47.109-41.109zm-52.266 341.26 20.672 9.7031c-8.8125 13.266-18.188 26.156-28.125 38.578l-17.344-12.938c8.8125-11.484 17.062-23.297 24.844-35.344zm142.87-212.95c18.891-19.594 54.609-4.9219 53.812 22.359 0.46875 28.453-36.609 42.703-55.125 20.812-4.0312-5.3906-13.312-3.7969-19.078-4.0312 2.4375-11.859 4.5-23.766 6.1406-35.766 4.7344 0.09375 10.781 0.46875 14.297-3.375zm-46.359-139.69-19.547 5.2031c-8.0625-13.734-20.297-25.547-34.453-33.141l20.578-10.219c14.109 10.078 25.406 23.156 33.422 38.156zm-312.89 178.82c-3.4219 0-6.75 1.5-9 4.0781-6.0469 6.8906-14.391 10.688-23.391 10.688-17.391 0-31.547-14.156-31.547-31.547-0.79688-27.141 34.875-42 53.625-22.406 2.25 2.2031 5.25 3.4219 8.4375 3.4219h140.63c6.5625 0 11.906-5.2969 12-11.859l1.0781-86.531c0.046876-5.0625-3.0469-9.6562-7.8281-11.391-90.984-35.203-66.938-169.08 30.609-170.29 39 0 72.422 25.734 83.766 61.406-12.422-4.2656-25.453-6.75-38.719-7.3125-31.406-43.031-102-19.688-101.44 33.844-0.51563 53.109 69.094 76.734 100.97 34.453 11.156 0.51562 21.891 3.8438 31.359 9.6562-10.031 17.344-26.109 31.031-45.328 38.203-4.7344 1.7812-7.875 6.3281-7.7812 11.391l1.0781 86.531c0.09375 6.5625 5.4375 11.859 12 11.859h63.047c-2.1094 11.859-4.6406 23.812-7.6406 35.766h-54.375c-3.2344 0-6.2812 1.2656-8.5781 3.6094-2.25 2.2969-3.4688 5.3906-3.4219 8.625l2.2031 140.02c-16.125 26.062-34.828 50.953-55.594 74.156l3.4219-214.18c0.23438-6.5156-5.4844-12.328-12-12.188h-137.63zm183.05-196.6c-20.156 5.6719-41.156-10.312-40.828-31.312-0.32812-20.953 20.719-36.984 40.828-31.266-26.906 11.156-26.859 51.469 0.046875 62.625zm-53.578 477.05 14.906 13.922c-2.3438 2.625-26.625 28.828-27.938 30.938l-16.406-12.141c2.625-3.7031 25.969-28.828 29.484-32.766zm496.69 79.547c-6.8438-0.14062-12.656 6.2344-11.953 13.031 0.51563 6.3281 10.266 155.68-227.44 211.55-127.26 29.953-189.14 106.55-212.16 142.97-23.016-36.422-84.938-113.02-212.16-142.97-237.71-55.875-227.95-205.22-227.39-212.58 0-6.6562-5.3906-12-12-12h-24.703l58.219-103.36 58.266 103.36h-29.484c-4.4531 0-8.5312 2.4844-10.641 6.4219-1.5938 3.0469-7.0312 24.328 5.8594 52.031 16.969 36.516 67.547 86.719 211.87 118.41 29.672 6.6562 58.031 14.156 83.719 26.297 21.75 10.5 29.719 19.734 35.578 26.484 5.2969 6.3281 13.172 15.188 22.219 10.312 3.8906-2.0625 6.375-6.0469 6.4688-10.453l4.125-259.69 59.109-64.688 5.1562 324.37c0.09375 4.4062 2.5312 8.3906 6.4219 10.453 9.1406 4.7812 16.875-3.8906 22.219-10.266 9.9375-11.531 28.453-32.906 119.34-52.828 144.28-31.688 194.86-81.891 211.82-118.41 12.844-27.656 7.4531-48.938 5.8594-52.031-2.0625-3.9375-6.1875-6.4219-10.641-6.4219h-29.484l58.266-103.36 58.219 103.36z"/>
</svg>
