<?xml version="1.0" encoding="UTF-8"?>
<svg width="1200pt" height="1200pt" version="1.1" viewBox="0 0 1200 1200" xmlns="http://www.w3.org/2000/svg">
 <path d="m442.1 46.152c0-12.742 10.332-23.074 23.078-23.074h270.62c12.746 0 23.074 10.332 23.074 23.074 0 12.746-10.328 23.078-23.074 23.078h-5.2812v171.73c0 7.0547 0.99219 26.848 3.0234 46.738 1.0117 9.8828 2.2266 19.328 3.6172 26.938 1.2188 6.6875 2.2422 9.9922 2.5625 11.012 0.10156 0.32812 0.12891 0.42188 0.070313 0.31641 0.20703 0.35547 0.39844 0.71875 0.58984 1.0859l331.04 651.56c50.434 88.293-13.297 198.31-115.14 198.31h-712.54c-101.84 0-165.58-110.02-115.14-198.31l331.04-651.56c0.1875-0.36719 0.38281-0.72656 0.58984-1.0859-0.0625 0.10547-0.035156 0.011718 0.066406-0.3125 0.32031-1.0195 1.3477-4.3281 2.5664-11.012 1.3867-7.6094 2.6055-17.059 3.6133-26.938 2.0352-19.895 3.0273-39.688 3.0273-46.742v-171.73h-4.3281c-12.746 0-23.078-10.332-23.078-23.078zm73.559 23.078v171.73c0 9.1484-1.1367 30.613-3.2617 51.43-1.0703 10.477-2.4375 21.25-4.1289 30.527-1.4258 7.8203-3.6289 18.035-7.6797 25.441l-331.1 651.69c-0.1875 0.36328-0.38281 0.73047-0.58984 1.0859-33.266 57.617 8.3164 129.64 74.848 129.64h712.54c66.531 0 108.11-72.023 74.848-129.64-0.20703-0.35547-0.40234-0.72266-0.59375-1.0859l-83.293-163.94h-399.88c-12.75 0-23.078-10.336-23.078-23.078 0-12.75 10.328-23.078 23.078-23.078h376.43l-38.742-76.246h-222.34c-12.746 0-23.078-10.332-23.078-23.074 0-12.75 10.332-23.078 23.078-23.078h198.9l-38.742-76.25h-97.242c-12.742 0-23.074-10.332-23.074-23.078 0-12.742 10.332-23.078 23.074-23.078h73.797l-99.98-196.78c-4.0547-7.4023-6.2578-17.621-7.6836-25.441-1.6875-9.2734-3.0547-20.047-4.125-30.523-2.1289-20.82-3.2617-42.281-3.2617-51.43v-171.73z" fill-rule="evenodd"/>
</svg>
