<?xml version="1.0" encoding="UTF-8"?>
<svg width="1200pt" height="1200pt" version="1.1" viewBox="0 0 1200 1200" xmlns="http://www.w3.org/2000/svg">
 <path d="m493.61 935.88h-133.8v105.21h133.8zm-25 80.215h-83.801v-55.211h83.801z"/>
 <path d="m440.86 529.84h23.98v25h-23.98z"/>
 <path d="m415.27 606.15h21.582v25h-21.582z"/>
 <path d="m440.86 715.52h23.98v25h-23.98z"/>
 <path d="m415.27 779.83h21.582v25h-21.582z"/>
 <path d="m433.7 328.67h31.141v25h-31.141z"/>
 <path d="m415.27 404.98h23.645v25h-23.645z"/>
 <path d="m1174.9 1193.8v-285.97h-381.49v25h356.49v235.97h-42.645v-55.652c0-27.051-22.004-49.059-49.055-49.059s-49.055 22.008-49.055 49.059v55.652h-56.641v-52.125h-50.75v-52.246h-48.5v-52.125h-50.5v-52.125h-38.875v-52.254h-44.879l0.003906-52.125h-67.688v-27.812h-120.55v-131.04h29.059v-25h-29.059v-177.34h29.059v-25h-29.059v-167.66h37.453l25.977-80.684-74.426 0.003907v-103.93h-32.625l0.003906-58.523h-34.602v-52.504h-25v52.504h-33.082v58.527h-32.629v103.93h-74.422l25.977 80.684h35.938v167.66h-29.059v25h29.059v177.34h-29.059v25h29.059v131.04l-38.383 0.003906v-56.793h-13.293c-5.6289-35.59-33.98-72.973-68.398-72.973-34.422 0-62.773 37.383-68.402 72.973h-13.285v56.793h-61.133l-51.445 365.81h1139.9zm-140.75-80.652c0-13.27 10.793-24.059 24.055-24.059s24.055 10.793 24.055 24.059v55.652h-48.109zm-614.68-1029.3h42.684v33.527h-42.684zm-32.629 58.523h107.93v78.93h-42.223v-50.34h-25v50.34h-40.711l0.003906-78.93zm-65.105 103.93h238.15l-9.875 30.684-218.4-0.003906zm52.602 107.46h41.883v-25h-41.883v-26.758h131.43v103.07h-48.125v25h48.125v39.574h-131.43zm0 201.17h51.66v-25h-51.66v-35.285h131.43v111.6h-48.18v25h48.18v40.746h-131.43zm131.43 142.06v82.93h-48.18v25h48.18v23.078h-131.43v-87.391h51.66v-25h-51.66v-18.617zm248.71 467.14h-103.16v-93.043c35.281-17.66 68.832-17.727 103.16-0.082032zm-525.22-440.87c19.41 0 37.805 24.445 42.988 47.973h-85.984c5.1875-23.527 23.586-47.973 42.996-47.973zm-56.691 72.973h113.38v31.793h-113.38zm453.75 56.797v2.8125h-0.0625v27.992h-522.42l4.332-30.805h518.15zm-409.56 149.07h-129.56l4.3945-31.25h125.16zm0 25v31.371h-137.49l4.4141-31.371zm0 56.371v31.25h-145.4l4.3945-31.25zm0-137.62h-121.65l5.2031-37.012h116.44zm-148.91 193.87h148.91v29.125h-153.01zm173.91 29.125v-30.922h25v-25h-25v-31.434h25v-25h-25v-31.445h25v-25h-25v-31.445h25v-25h-25v-34.766h384.5v34.766h-33.465v25h33.465v31.445h-19.172v25h19.172v31.445h-21.996v25h21.996v87.355h-384.5zm537.72 0v-112.48l-6.25-3.6133c-39.723-22.918-80.77-25.914-121.91-9.0469v-162.86h42.688v52.137h44.879v52.246h38.875v52.125h50.5v52.125h48.5v52.246h50.75l-0.003907 27.121z"/>
 <path d="m579.26 1112.8h37.5v25h-37.5z"/>
 <path d="m316.76 1112.8h37.5v25h-37.5z"/>
 <path d="m491.76 1112.8h37.5v25h-37.5z"/>
 <path d="m404.26 1112.8h37.5v25h-37.5z"/>
 <path d="m529.26 1056.4h37.5v25h-37.5z"/>
 <path d="m379.26 1056.4h37.5v25h-37.5z"/>
 <path d="m454.26 1056.4h37.5v25h-37.5z"/>
 <path d="m304.26 1056.4h37.5v25h-37.5z"/>
 <path d="m519.59 999.95h37.5v25h-37.5z"/>
 <path d="m316.76 999.95h7.7891v25h-7.7891z"/>
 <path d="m517.79 943.51h37.5v25h-37.5z"/>
 <path d="m304.26 943.51h37.5v25h-37.5z"/>
 <path d="m920.34 414.33h35.723v25h-35.723z"/>
 <path d="m746.91 285.98c0 24.602 10.484 47.805 28.445 64.078-3.5547 7.9219-5.6328 16.641-5.6328 25.867 0 34.961 28.496 63.402 63.531 63.402h52.637v-25h-52.637c-21.246 0-38.531-17.23-38.531-38.402 0-21.246 17.285-38.531 38.531-38.531h49.488l1.207-11.156c4.3633-40.328 38.301-70.734 78.941-70.734 40.57 0 74.453 30.406 78.816 70.734l1.207 11.156h49.609c21.246 0 38.531 17.285 38.531 38.531 0 21.172-17.285 38.402-38.531 38.402h-91.645v25h91.645c35.035 0 63.531-28.441 63.531-63.402 0-35.035-28.496-63.531-63.531-63.531h-27.777c-10.332-47.398-52.301-81.891-101.86-81.891-19.465 0-37.715 5.3672-53.391 14.676-14.832-27.789-43.598-45.652-76.145-45.652-47.66 0.003906-86.445 38.785-86.445 86.453zm86.449-61.449c24.59 0 46.145 14.32 55.992 36.23-13.938 13.809-24.055 31.543-28.441 51.637h-27.656c-16.684 0-31.766 6.5977-43.113 17.148-11.512-11.434-18.234-27.027-18.234-43.566 0.003906-33.887 27.57-61.449 61.453-61.449z"/>
 <path d="m820.86 96.27h25v65.387h-25z"/>
 <path d="m736.59 206.93-46.234-46.234 17.676-17.676 46.234 46.234z"/>
 <path d="m643.61 273.52h65.387v25h-65.387z"/>
 <path d="m708.03 429.05-17.676-17.676 46.234-46.234 17.676 17.676z"/>
 <path d="m912.51 189.21 46.242-46.238 17.676 17.68-46.242 46.238z"/>
 <path d="m186.72 471.65c-10.109-15.559-27.168-28.746-54.277-28.746v25c36.945 0 41.438 37.598 41.82 41.828l24.91 0.054687c0.39062-4.2852 4.8828-41.883 41.832-41.883v-25c-27.113 0-44.176 13.188-54.285 28.746z"/>
 <path d="m89.453 219.68c-11.348-19.219-31.402-36.18-64.355-36.18v25c45.941 0 51.43 46.473 51.898 51.723l24.914 0.046875c0.46875-5.2969 5.957-51.77 51.898-51.77v-25c-32.953 0-53.008 16.961-64.355 36.18z"/>
 <path d="m256.23 116.62c0.097656-1.1914 2.6914-29.164 28.93-29.164v-25c-19.855 0-33.027 8.7383-41.387 19.707-8.3594-10.969-21.535-19.707-41.387-19.707v25c25.453 0 28.656 26.246 28.93 29.164z"/>
 <path d="m1110.4 967.31h37.5v25h-37.5z"/>
 <path d="m1022.9 967.31h37.5v25h-37.5z"/>
 <path d="m847.85 967.31h37.5v25h-37.5z"/>
 <path d="m935.35 967.31h37.5v25h-37.5z"/>
 <path d="m981.86 1025.3h37.5v25h-37.5z"/>
 <path d="m1069.4 1025.3h37.5v25h-37.5z"/>
 <path d="m894.36 1025.3h37.5v25h-37.5z"/>
</svg>
