<?xml version="1.0" encoding="UTF-8"?>
<svg width="1200pt" height="1200pt" version="1.1" viewBox="0 0 1200 1200" xmlns="http://www.w3.org/2000/svg">
 <path d="m378.24 159.37c4.125-7.0781 6.75-11.766 9.6562-16.406 3.2344-5.2031 9.0469-8.0156 17.719-7.5469s12.281 4.4062 13.781 9.4688c0.84375 2.9531 1.4062 5.9531 1.6875 8.9531 0.46875 4.9688 1.875 8.25 11.625 8.3438 11.156 0.14062 11.859 6.8438 12.281 12.375 0.9375 12.844 1.2188 25.734 1.8281 38.578 0.09375 1.7344 0.46875 3.4219 0.70312 5.2031 18.656-1.9688 21.047-1.0781 28.078 11.438 1.875-6.1875 2.5312-11.25 5.1094-15.75 1.6406-2.8594 5.7656-6.6562 9.5625-7.0781 4.5469-0.51562 13.172 1.4062 14.203 3.5156 3.2812 6.7031 6.0469 14.156 5.0625 21.047-3.7031 25.312-7.125 50.766-14.297 75.703-4.5469 15.844-14.812 31.031-23.953 46.172-6.0938 10.078-18.516 15.562-35.531 15.75-2.1562 10.219-7.7344 20.812-5.2969 30.562 1.875 7.5 10.5 13.781-3.0469 19.734-0.89062 14.438-1.8281 28.875-2.7188 43.312-0.46875 7.7812-1.8281 15.234-14.484 18.984-1.5 0.42188-2.8594 1.7344-3.375 2.8125-5.2031 11.156-10.172 22.312-15.234 33.469-1.4062 3.1406-2.8594 6.2344-4.2656 9.3281 16.641 11.203 13.922 25.453-6.2812 30.844v331.22c3.5625 0.75 8.1094 0.75 9.6562 2.2031 3.1875 2.9062 8.0625 8.3438 6.4688 9.75-11.203 9.5625-0.046875 17.156 3.8438 25.219 2.7188 5.625 8.2031 10.688 11.109 16.266 2.2969 4.4062 5.7188 5.9062 12.422 5.6719 8.2969-0.32812 17.016-1.0312 24.891 0.28125 5.5312 0.89062 13.547 4.5 14.203 7.4531 1.5938 7.2656 8.0625 7.9219 15.891 7.8281 17.391-0.23438 34.781-0.70312 52.125-1.2188 21.891-0.65625 43.734-1.7812 65.672-2.1094 7.9219-0.09375 10.547-1.9688 10.969-6.9375 0.70312-8.4844 5.8125-11.906 18.328-11.391 14.203 0.60938 28.312 2.2969 42.469 3.2344 3.2344 0.23438 7.125-0.14062 9.7969-1.2188 12.141-4.9688 25.781-1.6406 27.328 7.6875 0.98438 6.0938 6.2344 6.8438 12.75 7.0781 35.484 1.3125 71.062 1.875 106.41 3.8906 38.344 2.2031 76.5 5.8125 114.75 8.5312 16.547 1.1719 31.641 4.5 45.422 10.781 19.594 8.9062 42.188 9.5156 64.781 10.922 30.094 1.875 60.047 4.7344 90.094 7.0781 3.2812 0.28125 6.75-0.09375 9.9844 0.32812 5.625 0.79688 13.266 0.84375 16.266 3.2812 9.1406 7.4062 16.172 15.938 13.641 26.25-2.3906 9.8906-15.516 16.406-33.562 16.5-17.953 0.14062-35.953-1.9219-53.953-2.25-15.281-0.28125-30.984-0.60938-45.891 1.2188-24.562 3.0469-45.375-3.5625-66.516-9.375-15.656-4.3125-30.703-9.75-45.609-15.141-21.188-7.6875-44.484-7.3125-67.266-8.3438-50.109-2.25-100.27-4.0312-150.42-5.7188-10.875-0.375-21.047 0.23438-27.469 8.4375-5.625 7.1719-15.797 11.531-29.156 10.641-7.875-0.5625-15.891-0.75-23.625-1.7812-12.141-1.5938-22.828-11.953-23.625-23.156-29.297 2.7188-59.391-0.14062-87.562 8.8125-8.5781 2.7188-19.078 3.2344-28.781 3.6562-7.4531 0.32812-9.8906 3.0938-11.062 6.9375-3.4219 11.531-3.2812 11.578-21 11.578h-14.625c1.125 12.422 1.7344 24.375 3.4219 36.281 0.98438 6.75-0.14062 12.562-6.375 15.938 0 5.7188-0.046875 10.125 0.046875 14.531 0.046875 1.4062-0.32812 3.2812 0.84375 4.125 9.4219 6.5625 19.172 12.938 34.031 13.312 12.469 0.32812 25.172-0.1875 37.312 1.3594 6.4219 0.84375 14.25 4.5 17.109 8.3438 5.3438 7.1719 13.172 12.375 20.953 18.047 3.2344 2.3438 6.0938 7.5 4.3125 9.6562-2.2031 2.6719-9.2344 5.0625-14.25 5.1094-127.26 0.28125-254.58 0.23438-381.84 0.23438-7.2656 0-15.188 0.46875-17.156-5.9531-2.0625-6.7031 3.6562-9.7969 9.7031-10.219 6.7031-7.6875 12.141-13.875 17.625-20.109 2.1094-2.3906 4.6875-4.5938 6.6562-7.0781 4.8281-6 11.766-7.6875 21.75-6.2344 23.297 3.375 30.188 0.9375 40.266-13.219 2.7656-3.8906 5.7656-15.797 5.7188-21.516-0.09375-15.094-0.046874-30.188-0.046874-44.391-17.016-5.7656-41.672 1.7344-44.297-17.625-22.078 0-44.297-0.09375-66.469 0.1875-1.9219 0.046875-4.9219 2.2031-5.4844 3.7031-4.0312 10.172-16.406 15.141-32.672 11.906-12.844-2.5312-22.875-7.125-24.938-17.25-1.7812-8.7188-6.5156-17.25-7.7812-25.969-1.0781-7.5469-0.1875-15.469 2.1094-22.875 0.84375-2.7656 7.9219-6.1875 12.609-6.5625 9.6094-0.70312 19.594 0.09375 29.344 0.9375 12.75 1.0781 22.453 4.875 22.734 13.266 12.609 1.5938 24.047 3.2812 35.578 4.4062 2.9531 0.28125 6.2812-1.125 9.4688-1.6406 6.4688-1.0312 13.312-3.375 19.359-2.7188 12.703 1.4062 18.281-2.8594 21.094-9.6562 2.5781-6.1875 8.7188-7.5938 17.062-7.5 11.062 0.09375 22.172 0.046875 32.062 0.046875 6.6094-10.078 12.938-19.453 18.797-28.969 1.0312-1.6406 1.1719-4.5938-0.32812-5.625-5.1562-3.4688-0.5625-6.4688-0.65625-9.4688-0.46875-10.594 17.016-12.234 19.734-20.531 0.70313-2.2031 1.875-4.4062 1.875-6.6094 0.046876-108.42 0-216.89-0.09375-325.31 0-0.23438-0.23437-0.46875-0.32812-0.70312-21.281-5.8594-24.938-14.531-11.578-27.656 5.625-5.4844-1.4531-25.172-9.5625-30.516-5.8594-3.8906-12.328-8.625-14.156-13.688-5.2031-14.438-9.7031-29.109-11.625-43.875-1.9688-15.234-0.46875-30.609-0.65625-45.938-0.046874-5.3438 1.4531-9.5625 9.7031-12.469 3.0469-1.0781 5.4844-6.3281 4.2188-8.7188-2.2031-4.0781-1.7812-10.359-13.406-9.9844-13.453 0.46875-20.719-3.0469-23.766-11.906-3.7031-10.781-6.0938-21.797-7.875-32.766-2.5781-15.891-5.2969-31.828-5.6719-47.812-0.28125-11.344 3.5625-22.688 4.9219-34.031 0.79688-6.5156 0.375-13.125 0.46875-19.688 0.09375-6.0938 0.98438-12.094 12.281-13.312 9.8438-1.0781 22.641 4.7344 25.031 11.016 1.6875 4.3594 3 8.8125 6.8906 13.453 1.2188-4.0312 3.2344-8.0625 3.4688-12.094 0.5625-8.8125 0-17.672 0.23437-26.531 0.14063-4.9688 2.0156-9.1406 10.453-11.344 3.8906-1.0312 7.9219-4.3125 9-7.0781 5.1562-13.641 9.4688-27.375 13.734-41.156 0.89063-2.9062 0.14063-6.0469 0.42188-9.0938 1.0312-10.969 5.9531-13.828 23.672-12.844-0.46875-3.2812-0.84375-6.375-1.4062-9.4688-1.2188-6.75 2.9531-11.109 11.391-11.625 8.7188-0.5625 15.188 3.2812 16.172 10.125 2.0156 14.297 3.6562 28.641 5.4844 42.938 0.46875 3.75 0.42187 7.6875 2.1562 11.203 1.3594 2.7188 5.1094 4.7812 9.1875 8.2969zm17.391 22.031c-2.3906 2.9062-3.5625 4.1719-4.5469 5.5312-3.6562 5.0625-9.8906 6.7969-17.812 5.9531-8.3438-0.89062-13.172-4.9219-12.938-9.9844 0.28125-6.8906-4.0312-11.391-10.359-16.406-4.875-3.8906-6.375-9.7969-8.6719-14.953-1.4531-3.3281-1.6406-6.8906-2.7656-11.906-1.4062 4.5938-2.2031 7.5469-3.1875 10.5-4.8281 14.25-9 28.547-24.703 39.938-3.3281 2.4375-4.4062 6.8438-4.7812 10.359-1.125 12.328-0.60938 24.75-2.3906 37.031-1.5938 10.969-5.25 21.844-8.2969 32.719-2.25 8.0156-12.562 9.0469-21.75 9.5156-8.5312 0.42188-11.906-4.1719-13.828-9.2812-0.89062-2.3438-3.4219-4.4062-5.2031-6.6094-1.4062 0.28125-2.8125 0.51562-4.2188 0.79688 3.5156 26.531 7.0781 53.062 10.547 79.125 20.812 1.875 26.578 3.6094 31.734 10.078 4.5938 5.8125 7.9688 12 12.328 17.859 1.4062 1.875 4.3125 3.3281 6.5156 4.9688 1.4062-0.46875 2.8125-0.9375 4.2656-1.4062-2.2969-10.359-4.4062-20.766-7.0781-31.078-0.42188-1.7812-2.5312-4.2188-4.7344-4.7812-18.141-4.6406-24.141-15-28.969-26.156-6.1875-14.25-0.5625-19.031 21.562-17.25 1.0312-2.2969 2.1562-4.6406 3.1406-7.0312 2.1562-5.2031 6.9844-8.6719 15.328-8.25s9.5156-2.7656 9.5156-6.9375c0.046875-9.8438-0.09375-19.688 0.09375-29.578 0.32812-15.891 0.75-31.781 1.4531-47.672 0.23438-5.625 3.5625-9.8438 13.406-9.9375 9.7969-0.09375 14.25 3.7031 15.703 9.6562 1.3594 5.3438 2.7656 10.688 4.125 15.984 20.203-1.3125 24.609 1.4062 25.219 14.297 0.28125 5.9062 1.0781 11.812 1.6406 17.578 19.078 0.51562 21.938 2.6719 22.312 14.203 0.23438 7.0312 1.0312 14.062 1.9688 21.094 0.1875 1.5 1.5938 3.8906 3.0938 4.1719 11.203 2.0156 12 7.8281 13.453 14.062 1.6406 7.0781 0.79688 14.625 13.125 19.453 8.2031 3.2344 3.6094 13.125-6.6094 14.906-7.4531 1.3125-15.516 1.0312-24 1.5469-0.23438 0.42188-0.79688 1.3594-1.0781 2.2969-3.2344 11.812-6.6094 23.578-9.4688 35.438-0.42188 1.7344 1.6406 3.75 2.5781 5.625 1.4531-1.875 3.6094-3.6562 4.2656-5.6719 0.9375-2.9062 0.42188-6.0469 1.125-9.0469 3.7031-15.797 11.109-18.422 33.047-11.766 0.5625 0.1875 1.4062-0.09375 3.8438-0.32812 14.531-20.859 27.141-42.656 30.516-66.516-21.516-0.89062-23.531-2.4375-23.578-17.156v-10.172c-20.578-3.5625-23.391-5.4375-27.609-18.469-0.9375-2.9531-1.7344-5.9531-2.0156-8.9531-1.0781-12.047-1.9219-24.094-2.9062-36.422-10.125 0-19.688-0.84375-22.406-10.969zm311.16 808.36c61.031 2.5312 120.56 4.9219 180.1 7.4062 22.734 0.9375 44.719 3.0938 65.156 11.156 16.828 6.6094 35.109 11.625 53.109 16.734 13.594 3.8438 27.562 6.75 42.75 2.8125 5.3906-1.4062 11.953-1.6406 17.859-1.3594 24 1.0781 47.953 2.8125 72 3.6562 4.9688 0.1875 13.828-1.8281 14.438-3.7969 1.5938-4.8281-3.2812-8.0156-11.719-8.6719-21.75-1.7344-43.359-4.0312-65.062-5.8594-39.281-3.3281-80.625-0.98438-114.47-18.938-0.28125-0.14063-0.70312-0.14063-1.0781-0.1875-33.797-3.75-67.406-8.7656-101.39-10.969-44.672-2.9062-89.672-3.5625-134.53-5.4375-17.391-0.70313-17.391-1.0312-17.484 10.453-0.046875 1.125 0.23438 2.3906 0.32812 3zm-413.02-526.45c35.531-1.6875 69.516-3.3281 102.84-4.9219 2.7656-13.875 5.25-26.156 8.0625-40.125-12.047 0-24.422-0.09375-36.797 0.046876-6.375 0.046874-12.75 0.89062-19.078 0.70312-7.0312-0.23437-12.516-2.4375-12.703-7.7812-0.1875-5.7188 5.2969-8.2031 12.938-8.4844 14.297-0.5625 28.641-1.2188 42.891-0.89063 9.2344 0.23438 10.547-2.0156 8.0625-8.1562h-110.06c0.46875 8.7656-1.5469 17.625 7.125 25.734 2.0625 1.9219 1.3594 7.7812-0.89063 8.6719-9 3.6562-7.2188 8.9531-6.6562 13.969 0.84375 6.75 2.6719 13.453 4.2656 21.234zm141.24 502.26c-4.4531 0-11.062-1.2656-15.375 0.28125-7.0781 2.5781-16.594 6.4688-18 10.781-2.4375 7.6406-7.6406 11.672-18.094 12.047-22.266 0.79688-44.625 0.42188-66.844 1.3125-11.859 0.46875-21.094-0.46875-23.531-9.2812-24.797 0.46875-24.797 0.46875-28.219-10.969-6.7969-0.65625-13.734-1.3594-20.953-2.0625-1.3594 14.109-2.7656 28.266-4.2656 43.688 70.5-0.84375 140.81-1.6875 209.16-2.4844-4.9219-15.469-9.2344-28.969-13.875-43.312zm-97.219-81.281c12.188 1.7812 14.859-1.4062 14.812-8.3438-0.28125-103.03-0.1875-206.11-0.1875-309.14 0-9.0938-0.23438-9.1875-14.625-7.4531zm21.703 146.29c0.70312 3.4219 1.3594 6.0938 1.7812 8.7656 0.89062 5.8594-4.7344 10.875-12.75 11.391-8.7188 0.5625-14.156-2.9531-14.766-9.7031-0.23438-2.5312 0.28125-5.1094-0.60938-7.5469-0.60938-1.6406-2.8125-4.125-4.5469-4.1719-3.1875-0.1875-8.4844 0.51562-9.4688 1.9219-2.4375 3.4688-2.4375 7.6406-4.4062 11.297-1.5469 2.8594-3.7031 6.1875-7.1719 7.7812-2.5781 1.1719-10.031 0.70312-11.203-0.65625-3.1875-3.6562-4.6875-8.1094-5.9531-12.375-0.70312-2.4844 0.32812-5.1562 0.60938-7.6875h-15.797c1.2188 14.672 2.3438 28.641 3.4688 42.516h147.47c-1.4531-14.531-2.7656-27.234-4.1719-40.734-5.9531 0.1875-11.297 0.375-16.688 0.5625-0.28125 2.3906-0.375 3.8906-0.65625 5.3906-1.4062 7.7344-7.9219 13.078-15.891 12.375-11.156-0.9375-12.328-6.8906-11.859-12.516 0.75-9.1406-7.9219-6.9844-17.391-6.6094zm37.219-720.94c-3.375-3.8438-7.2656-8.3906-11.344-12.797-2.1562-2.3438-4.2188-5.8125-7.3594-6.4688-9.0938-1.8281-12.562-6.0938-14.062-11.531-1.6875-5.9062-2.7188-11.953-4.3594-17.859-0.5625-1.9219-2.1562-3.75-3.2812-5.5781-1.0312 0.1875-2.0625 0.32812-3.0469 0.51562-0.23438 2.1562-0.51562 4.3125-0.75 6.4688-1.3125 11.531-1.3125 23.203-4.2656 34.594-2.5781 10.031-10.781 15.891-20.578 15.234-12.094-0.79688-15.609 1.2188-18.188 10.172 20.766 2.3906 25.453 13.172 27.984 24.891 2.0625 9.6094 3.7969 19.266 5.7656 29.156h25.969c4.8281-17.906 8.8594-35.531 14.719-52.828 1.8281-5.3438 8.8594-9.8438 12.797-13.969zm-10.641 640.64c-3.9375-7.5-5.4844-12.891-9.4688-17.344-3.4219-3.8438-3.8906-10.219-13.828-10.219-12.469-0.046875-25.031-0.14062-37.453 0.32812-3.5625 0.14062-8.8594 1.6406-10.078 3.4688-5.0156 7.7344-8.8125 15.797-13.031 23.766zm-121.92 162.52c53.953 1.0781 107.72 2.1562 162.1 3.2344-5.9062-8.7656-15.469-10.453-27.891-10.406-39.141 0-78.328-0.46875-117.47-1.3594-9.7031-0.23438-14.812 1.4531-16.734 8.5312zm54.141-620.26c2.8594 8.0625 4.9688 15.234 8.2031 22.172 0.89062 1.9219 5.0625 4.2188 8.1094 4.5 7.0312 0.70312 14.391 0.65625 21.469 0.09375 2.8594-0.23438 7.0781-2.2969 7.6875-4.0781 2.7188-7.2656 4.3125-14.719 6.375-22.359-2.8594-0.14062-5.1094-0.28125-7.3125-0.28125-14.672-0.09375-29.391-0.046875-44.531-0.046875zm333.74 467.44c1.4531 8.625 4.6406 16.594 3.5625 24.281-1.1719 7.9688-6.5625 15.656-10.125 23.531 13.125 3.4219 23.859 1.0781 28.172-7.8281 3.75-7.7812 5.2031-16.031 7.125-22.406-7.3594-4.125-16.031-6.5625-16.969-9.9844-1.6875-6.0469-6.3281-6.9375-11.766-7.5938zm-141.89 174.61c-93.094-1.9219-186.19-3.8438-279.28-5.7656-0.046875 0.70312-0.046875 1.3594-0.09375 2.0625 93.188 2.625 186.32 7.3594 279.37 3.7031zm-40.031-153.1c-2.0156 12.938 2.7656 16.172 19.172 14.156 4.8281-0.60938 9.7969-0.9375 14.391-2.0156 3.0938-0.75 5.625-2.5781 8.2969-4.0312 4.3594-2.3438 8.1562-5.6719 13.125-6.8906 6.8906-1.7344 14.719-1.875 22.125-2.7188-0.046874-0.375-0.09375-0.70312-0.14062-1.0781-25.5 0.84375-51 1.6875-76.969 2.5781zm-255.71 4.5469c-9.9375 1.4062-18.562 3.1875-27.375 3.7969-9.75 0.65625-20.062 1.4531-29.344 0.09375-10.969-1.6875-12.797-1.5469-12.094 6.1406h68.812zm-111.8 21.891c1.5938-0.14062 3.1406-0.23438 4.7344-0.375 0-9.9844 0.32812-19.969-0.32812-29.906-0.14062-1.875-4.2656-3.6094-6.5625-5.3906-1.6875 0.60938-3.375 1.1719-5.0625 1.7812 2.3906 11.297 4.7812 22.594 7.2188 33.891zm258.14-467.81c0.09375-1.0312 0.1875-2.0156 0.32813-3-15.609-0.75-31.266-1.4531-46.875-2.2031-0.09375 0.70312-0.14063 1.4531-0.23438 2.1562 15.562 0.98438 31.172 2.0156 46.781 3.0469z"/>
</svg>
