<?xml version="1.0" encoding="UTF-8"?>
<svg width="1200pt" height="1200pt" version="1.1" viewBox="0 0 1200 1200" xmlns="http://www.w3.org/2000/svg">
 <path d="m398.81 341.26c2.9531-1.7344 6.6094-1.7344 9.6094 0l89.953 51.938c2.9531 1.7344 4.7812 4.875 4.7812 8.2969v103.88c0 3.4219-1.8281 6.6094-4.7812 8.2969l-19.312 11.156c-1.5 0.89063-3.1406 1.2656-4.7812 1.2656-3.3281 0-6.5625-1.7344-8.3438-4.7812-2.6719-4.5938-1.0781-10.453 3.5156-13.125l14.531-8.3906v-92.812l-80.391-46.406-16.641 9.6094c-4.5938 2.6719-10.453 1.0781-13.125-3.5156s-1.0781-10.453 3.5156-13.125l21.422-12.375zm21.422 195.42-16.641 9.6094-80.391-46.406v-92.812l14.531-8.3906c4.5938-2.6719 6.1406-8.5312 3.5156-13.125-2.6719-4.5938-8.5312-6.1406-13.125-3.5156l-19.312 11.156c-2.9531 1.7344-4.7812 4.875-4.7812 8.2969v103.88c0 3.4219 1.8281 6.6094 4.7812 8.2969l89.953 51.938c1.5 0.84375 3.1406 1.2656 4.7812 1.2656s3.3281-0.42188 4.7812-1.2656l21.422-12.375c4.5938-2.6719 6.1406-8.5312 3.5156-13.125-2.6719-4.5938-8.5312-6.1406-13.125-3.5156zm486.19 69.188-114.61 66.188c-2.9531 1.7344-4.7812 4.875-4.7812 8.2969v132.37c0 3.4219 1.8281 6.6094 4.7812 8.2969l31.359 18.094c1.5 0.89062 3.1406 1.2656 4.7812 1.2656 3.3281 0 6.5625-1.7344 8.3438-4.7812 2.6719-4.5938 1.0781-10.453-3.5156-13.125l-26.578-15.328v-121.26l105.05-60.656 29.25 16.875c4.5938 2.6719 10.453 1.0781 13.125-3.5156s1.0781-10.453-3.5156-13.125l-34.031-19.641c-2.9531-1.7344-6.6094-1.7344-9.6094 0zm83.25 64.688 26.578 15.328v121.26l-105.05 60.656-29.25-16.875c-4.5938-2.6719-10.453-1.0781-13.125 3.5156s-1.0781 10.453 3.5156 13.125l34.031 19.641c1.5 0.84375 3.1406 1.2656 4.7812 1.2656s3.3281-0.42188 4.7812-1.2656l114.66-66.188c2.9531-1.7344 4.7812-4.875 4.7812-8.2969v-132.37c0-3.4219-1.8281-6.6094-4.7812-8.2969l-31.359-18.094c-4.5938-2.6719-10.453-1.0781-13.125 3.5156s-1.0781 10.453 3.5156 13.125zm94.078-15.844v183.71c0 4.7812-2.5781 9.2344-6.7031 11.625l-159.1 91.828c-2.0625 1.2188-4.4062 1.7812-6.7031 1.7812s-4.6406-0.60938-6.7031-1.7812l-152.34-87.984-108.56 62.672v96.141c0 4.7812-2.5781 9.2344-6.7031 11.625l-89.953 51.938c-2.0625 1.2188-4.4062 1.7812-6.7031 1.7812s-4.6406-0.60938-6.7031-1.7812l-89.953-51.938c-4.1719-2.3906-6.7031-6.8438-6.7031-11.625v-96.141l-127.08-73.359-83.25 48.047c-2.0625 1.2188-4.4062 1.7812-6.7031 1.7812s-4.6406-0.60938-6.7031-1.7812l-89.953-51.938c-4.1719-2.3906-6.7031-6.8438-6.7031-11.625v-103.88c0-4.7812 2.5781-9.2344 6.7031-11.625l89.953-51.938c4.1719-2.3906 9.2812-2.3906 13.453 0l90 51.938c4.1719 2.3906 6.7031 6.8438 6.7031 11.625v96.141l127.08 73.359 83.25-48.047c4.1719-2.3906 9.2812-2.3906 13.453 0l83.25 48.047 108.56-62.672v-168.19l-198.52-114.61-129.84 74.953c-2.0625 1.2188-4.4062 1.7812-6.7031 1.7812s-4.6406-0.60937-6.7031-1.7812l-136.55-78.844c-4.1719-2.3906-6.7031-6.8438-6.7031-11.625v-157.69c0-4.7812 2.5781-9.2344 6.7031-11.625l136.55-78.844c4.1719-2.3906 9.2812-2.3906 13.453 0l129.84 74.953 131.06-75.656v-96.141c0-4.7812 2.5781-9.2344 6.7031-11.625l89.953-51.938c4.1719-2.3906 9.2812-2.3906 13.453 0l89.953 51.938c4.1719 2.3906 6.7031 6.8438 6.7031 11.625v103.88c0 4.7812-2.5781 9.2344-6.7031 11.625l-89.953 51.938c-2.0625 1.2188-4.4062 1.7812-6.7031 1.7812s-4.6406-0.60938-6.7031-1.7812l-83.25-48.047-131.06 75.656v142.18l198.52 114.61 152.34-87.984c4.1719-2.3906 9.2812-2.3906 13.453 0l159.1 91.828c4.1719 2.3906 6.7031 6.8438 6.7031 11.625zm-385.64-371.29 76.547 44.203 76.547-44.203v-88.359l-76.547-44.203-76.547 44.203zm-171.37 98.953-123.14-71.109-123.14 71.109v142.18l123.14 71.109 123.14-71.109zm-230.53 349.18-76.547-44.203-76.547 44.203v88.359l76.547 44.203 76.547-44.203zm320.48 185.06-76.547-44.203-76.547 44.203v88.359l76.547 44.203 76.547-44.203zm440.16-254.16-145.64-84.094-145.64 84.094v168.19l145.64 84.094 145.64-84.094z"/>
</svg>
