<?xml version="1.0" encoding="utf-8"?>
<svg xmlns="http://www.w3.org/2000/svg" fill="none" height="100%" overflow="visible" preserveAspectRatio="xMidYMid meet" style="display: block;" viewBox="0 0 276 188.556" width="100%">
<g id="Lighthouse">
<g id="boat 1">
<path d="M80.2187 148.598C80.2708 148.462 80.2986 148.323 80.3021 148.18C80.3021 148.17 80.3091 148.159 80.3091 148.149V148.146C80.3091 147.993 80.2743 147.84 80.2187 147.694C80.2013 147.645 80.1735 147.603 80.1491 147.558C80.1178 147.499 80.1005 147.436 80.0587 147.384C80.0344 147.353 80.0031 147.332 79.9788 147.304C79.9405 147.263 79.9023 147.224 79.8606 147.19C79.7806 147.12 79.6972 147.064 79.6068 147.019C79.5616 146.995 79.5199 146.97 79.4712 146.953C79.3321 146.901 79.1896 146.87 79.0401 146.866C79.0332 146.866 79.0262 146.863 79.0192 146.863H54.6414L45.4462 128.479V115.873C45.4462 113.738 43.7079 112 41.5733 112H28.6609C26.5263 112 24.788 113.738 24.788 115.873V121.039C24.788 123.174 26.5263 124.912 28.6609 124.912H42.866V128.479L33.6709 146.863L9.28633 146.859C9.28286 146.859 9.27938 146.863 9.2759 146.863C9.12294 146.863 8.97344 146.897 8.83438 146.953C8.78571 146.97 8.74747 146.995 8.70228 147.019C8.61188 147.068 8.52497 147.123 8.44849 147.193C8.40677 147.231 8.36853 147.266 8.33028 147.308C8.30594 147.335 8.27118 147.356 8.25032 147.388C8.21208 147.443 8.19122 147.506 8.15993 147.561C8.13559 147.607 8.10778 147.648 8.09039 147.697C8.03477 147.843 8 147.996 8 148.149V148.152C8 148.163 8.00695 148.173 8.00695 148.184C8.01043 148.326 8.04172 148.465 8.09039 148.601C8.11125 148.653 8.13559 148.698 8.1634 148.747C8.19121 148.799 8.20512 148.855 8.23988 148.903L27.6078 176.021C27.6391 176.066 27.6808 176.101 27.7155 176.139C27.726 176.153 27.7329 176.17 27.7433 176.181C27.7503 176.188 27.7607 176.191 27.7712 176.198C27.8789 176.303 28.0041 176.383 28.1397 176.442C28.1675 176.456 28.1953 176.462 28.2231 176.473C28.3622 176.522 28.5047 176.556 28.6577 176.556H59.6475C59.8005 176.556 59.943 176.522 60.0821 176.473C60.1099 176.462 60.1377 176.456 60.1655 176.442C60.3011 176.383 60.4262 176.299 60.534 176.198C60.541 176.191 60.5514 176.188 60.5618 176.181C60.5757 176.167 60.5792 176.15 60.5896 176.139C60.6244 176.101 60.6661 176.063 60.6974 176.021L80.0653 148.903C80.1001 148.855 80.1174 148.799 80.1418 148.747C80.1661 148.698 80.1939 148.653 80.2148 148.601L80.2187 148.598ZM71.0613 149.442L58.0977 153.764L55.9353 149.442H71.0613ZM52.6465 148.646L55.6189 154.591L45.4425 157.984V134.253L52.6459 148.65L52.6465 148.646ZM27.3653 121.033V115.866C27.3653 115.154 27.9424 114.577 28.6551 114.577H41.5675C42.2802 114.577 42.8574 115.157 42.8574 115.866V122.322H28.6522C27.9395 122.322 27.3624 121.742 27.3624 121.033H27.3653ZM42.8639 157.982L32.6875 154.588L35.6599 148.644L42.8634 134.247L42.8639 157.982ZM30.2125 153.765L17.2489 149.443H32.3752L30.2125 153.765ZM41.7618 160.339L28.8219 173.279L12.6454 150.633L41.7618 160.339ZM44.1536 161.597L56.5298 173.974H31.7737L44.1499 161.597H44.1536ZM59.4854 173.279L46.5455 160.339L75.6619 150.633L59.4854 173.279Z" fill="var(--fill-0, #A4832E)" id="Vector"/>
</g>
<g id="building 1">
<path d="M203.193 138.042H222.928V153.561H203.193V138.042ZM206.88 149.874H219.241V141.73H206.88V149.874Z" fill="var(--fill-0, #22515D)" id="Vector_2"/>
<path d="M210.973 78.1514H207.436V81.8389H210.973V78.1514Z" fill="var(--fill-0, #22515D)" id="Vector_3"/>
<path d="M214.748 89.4071H211.564V93.0946H214.748V89.4071Z" fill="var(--fill-0, #22515D)" id="Vector_4"/>
<path d="M210.973 105.539H207.436V109.227H210.973V105.539Z" fill="var(--fill-0, #22515D)" id="Vector_5"/>
<path d="M214.748 115.025H211.564V118.712H214.748V115.025Z" fill="var(--fill-0, #22515D)" id="Vector_6"/>
<path d="M212.029 48.4788H207.436V52.1663H212.029V48.4788Z" fill="var(--fill-0, #22515D)" id="Vector_7"/>
<path d="M214.748 59.7346H211.26V63.4221H214.748V59.7346Z" fill="var(--fill-0, #22515D)" id="Vector_8"/>
<path d="M102.702 176.086V133.905H158.972V137.592H106.39V172.398H112.68V164.189C112.68 160.199 115.925 156.953 119.915 156.953C123.906 156.953 127.151 160.199 127.151 164.189V172.398H135.506V164.71H142.991V157.003H150.145V149.315H157.594V141.626H163.328V133.919H169.947L169.947 126.231H179.931V122.128H197.712V102.8H193.426V99.1123H197.712V72.9547H193.426V69.2672H197.712V44.5373H192.188L188.356 32.6364L199.334 32.637V17.3073H204.146L204.146 8.6752H209.249V0.930856H212.937V8.6752H217.816V17.3079H222.629V32.6376H233.606L229.775 44.5385H224.474V69.2683H228.76V72.9558H224.474V99.1135H228.76V102.801H224.474V122.129L230.135 122.13V113.753H232.096C232.926 108.503 237.108 102.989 242.185 102.989C247.262 102.989 251.444 108.503 252.274 113.753H254.234V122.13H263.251L270.839 176.087H102.704L102.702 176.086ZM123.463 164.189C123.463 162.232 121.871 160.641 119.915 160.641C117.959 160.641 116.367 162.233 116.367 164.189V172.398H123.463L123.463 164.189ZM214.128 12.3676H207.832V17.3128H214.128V12.3676ZM218.941 20.9997H203.021V32.6419H209.249V25.2167H212.937V32.6419H218.942L218.941 20.9997ZM228.544 36.3294H193.417L194.873 40.8553L227.087 40.8547L228.544 36.3294ZM220.785 52.1797H214.607V48.4922H220.785V44.5454H201.399V59.7483H208.498V63.4358H201.399V69.2729H220.785V52.1797ZM220.785 81.8523H213.165V78.1648H220.785V72.9603H201.399V89.4213H208.506V93.1088H201.399V99.1188H220.785V81.8523ZM201.399 102.806V115.038H208.506V118.726H201.399V122.13H220.785V109.24H213.165V105.552H220.785V102.806H201.399ZM164.714 171.709H179.931V157.985C174.727 155.381 169.778 155.371 164.714 157.973V171.709ZM242.184 106.681C239.321 106.681 236.608 110.287 235.844 113.757H248.526C247.761 110.287 245.047 106.681 242.184 106.681ZM250.546 117.445H233.823V122.134H250.546V117.445ZM183.618 125.822V126.237H183.627V130.366H260.684L260.045 125.822L183.618 125.822ZM244.028 147.81H263.138L262.49 143.201H244.029L244.028 147.81ZM244.028 151.497V156.125H264.308L263.657 151.497H244.028ZM244.028 159.812V164.422H265.475L264.827 159.812H244.028ZM244.028 139.513H261.972L261.204 134.054H244.029L244.028 139.513ZM265.993 168.109H244.028V172.405H266.597L265.993 168.109ZM240.341 172.405V167.844H236.653V164.156H240.341V159.52H236.653V155.832H240.341V151.194H236.653V147.507H240.341V142.869H236.653V139.181H240.341V134.053H183.627V139.181H188.563V142.869H183.627V147.507H186.455V151.194H183.627V155.832H186.872V159.52H183.627V172.405H240.341V172.405ZM161.027 172.405V155.814L161.949 155.281C167.808 151.901 173.863 151.459 179.931 153.947V129.925H173.634V137.615H167.015V145.321H161.281V153.01H153.832V160.698H146.678V168.405H139.192L139.193 172.405L161.027 172.405Z" fill="var(--fill-0, #22515D)" id="Vector_9"/>
<path d="M190.559 164.138H185.028V167.826H190.559V164.138Z" fill="var(--fill-0, #22515D)" id="Vector_10"/>
<path d="M229.278 164.138H223.747V167.826H229.278V164.138Z" fill="var(--fill-0, #22515D)" id="Vector_11"/>
<path d="M203.465 164.138H197.934V167.826H203.465V164.138Z" fill="var(--fill-0, #22515D)" id="Vector_12"/>
<path d="M216.372 164.138H210.84V167.826H216.372V164.138Z" fill="var(--fill-0, #22515D)" id="Vector_13"/>
<path d="M197.934 155.819H192.403V159.507H197.934V155.819Z" fill="var(--fill-0, #22515D)" id="Vector_14"/>
<path d="M220.059 155.819H214.528V159.507H220.059V155.819Z" fill="var(--fill-0, #22515D)" id="Vector_15"/>
<path d="M208.997 155.819H203.465V159.507H208.997V155.819Z" fill="var(--fill-0, #22515D)" id="Vector_16"/>
<path d="M231.122 155.819H225.59V159.507H231.122V155.819Z" fill="var(--fill-0, #22515D)" id="Vector_17"/>
<path d="M199.36 147.493H193.829V151.18H199.36V147.493Z" fill="var(--fill-0, #22515D)" id="Vector_18"/>
<path d="M229.278 147.493H228.129V151.18H229.278V147.493Z" fill="var(--fill-0, #22515D)" id="Vector_19"/>
<path d="M199.626 139.168H194.095V142.855H199.626V139.168Z" fill="var(--fill-0, #22515D)" id="Vector_20"/>
<path d="M231.122 139.168H225.59V142.855H231.122V139.168Z" fill="var(--fill-0, #22515D)" id="Vector_21"/>
<path d="M140.25 61.1137H134.981V64.8012H140.25V61.1137Z" fill="var(--fill-0, #39798A)" id="Vector_22"/>
<path d="M165.831 42.1821C165.831 45.8108 164.284 49.2333 161.635 51.6336C162.159 52.802 162.466 54.0881 162.466 55.4489C162.466 60.6057 158.263 64.8007 153.095 64.8007H145.331V61.1132H153.095C156.229 61.1132 158.778 58.5718 158.778 55.4489C158.778 52.3151 156.229 49.7656 153.095 49.7656H145.796L145.618 48.1201C144.974 42.1717 139.968 37.6868 133.974 37.6868C127.99 37.6868 122.992 42.1717 122.348 48.1201L122.17 49.7656H114.853C111.719 49.7656 109.17 52.3151 109.17 55.4489C109.17 58.5718 111.719 61.1132 114.853 61.1132H128.371V64.8007H114.853C109.685 64.8007 105.482 60.6057 105.482 55.4489C105.482 50.2813 109.685 46.0781 114.853 46.0781H118.95C120.474 39.0869 126.665 33.9992 133.975 33.9992C136.846 33.9992 139.538 34.7909 141.85 36.1639C144.037 32.065 148.28 29.4302 153.081 29.4302C160.111 29.4308 165.832 35.151 165.832 42.1821H165.831ZM153.08 33.1183C149.453 33.1183 146.273 35.2305 144.821 38.4622C146.877 40.4991 148.369 43.1148 149.016 46.0787H153.095C155.556 46.0787 157.781 47.0519 159.454 48.608C161.152 46.9215 162.144 44.6216 162.144 42.1821C162.143 37.1837 158.077 33.1183 153.08 33.1183Z" fill="var(--fill-0, #39798A)" id="Vector_23"/>
<path d="M154.923 14.1998H151.236V23.8444H154.923V14.1998Z" fill="var(--fill-0, #FAA20A)" id="Vector_24"/>
<path d="M167.353 30.5222L174.172 23.7027L171.565 21.0954L164.746 27.915L167.353 30.5222Z" fill="var(--fill-0, #FAA20A)" id="Vector_25"/>
<path d="M181.068 40.3442H171.423V44.0317H181.068V40.3442Z" fill="var(--fill-0, #FAA20A)" id="Vector_26"/>
<path d="M171.566 63.2849L174.173 60.6777L167.353 53.8581L164.746 56.4654L171.566 63.2849Z" fill="var(--fill-0, #FAA20A)" id="Vector_27"/>
<path d="M141.405 27.9085L134.584 21.0884L131.977 23.6962L138.798 30.5163L141.405 27.9085Z" fill="var(--fill-0, #FAA20A)" id="Vector_28"/>
<path d="M248.459 69.5684C249.95 67.2734 252.466 65.3283 256.465 65.3283V69.0158C251.015 69.0158 250.353 74.5615 250.296 75.1855L246.622 75.1935C246.564 74.5615 245.902 69.0158 240.452 69.0158V65.3283C244.451 65.3283 246.968 67.2736 248.459 69.5684Z" fill="var(--fill-0, #7A2D4A)" id="Vector_29"/>
<path d="M262.806 32.4028C264.48 29.568 267.437 27.0662 272.298 27.0662V30.7537C265.522 30.7537 264.712 37.6085 264.643 38.3829L260.968 38.3898C260.899 37.6085 260.09 30.7537 253.313 30.7537V27.0662C258.174 27.0662 261.132 29.568 262.806 32.4028Z" fill="var(--fill-0, #7A2D4A)" id="Vector_30"/>
<path d="M238.206 17.2014C238.192 17.0257 237.809 12.8998 233.939 12.8998V9.21226C236.868 9.21226 238.81 10.5012 240.043 12.119C241.277 10.5011 243.22 9.21226 246.148 9.21226V12.8998C242.394 12.8998 241.921 16.771 241.881 17.2014H238.206Z" fill="var(--fill-0, #7A2D4A)" id="Vector_31"/>
<path d="M112.216 142.678H106.685V146.366H112.216V142.678Z" fill="var(--fill-0, #22515D)" id="Vector_32"/>
<path d="M125.122 142.678H119.591V146.366H125.122V142.678Z" fill="var(--fill-0, #22515D)" id="Vector_33"/>
<path d="M150.942 142.678H145.411V146.366H150.942V142.678Z" fill="var(--fill-0, #22515D)" id="Vector_34"/>
<path d="M138.036 142.678H132.505V146.366H138.036V142.678Z" fill="var(--fill-0, #22515D)" id="Vector_35"/>
<path d="M131.176 151.232H125.644V154.919H131.176V151.232Z" fill="var(--fill-0, #22515D)" id="Vector_36"/>
<path d="M118.263 151.232H112.732V154.919H118.263V151.232Z" fill="var(--fill-0, #22515D)" id="Vector_37"/>
<path d="M144.082 151.232H138.551V154.919H144.082V151.232Z" fill="var(--fill-0, #22515D)" id="Vector_38"/>
</g>
<g id="robot1 1">
<path d="M136.325 110.207C136.755 110.207 137.104 110.554 137.104 110.986C137.104 111.413 136.755 111.762 136.325 111.762C135.896 111.762 135.549 111.413 135.549 110.986C135.549 110.554 135.896 110.207 136.325 110.207Z" fill="var(--fill-0, #22515D)" id="Vector_39"/>
<path d="M139.718 110.207C140.145 110.207 140.494 110.554 140.494 110.986C140.494 111.413 140.145 111.762 139.718 111.762C139.286 111.762 138.939 111.413 138.939 110.986C138.939 110.554 139.286 110.207 139.718 110.207Z" fill="var(--fill-0, #22515D)" id="Vector_40"/>
<path d="M134.918 129.793C134.504 129.793 134.13 129.962 133.857 130.233C133.586 130.504 133.417 130.881 133.417 131.294C133.417 131.712 133.584 132.089 133.857 132.361C134.128 132.632 134.503 132.799 134.918 132.799C135.334 132.799 135.709 132.632 135.98 132.361C136.25 132.09 136.419 131.712 136.419 131.294C136.419 130.881 136.25 130.504 135.98 130.233C135.709 129.962 135.334 129.793 134.918 129.793ZM133.018 129.393C133.504 128.906 134.176 128.606 134.918 128.606C135.66 128.606 136.332 128.906 136.818 129.393C137.304 129.879 137.605 130.55 137.605 131.293C137.605 132.035 137.304 132.706 136.818 133.194C136.33 133.682 135.659 133.985 134.916 133.985C134.176 133.985 133.502 133.682 133.016 133.194C132.53 132.706 132.23 132.035 132.23 131.293C132.231 130.552 132.532 129.88 133.018 129.393H133.018Z" fill="var(--fill-0, #A4832E)" id="Vector_41"/>
<path d="M135.016 107.609H141.015C141.434 107.609 141.811 107.802 142.078 108.116C142.325 108.401 142.477 108.791 142.477 109.214V112.675C142.477 113.098 142.325 113.487 142.078 113.773C141.811 114.085 141.434 114.28 141.015 114.28H135.016C134.597 114.28 134.22 114.087 133.953 113.773C133.706 113.487 133.554 113.098 133.554 112.675V109.214C133.554 108.791 133.706 108.401 133.953 108.116C134.22 107.802 134.597 107.609 135.016 107.609ZM141.015 108.797H135.016C134.959 108.797 134.899 108.83 134.853 108.886C134.784 108.966 134.742 109.082 134.742 109.214V112.675C134.742 112.808 134.784 112.923 134.853 113.003C134.899 113.057 134.959 113.092 135.016 113.092H141.015C141.073 113.092 141.132 113.059 141.178 113.003C141.247 112.923 141.29 112.806 141.29 112.675V109.214C141.29 109.081 141.247 108.966 141.178 108.886C141.13 108.83 141.073 108.797 141.015 108.797Z" fill="var(--fill-0, #171C1E)" id="Vector_42"/>
<path d="M133.835 114.369H142.167C142.609 114.369 143.01 114.549 143.301 114.84C143.592 115.131 143.772 115.532 143.772 115.974V123.192C143.772 123.633 143.592 124.034 143.301 124.325C143.01 124.617 142.609 124.797 142.167 124.797H133.835C133.393 124.797 132.992 124.617 132.701 124.325C132.41 124.034 132.23 123.633 132.23 123.192V115.974C132.23 115.532 132.41 115.13 132.701 114.84C132.99 114.549 133.393 114.369 133.835 114.369ZM142.166 115.556H133.835C133.72 115.556 133.616 115.603 133.54 115.679C133.463 115.755 133.417 115.859 133.417 115.974V123.192C133.417 123.305 133.463 123.41 133.54 123.487C133.616 123.563 133.72 123.609 133.835 123.609H142.167C142.281 123.609 142.386 123.563 142.462 123.487C142.538 123.41 142.585 123.307 142.585 123.192V115.974C142.585 115.861 142.538 115.755 142.462 115.679C142.384 115.603 142.281 115.556 142.165 115.556H142.166Z" fill="var(--fill-0, #7A2D4A)" id="Vector_43"/>
<path d="M138.609 104.607C138.609 104.279 138.343 104.013 138.015 104.013C137.686 104.013 137.421 104.279 137.421 104.607V108.201C137.421 108.53 137.686 108.795 138.015 108.795C138.343 108.795 138.609 108.53 138.609 108.201V104.607Z" fill="var(--fill-0, #7A2D4A)" id="Vector_44"/>
<path d="M141.082 129.793C140.668 129.793 140.293 129.962 140.02 130.233C139.75 130.504 139.581 130.881 139.581 131.294C139.581 131.712 139.748 132.089 140.02 132.361C140.291 132.632 140.666 132.799 141.082 132.799C141.497 132.799 141.872 132.632 142.143 132.361C142.414 132.09 142.583 131.712 142.583 131.294C142.583 130.881 142.414 130.504 142.143 130.233C141.872 129.962 141.497 129.793 141.082 129.793ZM139.182 129.393C139.668 128.906 140.34 128.606 141.082 128.606C141.824 128.606 142.496 128.906 142.982 129.393C143.468 129.879 143.769 130.55 143.769 131.293C143.769 132.035 143.468 132.706 142.982 133.194C142.494 133.682 141.822 133.985 141.08 133.985C140.34 133.985 139.666 133.682 139.18 133.194C138.694 132.706 138.393 132.035 138.393 131.293C138.395 130.552 138.696 129.88 139.182 129.393H139.182Z" fill="var(--fill-0, #A4832E)" id="Vector_45"/>
<path d="M133.597 127.06C133.269 127.06 133.003 127.325 133.003 127.654C133.003 127.982 133.269 128.248 133.597 128.248H136.579C136.907 128.248 137.173 127.982 137.173 127.654C137.173 127.325 136.907 127.06 136.579 127.06H133.597Z" fill="var(--fill-0, #7A2D4A)" id="Vector_46"/>
<path d="M139.548 127.06C139.219 127.06 138.954 127.325 138.954 127.654C138.954 127.982 139.219 128.248 139.548 128.248H142.529C142.858 128.248 143.123 127.982 143.123 127.654C143.123 127.325 142.858 127.06 142.529 127.06H139.548Z" fill="var(--fill-0, #7A2D4A)" id="Vector_47"/>
<path d="M145.713 116.256C145.713 115.927 145.448 115.662 145.119 115.662C144.791 115.662 144.526 115.927 144.526 116.256V122.728C144.526 123.056 144.791 123.322 145.119 123.322C145.448 123.322 145.713 123.056 145.713 122.728V116.256Z" fill="var(--fill-0, #22515D)" id="Vector_48"/>
<path d="M143.824 115.662H145.12V116.85H143.824V115.662Z" fill="var(--fill-0, #22515D)" id="Vector_49"/>
<path d="M131.474 116.256C131.474 115.927 131.209 115.662 130.881 115.662C130.552 115.662 130.287 115.927 130.287 116.256V122.728C130.287 123.056 130.552 123.322 130.881 123.322C131.209 123.322 131.474 123.056 131.474 122.728V116.256Z" fill="var(--fill-0, #22515D)" id="Vector_50"/>
<path d="M132.176 116.85H130.88V115.662H132.176V116.85Z" fill="var(--fill-0, #22515D)" id="Vector_51"/>
<path d="M133.597 125.37C133.269 125.37 133.003 125.635 133.003 125.964C133.003 126.292 133.269 126.557 133.597 126.557H136.579C136.907 126.557 137.173 126.292 137.173 125.964C137.173 125.635 136.907 125.37 136.579 125.37H133.597Z" fill="var(--fill-0, #22515D)" id="Vector_52"/>
<path d="M139.548 125.37C139.219 125.37 138.954 125.635 138.954 125.964C138.954 126.292 139.219 126.557 139.548 126.557H142.529C142.858 126.557 143.123 126.292 143.123 125.964C143.123 125.635 142.858 125.37 142.529 125.37H139.548Z" fill="var(--fill-0, #22515D)" id="Vector_53"/>
</g>
<rect fill="var(--fill-0, #7A2D4A)" height="9" id="Rectangle 1" width="17" x="27" y="105"/>
</g>
</svg>