<svg width="205" height="205" viewBox="0 0 205 205" fill="none" xmlns="http://www.w3.org/2000/svg">
<path d="M43.3542 106.416H84.7061V120.317L65.5198 122.96C64.0063 123.168 62.8772 124.473 62.8772 126.011V137.39C62.8772 139.087 64.2546 140.465 65.9522 140.465H139.079C140.777 140.465 142.154 139.087 142.154 137.39V126.011C142.154 124.473 141.025 123.184 139.511 122.96L120.325 120.317V106.416H161.677C166.762 106.416 170.902 102.276 170.902 97.1664L170.886 26.6738C170.886 21.5729 166.746 17.4247 161.661 17.4247H43.3539C38.2689 17.4247 34.1289 21.5647 34.1289 26.6738V97.175C34.1289 102.276 38.2689 106.424 43.3539 106.424L43.3542 106.416ZM40.2792 26.6739C40.2792 24.9763 41.6565 23.5749 43.3542 23.5749H161.637C163.335 23.5749 164.712 24.9682 164.712 26.6739V78.3561L40.2792 78.3481V26.6739ZM164.721 97.1666C164.721 98.8643 163.344 100.266 161.646 100.266H43.3867C41.689 100.266 40.3117 98.8724 40.3117 97.1666V84.4983H164.745V97.1666H164.721ZM114.144 119.925H90.8732V106.416H114.144V119.925ZM135.973 134.315H68.9963V128.702L87.9827 126.075H116.971L135.958 128.702V134.315H135.973Z" fill="#003A59"/>
<path d="M38.7415 187.575H166.25C168.668 187.575 170.902 186.366 172.216 184.34C173.529 182.314 173.753 179.791 172.768 177.573L161.533 152.109C160.364 149.466 157.737 147.761 154.847 147.761H50.1206C47.2297 147.761 44.6032 149.458 43.434 152.109L32.199 177.573C31.214 179.784 31.4222 182.306 32.7515 184.34C34.0648 186.366 36.299 187.575 38.7173 187.575H38.7415ZM50.1205 153.894H154.879C155.327 153.894 155.744 154.158 155.928 154.566L167.163 180.031C167.347 180.463 167.203 180.791 167.083 180.952C166.979 181.112 166.731 181.4 166.266 181.4H38.7424C38.27 181.4 38.0217 181.112 37.9256 180.952C37.8215 180.791 37.6614 180.439 37.8456 180.031L49.0806 154.566C49.2648 154.158 49.6732 153.894 50.1296 153.894H50.1205Z" fill="#003A59"/>
<path d="M84.7232 177.94H121.832C123.762 177.94 125.539 176.995 126.604 175.402C127.669 173.8 127.878 171.79 127.141 170.012L125.892 166.961C125.011 164.807 122.921 163.414 120.583 163.414H85.9973C83.6589 163.414 81.569 164.807 80.6882 166.961L79.4389 170.012C78.7022 171.798 78.9024 173.808 79.9755 175.402C81.0405 177.003 82.8263 177.94 84.7482 177.94H84.7232ZM120.294 169.556L121.215 171.79H85.34L86.2609 169.556H120.294Z" fill="#7A2D4A"/>
<path d="M127.714 46.9464C127.714 48.077 126.794 49.0052 125.664 49.0052C125.191 49.0052 124.761 48.8448 124.415 48.5833L120.896 49.6886L119.454 51.7305C119.293 51.9498 119.032 52.0848 118.762 52.0848H112.796V54.0508H116.593C117.066 54.0508 117.437 54.422 117.437 54.8945C117.437 55.3586 117.066 55.7383 116.593 55.7383H112.796V57.2233H118.762C118.973 57.2233 119.175 57.2992 119.327 57.4427L122.533 60.362C122.693 60.3199 122.854 60.303 123.023 60.303C124.153 60.303 125.073 61.2227 125.073 62.3617C125.073 63.4923 124.153 64.412 123.023 64.412C121.884 64.412 120.964 63.4923 120.964 62.3617C120.964 62.0242 121.048 61.7036 121.192 61.4167L118.433 58.9108H112.796V59.9739C112.796 60.4379 112.416 60.8176 111.952 60.8176H110.838V66.3612L113.344 69.1202C113.623 68.9768 113.943 68.8924 114.281 68.8924C115.42 68.8924 116.34 69.8121 116.34 70.9427C116.34 72.0817 115.42 73.0015 114.281 73.0015C113.15 73.0015 112.231 72.0817 112.231 70.9427C112.231 70.7824 112.247 70.6221 112.29 70.4702L109.37 67.2555C109.227 67.1036 109.151 66.9011 109.151 66.6902V60.8177H107.548V64.5217C107.548 64.9942 107.168 65.3655 106.704 65.3655C106.24 65.3655 105.86 64.9942 105.86 64.5217V60.8177H103.675V66.251L105.599 67.6179C105.751 67.7191 105.86 67.8794 105.911 68.0482L107.008 71.5413C107.05 71.5329 107.084 71.5329 107.126 71.5329C108.265 71.5329 109.185 72.4526 109.185 73.5916C109.185 74.7223 108.265 75.6419 107.126 75.6419C105.995 75.6419 105.076 74.7222 105.076 73.5916C105.076 73.1107 105.236 72.6804 105.497 72.3344L104.392 68.8244L102.35 67.3816C102.123 67.2213 101.988 66.9598 101.988 66.6898V60.8173H100.03V64.5213C100.03 64.9938 99.6503 65.365 99.1863 65.365C98.7222 65.365 98.3425 64.9938 98.3425 64.5213V60.8173H96.8575V66.6898C96.8575 66.9007 96.7731 67.1032 96.6297 67.255L93.7103 70.4698C93.7525 70.6216 93.7694 70.7819 93.7694 70.9423C93.7694 72.0813 92.8497 73.001 91.7191 73.001C90.5801 73.001 89.6604 72.0813 89.6604 70.9423C89.6604 69.8116 90.5801 68.892 91.7191 68.892C92.0566 68.892 92.3772 68.9763 92.6556 69.1198L95.17 66.3607V60.8172H94.0478C93.5838 60.8172 93.2041 60.4375 93.2041 59.9734V58.9103H87.5674L84.8083 61.4163C84.9518 61.7031 85.0361 62.0238 85.0361 62.3613C85.0361 63.4919 84.1164 64.4116 82.9774 64.4116C81.8468 64.4116 80.9271 63.4919 80.9271 62.3613C80.9271 61.2222 81.8468 60.3025 82.9774 60.3025C83.1461 60.3025 83.3064 60.3194 83.4668 60.3616L86.673 57.4422C86.8249 57.2988 87.0274 57.2228 87.2383 57.2228H93.2035V55.7378H89.4066C88.9341 55.7378 88.5629 55.3581 88.5629 54.8941C88.5629 54.4216 88.9341 54.0503 89.4066 54.0503H93.2035V52.0844H87.2383C86.9683 52.0844 86.7068 51.9494 86.5464 51.73L85.1036 49.6881L81.5852 48.5828C81.2392 48.8444 80.8089 49.0047 80.3364 49.0047C79.2058 49.0047 78.2861 48.0766 78.2861 46.946C78.2861 45.8153 79.2058 44.8872 80.3364 44.8872C81.4755 44.8872 82.3952 45.8153 82.3952 46.946C82.3952 46.9881 82.3952 47.0219 82.3867 47.0641L85.8799 48.161C86.0486 48.2116 86.2089 48.3297 86.3102 48.4731L87.677 50.3969H93.2035V48.2116H89.4066C88.9341 48.2116 88.5629 47.8319 88.5629 47.3679C88.5629 46.9038 88.9341 46.5241 89.4066 46.5241H93.2035V44.9294H87.2383C87.0274 44.9294 86.8249 44.845 86.673 44.71L83.4583 41.7822C83.3064 41.8244 83.1461 41.8413 82.9858 41.8413C81.8468 41.8413 80.927 40.9216 80.927 39.791C80.927 38.6604 81.8468 37.7323 82.9858 37.7323C84.1164 37.7323 85.0361 38.6604 85.0361 39.791C85.0361 40.1285 84.9517 40.4491 84.8083 40.7275L87.5673 43.2419H93.204V42.0691C93.204 41.5966 93.5837 41.2254 94.0478 41.2254H95.17V35.4964L92.6556 32.7374C92.3772 32.8808 92.0566 32.9652 91.7191 32.9652C90.58 32.9652 89.6603 32.0455 89.6603 30.9149C89.6603 29.7759 90.58 28.8562 91.7191 28.8562C92.8497 28.8562 93.7694 29.7759 93.7694 30.9149C93.7694 31.0752 93.7525 31.2355 93.7103 31.3874L96.6297 34.6021C96.7731 34.754 96.8575 34.9565 96.8575 35.1674V41.2258H98.4606C98.4522 41.192 98.4522 41.1498 98.4522 41.1161V37.3361C98.4522 36.8636 98.8319 36.4923 99.2959 36.4923C99.76 36.4923 100.14 36.8636 100.14 37.3361V41.1161C100.14 41.1498 100.14 41.192 100.131 41.2258H102.325V35.6066L100.401 34.2397C100.249 34.1385 100.14 33.9782 100.089 33.8094L98.9922 30.3163C98.95 30.3247 98.9162 30.3247 98.874 30.3247C97.735 30.3247 96.8153 29.405 96.8153 28.266C96.8153 27.1354 97.735 26.2157 98.874 26.2157C100.005 26.2157 100.924 27.1354 100.924 28.266C100.924 28.7469 100.764 29.1772 100.502 29.5232L101.608 33.0332L103.65 34.476C103.877 34.6363 104.012 34.8979 104.012 35.1679V41.2262H105.978C105.97 41.1925 105.97 41.1503 105.97 41.1165V37.3365C105.97 36.864 106.35 36.4928 106.814 36.4928C107.286 36.4928 107.657 36.864 107.657 37.3365V41.1165C107.657 41.1503 107.657 41.1925 107.649 41.2262H109.151V35.1679C109.151 34.9569 109.227 34.7544 109.37 34.6026L112.29 31.3879C112.247 31.236 112.231 31.0757 112.231 30.9154C112.231 29.7763 113.15 28.8566 114.281 28.8566C115.42 28.8566 116.34 29.7763 116.34 30.9154C116.34 32.046 115.42 32.9657 114.281 32.9657C113.943 32.9657 113.623 32.8813 113.344 32.7378L110.838 35.4969V41.2258H111.952C112.416 41.2258 112.796 41.5971 112.796 42.0696V43.2424H118.433L121.192 40.728C121.048 40.4496 120.964 40.129 120.964 39.7915C120.964 38.6608 121.884 37.7327 123.014 37.7327C124.153 37.7327 125.073 38.6608 125.073 39.7915C125.073 40.9221 124.153 41.8417 123.014 41.8417C122.854 41.8417 122.693 41.8249 122.542 41.7827L119.327 44.7105C119.175 44.8455 118.973 44.9298 118.762 44.9298H112.796V46.5246H116.593C117.066 46.5246 117.437 46.9042 117.437 47.3683C117.437 47.8324 117.066 48.2121 116.593 48.2121H112.796V50.3973H118.323L119.69 48.4736C119.791 48.3302 119.951 48.212 120.12 48.1614L123.613 47.0645C123.605 47.0223 123.605 46.9886 123.605 46.9464C123.605 45.8158 124.524 44.8877 125.663 44.8877C126.794 44.8877 127.714 45.8158 127.714 46.9464Z" fill="#7A2D4A"/>
</svg>
