<?xml version="1.0" encoding="UTF-8"?>
<svg width="1200pt" height="1200pt" version="1.1" viewBox="0 0 1200 1200" xmlns="http://www.w3.org/2000/svg">
 <path d="m743.26 377.44c-10.734-10.875-25.406-17.016-40.688-17.062h-282.56c-31.078 0-56.25 25.172-56.25 56.25v286.13c0.046876 15.469 6.3281 30.281 17.438 41.062l82.875 79.875c10.594 10.312 24.797 16.031 39.562 15.938h276.37c31.078 0 56.25-25.172 56.25-56.25v-287.06c0.09375-14.953-5.7656-29.344-16.312-39.938zm-214.87 283.69c-10.359 0-18.75-8.3906-18.75-18.75v-56.25h28.5c31.078 0 56.25-25.172 56.25-56.25v-18.75h52.5c4.9688 0 9.75 1.9688 13.266 5.4844s5.4844 8.2969 5.4844 13.266v132.74zm174.74-66.75h96.375v66.75h-96.375zm13.312-190.69 77.438 78.938c3.5625 3.6562 5.5781 8.5781 5.625 13.688v60.562h-96.375v-28.5c0-31.078-25.172-56.25-56.25-56.25h-52.5v-75h108.19c5.3438 0.09375 10.406 2.4844 13.875 6.5625zm-296.44-5.8125h136.87v131.26c0 4.9688-1.9688 9.75-5.4844 13.266-3.5156 3.5156-8.2969 5.4844-13.266 5.4844h-137.63v-131.26c0-5.1094 2.0625-9.9844 5.7656-13.547 3.6562-3.5156 8.625-5.3906 13.734-5.2031zm69.375 398.81-82.875-79.875c-3.7969-3.7031-5.9531-8.7656-6-14.062v-117.38h71.625v56.25c0 31.078 25.172 56.25 56.25 56.25h52.875v103.5h-78.375c-4.9219 0.28125-9.7969-1.4062-13.5-4.6875zm290.63 5.4375h-161.26v-103.5h180.74v84c0.23437 5.25-1.7812 10.312-5.4844 14.016-3.7031 3.7031-8.7656 5.7188-14.016 5.4844z"/>
 <path d="m1106.3 509.63c10.359 0 18.75-8.3906 18.75-18.75s-8.3906-18.75-18.75-18.75h-166.31v-71.625h166.31c10.359 0 18.75-8.3906 18.75-18.75s-8.3906-18.75-18.75-18.75h-166.31v-27.938c0-19.875-7.9219-38.953-21.984-53.016s-33.141-21.984-53.016-21.984h-27.938v-166.31c0-10.359-8.3906-18.75-18.75-18.75s-18.75 8.3906-18.75 18.75v166.31h-71.625v-166.31c0-10.359-8.3906-18.75-18.75-18.75s-18.75 8.3906-18.75 18.75v166.31h-71.625v-166.31c0-10.359-8.3906-18.75-18.75-18.75s-18.75 8.3906-18.75 18.75v166.31h-71.625v-166.31c0-10.359-8.3906-18.75-18.75-18.75s-18.75 8.3906-18.75 18.75v166.31h-71.625v-166.31c0-10.359-8.3906-18.75-18.75-18.75s-18.75 8.3906-18.75 18.75v166.31h-27.938c-41.438 0-75 33.562-75 75v27.938h-166.31c-10.359 0-18.75 8.3906-18.75 18.75s8.3906 18.75 18.75 18.75h166.31v71.625h-166.31c-10.359 0-18.75 8.3906-18.75 18.75s8.3906 18.75 18.75 18.75h166.31v71.625h-166.31c-10.359 0-18.75 8.3906-18.75 18.75s8.3906 18.75 18.75 18.75h166.31v71.625h-166.31c-10.359 0-18.75 8.3906-18.75 18.75s8.3906 18.75 18.75 18.75h166.31v71.625h-166.31c-10.359 0-18.75 8.3906-18.75 18.75s8.3906 18.75 18.75 18.75h166.31v27.938c0 19.875 7.9219 38.953 21.984 53.016s33.141 21.984 53.016 21.984h27.938v166.31c0 10.359 8.3906 18.75 18.75 18.75s18.75-8.3906 18.75-18.75v-166.31h71.625v166.31c0 10.359 8.3906 18.75 18.75 18.75s18.75-8.3906 18.75-18.75v-166.31h71.625v166.31c0 10.359 8.3906 18.75 18.75 18.75s18.75-8.3906 18.75-18.75v-166.31h71.625v166.31c0 10.359 8.3906 18.75 18.75 18.75s18.75-8.3906 18.75-18.75v-166.31h71.625v166.31c0 10.359 8.3906 18.75 18.75 18.75s18.75-8.3906 18.75-18.75v-166.31h27.938c19.875 0 38.953-7.9219 53.016-21.984s21.984-33.141 21.984-53.016v-27.938h166.31c10.359 0 18.75-8.3906 18.75-18.75s-8.3906-18.75-18.75-18.75h-166.31v-71.625h166.31c10.359 0 18.75-8.3906 18.75-18.75s-8.3906-18.75-18.75-18.75h-166.31v-71.625h166.31c10.359 0 18.75-8.3906 18.75-18.75s-8.3906-18.75-18.75-18.75h-166.31v-71.625zm-203.81 356.26c0 9.9375-3.9375 19.5-10.969 26.531s-16.594 10.969-26.531 10.969h-529.87c-20.719 0-37.5-16.781-37.5-37.5v-530.81c0-20.719 16.781-37.5 37.5-37.5h529.87c9.9375 0 19.5 3.9375 26.531 10.969s10.969 16.594 10.969 26.531z"/>
</svg>
