<?xml version="1.0" encoding="UTF-8"?>
<svg width="1200pt" height="1200pt" version="1.1" viewBox="0 0 1200 1200" xmlns="http://www.w3.org/2000/svg">
 <path d="m908.04 715.17h-140.81v-112.96h9.1602c15.711 0 28.492-12.777 28.492-28.492v-51.547c0-15.711-12.777-28.488-28.492-28.488h-51.547c-15.711 0-28.492 12.777-28.492 28.488v51.547c0 15.711 12.777 28.492 28.492 28.492h9.1602v112.96h-79.648c-4.2578-10.383-14.457-17.719-26.352-17.719h-51.555c-11.898 0-22.098 7.3359-26.352 17.719h-46.562l-14.641-69.605c-0.12109-0.57031-0.26953-1.125-0.44922-1.6797-4.1953-13.004-16.195-21.742-29.855-21.742l-162.76 0.003907c-17.293 0-31.363 14.078-31.363 31.371v273.72c0 9.1719 7.4336 16.609 16.609 16.609 9.1719 0 16.609-7.4414 16.609-16.609l0.003906-271.87h159.31l16.793 79.828c1.6172 7.6914 8.4023 13.195 16.258 13.195h57.906v29.094c0 15.711 12.777 28.492 28.492 28.492h51.547c15.711 0 28.492-12.777 28.492-28.492v-29.094h77.52v40.977c0 9.1719 7.4336 16.609 16.609 16.609 9.1719 0 16.609-7.4414 16.609-16.609v-40.977h140.8c1.7383 0 3.1602 1.418 3.1602 3.1484v361.43c0 11.473-9.3359 20.809-20.816 20.809h-571.89c-11.473 0-20.809-9.3359-20.809-20.809v-119.28c0-9.1719-7.4414-16.609-16.609-16.609-9.1719 0-16.609 7.4414-16.609 16.609v119.28c0 29.789 24.242 54.031 54.031 54.031h571.9c29.789 0 54.031-24.242 54.031-54.031l-0.003906-361.43c0-20.055-16.32-36.371-36.375-36.371zm-284.78 57.586h-42.082v-42.082h42.082zm106.31-203.77v-42.082h42.082v42.082z"/>
 <path d="m576.44 540.2h51.547c15.711 0 28.492-12.777 28.492-28.492v-51.547c0-15.711-12.777-28.488-28.492-28.488h-51.547c-15.711 0-28.492 12.777-28.492 28.488v51.547c0.003906 15.715 12.781 28.492 28.492 28.492zm4.7305-75.305h42.082v42.082h-42.082z"/>
 <path d="m724.84 471.54h51.547c15.711 0 28.492-12.777 28.492-28.492v-51.547c0-15.711-12.777-28.488-28.492-28.488h-51.547c-15.711 0-28.492 12.777-28.492 28.488v51.547c0.003906 15.715 12.781 28.492 28.492 28.492zm4.7344-75.305h42.082v42.082h-42.082z"/>
 <path d="m931.42 564.56h-51.547c-15.711 0-28.492 12.777-28.492 28.488v51.547c0 15.711 12.777 28.492 28.492 28.492h51.547c15.711 0 28.492-12.777 28.492-28.492v-51.547c0-15.711-12.781-28.488-28.492-28.488zm-4.7305 75.305h-42.082v-42.082h42.082z"/>
 <path d="m931.42 312.07h-51.547c-15.711 0-28.492 12.777-28.492 28.488v51.547c0 15.711 12.777 28.492 28.492 28.492h51.547c15.711 0 28.492-12.777 28.492-28.492v-51.547c0-15.711-12.781-28.488-28.492-28.488zm-4.7305 75.305h-42.082v-42.082h42.082z"/>
 <path d="m724.84 345.29h51.547c15.711 0 28.492-12.777 28.492-28.492v-51.547c0-15.711-12.777-28.488-28.492-28.488h-51.547c-15.711 0-28.492 12.777-28.492 28.488v51.547c0.003906 15.715 12.781 28.492 28.492 28.492zm4.7344-75.305h42.082v42.082h-42.082z"/>
 <path d="m428.05 345.29h9.1602v87.484c0 9.1719 7.4414 16.609 16.609 16.609 9.1719 0 16.609-7.4414 16.609-16.609v-87.484h9.1602c15.711 0 28.492-12.777 28.492-28.492v-51.547c0-15.711-12.777-28.488-28.492-28.488h-51.547c-15.711 0-28.492 12.777-28.492 28.488v51.547c0.007813 15.715 12.789 28.492 28.5 28.492zm4.7305-75.305h42.082v42.082h-42.082z"/>
 <path d="m277.74 407.31v47.617c0 9.1719 7.4414 16.609 16.609 16.609 9.1719 0 16.609-7.4414 16.609-16.609v-47.617h9.1602c15.711 0 28.492-12.777 28.492-28.492l0.003906-51.547c0-15.711-12.777-28.488-28.492-28.488h-51.547c-15.711 0-28.492 12.777-28.492 28.488v51.547c0 15.711 12.777 28.492 28.492 28.492zm-4.4297-75.305h42.082v42.082h-42.082z"/>
 <path d="m428.05 219.05h51.547c15.711 0 28.492-12.777 28.492-28.492v-51.547c0-15.711-12.777-28.488-28.492-28.488h-51.547c-15.711 0-28.492 12.777-28.492 28.488v51.547c0 15.715 12.781 28.492 28.492 28.492zm4.7305-75.305h42.082v42.082h-42.082z"/>
 <path d="m576.44 673.09h51.547c15.711 0 28.492-12.777 28.492-28.492v-51.547c0-15.711-12.777-28.488-28.492-28.488h-51.547c-15.711 0-28.492 12.777-28.492 28.488v51.547c0.003906 15.715 12.781 28.492 28.492 28.492zm4.7305-75.305h42.082v42.082h-42.082z"/>
 <path d="m627.99 1071.8c15.711 0 28.492-12.777 28.492-28.492v-51.547c0-15.711-12.777-28.488-28.492-28.488h-51.547c-15.711 0-28.492 12.777-28.492 28.488l0.003906 51.547c0 15.711 12.777 28.492 28.492 28.492zm-46.816-75.305h42.082v42.082h-42.082z"/>
 <path d="m576.44 274.42h51.547c15.711 0 28.492-12.777 28.492-28.492v-51.547c0-15.711-12.777-28.488-28.492-28.488h-51.547c-15.711 0-28.492 12.777-28.492 28.488v51.547c0.003906 15.715 12.781 28.492 28.492 28.492zm4.7305-75.305h42.082v42.082h-42.082z"/>
 <path d="m576.44 141.53h51.547c15.711 0 28.492-12.777 28.492-28.492l-0.003907-51.547c0-15.711-12.777-28.488-28.492-28.488h-51.547c-15.711 0-28.492 12.777-28.492 28.488v51.547c0.007813 15.715 12.785 28.492 28.496 28.492zm4.7305-75.305h42.082v42.082h-42.082z"/>
 <path d="m294.35 498.12c-9.1719 0-16.609 7.4414-16.609 16.609v19.934c0 9.1719 7.4414 16.609 16.609 16.609 9.1719 0 16.609-7.4414 16.609-16.609v-19.93c0-9.1719-7.4375-16.613-16.609-16.613z"/>
 <path d="m767.22 882.39v-35.438c0-9.1719-7.4336-16.609-16.609-16.609-9.1797 0-16.609 7.4414-16.609 16.609v35.438c0 9.1719 7.4336 16.609 16.609 16.609 9.1758 0.003906 16.609-7.4375 16.609-16.609z"/>
 <path d="m453.82 469.32c-9.1719 0-16.609 7.4414-16.609 16.609v17.719c0 9.1719 7.4414 16.609 16.609 16.609 9.1719 0 16.609-7.4414 16.609-16.609v-17.719c0-9.168-7.4375-16.609-16.609-16.609z"/>
</svg>
