<?xml version="1.0" encoding="UTF-8"?>
<svg width="1200pt" height="1200pt" version="1.1" viewBox="0 0 1200 1200" xmlns="http://www.w3.org/2000/svg">
 <path d="m1192.5 317.5c-10-10-25-10-35 0-70 70-187.5 87.5-327.5 52.5-37.5-140-17.5-255 52.5-327.5 10-10 10-25 0-35s-25-10-35 0c-77.5 80-102.5 202.5-70 347.5-42.5-10-80-12.5-117.5-12.5-110 0-197.5 40-255 112.5-60 77.5-75 192.5-47.5 322.5-147.5-32.5-270-7.5-347.5 70-10 10-10 25 0 35s25 10 35 0c70-70 187.5-87.5 327.5-52.5 37.5 140 17.5 255-52.5 327.5-10 10-10 25 0 35 5 5 10 7.5 17.5 7.5s12.5-2.5 17.5-7.5c77.5-80 102.5-202.5 70-347.5 42.5 10 80 12.5 117.5 12.5 110 0 197.5-40 255-112.5 60-77.5 75-192.5 47.5-322.5 42.5 10 82.5 15 120 15 95 0 172.5-27.5 230-85 7.5-7.5 7.5-25-2.5-35zm-435 397.5c-45 60-120 92.5-215 92.5-40 0-85-5-132.5-17.5-32.5-125-20-235 32.5-305 45-60 120-92.5 215-92.5 40 0 85 5 132.5 17.5 32.5 125 20 235-32.5 305z"/>
 <path d="m880 130 190 190c5 5 12.5 7.5 17.5 7.5 7.5 0 12.5-2.5 17.5-7.5 10-10 10-25 0-35l-190-190c-10-10-25-10-35 0-7.5 10-7.5 25 0 35z"/>
 <path d="m842.5 192.5c-10 10-10 25 0 35l130 130c5 5 12.5 7.5 17.5 7.5 7.5 0 12.5-2.5 17.5-7.5 10-10 10-25 0-35l-130-130c-10-10-25-10-35 0z"/>
 <path d="m320 1067.5-190-190c-10-10-25-10-35 0s-10 25 0 35l190 190c5 5 12.5 7.5 17.5 7.5s12.5-2.5 17.5-7.5c10-7.5 10-25 0-35z"/>
 <path d="m340 1012.5c7.5 0 12.5-2.5 17.5-7.5 10-10 10-25 0-35l-130-130c-10-10-25-10-35 0s-10 25 0 35l130 130c5 5 12.5 7.5 17.5 7.5z"/>
 <path d="m522.5 487.5c-10-10-25-10-35 0s-10 25 0 35l190 190c5 5 12.5 7.5 17.5 7.5 7.5 0 12.5-2.5 17.5-7.5 10-10 10-25 0-35z"/>
 <path d="m472.5 597.5c-10-10-25-10-35 0s-10 25 0 35l130 130c5 5 12.5 7.5 17.5 7.5 7.5 0 12.5-2.5 17.5-7.5 10-10 10-25 0-35z"/>
 <path d="m632.5 437.5c-10-10-25-10-35 0s-10 25 0 35l130 130c5 5 12.5 7.5 17.5 7.5s12.5-2.5 17.5-7.5c10-10 10-25 0-35z"/>
</svg>
