<svg width="228" height="207" viewBox="0 0 228 207" fill="none" xmlns="http://www.w3.org/2000/svg">
<path d="M220.987 183.76C220.987 183.519 220.792 183.326 220.553 183.326H204.362C207.441 181.875 209.581 178.749 209.581 175.127C209.581 175.001 209.572 174.874 209.566 174.747C209.566 174.726 209.566 174.706 209.564 174.685C209.4 171.275 207.355 168.27 204.236 166.864V160.245C204.575 160.084 204.809 159.749 204.809 159.36V158.262C204.809 157.716 204.349 157.272 203.784 157.272H197.167C196.602 157.272 196.143 157.716 196.143 158.262V159.36C196.143 159.777 196.411 160.131 196.787 160.277V166.863C193.689 168.259 191.65 171.235 191.463 174.614C191.446 174.677 191.446 174.739 191.457 174.799C191.452 174.909 191.444 175.016 191.444 175.126C191.444 178.748 193.584 181.872 196.662 183.324H184.857C182.184 183.324 180.01 184.974 180.01 187.004V192.504C180.01 194.535 182.184 196.185 184.857 196.185H220.551C220.791 196.185 220.985 195.989 220.985 195.751V193.731C220.985 193.722 220.98 193.716 220.98 193.71C220.978 193.682 220.97 193.654 220.963 193.626C220.957 193.598 220.95 193.57 220.937 193.544C220.933 193.538 220.935 193.529 220.931 193.523C219.515 190.972 219.515 188.508 220.931 185.988C220.935 185.982 220.935 185.973 220.937 185.967C220.95 185.941 220.957 185.913 220.963 185.885C220.97 185.857 220.978 185.829 220.98 185.801C220.98 185.793 220.985 185.786 220.985 185.778V183.765L220.987 183.76ZM186.038 190.725H183.718V188.864H186.038V190.725ZM183.718 191.857V191.593H186.038V193.273C184.96 193.243 184.184 193.193 183.903 193.019C183.727 192.91 183.712 192.646 183.716 191.855L183.718 191.857ZM186.909 188.864H190.791V193.879L189.04 192.459C188.877 192.328 188.645 192.33 188.483 192.465L186.909 193.808V188.862V188.864ZM219.062 188.864C218.991 189.483 218.993 190.104 219.073 190.725H191.658V188.864H219.062ZM191.659 191.593H219.239C219.378 192.16 219.578 192.727 219.844 193.294H191.659L191.659 191.593ZM219.213 187.994L183.721 187.996V187.893C183.721 186.843 183.749 186.563 184 186.43C184.43 186.207 185.605 186.207 187.386 186.207H219.843C219.561 186.802 219.353 187.397 219.213 187.996L219.213 187.994ZM197.389 167.543H197.391C197.445 167.521 197.492 167.489 197.533 167.448C197.552 167.429 197.565 167.401 197.58 167.378C197.595 167.354 197.614 167.335 197.625 167.309C197.647 167.257 197.66 167.199 197.66 167.143V159.914C197.66 159.673 197.464 159.48 197.226 159.48C197.215 159.48 197.208 159.484 197.198 159.486C197.189 159.486 197.18 159.48 197.17 159.48C197.077 159.48 197.015 159.415 197.015 159.359V158.261C197.015 158.203 197.079 158.141 197.17 158.141H203.787C203.879 158.141 203.941 158.206 203.941 158.261V159.359C203.941 159.417 203.877 159.48 203.787 159.48C203.546 159.48 203.353 159.675 203.353 159.914C203.353 159.942 203.363 159.967 203.37 159.993V161.656H202.251C202.01 161.656 201.817 161.851 201.817 162.09C201.817 162.331 202.012 162.524 202.251 162.524H203.37V163.091H201.542C201.301 163.091 201.108 163.287 201.108 163.525C201.108 163.766 201.303 163.959 201.542 163.959H203.37V167.141C203.37 167.199 203.381 167.255 203.404 167.306C203.415 167.334 203.436 167.356 203.454 167.382C203.469 167.403 203.479 167.427 203.497 167.446C203.537 167.487 203.585 167.519 203.638 167.541H203.641C206.395 168.677 208.275 171.176 208.644 174.072C204.128 172.422 202.122 173.292 200.183 174.138C198.31 174.959 196.529 175.728 192.352 174.413C192.612 171.371 194.531 168.72 197.395 167.541L197.389 167.543ZM192.323 175.323C193.93 175.81 195.215 175.999 196.289 175.999C198.106 175.999 199.327 175.465 200.526 174.94C202.438 174.102 204.255 173.318 208.705 175.031C208.705 175.063 208.709 175.095 208.709 175.127C208.709 179.648 205.031 183.325 200.511 183.325C196.057 183.325 192.428 179.753 192.323 175.325L192.323 175.323ZM180.878 192.504V187.004C180.878 185.481 182.7 184.194 184.857 184.194H220.114V185.337L187.385 185.339C185.129 185.339 184.19 185.352 183.595 185.661C182.849 186.05 182.849 186.785 182.849 187.893V191.853C182.845 192.742 182.843 193.387 183.449 193.761C183.898 194.038 184.615 194.104 186.04 194.143V194.751C186.04 194.921 186.139 195.076 186.293 195.146C186.448 195.217 186.629 195.192 186.757 195.082L188.775 193.361L190.953 195.127C191.033 195.192 191.13 195.224 191.226 195.224C191.291 195.224 191.353 195.211 191.413 195.181C191.564 195.108 191.66 194.955 191.66 194.788V194.16H220.118V195.312L184.858 195.316C182.701 195.316 180.879 194.029 180.879 192.506L180.878 192.504ZM198.665 177.618C198.665 177.029 198.186 176.55 197.597 176.55C197.008 176.55 196.529 177.029 196.529 177.618C196.529 178.206 197.008 178.685 197.597 178.685C198.186 178.685 198.665 178.206 198.665 177.618ZM197.597 177.991C197.391 177.991 197.223 177.824 197.223 177.618C197.223 177.411 197.391 177.244 197.597 177.244C197.803 177.244 197.971 177.411 197.971 177.618C197.971 177.824 197.803 177.991 197.597 177.991ZM199.011 178.679C198.547 178.679 198.169 179.057 198.169 179.521C198.169 179.985 198.547 180.363 199.011 180.363C199.475 180.363 199.853 179.985 199.853 179.521C199.853 179.057 199.475 178.679 199.011 178.679ZM199.011 179.667C198.929 179.667 198.865 179.601 198.865 179.521C198.865 179.439 198.931 179.375 199.011 179.375C199.092 179.375 199.157 179.442 199.157 179.521C199.157 179.603 199.09 179.667 199.011 179.667ZM207.529 177.222C207.411 178.571 206.315 180.423 204.749 181.064C204.696 181.085 204.64 181.096 204.584 181.096C204.412 181.096 204.251 180.995 204.182 180.825C204.092 180.604 204.197 180.348 204.418 180.258C205.624 179.764 206.567 178.221 206.661 177.145C206.683 176.906 206.893 176.728 207.132 176.75C207.37 176.771 207.549 176.982 207.527 177.22L207.529 177.222ZM200.981 154.95C201.57 154.95 202.049 154.47 202.049 153.882C202.049 153.293 201.57 152.814 200.981 152.814C200.392 152.814 199.913 153.293 199.913 153.882C199.913 154.47 200.392 154.95 200.981 154.95ZM200.981 153.508C201.187 153.508 201.355 153.676 201.355 153.882C201.355 154.088 201.187 154.256 200.981 154.256C200.775 154.256 200.607 154.088 200.607 153.882C200.607 153.676 200.775 153.508 200.981 153.508ZM199.567 156.627C200.031 156.627 200.41 156.249 200.41 155.785C200.41 155.321 200.031 154.943 199.567 154.943C199.103 154.943 198.725 155.321 198.725 155.785C198.725 156.249 199.103 156.627 199.567 156.627ZM199.567 155.639C199.649 155.639 199.714 155.706 199.714 155.785C199.714 155.867 199.647 155.931 199.567 155.931C199.486 155.931 199.421 155.865 199.421 155.785C199.421 155.704 199.488 155.639 199.567 155.639Z" fill="#003A59"/>
<path d="M109.09 195.649C109.036 195.583 108.982 195.517 108.945 195.434C108.924 195.388 108.924 195.334 108.911 195.289C108.891 195.21 108.862 195.14 108.862 195.057V195.045C108.808 191.372 109.814 188.461 111.851 186.395C114.174 184.035 117.793 182.842 122.605 182.842H124.41C121.823 176.155 121.504 167.249 123.603 158.641C125.934 149.071 130.882 141.341 137.201 137.333C137.781 135.138 139.636 133.478 141.93 133.184C141.988 131.805 142.534 130.505 143.47 129.532L139.743 122.721C139.379 122.89 138.994 122.994 138.6 122.994C138.344 122.994 138.087 122.957 137.83 122.882C137.135 122.679 136.559 122.215 136.211 121.582L135.093 119.541C134.373 118.228 134.857 116.576 136.17 115.855L142.687 112.29C143.321 111.943 144.054 111.864 144.754 112.067C145.449 112.27 146.025 112.733 146.373 113.367L147.49 115.408C147.838 116.042 147.917 116.775 147.714 117.474C147.524 118.116 147.11 118.65 146.551 119.002L150.285 125.826C151.171 125.648 152.091 125.669 152.989 125.946C154.418 126.385 155.602 127.354 156.322 128.671L167.192 148.533C168.31 148.384 169.461 148.914 170.032 149.962L171.27 152.223C172.016 153.581 171.515 155.295 170.152 156.04L158.136 162.616C157.71 162.848 157.246 162.959 156.791 162.959C155.797 162.959 154.828 162.429 154.319 161.498L153.081 159.237C152.72 158.579 152.638 157.821 152.849 157.096C152.969 156.682 153.188 156.318 153.47 156.007L149.097 148.016C145.321 149.063 140.783 152.455 138.514 155.303C138.941 156.036 139.206 156.877 139.206 157.788C139.206 160.529 136.978 162.757 134.237 162.757C134.075 162.757 133.926 162.723 133.769 162.711C132.879 165.059 132.133 168.102 131.839 171.092C133.09 169.961 134.916 169.377 137.297 169.377H152.997C154.782 169.377 156.281 169.742 157.452 170.437L175.158 160.719C175.647 160.45 176.255 160.628 176.524 161.116L179.005 165.638C179.133 165.87 179.162 166.147 179.087 166.404C179.013 166.661 178.839 166.876 178.607 167.004L159.908 177.265C159.887 177.278 159.866 177.282 159.846 177.29C159.833 177.294 159.825 177.307 159.813 177.311C159.8 177.315 159.78 177.315 159.767 177.319C159.655 177.361 159.539 177.389 159.423 177.389L141.545 177.423C142.82 178.888 143.623 180.772 143.723 182.843H153.71C158.496 182.843 162.086 184.01 164.379 186.308C166.417 188.35 167.452 191.29 167.452 195.049C167.452 195.132 167.423 195.207 167.402 195.285C167.39 195.335 167.39 195.393 167.369 195.438C167.336 195.513 167.286 195.571 167.236 195.633C167.207 195.674 167.187 195.72 167.154 195.757C167.125 195.786 167.083 195.803 167.05 195.828C166.88 195.96 166.677 196.051 166.446 196.051H109.851C109.715 196.051 109.582 196.022 109.462 195.973C109.433 195.96 109.412 195.935 109.383 195.919C109.296 195.873 109.214 195.828 109.143 195.757C109.114 195.728 109.098 195.687 109.073 195.654L109.09 195.649ZM139.01 138.757C139.01 140.761 140.641 142.397 142.649 142.397C144.654 142.397 146.289 140.765 146.289 138.757C146.289 136.753 144.658 135.118 142.649 135.118C140.645 135.118 139.01 136.749 139.01 138.757ZM145.734 116.374L144.616 114.332C144.525 114.171 144.376 114.051 144.194 113.997C144.128 113.976 144.061 113.968 143.991 113.968C143.875 113.968 143.759 113.997 143.656 114.055L137.138 117.62C136.799 117.806 136.67 118.237 136.857 118.576L137.975 120.618C138.066 120.779 138.215 120.899 138.397 120.953C138.579 121.007 138.77 120.986 138.931 120.895L139.668 120.489L140.774 119.885L145.449 117.326C145.61 117.235 145.73 117.086 145.784 116.903C145.838 116.721 145.817 116.531 145.726 116.369L145.734 116.374ZM144.798 119.98L141.523 121.773L145.121 128.344L148.397 126.551L144.798 119.98ZM154.566 129.636C154.098 128.779 153.328 128.149 152.405 127.864C151.49 127.582 150.533 127.673 149.718 128.12L145.734 130.298C144.658 130.886 143.991 132.029 143.946 133.271C146.438 133.859 148.301 136.087 148.301 138.757C148.301 139.652 148.074 140.488 147.701 141.242L155.171 154.894L165.348 149.325L154.57 129.632L154.566 129.636ZM154.856 158.273L156.094 160.533C156.305 160.923 156.794 161.063 157.183 160.852L169.199 154.277C169.588 154.066 169.729 153.577 169.518 153.188L168.28 150.927C168.135 150.662 167.858 150.509 167.576 150.509C167.448 150.509 167.315 150.542 167.191 150.608L155.175 157.184C154.989 157.287 154.852 157.457 154.794 157.664C154.732 157.871 154.757 158.086 154.856 158.273ZM137.205 157.788C137.205 156.157 135.876 154.827 134.245 154.827C132.613 154.827 131.284 156.157 131.284 157.788C131.284 159.419 132.613 160.749 134.245 160.749C135.876 160.749 137.205 159.419 137.205 157.788ZM129.276 157.788C129.276 155.047 131.504 152.819 134.245 152.819C135.342 152.819 136.348 153.188 137.172 153.792C139.458 151.072 143.876 147.544 148.124 146.219L146.356 142.985C145.362 143.859 144.074 144.406 142.65 144.406C139.905 144.406 137.615 142.435 137.11 139.83C131.785 143.751 127.619 150.658 125.561 159.113C123.623 167.063 123.83 175.228 126.054 181.459C126.534 179.14 127.913 177.149 129.809 175.865C129.337 171.348 130.455 165.845 131.846 162.106C130.323 161.257 129.279 159.647 129.279 157.783L129.276 157.788ZM137.301 171.386C134.199 171.386 132.539 172.459 132.05 174.773C132.92 174.492 133.847 174.334 134.808 174.334C136.348 174.334 137.802 174.728 139.069 175.415L158.355 175.378C158.016 172.703 156.264 171.386 153.001 171.386L137.301 171.386ZM175.249 162.964L159.06 171.846C159.681 172.641 160.099 173.614 160.298 174.753L176.76 165.718L175.245 162.96L175.249 162.964ZM162.968 187.725C161.064 185.816 157.95 184.847 153.718 184.847H142.73C142.717 184.847 142.705 184.839 142.696 184.839C142.684 184.839 142.672 184.843 142.663 184.843C142.605 184.839 142.56 184.814 142.506 184.797C142.44 184.781 142.373 184.772 142.315 184.744C142.258 184.715 142.208 184.673 142.158 184.636C142.104 184.599 142.05 184.565 142.009 184.52C141.964 184.474 141.939 184.416 141.901 184.363C141.868 184.309 141.831 184.259 141.806 184.197C141.781 184.135 141.777 184.069 141.765 184.002C141.757 183.949 141.732 183.899 141.732 183.841C141.732 183.828 141.74 183.82 141.74 183.808C141.74 183.795 141.736 183.783 141.736 183.77C141.748 183.605 141.752 183.439 141.752 183.274C141.752 179.448 138.639 176.338 134.817 176.338C130.991 176.338 127.881 179.448 127.881 183.274C127.881 183.439 127.885 183.605 127.898 183.77C127.898 183.783 127.894 183.795 127.894 183.808C127.894 183.82 127.902 183.828 127.902 183.841C127.902 183.899 127.877 183.949 127.869 184.002C127.856 184.069 127.852 184.135 127.827 184.197C127.803 184.259 127.765 184.309 127.732 184.363C127.699 184.416 127.67 184.474 127.624 184.52C127.579 184.565 127.525 184.599 127.475 184.636C127.422 184.673 127.376 184.715 127.318 184.744C127.26 184.773 127.19 184.781 127.128 184.797C127.074 184.81 127.024 184.839 126.97 184.843C126.945 184.843 126.925 184.847 126.9 184.847H122.618C118.366 184.847 115.227 185.841 113.298 187.799C111.828 189.29 111.028 191.389 110.904 194.035H165.424C165.267 191.29 164.468 189.215 162.973 187.721L162.968 187.725ZM158.219 139.527L154.791 133.263C154.567 132.857 154.058 132.708 153.652 132.931C153.246 133.155 153.097 133.664 153.321 134.07L156.749 140.335C156.902 140.612 157.188 140.77 157.486 140.77C157.623 140.77 157.76 140.737 157.888 140.666C158.294 140.443 158.443 139.933 158.219 139.527ZM160.67 144.003L159.983 142.749C159.759 142.343 159.25 142.194 158.844 142.418C158.439 142.641 158.29 143.151 158.513 143.556L159.2 144.811C159.354 145.088 159.639 145.246 159.937 145.246C160.074 145.246 160.211 145.213 160.339 145.142C160.745 144.919 160.894 144.409 160.67 144.003ZM144.787 138.757C144.787 139.941 143.827 140.902 142.642 140.902C141.458 140.902 140.498 139.941 140.498 138.757C140.498 137.573 141.458 136.612 142.642 136.612C143.827 136.612 144.787 137.573 144.787 138.757ZM142.17 138.757C142.17 139.018 142.381 139.229 142.642 139.229C142.903 139.229 143.114 139.018 143.114 138.757C143.114 138.496 142.903 138.285 142.642 138.285C142.381 138.285 142.17 138.496 142.17 138.757ZM134.821 187.008C132.581 187.008 130.763 185.187 130.763 182.951C130.763 180.711 132.585 178.893 134.821 178.893C137.061 178.893 138.879 180.715 138.879 182.951C138.879 185.191 137.057 187.008 134.821 187.008ZM134.821 180.901C133.69 180.901 132.771 181.82 132.771 182.951C132.771 184.081 133.69 185 134.821 185C135.951 185 136.87 184.081 136.87 182.951C136.87 181.82 135.951 180.901 134.821 180.901Z" fill="#7A2D4A"/>
<g clip-path="url(#clip0_32_23)">
<path d="M28.0647 69.986C34.202 68.4406 33.4582 64.3445 33.3523 63.8906C33.2321 63.1007 33.7006 62.4079 34.5247 62.3531C37.499 62.2772 38.4099 60.147 38.6905 58.7094C38.3586 58.2343 38.3735 57.4855 38.876 57.1198C38.9942 56.5358 39.5756 56.1343 40.1675 56.1966C45.5011 56.6875 47.1551 51.9729 47.4384 51.0239C47.7262 49.8541 49.4489 49.8295 49.805 50.9667L57.3932 68.2616C61.1665 66.0397 64.5126 65.0056 69.3093 63.7135L66.0323 53.4521C65.645 52.3458 67.0391 51.3499 67.9593 52.0839C74.3153 56.8657 78.3431 52.162 78.7749 51.6142C79.0477 51.324 79.4535 51.0544 79.8711 51.1625C80.216 51.1678 80.4862 51.3807 80.7192 51.6009C83.4042 55.3569 88.2487 52.4449 89.4342 51.3295C89.5848 51.2209 89.7555 51.1411 89.927 51.0681C90.4334 50.9051 90.993 51.1533 91.2821 51.5811C94.939 57.6911 102.065 54.2967 102.363 54.121C103.379 53.5605 104.6 54.7694 104.028 55.7898L98.7095 66.2139C107.32 70.461 117.932 80.8837 121.746 85.6245L125.923 80.4747C130.389 74.7232 139.425 73.7947 144.981 78.4955C150.777 83.1978 151.672 91.7444 146.966 97.5447L142.88 102.582C146.623 107.626 140.27 113.88 135.27 109.987C130.426 105.895 135.252 98.377 140.957 101.016L145.043 95.9792C151.234 88.4398 144.989 76.932 135.304 77.9997C132.361 78.3065 129.714 79.7394 127.852 82.0341L123.318 87.6239C125.361 90.8097 128.784 93.9793 125.813 96.665L124.672 107.521C124.589 108.701 122.881 109.037 122.352 107.99L118.11 100.271L118.104 100.272L118.768 106.611C118.822 107.129 118.55 107.626 118.078 107.854C117.61 108.085 117.046 107.996 116.678 107.635L111.91 103.063L94.5044 110.911L98.6499 114.143L106.925 109.978C107.967 109.408 109.177 110.669 108.566 111.683L104.617 118.796L105.423 119.425L116.369 113.997C117.409 113.437 118.607 114.69 118.007 115.706L112.765 125.237C113.765 126.31 113.478 128.217 112.194 128.946C109.166 130.788 102.134 134.413 93.1147 134.913C68.7347 137.503 37.9358 104.204 47.4762 79.8097L27.9193 72.3403C26.8121 71.9598 26.9033 70.2251 28.0586 69.9773L28.0647 69.986ZM136.408 104.028C134.097 107.031 138.408 110.528 140.873 107.65C143.184 104.647 138.873 101.151 136.408 104.028ZM49.604 81.1956C43.4086 96.9521 57.492 117.189 71.0171 126.158C84.8017 135.768 101.305 132.908 110.895 126.836L110.449 126.486C106.809 123.646 95.8284 115.093 92.0156 112.119C78.1321 119.2 64.274 104.491 60.2224 88.3867C58.5736 83.1074 57.2512 78.8787 52.8008 75.699C51.4725 77.3595 50.4212 79.2322 49.6097 81.1936L49.604 81.1956ZM69.3826 55.814L71.7352 63.186C74.0062 62.7392 76.4201 62.4084 78.9385 62.287L78.6247 55.0158C76.6655 56.3392 73.4419 57.5912 69.3795 55.8177L69.3826 55.814ZM83.702 55.9537C82.7706 55.8717 81.9147 55.589 81.1112 55.1493L81.4164 62.2389C83.3734 62.2485 85.3755 62.3944 87.4084 62.7025L88.6094 54.8326C87.2794 55.5188 85.5445 56.1197 83.699 55.9574L83.702 55.9537ZM100.421 57.4099C97.5488 58.0364 93.9021 57.8725 91.0575 55.2282L89.8509 63.1435C92.0317 63.6152 94.2369 64.2876 96.4433 65.2042L100.418 57.4138L100.421 57.4099ZM122.615 103.33L123.177 97.9858L120.375 99.2491L122.615 103.33ZM115.945 103.502L115.717 101.346L114.342 101.965L115.942 103.499L115.945 103.502ZM111.651 100.461L116.265 98.3792L124.113 94.8407C124.34 94.7378 124.431 94.5561 124.465 94.4527C125.108 92.199 108.381 72.9293 96.4228 67.8877C93.7069 66.6763 90.9815 65.8688 88.2918 65.3709C88.2479 65.3789 88.2117 65.362 88.1725 65.3489C85.5084 64.8655 82.8854 64.6776 80.3554 64.7209C80.2962 64.7478 80.2365 64.7368 80.1769 64.7258C77.0332 64.7953 74.0393 65.2106 71.2846 65.8077C71.2421 65.8294 71.1869 65.8282 71.1399 65.84C64.272 67.5787 59.1628 69.01 54.405 73.8066C59.3971 77.4633 60.9467 82.4189 62.5794 87.6478C66.4817 103.15 79.6258 116.632 91.4121 109.609C91.4811 109.577 91.5344 109.527 91.6065 109.492L111.647 100.457L111.651 100.461ZM102.64 117.259L104.443 114.006L100.808 115.835C101.153 116.102 102.277 116.977 102.637 117.263L102.64 117.259ZM113.931 117.98L107.595 121.123L110.822 123.634L113.931 117.98ZM48.5676 77.5744C50.2296 74.5567 52.5618 71.7894 55.3132 69.7047L48.5877 54.3758C47.4987 56.1182 45.5809 58.1363 42.3936 58.6132L50.9819 65.58C51.5123 66.0102 51.594 66.7937 51.1637 67.3242C50.7335 67.8546 49.95 67.9362 49.4196 67.506L40.7679 60.4877C40.2152 61.9916 39.1643 63.4717 37.3524 64.2598L46.2224 71.4551C46.7528 71.8854 46.8345 72.6689 46.4042 73.1993C45.974 73.7297 45.1905 73.8114 44.6601 73.3811L35.7339 66.1402C35.4006 67.7659 34.4271 69.7579 31.8385 71.1883L48.5726 77.5842L48.5676 77.5744Z" fill="#003A59"/>
<path d="M84.9416 101.374L69.3181 95.7229C68.8744 95.5625 68.5527 95.1518 68.5067 94.678C68.4607 94.2041 68.6916 93.7427 69.1033 93.4966C69.1291 93.4801 71.8425 91.8267 72.6395 89.4295C73.608 86.4979 73.2623 84.6021 73.2505 84.5551C73.1607 83.9584 73.4695 83.3856 74.0226 83.142C74.0461 83.1361 76.2806 82.273 78.5145 80.9416C80.68 79.6483 82.4649 76.9175 82.4825 76.8881C82.9377 76.1347 84.1367 76.1406 84.5779 76.9039L93.3294 91.026C96.895 96.5567 91.0988 103.717 84.9441 101.363L84.9416 101.374ZM91.2179 92.345L83.4256 79.7681C82.0819 81.6782 79.0549 83.7259 76.8278 84.626L86.4128 92.4013C86.9432 92.8316 87.0249 93.6151 86.5946 94.1455C86.1644 94.6759 85.3809 94.7576 84.8505 94.3273L75.7132 86.9152C75.6172 89.2635 74.1577 92.7387 72.2773 94.1572L85.7823 99.0438C89.9675 100.443 93.4492 96.1509 91.217 92.3443L91.2179 92.345Z" fill="#003A59"/>
<path d="M107.5 86.7296C109.112 84.8123 111.998 87.1595 110.457 89.1281C108.849 91.0417 105.96 88.6982 107.5 86.7296Z" fill="#003A59"/>
</g>
<defs>
<clipPath id="clip0_32_23">
<rect width="124" height="124" fill="white" transform="matrix(-0.776609 -0.629983 -0.629983 0.776609 174.417 78.1179)"/>
</clipPath>
</defs>
</svg>
