<?xml version="1.0" encoding="UTF-8"?>
<svg width="1200pt" height="1200pt" version="1.1" viewBox="0 0 1200 1200" xmlns="http://www.w3.org/2000/svg">
 <path d="m841.13 710.63c-14.531-0.65625-17.062 6.4219-17.672 17.625-1.5469 30.047-4.2188 60.047-7.0781 90.047-0.28125 2.8125-4.2188 6.7969-7.1719 7.5938-49.922 13.219-99.938 25.969-149.95 38.906-26.297 6.7969-52.5 13.828-78.75 20.766-12.281 3.2344-23.766 7.125-37.078 0.23438-6.6562-3.4219-16.969 0.42188-25.688 0.51562-5.9062 0.09375-12.375 0.75-17.625-1.3125-17.578-6.7969-35.016-14.016-51.891-22.359-19.594-9.7031-40.172-18.656-57.281-31.875-17.906-13.828-32.812-31.828-47.953-48.984-21.656-24.516-41.859-50.344-63.516-74.859-17.672-19.969-36.516-38.906-55.031-58.172-7.6406-7.9219-15.656-14.344-28.312-12-6.375 1.1719-13.594-0.60938-20.156-2.1094-8.9531-2.0625-12.188 0.23438-12 9.9375 0.14062 6.75-1.3594 14.672-5.0625 20.062-7.6875 11.25-16.922 12.75-32.297 6.9375-9.8438-3.75-20.062-7.4531-28.688-13.266-4.9688-3.3281-9.5156-10.594-10.078-16.453-1.9219-19.922-1.6406-39.938 5.3906-59.297 7.7344-21.188 19.125-26.438 41.109-30.141 28.828-4.875 56.297-1.3125 83.531 5.6719 24.797 6.3281 48.75 15.938 73.219 23.578 52.641 16.406 105.47 32.25 158.11 48.75 14.109 4.4062 25.828-3.0938 38.109-6.2344 83.297-21.328 166.31-43.781 249.47-65.719 23.297-6.1406 46.688-11.812 70.969-17.953-11.766-18.469-23.156-36.328-34.547-54.141-0.60938-0.9375-1.9219-1.4531-2.2969-2.4375-9.4688-23.812-33.281-27.703-52.547-37.922-2.2969-1.2188-5.2031-1.5-7.3125-2.9531-17.297-11.719-35.625-16.828-56.812-12.891-11.812 2.2031-30.188-9.4219-34.312-19.031-5.1562-12.047 0.84375-34.969 9.75-44.062 15.188-15.469 33.188-15.703 53.203-14.391 45.234 2.8594 88.828 13.547 132.05 25.641 65.109 18.234 129.32 39.328 190.92 67.688 30.844 14.203 62.062 27.609 92.672 42.281 5.0156 2.3906 10.688 9.0938 11.156 14.297 2.6719 27.656 3.375 55.453 5.6719 83.156 1.2656 14.953 3.2812 30.047 6.9844 44.531 7.6875 30 6.5156 60.375 5.4375 90.703-0.23438 6.4688-6.7969 13.312-11.719 18.938-12.328 14.156-30.844 14.812-47.203 19.359-35.906 9.9844-72.609 17.391-108.23 28.266-26.109 7.9219-51.656 9.5156-77.859 3.4688-12.562-2.8594-21.422-10.359-25.125-23.109-5.4844-19.172-11.016-38.297-16.5-57.281zm179.81 28.078c-13.828-13.219-26.484-25.453-39.375-37.5-17.859-16.688-36.141-32.953-53.672-50.016-6.1875-6.0469-7.0781-14.438-1.9219-21.844 5.5312-7.9688 13.359-7.3594 21.234-3.4219 2.6719 1.3125 5.5781 2.625 7.6875 4.5938 31.031 29.109 62.297 57.984 92.625 87.844 8.4375 8.2969 16.125 11.344 26.906 7.1719 3.1406-1.2188 6.4688-2.1094 9.7969-2.7188 5.5312-1.0312 8.4844-3.75 8.3906-9.6562-0.32812-20.672 0.98438-41.531-1.125-62.016-3.7969-36.797-14.203-72.75-11.625-110.53 0.89062-12.891 2.2969-30.562-18.516-34.875-5.5781-1.1719-9.2812-2.9531-13.688 2.2031-2.1562 2.5312-6.5156 3.4688-10.078 4.4062-21.797 5.8594-43.688 11.531-65.531 17.297-87.141 22.922-174.24 45.984-261.37 68.812-59.438 15.609-119.06 30.562-178.36 46.641-20.531 5.5781-40.312 13.828-60.609 20.297-3.9844 1.2656-9.0938 1.125-13.172-0.09375-46.969-14.016-93.891-28.359-140.81-42.562-11.953-3.6094-23.906-7.1719-35.906-10.734 5.4375 6.6094 11.484 12.188 18.609 14.953 48.562 18.844 97.359 37.078 146.06 55.547 16.781 6.375 16.734 6.4219 16.031 24.938-0.046875 1.4062 0.32812 2.9531 0.9375 4.2188 4.7344 9.7969 9.2344 19.734 14.438 29.25 16.641 30.234 33.375 60.422 50.484 90.375 4.9688 8.6719 11.156 16.734 17.391 24.609 1.6406 2.1094 5.8594 3.9844 8.2969 3.375 27.656-6.7031 55.172-13.922 78.891-20.016-10.453-12.234-20.719-26.297-33-38.25-24.234-23.625-49.781-45.938-74.344-69.234-8.5781-8.1094-8.8125-17.297-2.1562-23.953 6.7969-6.8438 17.203-6.7031 25.5 0.89062 20.766 19.125 41.344 38.438 62.016 57.656 20.109 18.703 40.125 37.547 60.609 55.828 2.9062 2.625 8.8125 4.125 12.609 3.2344 30.844-7.2188 61.594-14.953 92.203-23.016 2.625-0.70312 5.7656-4.7812 6.1406-7.6406 3.4219-27.609 6.2344-55.266 9.375-82.875 1.5-13.406 7.7812-24.281 21.047-28.078 22.5-6.4219 45.328-11.719 68.156-16.734 11.531-2.5312 18.375 2.1094 22.922 13.5 9.75 24.328 19.594 48.656 28.875 73.172 2.1094 5.5312 4.6406 6.9844 10.031 5.5312 15.656-4.1719 31.359-8.1094 47.062-12.188 10.031-2.6719 19.969-5.4375 30.938-8.3906zm-519.52 114.09c-1.9219-4.2188-2.5781-5.8125-3.4219-7.2656-14.016-25.266-28.078-50.531-42.188-75.797-0.89062-1.5469-2.6719-2.6719-3.2812-4.3125-6.7969-17.109-18.75-32.672-16.594-53.297-51.656-19.641-103.5-39.328-155.29-58.969-0.79688 1.0312-1.5938 2.1094-2.3438 3.1406 10.359 11.531 20.953 22.828 31.031 34.594 20.25 23.625 40.969 46.875 60.188 71.344 21.234 27.047 46.453 48.656 77.297 63.797 17.391 8.5312 34.828 17.062 54.609 26.766zm245.68-429.61c6.9375 3.6562 11.906 7.2188 17.484 8.9531 14.812 4.7344 23.156 15.844 31.078 28.172 13.734 21.422 28.359 42.234 42.047 63.703 3.8438 6.0469 7.3125 6.5625 13.875 4.7812 33.797-9.0938 67.781-17.438 101.67-26.25 15.562-4.0312 30.984-8.5781 48.75-13.5-6.75-2.3438-10.922-3.9375-15.188-5.25-39.234-12-78.562-23.625-117.7-36-39.141-12.422-78.516-23.156-122.02-24.609zm150.28 342.61c1.4531-0.98438 2.9531-1.9688 4.4062-2.9531-8.625-20.203-17.25-40.453-25.875-60.656 2.7656 17.25 7.0312 33.938 12.328 50.297 1.5938 4.875 6.0469 8.9062 9.1406 13.312z"/>
 <path d="m967.74 579.32c14.953 14.203 28.453 27.094 42.094 39.844 12.891 12.047 26.297 23.625 38.906 36 6.2812 6.1875 7.3594 14.344 1.2656 21.516-5.9062 6.9375-14.016 8.25-21.469 3.1875-8.0625-5.4375-15.422-12-22.547-18.656-23.109-21.609-45.984-43.453-68.859-65.344-4.1719-3.9844-7.4062-6.7031-14.531-4.7812-44.391 12.047-89.016 23.109-133.55 34.594-61.641 15.891-123.28 31.922-184.92 47.906-1.0312 0.28125-2.0156 0.79688-5.3906 2.1562 9.3281 9.375 17.672 18.328 26.578 26.625 13.453 12.562 27.375 24.609 40.969 37.031 16.688 15.281 32.859 31.125 49.828 46.078 7.2188 6.3281 9.4688 13.5 4.5 20.812-4.5938 6.7031-12.281 10.547-20.812 6.4688-5.6719-2.7188-11.25-6.1406-15.938-10.359-10.922-9.7969-21.094-20.391-31.828-30.422-28.312-26.438-57.281-52.219-84.703-79.594-6.7969-6.7969-11.344-6.9375-19.078-4.7812-14.812 4.125-29.812 7.7812-44.953 10.781-9.2344 1.8281-16.781-1.5469-18.469-11.953-1.7344-10.734 4.875-16.453 14.016-18.938 21.844-5.9062 43.875-11.109 65.766-16.734 46.734-12 93.375-24.188 140.11-36.188 74.109-19.078 148.26-38.016 222.37-57.047 39.844-10.219 79.594-20.719 119.44-30.75 5.6719-1.4062 12.562-2.7656 17.531-0.75 4.9219 1.9688 11.016 8.1094 11.297 12.656 0.23438 4.6875-5.0625 12.516-9.6094 14.062-18.516 6.3281-37.688 10.828-56.625 15.891-12.938 3.5156-26.062 6.7969-41.391 10.688z"/>
</svg>
