<?xml version="1.0" encoding="UTF-8"?>
<svg width="1200pt" height="1200pt" version="1.1" viewBox="0 0 1200 1200" xmlns="http://www.w3.org/2000/svg">
 <path d="m1149.5 831.14c-36.703-49.031-6.1406-75.281-2.5781-78.047 5.7188-5.2031 6.4219-13.266 0.5625-18.703-21.891-18.703-15.75-40.266-9.0938-52.781 5.3906-1.5469 9.8438-7.2656 8.2969-13.078 2.6719-5.1094 0.75-11.672-4.0781-14.812-43.078-28.828-26.766-74.344-23.109-83.203 4.9688-10.547-7.8281-21.234-17.438-14.859l-162.47 83.719c-14.812-39.703-33.656-67.875-61.828-106.83l87.188-57.141c9.6562-5.9531 5.25-21.938-6.1406-22.031-76.922-2.8125-78.516-62.719-78.422-69.469-0.28125-3.8438-1.6875-8.3438-5.4844-10.078-2.625-2.0625-5.9531-2.1094-9.0469-1.875-43.078 11.859-61.734-39.562-63.844-55.172-0.46875-1.7344-1.2656-3.375-2.1094-4.9688-2.8125-4.3125-8.5312-5.8594-13.312-4.4062-64.734 23.625-97.594-45.328-98.766-48.469-4.2188-10.406-20.766-8.7656-22.688 2.3906l-23.578 110.77c-90.609-20.578-233.9-6.9375-291.47 5.4375v-64.172c1.5-70.453-60.75-132.52-131.16-131.06-72.234 0-131.06 58.781-131.06 131.06v62.766c-58.875 15.094-49.266 100.83 12.047 102.05 61.359-1.2188 70.922-87.141 11.953-102.09v-62.766c-0.5625-94.406 116.53-142.82 182.81-75.75 20.25 20.25 31.406 47.156 31.406 75.75v69.656c-34.781 11.484-79.828 14.438-73.875 52.734l-57.609 88.547c-6.5625 9.375 4.2188 22.312 14.578 17.672l78.938-32.156 0.046874 0.046875-43.641 43.594c-3.5625 3.5625-4.5469 8.9531-2.3906 13.547 2.1094 4.5938 6.8906 7.3594 11.859 6.8906l63.703-5.2969 82.969 165.1-50.859-0.98438-36.797-81.75c-4.3594-10.641-21.141-8.5312-22.734 2.8125l-13.688 77.531-9.8906-0.1875-49.172-107.53c-4.4062-10.547-21.047-8.4375-22.734 2.8594l-18.703 103.59c-14.062 1.9688-23.531 18.047-18.328 31.359 11.531 32.297 42.281 102.42 107.02 161.16 167.44 168.1 601.92 105.61 678.94-135.89l192.52 63.094c10.641 3.8906 20.531-9.7031 13.359-18.609zm-1021.8-404.68c-0.9375 36.656-54.656 36.656-55.641 0 0.9375-36.656 54.656-36.656 55.641 0zm791.58 357.61c-49.5 156.19-278.72 222.42-435.05 207.37-162.19-11.812-268.78-133.92-303.84-238.03l5.4844 0.09375c44.672 0.84375 179.34 3.5156 226.13 4.4062 61.172 137.86 255 111.8 383.63 15.469 44.578-29.625 80.297-53.344 133.13-50.109-0.14062 20.578-3.6562 41.062-9.5156 60.75zm6.0938-311.34-62.625 41.062c-14.344-17.203-30.469-34.406-48.656-50.672l46.688-52.734c6.6562 21.891 23.25 50.953 64.594 62.391zm-108.47-86.25c7.5 5.0625 15.656 8.1562 24.375 9.75l-45.516 51.422c-14.766-11.859-30.703-22.969-47.859-33.047l38.953-66.469c5.8125 13.266 15.188 28.359 30.047 38.391zm-134.53-90.984c17.766 22.219 46.172 43.219 83.672 40.688l-39.188 66.844c-19.266-9.75-39.938-18.141-62.109-24.703l17.625-82.781zm-446.76 209.81 28.359-43.594 13.359 26.578zm49.078 41.953 14.859-14.812 6.5625 13.031-21.375 1.7812zm50.812 3.3281s-21.984-43.781-21.984-43.781l-37.406-74.438c-1.0781-2.1562-0.65625-4.0781-0.28125-5.0625 8.9062-20.859 252.1-63.703 372.71-28.688 27.797 7.4531 53.203 18 76.453 30.656 0.28125 0.32812 0.65625 0.42188 1.0312 0.5625 22.969 12.609 43.828 27.188 62.578 42.938 0.28125 0.5625 0.79688 0.84375 1.3125 1.125 23.203 19.688 43.172 41.062 60.234 62.344 0.1875 0.42188 0.60938 0.75 0.89062 1.125 41.016 54.938 70.688 96.844 77.203 161.9-59.812-2.9531-101.67 24.844-145.82 54.188-123.84 92.719-304.82 113.91-350.58-10.734-0.32812-0.65625-0.42188-1.3594-0.75-2.0625l-95.531-190.08zm-34.688 181.18 6.2812-35.438 16.172 35.906c-4.2188-0.09375-18-0.375-22.453-0.42188zm-89.25-63.422 28.453 62.25-39.562-0.79687zm737.58 94.828c5.9062-32.812 5.25-67.828-2.7188-100.27l144-74.203c-2.4375 19.734-0.32812 46.594 20.719 69.609h-107.02c-6.6094 0-12 5.3906-12 12 0 6.6094 5.3906 12 12 12h107.81c-5.0156 14.672-6.1406 32.203 2.6719 49.172h-110.53c-6.6094 0-12 5.3906-12 12 0 6.6094 5.3906 12 12 12h111.23c-7.4062 14.25-12.234 35.156-1.5 61.688l-164.76-53.953z"/>
 <path d="m530.68 720.28 151.87 52.781c4.3125 1.5 9.2344 0.375 12.469-2.9062s4.3125-8.1562 2.7188-12.516c-0.09375-0.28125-10.406-29.25-1.7812-52.125 10.594-27.938 24.75-40.078 25.125-40.359 4.3125-3.9375 5.4844-10.125 2.8125-15.328-0.14062-0.1875-11.672-20.297-20.344-43.922-8.3906-22.922-5.1562-54.328-5.1094-54.656 1.1719-8.4375-7.875-15.703-15.844-12.656l-151.87 52.781c-60.516 19.828-60.609 108.98 0 128.81zm7.875-106.12 135.24-47.016c-1.5469 22.547 8.7188 56.391 19.969 76.734h-119.44c-6.6094 0-12 5.3906-12 12s5.3906 12 12 12h113.86c-13.594 18.234-23.812 53.25-18.328 75.375l-131.29-45.609c-39.984-15-39.984-68.484 0-83.484z"/>
 <path d="m450.42 472.69c-0.42188-24.234-36.422-24.188-36.844 0 0.42188 24.188 36.422 24.188 36.844 0z"/>
</svg>
