<?xml version="1.0" encoding="UTF-8"?>
<svg width="1200pt" height="1200pt" version="1.1" viewBox="0 0 1200 1200" xmlns="http://www.w3.org/2000/svg">
 <path d="m576.88 60.504c-212.25 11.352-384.91 181.49-399.17 393.57-12.934 192.54 103.77 360.12 271.27 424.32 10.922 4.1875 17.438 15.422 15.504 26.965l-12.145 72.395c-1.9336 11.543-7.4297 22.211-15.707 30.492l-100.63 100.63c-7.1641 7.1523-7.4531 19.246 0.98438 26.879 3.3242 3 7.8242 4.3555 12.312 4.3555h105.23c14.328 0 28.066-5.6875 38.207-15.828l104.4-104.4c6.7695-6.7695 15.949-10.57 25.523-10.57h57.742c11.195 0 21.949-4.4531 29.867-12.371l69.984-69.984c6.3945-6.3945 8.0898-16.141 4.1992-24.312l-10.859-22.871c-2.3281-4.9062-0.15625-10.703 4.7656-12.996 144.49-67.414 244.93-213.94 244.93-383.62-0.019531-241.07-202.57-435.7-446.41-422.66zm-79.246 868.42c1.1875-7.0547 4.5352-13.559 9.5898-18.625l151.32-151.32c5.4961-5.4961 14.902-2.4844 16.188 5.1836l12.695 75.707c0.70703 4.2227-0.68359 8.5312-3.7422 11.531l-0.83984 0.81641-26.363 26.363c-0.92578 0.92578-2.5078 0.27734-2.5078-1.043v-18.602c0-8.9766-6.0586-17.293-14.891-18.875-11.605-2.0898-21.695 6.7695-21.695 17.988v56.004c0 3.2031-2.4375 7.0078-6.6367 7.0078h-73.145c-8.832 0-17.293 3.5039-23.543 9.7578l-15.457 15.457c-1.4531 1.4531-3.9258 0.17969-3.5742-1.8477zm76.043-505.24h52.656c5.6758 0 10.273 4.5977 10.273 10.273v67.285c0 5.6758-4.5977 10.273-10.273 10.273h-52.656c-5.6758 0-10.273-4.5977-10.273-10.273v-67.285c0-5.6758 4.5977-10.273 10.273-10.273zm-10.273-36.586v-3.4336c0-2.4961 1.1641-4.8477 3.1562-6.3477l30.805-23.41c1.5586-1.1875 3.7188-1.1875 5.2812 0l30.805 23.41c1.9805 1.5117 3.1562 3.8516 3.1562 6.3477v3.4336zm10.477 161h56.27c4.8242 0 8.9297 3.4805 9.7305 8.2305l2.3281 13.871c0.99609 5.9414-0.9375 12-5.207 16.262l-84.59 84.59c-4.3086 4.3086-11.617 0.55078-10.609-5.4727l17.664-105.29c1.1797-7.0312 7.2734-12.191 14.414-12.191zm69.336 83.902c3.3477-3.3477 9.0977-1.5117 9.875 3.1562l9.1328 54.434c1.2617 7.5-1.1875 15.145-6.5625 20.52l-128.28 128.28c-5.4492 5.4492-14.676 0.69531-13.402-6.9102l12.18-72.613c1.2852-7.668 4.9336-14.746 10.43-20.242zm81.062 206.26-48.672-290.16h15.973c8.9766 0 17.293-6.0586 18.887-14.891 2.0898-11.605-6.7695-21.695-17.988-21.695h-11.195c-4.4648 0-8.0742-3.6133-8.0742-8.0742v-72.48c0-3.6953 2.6172-6.9258 6.2539-7.5469 8.4961-1.4414 15.516-8.2695 15.973-17.039 0.55078-10.547-7.8359-19.273-18.277-19.273h-3.9609v-16.465c0-5.7227-2.6758-11.113-7.2227-14.566l-54.887-41.711c-6.5508-4.9688-15.59-4.9688-22.141 0l-54.898 41.711c-4.5469 3.457-7.2227 8.8438-7.2227 14.566v16.477h-2.9414c-8.5938 0-16.727 5.4258-18.77 13.777-2.7734 11.34 5.3398 22.598 16.223 22.766 4.2734 0.058594 5.3867 2.3047 5.4844 6.7812v73.031c0 4.4648-3.6133 8.0742-8.0742 8.0742h-10.309c-8.9766 0-17.293 6.0586-18.875 14.891-2.0898 11.605 6.7695 21.695 17.988 21.695l16.852-0.003906-48.84 291.14c-0.81641 4.8828-5.8906 7.8945-10.535 6.1562-155.09-57.984-263.36-212.74-250.69-390.47 13.488-189.16 165.14-342.18 354.19-357.22 227.35-18.086 418.15 161.81 418.15 385.41 0 163.7-102.29 303.89-246.28 360.2-1.2227 0.48047-2.1133 0.99609-3.6953 1.4141-5.293 1.4336-10.188 0.42578-12.43-6.5078zm160.33 275.34c1.6445 3.4453 2.3984 7.332 1.7539 11.102-1.6094 9.2891-9.4336 15.422-18.109 15.422l-316.81-0.003906c-11.914 0-17.879-14.41-9.457-22.836l62.699-62.699c5.543-5.543 13.078-8.6641 20.93-8.6641h64.309c8.7227 0 17.09-3.4688 23.27-9.6367l67.656-67.656c8.4102-8.4102 22.609-5.9531 27.707 4.7891z"/>
</svg>
