<?xml version="1.0" encoding="UTF-8"?>
<svg width="1200pt" height="1200pt" version="1.1" viewBox="0 0 1200 1200" xmlns="http://www.w3.org/2000/svg">
 <path d="m567.05 664.22c-16.734 26.766-33.281 53.203-49.875 79.688-7.2656 11.578-13.875 23.625-22.078 34.547-11.297 15.047-13.781 31.594-11.109 49.406 1.0781 7.1719-2.4375 11.812-6.1875 17.344-5.7188 8.4375-9.7969 18.047-14.672 27.094-10.594 19.688-21.328 39.328-31.828 59.062-14.812 27.797-29.578 55.641-44.25 83.531-6.6094 12.562-11.672 26.156-19.734 37.641-5.625 8.0156-14.156 15.75-23.109 19.406-29.203 11.906-58.594 9.7969-86.672-4.7812-18.75-9.75-34.781-23.016-37.219-45.281-1.4062-12.984 0.75-26.766 3.5156-39.703 1.2188-5.7656 7.8281-10.359 12.047-15.469 20.953-25.312 42-50.625 62.906-75.984 12.422-15.094 24.656-30.422 37.031-45.562 16.922-20.672 33.75-41.391 51-61.781 2.25-2.6719 6.75-5.0625 10.172-4.9688 21.328 0.70312 32.156-13.594 41.625-29.016 10.359-16.875 19.406-34.594 29.531-51.656 11.812-19.922 24.234-39.469 36.328-59.25 1.1719-1.875 1.9688-4.0312 2.9062-6-12.469-11.438-24.797-22.594-36.984-33.984-3.4688-3.2344-6.8438-6.7031-9.4688-10.594-10.266-15.234-20.25-30.703-30.281-46.125-13.594-20.812-18.609-44.578-22.453-68.531-2.2969-14.438-5.2031-29.109-4.7812-43.547 1.0312-33.141 8.9531-65.203 22.922-95.156 10.312-22.172 24.141-42.844 41.062-60.703 38.719-40.828 85.688-67.781 140.63-80.531 32.531-7.5469 65.344-8.7656 98.531-5.4844 48.141 4.7344 92.25 20.25 131.21 48.891 14.953 11.016 28.641 23.906 41.906 36.938 20.344 19.969 34.219 44.25 45.891 70.266 10.734 23.906 14.953 48.609 17.625 74.25 3.375 33.047-1.3125 65.016-12.375 95.672-13.594 37.734-35.625 70.828-65.531 97.734-37.359 33.609-80.953 55.875-130.26 66.094-50.625 10.5-100.73 8.2031-150.1-7.7812-5.9062-1.875-11.719-3.7031-17.859-5.6719zm260.06-326.26c-2.3906-3.4219-3.5156-5.3438-4.9688-7.0312-17.484-20.016-38.203-35.953-62.109-47.531-22.312-10.828-45.984-17.578-70.688-19.219-29.344-1.9688-58.078 1.5469-85.781 12.516-48.094 19.031-83.859 50.625-103.27 99.094-7.5469 18.797-13.875 38.438-12.656 58.922 0.84375 14.156 4.4062 28.219 7.3125 42.234 5.2969 25.312 18.375 46.781 35.156 65.906 24.047 27.375 54.281 45.609 89.203 55.594 28.547 8.1562 57.703 10.031 87.234 4.8281 23.719-4.1719 45.844-11.906 66.703-24.047 35.156-20.344 61.312-48.938 75.516-86.625 15.844-41.953 13.781-84.516-3.8906-125.95-1.3125-3.0938-3.7969-5.6719-4.7344-7.0312-40.922 23.203-80.766 45.75-120.56 68.297 5.0156 15.422 2.6719 26.625-7.875 32.484-27.375 15.188-54.891 30-82.547 44.672-5.9062 3.1406-12.328 5.625-18.797 7.1719-6.0469 1.4531-12.141 0-14.438-6.7969-2.0625-6.0469 0.1875-11.062 6.0469-13.969 22.312-11.062 44.719-21.844 66.844-33.234 8.7656-4.5 16.875-10.219 25.688-15.609-14.906-11.812-14.203-20.766 1.5469-30.047 7.7344-4.5469 15.844-8.3438 23.719-12.656 19.406-10.547 39.047-20.812 58.172-31.828 16.406-9.4219 32.344-19.781 49.172-30.141zm-288.94-72.516c-0.375-0.9375-0.75-1.8281-1.125-2.7656-3.5156 2.3438-7.3594 4.3125-10.453 7.125-6.2344 5.625-12.562 9.2812-21.281 5.5312-1.5469-0.65625-4.6875 0.60938-6.2812 1.9219-23.625 20.531-40.078 46.453-53.203 74.25-9.8438 20.859-14.672 43.688-15.656 66.656-1.6406 38.297 2.5312 75.562 21.234 110.48 11.859 22.172 25.781 42.281 43.594 59.953 32.906 32.578 72.141 53.25 116.77 64.922 29.297 7.6406 59.016 7.9219 88.641 6 25.406-1.6406 50.062-8.625 73.781-18.656 41.719-17.578 76.641-43.5 103.12-80.344 1.9688-2.7188 3.4688-5.8125 5.6719-8.3438 10.781-12.516 15.609-27.891 21.797-42.938-13.688-2.1562-17.953-6.4219-13.969-18.891 4.2188-13.359-5.5312-21.703-7.4531-32.766-4.9688 38.25-20.203 71.25-45.75 99.891-18.516 20.766-40.078 37.078-65.109 49.078-47.109 22.547-96 28.266-147.19 17.297-35.016-7.5-66.656-22.219-93.375-45.328-16.031-13.875-30.516-30.656-41.859-48.562-14.438-22.781-23.766-48.609-26.391-75.891-3.4688-36.188 4.0312-70.547 20.016-103.12 2.3438-4.7812 4.3594-9.8906 7.5938-14.062 10.547-13.594 21.609-26.766 32.719-40.359-6.4688-12.047-3.4219-19.172 14.156-31.078zm349.92 91.406c-1.2656-10.266-12.422-20.484 3.3281-28.266-3.7969-5.0625-7.2188-9-10.031-13.359-19.031-29.953-45.328-52.453-75.469-70.031-16.781-9.75-35.344-16.688-53.531-23.766-22.875-8.9531-47.203-11.203-71.484-12.75-10.547-0.65625-21.656-0.79688-31.688 1.8281-13.078 3.4219-25.453 9.6562-37.828 15.328-2.25 1.0312-3.1406 5.1562-4.5469 7.6875 16.969-3.7031 32.062-7.6406 47.391-10.125 14.953-2.3906 18.844 1.4531 19.125 16.125 93.609 4.2188 162.94 45.422 201.94 133.97-1.0781-9.8906 2.25-15.75 12.797-16.641zm-435.71 421.82c1.125 1.0312 2.25 2.0625 3.3281 3.0938 5.8125-5.1094 12.938-9.375 17.203-15.562 10.969-15.844 20.578-32.578 30.844-48.891 9.7969-15.609 19.688-31.125 29.672-46.594 3.5625-5.4844 7.5-10.688 11.953-16.969-6.375-3.0938-11.25-5.4375-16.5-7.9688-25.781 44.672-54.844 86.672-76.5 132.89z"/>
 <path d="m633.89 419.68c-6.2812-12.188-3.375-21.891 8.9062-27.328 29.438-12.938 59.391-24.75 88.641-38.156 18.703-8.5781 36.516-19.125 54.703-28.828 1.7344-0.9375 3.1875-2.3906 4.9688-3.0938 5.9062-2.25 11.672-2.4375 15.938 3.1406 4.4531 5.8125 2.8125 11.906-2.2031 15.703-9.3281 6.9844-18.891 14.25-29.438 18.984-32.672 14.672-65.812 28.172-98.766 42.188-4.0781 1.7344-8.0156 3.75-12.562 5.9062 4.5 4.9688 3.9844 8.8594 0.65625 14.25-9.7969 15.844-25.922 23.531-40.453 33.188-19.969 13.266-40.781 25.359-60.75 38.672-10.594 7.0781-20.062 15.75-30.281 23.391-5.25 3.9375-10.922 3.2344-15.094-1.6875-4.5469-5.3438-3.6562-11.719 1.2656-15.891 13.125-11.156 26.719-21.797 40.453-32.25 6.6562-5.0625 13.922-9.3281 21-13.828 16.312-10.312 32.672-20.484 48.938-30.797 1.3594-0.75 2.4375-2.0625 4.0781-3.5625z"/>
</svg>
