<svg width="209" height="163" viewBox="0 0 209 163" fill="none" xmlns="http://www.w3.org/2000/svg">
<g clip-path="url(#clip0_32_19)">
<path d="M171.044 39.1456C154.582 33.2107 135.71 31.0777 127.668 32.508C124.441 33.0771 121.121 33.0518 117.805 32.4446L113.226 31.6134C109.205 30.8851 105.271 32.6623 102.695 36.3703C100.192 40.2153 97.191 44.1936 93.4051 46.7404C85.9487 52.0216 72.7613 68.1213 65.7676 82.774C65.3381 83.6631 65.422 84.674 65.9815 85.472C66.541 86.2701 67.4596 86.6893 68.4459 86.6046C76.2711 85.8971 103.084 84.8175 124.534 99.5904C123.554 100.383 118.345 106.892 122.272 106.943L131.556 105.212C132.062 105.573 133.194 106.52 133.758 106.752L135.879 111.87C137.239 115.149 141.061 116.697 144.403 115.312L147.191 114.156C147.717 113.938 148.318 114.18 148.532 114.698C150.021 118.494 151.751 122.681 154.851 125.464C155.348 125.88 156.036 125.987 156.649 125.733C157.317 125.456 157.749 124.817 157.739 124.126C157.754 121.312 157.219 118.585 156.121 115.934L154.173 111.236C152.806 107.976 148.986 106.448 145.663 107.825L143.084 108.894C142.457 109.154 141.733 108.858 141.476 108.238L139.895 104.423C140.215 103.757 140.324 102.274 140.445 101.539L148.231 96.1942C150.969 93.4284 142.634 92.3812 141.553 92.4684C146.366 66.91 165.893 48.7626 171.851 43.7413C173.469 42.485 172.966 39.7707 171.039 39.1524L171.044 39.1456ZM144.034 111.167L146.612 110.098C148.66 109.25 151.014 110.193 151.853 112.193C152.993 115.045 154.934 118.957 155.126 122.052C153.22 119.867 151.957 116.396 150.857 113.73C150.121 111.954 148.051 111.118 146.244 111.867L143.456 113.022C141.4 113.875 139.042 112.923 138.204 110.902L136.623 107.087C137.119 106.986 137.621 106.799 138.053 106.531L139.153 109.186C139.933 111.069 142.12 111.955 144.032 111.163L144.034 111.167ZM170.25 41.8484C164.074 47.0485 143.768 65.9324 138.986 92.6067C138.034 92.7348 137.432 92.9005 137.36 92.9198C135.773 93.3896 136.432 95.7252 138.023 95.3012C138.061 95.2906 141.396 94.3895 144.939 95.4412L138.58 99.8021C138.29 100.001 138.094 100.312 138.043 100.663C137.766 101.933 138.025 103.985 136.5 104.554C135.017 105.237 133.752 103.596 132.658 102.894C132.38 102.686 132.021 102.604 131.669 102.666L124.135 104.074C125.01 102.566 126.219 101.338 127.282 100.449C128.439 99.467 129.67 98.7529 129.646 98.7731C131.085 97.9572 129.931 95.8528 128.464 96.6018C128.377 96.6483 127.567 97.0939 126.501 97.8967C104.074 82.0898 76.352 83.6206 68.0602 84.0346C74.4585 69.6923 87.7647 53.8566 94.8583 48.7359C98.886 46.0157 102.109 41.8409 104.765 37.7388C106.782 34.8378 109.692 33.4905 112.746 34.044L117.326 34.8753C120.936 35.5381 124.557 35.5588 128.089 34.9419C135.845 33.5675 154.604 35.8623 170.168 41.4679C170.37 41.5307 170.373 41.7698 170.258 41.8385L170.25 41.8484Z" fill="#7A2D4A"/>
<path d="M117.394 43.1666C118.034 42.9013 118.345 42.1762 118.083 41.5427L116.955 38.8209C116.692 38.1873 115.959 37.895 115.319 38.1604C114.679 38.4257 114.368 39.1508 114.63 39.7843L115.758 42.5061C116.021 43.1397 116.754 43.432 117.394 43.1666Z" fill="#7A2D4A"/>
<path d="M108.304 46.9342C108.944 46.6689 109.256 45.9438 108.993 45.3102L107.865 42.5884C107.602 41.9549 106.869 41.6626 106.229 41.9279C105.589 42.1933 105.278 42.9183 105.54 43.5519L106.668 46.2737C106.931 46.9073 107.664 47.1995 108.304 46.9342Z" fill="#7A2D4A"/>
<path d="M123.032 47.308C122.769 46.6745 122.036 46.3822 121.396 46.6475L108.016 52.1931C107.376 52.4584 107.065 53.1835 107.327 53.8171C107.59 54.4506 108.323 54.7429 108.963 54.4776L122.343 48.932C122.983 48.6667 123.294 47.9416 123.032 47.308Z" fill="#7A2D4A"/>
<path d="M126.92 57.6636C127.674 57.3512 132.895 55.0981 135.025 51.7267C135.396 51.1444 135.218 50.3815 134.633 50.0228C134.048 49.664 133.267 49.8465 132.903 50.4313C131.131 53.2153 126.353 55.2166 125.91 55.4054C124.352 56.0878 125.371 58.3681 126.925 57.6617L126.92 57.6636Z" fill="#7A2D4A"/>
<path d="M135.534 55.9706C133.814 58.5972 129.066 60.3767 129.014 60.3929C127.471 60.9698 128.305 63.2644 129.864 62.7125C131.713 61.9619 135.542 60.3279 137.637 57.295C138.525 55.9227 136.434 54.5989 135.532 55.9661L135.534 55.9706Z" fill="#7A2D4A"/>
<path d="M138.002 61.4936C136.069 63.9785 131.19 65.363 131.142 65.3773C129.558 65.856 130.197 68.1794 131.796 67.7625C134.021 67.138 138.215 65.3579 139.984 62.9885C140.971 61.6746 139.034 60.2087 138.002 61.4936Z" fill="#7A2D4A"/>
<path d="M110.949 61.6064L110.935 61.6121C110.873 61.6429 105.786 63.7829 102.482 63.0398C100.887 62.6815 100.301 65.0939 101.899 65.4567C105.877 66.3277 111.054 64.2346 111.909 63.8853C113.409 63.2166 112.479 60.9983 110.949 61.6064Z" fill="#7A2D4A"/>
<path d="M112.807 69.7972C113.102 69.6749 113.28 69.5907 113.316 69.5756C114.815 68.8548 113.762 66.6461 112.276 67.3351C112.228 67.3495 107.618 69.4591 104.539 68.8215C103.864 68.6829 103.192 69.1134 103.043 69.7815C102.604 73.4088 112.597 70.0619 112.808 69.8017L112.807 69.7972Z" fill="#7A2D4A"/>
<path d="M114.294 72.3596C114.251 72.3829 109.821 74.8516 106.698 74.4675C106.008 74.3821 105.38 74.8675 105.283 75.5455C105.156 79.1167 114.51 75.2555 115.515 74.5095C116.935 73.6751 115.752 71.5775 114.29 72.3615L114.294 72.3596Z" fill="#7A2D4A"/>
</g>
<path d="M37.6939 80.5623C37.6158 80.6097 37.5183 80.6111 37.4377 80.566L35.0192 79.2158C34.9397 79.1707 34.8898 79.0877 34.8885 78.9965L34.8484 76.2266C34.8471 76.1354 34.8946 76.0497 34.9727 76.0035L35.4833 75.6986C35.523 75.6743 35.5666 75.6637 35.6103 75.663C35.6991 75.6618 35.786 75.7067 35.8346 75.7873C35.9077 75.9088 35.8674 76.0656 35.746 76.1386L35.3617 76.368L35.3975 78.8427L37.559 80.049L37.999 79.7864C38.1204 79.7134 38.2773 79.7536 38.3503 79.8751C38.4233 79.9965 38.3831 80.1534 38.2616 80.2264L37.6952 80.5646L37.6939 80.5623ZM37.0473 75.3599L37.4873 75.0973L39.6488 76.3036L39.6846 78.7783L39.3004 79.0077C39.1789 79.0807 39.1399 79.2375 39.2117 79.359C39.2847 79.4805 39.4415 79.5194 39.563 79.4477L40.0736 79.1428C40.1517 79.0954 40.1992 79.0109 40.1979 78.9197L40.1579 76.1499C40.1565 76.0586 40.1066 75.9743 40.0272 75.9305L37.6086 74.5803C37.5683 74.5584 37.5244 74.5478 37.4807 74.5484C37.4369 74.549 37.3921 74.5609 37.3537 74.584L36.7872 74.9222C36.6658 74.9952 36.6268 75.1521 36.6986 75.2735C36.7716 75.395 36.9284 75.434 37.0499 75.3622L37.0473 75.3599ZM24.0569 73.7026L27.0874 71.8936C27.1654 71.8462 27.213 71.7618 27.2116 71.6705L27.1606 68.141C27.1593 68.0498 27.1093 67.9655 27.0299 67.9216L26.1868 67.4513C26.1464 67.4281 26.1025 67.4187 26.0588 67.4194C25.9701 67.4207 25.8845 67.4681 25.8382 67.5501C25.7687 67.6736 25.8134 67.8292 25.937 67.8987L26.6516 68.2971L26.6983 71.5304L23.9207 73.1882L23.1342 72.7496C23.0107 72.6801 22.8551 72.7249 22.7856 72.8484C22.7162 72.9719 22.7609 73.1275 22.8844 73.197L23.7994 73.7076C23.8788 73.7527 23.9763 73.7513 24.0556 73.7038L24.0569 73.7026ZM21.8122 72.0099L21.0976 71.6114L21.0509 68.3782L23.8285 66.7203L24.6149 67.159C24.7385 67.2285 24.8941 67.1837 24.9635 67.0602C25.033 66.9367 24.9883 66.7811 24.8647 66.7116L23.9498 66.201C23.9094 66.1791 23.8655 66.1685 23.8218 66.1691C23.7781 66.1698 23.7332 66.1817 23.6948 66.2047L20.663 68.0138C20.585 68.0611 20.5374 68.1456 20.5388 68.2368L20.5898 71.7663C20.5911 71.8576 20.6411 71.9419 20.7205 71.9857L21.5636 72.4561C21.6872 72.5255 21.8428 72.4808 21.9122 72.3573C21.9817 72.2338 21.937 72.0781 21.8134 72.0087L21.8122 72.0099ZM19.3099 72.4686L19.239 67.5702C19.2371 67.4427 19.3042 67.323 19.4132 67.2577L23.62 64.7478C23.6746 64.7145 23.7368 64.6986 23.7981 64.6977C23.8593 64.6968 23.9221 64.7122 23.9775 64.7426L28.0734 67.0299L30.9439 65.3169L30.9068 62.7534C30.9049 62.6259 30.972 62.5062 31.081 62.4409L33.4595 61.0213C33.514 60.988 33.5763 60.9721 33.6375 60.9712C33.6988 60.9704 33.7615 60.9857 33.817 61.0161L36.2355 62.3663C36.3476 62.4285 36.4169 62.5462 36.4187 62.6737L36.4558 65.2372L39.8725 67.1442L42.0738 65.831C42.1283 65.7977 42.1906 65.7818 42.2518 65.7809C42.313 65.78 42.3758 65.7954 42.4312 65.8258L44.8498 67.176C44.9619 67.2381 45.0311 67.3559 45.033 67.4834L45.073 70.2532C45.0749 70.3807 45.0079 70.5004 44.8988 70.5658L42.5203 71.9853C42.41 72.0507 42.2738 72.0526 42.1616 71.9905L39.7418 70.6404C39.6297 70.5782 39.5605 70.4605 39.5586 70.333L39.5215 67.7695L36.1048 65.8625L33.9036 67.1757C33.7932 67.2411 33.657 67.243 33.5449 67.1809L31.3066 65.9319L28.4361 67.6448L28.501 72.1294L33.8385 75.1088L37.2716 73.0602C37.3261 73.0269 37.3884 73.011 37.4497 73.0101C37.5109 73.0092 37.5736 73.0246 37.6291 73.055L41.3004 75.1046C41.4126 75.1668 41.4818 75.2845 41.4837 75.412L41.5445 79.6166C41.5463 79.7441 41.4793 79.8639 41.3702 79.9292L37.7597 82.0841C37.6494 82.1495 37.5131 82.1515 37.401 82.0893L33.91 80.1409L30.4446 82.2087L30.4817 84.7722C30.4836 84.8997 30.4165 85.0194 30.3075 85.0848L27.929 86.5043C27.8187 86.5697 27.6825 86.5716 27.5703 86.5095L25.1518 85.1593C25.0396 85.0972 24.9704 84.9794 24.9686 84.852L24.9285 82.0821C24.9267 81.9546 24.9937 81.8349 25.1027 81.7696L27.4812 80.35C27.5357 80.3167 27.598 80.3008 27.6593 80.2999C27.7205 80.299 27.7832 80.3144 27.8387 80.3448L30.077 81.5938L33.5424 79.526L33.4875 75.7349L28.15 72.7556L24.122 75.1603C24.0116 75.2257 23.8754 75.2276 23.7632 75.1655L19.4856 72.7784C19.3734 72.7162 19.3042 72.5985 19.3024 72.471L19.3099 72.4686ZM29.7357 82.2199L27.6776 81.0708L25.6536 82.279L25.6877 84.635L27.7458 85.7841L29.7698 84.5759L29.7357 82.2199ZM34.2669 79.5154L37.5778 81.3639L40.8337 79.4204L40.7789 75.6293L37.4681 73.7808L34.2121 75.7243L34.2669 79.5154ZM40.2791 70.1159L42.3372 71.265L44.3612 70.0569L44.3271 67.7009L42.269 66.5518L40.245 67.76L40.2791 70.1159ZM31.6625 65.3051L33.7206 66.4542L35.7445 65.2461L35.7105 62.8901L33.6524 61.741L31.6284 62.9492L31.6625 65.3051ZM20.0241 72.2518L23.9399 74.4379L27.7908 72.1395L27.7259 67.6549L23.8101 65.4688L19.9593 67.7672L20.0241 72.2518Z" fill="black"/>
<path d="M54.8312 124.07C53.8019 122.678 51.4572 123.324 51.2904 125.042C51.1165 126.384 47.9974 127.075 45.4095 127.42C42.4667 127.811 40.0649 129.119 38.2898 130.473C39.5479 127.218 41.8211 124.742 45.0572 123.105C55.5985 117.763 55.1985 108.525 55.1171 107.483C55.048 106.42 54.0091 105.553 52.9559 105.679C51.8908 105.751 51.0354 106.775 51.1521 107.838C51.1545 107.864 51.338 110.395 49.8154 113.357C48.8122 112.794 47.3897 111.786 46.3984 110.209C45.8217 108.222 45.4548 104.411 49.3364 103.933C53.8161 103.172 54.4452 98.6668 54.1521 96.391C54.0377 95.3353 52.9845 94.5252 51.936 94.6801C50.8495 94.8112 50.0703 95.8048 50.2013 96.8985C50.2371 97.1845 50.4968 99.7007 48.674 100.01C47.5922 100.194 46.6271 100.513 45.7931 100.968C46.3412 96.9915 46.5485 92.0634 41.9473 88.501C41.0752 87.8314 39.8242 87.9935 39.1618 88.8584C38.4827 89.6853 38.6519 91.0173 39.512 91.6511C45.672 96.4811 38.3087 104.809 42.7669 111.884C42.8313 112.029 42.9147 112.165 43.0124 112.284C44.0703 113.983 45.6216 115.489 47.4277 116.59C46.5532 117.462 45.5334 118.246 44.3825 118.932C44.2062 117.753 43.6629 116.309 41.7495 115.141C41.4492 114.96 41.1443 114.777 40.8535 114.61C37.6963 112.751 37.0386 112.365 37.6272 108.824C37.8107 107.745 37.0768 106.713 35.9926 106.53C34.9394 106.33 33.8528 107.106 33.7027 108.164C32.6233 114.629 35.5708 116.113 39.1973 118.251C39.3617 118.346 39.5309 118.446 39.7096 118.553C40.3601 118.942 40.4125 119.28 40.434 119.416C40.5722 120.238 39.8597 121.508 39.3283 122.194C38.6874 122.754 38.0893 123.359 37.546 124C36.886 122.232 35.8161 120.591 34.3769 119.125C34.1982 118.908 28.9987 113.452 28.9275 107.788C28.9275 106.294 29.7448 105.233 30.9815 103.623C32.8782 101.147 35.2396 98.0681 35.2515 92.1038C35.1895 89.4874 31.3604 89.4446 31.2746 92.0919C31.2698 94.0648 30.9577 95.7447 30.2952 97.2911C27.5693 92.7233 27.6384 87.6958 27.6551 87.1021C27.7837 85.365 25.6273 84.3237 24.3525 85.5032C23.9522 85.8559 23.7162 86.3444 23.6877 86.8662C23.6829 86.9448 23.1873 94.5511 27.9862 100.989C26.5637 102.854 24.9601 104.825 24.9481 107.791C24.9481 109.728 25.408 111.78 26.2992 113.91C25.7917 113.679 25.2937 113.46 24.8242 113.252C24.0379 112.447 21.1046 109.056 21.9386 104.069C22.3103 101.474 18.5026 100.833 18.0141 103.413C17.6162 105.803 17.7973 108.141 18.5574 110.383C16.7656 109.48 15.3931 108.649 14.266 107.788C16.5082 103.973 19.0078 95.5385 18.0165 89.0166C17.8878 87.961 16.7989 87.1557 15.7576 87.3487C14.6949 87.4797 13.8966 88.5591 14.0825 89.6123C14.9451 95.2929 12.7147 101.752 11.3637 104.712C10.3058 103.013 9.86254 101.071 10.0103 98.8055C10.1103 97.7428 9.22631 96.7349 8.15881 96.6896C7.05318 96.6205 6.11195 97.4497 6.04048 98.5387C5.33995 109.021 13.8541 112.766 22.0865 116.388C30.0902 119.543 34.7562 123.443 34.3912 129.015C33.0187 127.578 31.203 126.484 28.9872 125.757C28.4677 125.457 24.5766 123.103 23.9428 120.048C23.7235 118.976 22.6704 118.283 21.5933 118.5C18.5981 119.393 20.583 122.915 21.8459 124.707C18.6505 124.797 15.8531 123.799 14.0445 121.69C12.0668 119.436 11.4401 116.457 11.695 114.504C11.8547 113.444 11.0373 112.393 9.9675 112.278C8.88571 112.15 7.88491 112.917 7.74435 113.996C7.40361 116.639 8.06603 120.928 11.0517 124.321C12.7983 126.311 16.0127 128.682 21.4054 128.682C23.8311 128.682 25.9137 128.958 27.6981 129.52C30.7052 130.357 33.1001 132.868 33.274 135.532C33.2668 135.799 33.2668 136.159 33.2835 136.516C29.4257 137.076 29.471 134.255 25.7988 134.953C22.5082 135.692 21.6289 138.89 21.6241 140.479C21.6241 140.641 21.6884 140.796 21.8028 140.913C21.9172 141.027 22.0721 141.091 22.2341 141.091H51.5807C51.8428 141.091 52.0763 140.922 52.1598 140.672C52.2432 140.422 52.155 140.148 51.9453 139.99C51.6546 139.776 45.2663 135.096 38.7612 135.415C40.3004 133.769 42.7476 131.798 45.9261 131.372C50.2342 130.798 54.7071 129.659 55.2215 125.55C55.2906 125.021 55.1476 124.5 54.8212 124.08L54.8312 124.07ZM28.7873 101.945C29.047 101.581 29.6308 101.083 29.2376 100.608C24.4172 94.4632 24.901 87.0237 24.9081 86.9409C24.9224 86.531 25.3132 86.1808 25.723 86.2165C26.1424 86.2403 26.4664 86.6049 26.4402 87.0648C26.4187 87.7368 26.3401 93.7774 29.8738 98.881C29.9953 99.055 30.2027 99.155 30.41 99.1431C30.622 99.1312 30.8127 99.0097 30.9127 98.8238C31.9898 96.8294 32.4925 94.6897 32.4997 92.0925C32.514 91.0846 34.0271 91.0822 34.0366 92.0973C34.0247 97.6518 31.8039 100.551 30.0144 102.885C28.7277 104.557 27.7102 105.88 27.7102 107.788C27.7102 110.941 29.2233 114.051 30.6959 116.334C29.9406 115.826 28.4465 114.937 28.0033 114.704C26.7881 112.266 26.1733 109.938 26.1733 107.789C26.1733 105.368 27.4386 103.714 28.7896 101.949L28.7873 101.945ZM49.5222 139.86H22.9135C23.0803 138.795 23.7093 136.665 26.0755 136.134C27.3455 135.85 27.9603 136.212 28.8086 136.713C29.8809 137.349 31.2176 138.14 34.0698 137.63C35.0111 137.508 36.324 136.975 37.4153 136.779C42.0046 135.938 46.9826 138.354 49.5248 139.858L49.5222 139.86ZM45.7741 130.153C41.5017 130.727 38.4663 133.755 36.9626 135.631C36.1429 135.781 35.2565 136.131 34.5059 136.296C34.7299 132.743 31.8586 129.391 27.9795 128.32C26.1399 127.744 23.931 127.451 21.4123 127.451C12.6557 127.534 8.3161 120.274 8.96473 114.141C9.11485 113.147 10.6017 113.333 10.4945 114.336C10.2014 116.562 10.9067 119.945 13.137 122.485C15.608 125.387 19.1252 126.028 23.1522 125.962C23.6717 126.009 24.0076 125.323 23.6359 124.942C22.3611 123.538 21.5581 122.073 21.2507 120.593C21.0672 119.595 22.5351 119.302 22.7591 120.283C23.5882 124.051 27.9298 126.557 28.5612 126.889C30.7319 127.589 32.4714 128.664 33.7416 130.089C33.9346 130.298 34.1085 130.527 34.2682 130.742C34.5446 131.137 35.2213 131.028 35.3428 130.551C35.3929 130.368 35.4739 130.184 35.5192 129.991C37.7304 112.99 5.85081 117.074 7.27058 98.6122C7.35636 97.6209 8.85516 97.6996 8.80514 98.717C8.61213 101.674 9.32699 104.148 10.9878 106.28C11.2428 106.626 11.8194 106.575 12.0076 106.189C13.5755 103.213 16.28 95.8794 15.2983 89.4216C15.2673 89.219 15.3173 89.0165 15.4389 88.8521C15.8106 88.3207 16.7447 88.5209 16.8185 89.1928C17.7693 95.4616 15.2101 104.135 12.9584 107.593C12.7892 107.855 12.8416 108.201 13.0846 108.398C14.6311 109.659 16.5969 110.822 19.4561 112.168C19.9493 112.421 20.5188 111.853 20.2686 111.36C19.1296 108.899 18.777 106.292 19.225 103.607C19.3107 102.949 20.2448 102.734 20.6093 103.29C20.7285 103.456 20.7761 103.657 20.7404 103.859C19.7777 109.621 23.3281 113.476 24.0477 114.192C25.039 114.744 26.2208 115.164 27.3217 115.721C27.8006 115.929 31.625 118.245 33.4242 119.882C35.0588 121.545 36.1931 123.42 36.7292 125.434C36.8436 125.913 37.5298 126.048 37.811 125.636C38.4925 124.709 39.2883 123.847 40.1771 123.077C40.4249 122.794 41.8928 120.928 41.6426 119.224C41.5663 118.188 40.3868 117.487 39.467 116.989C36.062 114.992 34.0055 113.786 34.9135 108.361C35.097 107.36 36.5814 107.622 36.4313 108.62C35.4925 113.374 37.7466 114.17 41.1303 116.185C42.9531 117.405 43.2057 118.411 43.2057 119.917C43.1676 120.372 43.6989 120.715 44.0992 120.489C45.9888 119.495 47.5925 118.27 48.8672 116.848C49.1317 116.567 49.0436 116.073 48.7005 115.902C47.5734 115.342 45.162 113.652 43.849 111.298C39.6362 104.848 47.1325 96.0746 40.2629 90.6771C39.4789 90.0671 40.3963 88.8495 41.2088 89.4595C45.7862 93.0051 45.0118 98.0783 44.3899 102.153C44.2898 102.694 44.9832 103.078 45.3883 102.711C46.2795 101.955 47.4542 101.448 48.8839 101.207C51.2739 100.802 51.6003 98.2096 51.4192 96.7441C51.3692 96.3224 51.6694 95.9363 52.0936 95.8863C52.4963 95.8267 52.9038 96.1365 52.9466 96.5416C53.1873 98.4145 52.7036 102.12 49.1365 102.725C47.4018 103.018 46.2199 103.728 45.5242 104.893C44.2542 107.028 45.0786 110.05 45.2573 110.636C46.4773 112.847 48.7148 114.191 49.799 114.72C50.0873 114.861 50.4352 114.753 50.5972 114.477C52.6488 110.908 52.3724 107.736 52.3724 107.727C52.2938 106.736 53.7949 106.578 53.907 107.584C53.9808 108.537 54.343 117.034 44.5119 122.017C40.8138 123.887 38.2691 126.775 36.951 130.597C36.839 131.099 36.7246 131.605 36.5697 132.065C36.3648 132.641 37.1368 133.139 37.5705 132.696C39.2338 131.107 41.974 129.11 45.5743 128.633C50.1374 128.026 52.2746 126.968 52.5033 125.197C52.6368 124.201 54.1451 124.385 54.026 125.39C53.6137 128.676 49.6249 129.644 45.7788 130.156L45.7741 130.153Z" fill="#125D39"/>
<defs>
<clipPath id="clip0_32_19">
<rect width="125.816" height="123.647" fill="white" transform="translate(45.0034 48.1733) rotate(-22.5125)"/>
</clipPath>
</defs>
</svg>
