<?xml version="1.0" encoding="UTF-8"?>
<svg width="1200pt" height="1200pt" version="1.1" viewBox="0 0 1200 1200" xmlns="http://www.w3.org/2000/svg">
 <path d="m1143.5 387.42c-123.37-114.38-281.86-203.63-357.94-220.69-30.516-6.8906-59.672-19.453-86.672-37.219l-37.312-24.469c-32.766-21.469-73.922-20.156-110.16 3.5156-36.094 25.172-77.062 49.688-119.72 58.453-84.984 19.641-259.97 114.98-375.1 220.36-7.0312 6.375-9.9844 15.75-7.9688 24.984 2.0156 9.2344 8.5781 16.406 17.578 19.312 71.531 22.734 311.72 112.69 446.76 324.84-11.531 3.4688-81.188 42.469-46.781 57.516l88.125 18.984c3.1406 5.1094 9.6562 17.812 13.781 21.984v53.766c0 34.453 28.031 62.531 62.531 62.531h28.781c5.4375 0 9.8438 4.4062 9.8438 9.8438-0.75 39.562-0.79687 83.531 16.359 120 2.8594 5.5781 8.5312 9.0938 14.859 9.0938 6.8906 0 13.031-4.125 15.469-10.359 10.406-25.172 15.656-51.609 15.656-79.453v-49.359c-0.14062-34.312-28.219-62.203-62.531-62.203h-26.625c-6.4688 0-11.766-5.3438-11.766-11.859v-40.078c5.25-4.7812 11.625-17.672 15.375-23.812l88.125-18.984c34.219-14.625-35.391-54.984-45.234-58.219 135.74-211.26 374.06-301.4 444.89-324.28 18.844-5.25 24.328-31.453 9.6094-44.156zm-501 545.34h26.625c21.141 0 38.438 17.203 38.531 38.25-0.375 29.812 2.4375 72.094-7.1719 100.55-8.8125-26.672-7.2656-62.484-7.2188-90.469 0-18.656-15.188-33.844-33.844-33.844h-28.781c-21.234 0-38.531-17.297-38.531-38.531v-40.078c4.7344 0.9375 9.8438 1.125 14.625 0.32812v27.891c0 19.781 16.031 35.859 35.766 35.859zm484.13-524.06c-73.406 23.672-321.28 117.52-460.82 338.9-8.8594-2.3906-14.766-3.1406-15.469-3.2344-15.703-1.6875-18.422 21.703-2.8594 23.812 0.375 0.046874 33.047 4.3594 60.422 26.953l-71.953 15.469c-3.2812 0.70313-6.1406 2.7656-7.875 5.7188-7.0781 10.359-12.281 29.719-27.797 29.156-15.562 0.60938-20.719-18.797-27.797-29.156-1.6875-2.9062-4.5469-4.9688-7.875-5.7188l-71.531-15.375c13.219-10.266 28.359-16.781 40.969-20.812 13.781-4.5 27.234-6.3281 26.953-6.2344 15.656-1.9688 13.172-25.125-2.4844-23.859-0.9375 0.09375-9.7031 1.0781-22.031 4.3125-139.87-225.05-389.72-314.34-464.29-341.44 108.75-104.81 283.82-197.34 365.02-216.89 45.422-9.4219 89.062-34.875 127.45-61.781 28.359-18.516 58.922-19.781 83.812-3.4688l37.312 24.469c29.391 19.359 61.219 33 94.594 40.594 73.359 16.5 230.26 106.78 346.92 214.87 1.5469 1.3125 0.70312 3.4688-0.5625 3.6562z"/>
 <path d="m656.11 224.11c6.6094 0 12-5.3438 12-12v-28.594c0-6.6562-5.3906-12-12-12s-12 5.3438-12 12v28.594c0 6.6562 5.3906 12 12 12z"/>
 <path d="m562.26 224.11c6.6094 0 12-5.3438 12-12v-28.594c0-6.6562-5.3906-12-12-12s-12 5.3438-12 12v28.594c0 6.6562 5.3906 12 12 12z"/>
 <path d="m690.66 282.19c0-6.6562-5.3906-12-12-12h-138.14c-6.6094 0-12 5.3438-12 12s5.3906 12 12 12h138.14c6.6094 0 12-5.3438 12-12z"/>
 <path d="m687.1 389.48c7.7812 0 62.016-0.79688 93.094-23.109 5.3906-3.8438 6.6094-11.344 2.7656-16.734s-11.391-6.6562-16.734-2.7656c-25.781 18.375-75.188 18.562-79.781 18.609-16.219 0.32812-15.562 24.562 0.70312 24z"/>
 <path d="m769.18 406.31c-24.75 17.156-73.078 15.469-73.594 15.422-15.703-0.5625-16.734 23.109-0.98438 23.953 19.031 0.14062 58.734-0.28125 88.266-19.688 12.844-9-0.75-28.641-13.688-19.734z"/>
 <path d="m770.76 465c-26.109 15.094-74.156 9.375-74.625 9.3281-15.703-1.5938-18.562 21.609-2.9531 23.812 21.891 2.6719 65.344 2.2969 89.578-12.375 13.5-8.1094 1.7812-28.453-12-20.766z"/>
 <path d="m531.98 365.48h-0.14062c-0.65625 0.046875-53.297 0.32812-79.688-18.609-12.75-9.1406-26.719 10.312-13.969 19.5 31.875 22.594 85.125 23.062 93.938 23.109 15.656-0.42188 15.562-23.766-0.14062-24z"/>
 <path d="m518.44 445.82c3.0469 0 4.9219-0.09375 5.2969-0.09375 15.844-0.89062 14.625-24.609-0.98438-23.953-0.46875-0.046875-48.797 1.7344-73.594-15.422-5.4375-3.75-12.938-2.3906-16.688 3.0469-17.109 30.891 83.156 38.016 85.969 36.469z"/>
 <path d="m522.19 474.32c-0.46875 0.046875-48.516 5.7188-74.625-9.3281-5.7656-3.3281-13.078-1.3125-16.406 4.4062-14.156 31.547 82.359 31.688 93.938 28.734 15.562-2.2031 12.797-25.406-2.9531-23.812z"/>
</svg>
