<?xml version="1.0" encoding="UTF-8"?>
<svg width="1200pt" height="1200pt" version="1.1" viewBox="0 0 1200 1200" xmlns="http://www.w3.org/2000/svg">
 <path d="m562.5 562.5c0-20.719 16.781-37.5 37.5-37.5s37.5 16.781 37.5 37.5-16.781 37.5-37.5 37.5-37.5-16.781-37.5-37.5zm525-300c0 20.719-16.781 37.5-37.5 37.5h-75c-9.9375 0-19.5-3.9375-26.531-10.969l-64.031-64.031h-28.875c-15.516 43.547-56.766 75-105.61 75h-253.69l77.625 77.625c8.5781-1.2188 17.156-2.625 26.062-2.625 103.36 0 187.5 84.141 187.5 187.5 0 61.031-29.719 114.8-75 149.06v375.94c0 20.719-16.781 37.5-37.5 37.5h-449.95c-20.719 0-37.5-16.781-37.5-37.5v-225c0-20.719 16.781-37.5 37.5-37.5h262.5v-113.44c-45.281-34.266-75-88.031-75-149.06 0-8.9531 1.4062-17.484 2.625-26.109l-268.26-268.26c-21.094-20.484-34.359-48.984-34.359-80.625 0-62.016 50.484-112.5 112.5-112.5h525c48.844 0 90.047 31.453 105.61 75h28.875l64.031-64.031c7.0312-7.0312 16.594-10.969 26.531-10.969h75c20.719 0 37.5 16.781 37.5 37.5s-16.781 37.5-37.5 37.5h-59.484l-37.5 37.5 37.5 37.5h59.484c20.719 0 37.5 16.781 37.5 37.5zm-900-75c0 10.359 4.2188 19.734 11.016 26.484l0.14062-0.14062 0.70312 0.70312c6.7031 6.375 15.703 10.406 25.641 10.406 20.672 0 37.5-16.828 37.5-37.5 0-9.9844-4.0781-18.938-10.406-25.641l-0.70312-0.70312 0.14062-0.14062c-6.7969-6.7969-16.172-11.016-26.484-11.016-20.672 0-37.5 16.828-37.5 37.5zm75 862.5h225v-150h-225zm375-303.79c-12.141 2.4844-24.656 3.7969-37.5 3.7969s-25.359-1.3125-37.5-3.7969v303.79h75zm-37.5-296.21c-62.016 0-112.5 50.484-112.5 112.5s50.484 112.5 112.5 112.5 112.5-50.484 112.5-112.5-50.484-112.5-112.5-112.5zm-103.41-43.641-170.44-170.44c-11.062 23.062-29.672 41.625-52.734 52.734l170.44 170.44c13.875-20.906 31.828-38.812 52.734-52.734zm290.9-218.86c0-20.672-16.828-37.5-37.5-37.5h-403.69l75 75h328.69c20.672 0 37.5-16.828 37.5-37.5z"/>
</svg>
