<?xml version="1.0" encoding="UTF-8"?>
<svg width="1200pt" height="1200pt" version="1.1" viewBox="0 0 1200 1200" xmlns="http://www.w3.org/2000/svg">
 <path d="m547.09 322.32c13.594 0 24.609 10.957 24.609 24.609 0 13.477-11.016 24.492-24.609 24.492-13.535 0-24.492-11.016-24.492-24.492 0-13.652 10.957-24.609 24.492-24.609z"/>
 <path d="m654.26 322.32c13.477 0 24.492 10.957 24.492 24.609 0 13.477-11.016 24.492-24.492 24.492-13.652 0-24.609-11.016-24.609-24.492 0-13.652 10.957-24.609 24.609-24.609z"/>
 <path d="m502.68 940.84c-13.066 0-24.902 5.332-33.516 13.887-8.5547 8.5547-13.887 20.449-13.887 33.516 0 13.184 5.2734 25.078 13.887 33.691 8.5547 8.5547 20.391 13.828 33.516 13.828s24.961-5.2734 33.516-13.828c8.5547-8.5547 13.887-20.508 13.887-33.691 0-13.066-5.332-24.961-13.887-33.516-8.5547-8.5547-20.391-13.887-33.516-13.887zm-60-12.656c15.352-15.352 36.562-24.844 60-24.844s44.648 9.4922 60 24.844c15.352 15.352 24.844 36.562 24.844 60s-9.4922 44.648-24.844 60.059c-15.41 15.41-36.621 24.961-60.059 24.961-23.379 0-44.648-9.5508-60-24.961-15.352-15.41-24.844-36.621-24.844-60.059 0.058593-23.379 9.5508-44.59 24.902-60z"/>
 <path d="m505.78 240.29h189.43c13.242 0 25.137 6.0938 33.574 15.996 7.793 9.0234 12.598 21.328 12.598 34.688v109.28c0 13.359-4.8047 25.664-12.598 34.688-8.4375 9.8438-20.332 15.996-33.574 15.996h-189.43c-13.242 0-25.137-6.0938-33.574-15.996-7.793-9.0234-12.598-21.328-12.598-34.688v-109.28c0-13.359 4.8047-25.664 12.598-34.688 8.4375-9.9023 20.332-15.996 33.574-15.996zm189.43 37.5h-189.43c-1.8164 0-3.6914 1.0547-5.1562 2.8125-2.168 2.5195-3.5156 6.2109-3.5156 10.371v109.28c0 4.2188 1.3477 7.8516 3.5156 10.371 1.4648 1.6992 3.3398 2.8125 5.1562 2.8125h189.43c1.8164 0 3.6914-1.0547 5.1562-2.8125 2.168-2.5195 3.5156-6.2109 3.5156-10.371v-109.28c0-4.2188-1.3477-7.8516-3.5156-10.371-1.5234-1.7578-3.3398-2.8125-5.1562-2.8125z"/>
 <path d="m468.46 453.75h263.14c13.945 0 26.602 5.6836 35.801 14.883 9.1992 9.1992 14.883 21.855 14.883 35.801v227.93c0 13.945-5.6836 26.602-14.883 35.801-9.1992 9.1992-21.855 14.883-35.801 14.883h-263.14c-13.945 0-26.602-5.6836-35.801-14.883-9.1992-9.1992-14.883-21.855-14.883-35.801v-227.93c0-13.945 5.6836-26.66 14.883-35.801 9.1406-9.1992 21.855-14.883 35.801-14.883zm263.09 37.5h-263.09c-3.6328 0-6.9141 1.4648-9.3164 3.8672-2.4023 2.4023-3.8672 5.6836-3.8672 9.3164v227.93c0 3.5742 1.4648 6.9141 3.8672 9.3164 2.4023 2.4023 5.6836 3.8672 9.3164 3.8672h263.14c3.5742 0 6.9141-1.4648 9.3164-3.8672 2.4023-2.4023 3.8672-5.6836 3.8672-9.3164v-227.93c0-3.5742-1.4648-6.9141-3.8672-9.3164-2.4609-2.4023-5.7422-3.8672-9.375-3.8672z"/>
 <path d="m619.22 145.49c0-10.371-8.3789-18.75-18.75-18.75s-18.75 8.3789-18.75 18.75v113.5c0 10.371 8.3789 18.75 18.75 18.75s18.75-8.3789 18.75-18.75z"/>
 <path d="m697.32 940.84c-13.066 0-24.902 5.332-33.516 13.887-8.5547 8.5547-13.887 20.449-13.887 33.516 0 13.184 5.2734 25.078 13.887 33.691 8.5547 8.5547 20.391 13.828 33.516 13.828s24.961-5.2734 33.516-13.828c8.5547-8.5547 13.887-20.508 13.887-33.691 0-13.066-5.332-24.961-13.887-33.516-8.5547-8.5547-20.391-13.887-33.516-13.887zm-60-12.656c15.352-15.352 36.562-24.844 60-24.844s44.648 9.4922 60 24.844c15.352 15.352 24.844 36.562 24.844 60s-9.4922 44.648-24.844 60.059c-15.41 15.41-36.621 24.961-60.059 24.961-23.379 0-44.648-9.5508-60-24.961-15.352-15.41-24.844-36.621-24.844-60.059 0.058594-23.379 9.5508-44.59 24.902-60z"/>
 <path d="m460.96 854.53c-10.371 0-18.75 8.3789-18.75 18.75s8.3789 18.75 18.75 18.75h94.16c10.371 0 18.75-8.3789 18.75-18.75s-8.3789-18.75-18.75-18.75z"/>
 <path d="m648.87 854.53c-10.371 0-18.75 8.3789-18.75 18.75s8.3789 18.75 18.75 18.75h94.16c10.371 0 18.75-8.3789 18.75-18.75s-8.3789-18.75-18.75-18.75z"/>
 <path d="m843.57 513.34c0-10.371-8.3789-18.75-18.75-18.75-10.371 0-18.75 8.3789-18.75 18.75v204.38c0 10.371 8.3789 18.75 18.75 18.75 10.371 0 18.75-8.3789 18.75-18.75z"/>
 <path d="m783.93 494.59h40.898v37.5h-40.898z"/>
 <path d="m393.93 513.34c0-10.371-8.3789-18.75-18.75-18.75-10.371 0-18.75 8.3789-18.75 18.75v204.38c0 10.371 8.3789 18.75 18.75 18.75 10.371 0 18.75-8.3789 18.75-18.75z"/>
 <path d="m416.07 532.09h-40.898v-37.5h40.898z"/>
 <path d="m460.96 801.15c-10.371 0-18.75 8.3789-18.75 18.75s8.3789 18.75 18.75 18.75h94.16c10.371 0 18.75-8.3789 18.75-18.75s-8.3789-18.75-18.75-18.75z"/>
 <path d="m648.87 801.15c-10.371 0-18.75 8.3789-18.75 18.75s8.3789 18.75 18.75 18.75h94.16c10.371 0 18.75-8.3789 18.75-18.75s-8.3789-18.75-18.75-18.75z"/>
</svg>
