<svg width="224" height="184" viewBox="0 0 224 184" fill="none" xmlns="http://www.w3.org/2000/svg">
<path d="M29.5957 62.1968C29.2792 59.144 31.0756 56.2637 33.9516 55.1923C36.8275 54.1209 40.0637 55.1291 41.8241 57.6474L61.9658 87.1593L75.7461 81.8331L71.0156 76.7328C69.2714 74.8544 68.6467 72.1984 69.3752 69.7423C70.105 67.2802 72.0814 65.3965 74.5645 64.7714L109.641 55.941C116.134 54.3414 122.826 57.7153 125.395 63.8932L131.891 79.5827C142.798 85.7769 151.176 95.6197 155.541 107.383C157.629 111.875 156.475 117.211 152.719 120.44L148.441 124.113C136.432 134.363 120.328 138.409 104.904 135.044C98.701 133.698 92.8091 131.17 87.554 127.612C87.554 127.612 70.5139 126.401 70.2784 126.35C66.7454 125.63 64.2812 122.422 64.4908 118.822L65.224 106.623L58.7818 100.065L32.5457 109.965C29.8312 111.004 26.7594 110.179 24.9297 107.924C23.1014 105.663 22.9288 102.487 24.5064 100.048L28.8426 93.2488C31.2216 89.617 32.2601 85.2691 31.7711 80.9558L29.5957 62.1968ZM120.918 65.7441C119.285 61.7766 114.984 59.6053 110.823 60.6463L75.7521 69.4528C74.9233 69.6568 74.2608 70.2921 74.016 71.1105C73.7699 71.9347 73.9801 72.8204 74.5675 73.4478L80.5745 79.9607L89.288 76.5794C100.896 72.069 113.762 72.032 125.393 76.4732L120.918 65.7441ZM122.804 130.781C117.035 120.451 116.769 107.932 122.093 97.3616C122.69 96.1685 124.148 95.6864 125.341 96.284C126.534 96.8817 127.016 98.3391 126.418 99.5321C121.623 109.142 122.111 120.548 127.706 129.715C135.964 127.298 143.487 122.85 149.581 116.771C151.687 114.946 152.333 111.959 151.168 109.428L148.764 104.312C143.855 93.865 135.173 85.6622 124.462 81.3586C113.753 77.0484 101.812 76.9518 91.033 81.0853L61.8935 92.4101C61.3047 92.6474 60.8727 93.1596 60.7388 93.7794C60.6048 94.3992 60.7868 95.044 61.2251 95.5033L83.1083 117.756C93.4568 128.253 108.243 133.11 122.803 130.782L122.804 130.781ZM69.416 119.021C69.334 120.344 70.3351 121.487 71.6556 121.581L80.8699 122.287L69.8967 111.191L69.416 119.021ZM33.0197 95.7585L28.7123 102.539C28.2433 103.222 28.2801 104.138 28.7961 104.781C29.3168 105.431 30.2005 105.659 30.9717 105.35L56.0878 95.9489C55.4851 93.7056 56.0967 91.3044 57.7016 89.6247L37.8074 60.4615C37.4578 59.4777 36.383 58.9612 35.3993 59.3109C34.4155 59.6606 33.899 60.7353 34.2487 61.7191L36.4077 80.5485C37.059 85.8547 35.8614 91.2247 33.0219 95.7583L33.0197 95.7585Z" fill="#7A2D4A"/>
<path d="M139.506 101.754C140.816 102.037 141.649 103.317 141.369 104.614C141.089 105.911 139.801 106.732 138.491 106.449C137.182 106.166 136.348 104.886 136.628 103.589C136.908 102.292 138.196 101.471 139.506 101.754Z" fill="#7A2D4A"/>
<path d="M100.038 95.8536L109.545 99.6279C110.809 100.122 111.427 101.539 110.933 102.79C110.439 104.041 109.012 104.648 107.748 104.153L98.2359 100.403C97.9654 100.277 97.6471 100.343 97.4516 100.559C97.2501 100.773 97.2125 101.09 97.3625 101.344L104.81 115.336C105.328 116.499 104.848 117.857 103.712 118.434C102.575 119.018 101.173 118.617 100.515 117.529L93.1012 103.494C92.0648 101.458 92.3904 99.0041 93.9219 97.3142C95.4592 95.6256 97.8862 95.0445 100.038 95.8535L100.038 95.8536Z" fill="#7A2D4A"/>
<g clip-path="url(#clip0_20_126)">
<path d="M157.859 80.9699C158.381 80.5713 159.125 80.6706 159.524 81.1917C159.923 81.7129 159.823 82.4578 159.302 82.8564C158.781 83.255 158.036 83.1557 157.637 82.6345C157.239 82.1134 157.338 81.3685 157.859 80.9699ZM175.505 88.4043C174.984 88.8029 174.239 88.7036 173.84 88.1824L172.398 86.2959C172.206 86.0459 172.121 85.7297 172.163 85.4175L172.542 82.5751L171.986 81.8488C170.593 82.2963 169.008 81.8638 168.068 80.6352L163.188 74.254L162.729 77.6998C162.924 77.8921 163.125 78.0809 163.296 78.3049C165.284 80.9047 164.787 84.6398 162.187 86.6282C160.652 87.8023 158.727 88.0891 156.995 87.6092L147.538 94.8413C147.017 95.2399 146.272 95.1406 145.874 94.6194L137.218 83.3016C136.819 82.7804 136.919 82.0355 137.44 81.6369L143.099 77.3085C143.62 76.9099 144.365 77.0092 144.764 77.5304L149.814 84.1332L152.667 81.9509C152.658 80.1527 153.439 78.3709 154.974 77.1969C155.199 77.0246 155.441 76.8959 155.681 76.7606L157.268 64.8523C157.377 63.9277 157.839 63.0457 158.635 62.437C160.195 61.244 162.436 61.5427 163.629 63.1026L173.729 76.3082C174.668 77.5368 174.67 79.1783 173.874 80.4075L174.429 81.1338L177.272 81.5126C177.584 81.5542 177.867 81.719 178.058 81.9689L179.501 83.8555C179.899 84.3766 179.8 85.1215 179.279 85.5201C178.758 85.9187 178.013 85.8194 177.614 85.2983L176.47 83.802L174.805 83.5802L174.583 85.2448L175.728 86.7411C176.126 87.2622 176.027 88.0071 175.506 88.4057L175.505 88.4043ZM160.078 64.3233C159.817 64.5226 159.663 64.809 159.624 65.1099L159.63 65.1107L159.626 65.1419C159.594 65.4331 159.666 65.7371 159.857 65.987C160.255 66.507 161.002 66.6066 161.522 66.2089C161.773 66.0168 161.92 65.742 161.967 65.4539L161.971 65.4227L161.977 65.4235C162.017 65.1218 161.943 64.8048 161.745 64.5454C161.347 64.0255 160.6 63.9259 160.08 64.3236L160.078 64.3233ZM139.826 82.802L144.154 88.4616L147.927 85.576L143.599 79.9164L139.826 82.802ZM154.681 86.3905C154.385 86.1329 154.111 85.8434 153.864 85.5203C153.617 85.1972 153.409 84.8572 153.238 84.504L145.597 90.3481L147.04 92.2346L154.681 86.3905ZM161.411 79.7489C160.217 78.189 157.976 77.8903 156.417 79.0834C154.857 80.2764 154.558 82.5174 155.751 84.0773C156.944 85.6373 159.185 85.9359 160.745 84.7429C162.305 83.5499 162.604 81.3089 161.411 79.7489ZM160.519 76.3083L161.527 68.7423C160.734 68.9077 159.909 68.7967 159.186 68.4303L158.178 75.9963C158.971 75.9431 159.767 76.0502 160.519 76.3083ZM171.62 79.4151C172.14 79.0175 172.24 78.2705 171.842 77.7505L164.076 67.5962L163.632 70.9256L169.956 79.1933C170.353 79.7133 171.1 79.8128 171.62 79.4151Z" fill="#7A2D4A"/>
</g>
<path d="M209.073 107.117C204.927 105.159 200.664 105.981 197.371 107.347C200.043 103.702 202.331 99.4804 207.272 99.9695C208.387 100.064 209.35 99.2341 209.441 98.1296C209.533 97.0252 208.706 96.0489 207.604 95.96C203.325 95.6041 200.396 97.4439 198.193 99.7261C199.619 95.9469 200.433 91.3277 197.517 86.6477C196.936 85.7055 195.699 85.4124 194.754 85.9934C194.296 86.2761 193.976 86.721 193.853 87.2444C193.73 87.7705 193.822 88.3122 194.107 88.765C196.918 93.3005 194.707 97.9881 192.903 101.764C193.008 99.686 193.445 97.5138 194.476 95.5091C195.314 93.9833 193.707 92.0989 192.074 92.6773C190.697 93.1431 190.404 94.8757 189.899 96.043C189.242 91.7168 187.646 89.2168 187.627 89.1933C186.151 86.9792 182.906 89.0337 184.214 91.308C184.437 91.6954 186.381 95.2495 186.135 100.777C186.101 101.565 186.065 102.424 186.057 103.321C184.254 99.6545 181.652 96.0925 176.523 95.1478C175.46 94.9306 174.356 95.6948 174.183 96.7652C173.984 97.854 174.704 98.9035 175.793 99.105C180.367 99.9372 182.207 104.331 183.992 108.572C177.672 107.878 172.024 111.081 171.765 111.231C169.514 112.641 171.466 115.973 173.788 114.709C173.84 114.677 178.504 112.073 183.456 112.573C183.254 112.947 183.27 113.408 183.325 113.822C184.163 122.743 183.78 131.736 182.21 140.564C181.48 140.425 180.752 140.274 180.025 140.096C179.119 139.863 178.258 140.679 178.284 141.598V146.633C178.284 147.002 178.585 147.303 178.954 147.303H201.462C201.831 147.303 202.132 147.002 202.132 146.633V141.598C202.156 140.679 201.3 139.86 200.392 140.096C199.78 140.245 199.165 140.373 198.552 140.496C196.984 131.699 196.605 122.701 197.445 113.733C197.55 113.12 197.455 112.461 196.982 112.021C199.492 110.645 203.682 109.014 207.361 110.755C209.785 111.82 211.439 108.305 209.078 107.117L209.073 107.117ZM195.207 112.945C195.288 112.959 195.369 112.938 195.448 112.914C195.765 112.849 196.144 112.833 196.139 113.252C196.008 114.623 195.903 115.997 195.827 117.371C191.127 118.156 187.167 117.813 184.932 117.465C184.856 116.089 184.752 114.709 184.621 113.335C184.608 113.191 184.678 113.097 184.723 113.055C184.77 113.011 184.864 112.943 185.016 112.961C186.181 113.126 187.424 113.241 188.696 113.288C188.756 113.301 188.816 113.309 188.879 113.294C189.63 113.317 190.423 113.322 191.268 113.296C191.292 113.304 191.313 113.299 191.334 113.294C192.14 113.267 192.983 113.212 193.859 113.121C193.891 113.118 193.922 113.118 193.954 113.113C194.362 113.068 194.783 113.011 195.205 112.951L195.207 112.945ZM185.071 124.919C188.25 125.398 192.09 125.411 195.686 124.825C195.712 126.392 195.78 127.96 195.88 129.523C191.166 130.316 187.159 129.975 184.872 129.619C184.974 128.054 185.042 126.487 185.071 124.922L185.071 124.919ZM195.673 123.466C191.318 124.176 187.615 123.945 185.089 123.561C185.097 121.98 185.06 120.402 184.992 118.821C188.036 119.297 192.181 119.326 195.773 118.724C195.704 120.305 195.668 121.886 195.673 123.464L195.673 123.466ZM184.791 130.96C187.921 131.465 192.258 131.504 195.966 130.858C196.087 132.412 196.252 133.962 196.443 135.508C191.193 136.487 186.796 136.053 184.31 135.61C184.503 134.064 184.671 132.514 184.791 130.962L184.791 130.96ZM207.493 97.295C208.367 97.384 208.265 98.6926 207.383 98.6324C200.659 98.054 198.699 104.155 194.972 108.028C195.202 106.981 195.548 105.817 196.066 104.565C196.084 104.537 196.108 104.505 196.142 104.461C198.689 100.87 201.583 96.7999 207.492 97.2924L207.493 97.295ZM195.245 88.0563C194.789 87.3052 195.902 86.6064 196.38 87.3523C201.251 95.6229 194.645 101.621 193.53 108.356C193.318 107.419 193.119 106.314 192.996 105.105C194.912 99.7085 199.105 94.4816 195.245 88.0563ZM192.091 94.2906C192.491 93.5133 193.685 94.1231 193.284 94.9031C191.591 98.1981 191.374 101.898 191.654 105.003C191.651 105.066 191.656 105.123 191.672 105.183C192.02 108.751 193.015 111.488 193.148 111.834C192.672 111.876 192.209 111.907 191.756 111.928C191.055 109.915 188.453 101.373 192.094 94.2907L192.091 94.2906ZM185.357 90.6109C185.095 90.2157 185.383 89.6373 185.851 89.5954C186.108 89.5666 186.354 89.687 186.498 89.9173C186.524 89.9592 189.12 94.0551 188.806 100.925C188.675 103.883 188.537 107.23 189.83 110.232C190.015 110.936 190.199 111.525 190.345 111.967C189.953 111.97 189.573 111.967 189.204 111.96C187.147 108.343 187.33 104.021 187.472 100.826C187.728 95.0583 185.768 91.3337 185.354 90.6145L185.357 90.6109ZM176.032 97.7927C175.17 97.6174 175.409 96.3245 176.278 96.471C182.216 97.565 184.464 102.813 186.259 107.065C186.471 108.674 186.888 110.318 187.652 111.886C187.471 111.873 187.288 111.862 187.115 111.846C183.964 106.678 182.993 99.0121 176.029 97.7899L176.032 97.7927ZM173.116 113.551C172.344 113.975 171.687 112.852 172.438 112.392C172.684 112.25 178.426 109 184.605 110.021C184.823 110.544 185.079 111.054 185.351 111.544C179.3 110.055 173.142 113.533 173.113 113.551L173.116 113.551ZM200.701 141.4C200.719 141.405 200.79 141.468 200.79 141.602V145.967H179.622V141.602C179.622 141.471 179.693 141.405 179.708 141.4C186.673 143.088 193.737 143.088 200.701 141.4ZM183.529 140.796C183.757 139.513 183.956 138.226 184.134 136.938C187.586 137.587 192.48 137.642 196.616 136.831C196.796 138.137 196.998 139.44 197.228 140.741C192.671 141.5 188.086 141.518 183.527 140.798L183.529 140.796ZM208.816 109.222C208.659 109.554 208.262 109.701 207.927 109.544C202.954 107.191 197.363 110.127 195.032 111.619C194.867 111.643 194.705 111.664 194.542 111.685C194.545 111.29 194.563 110.818 194.613 110.277C197.644 108.395 203.234 105.846 208.5 108.332C208.832 108.489 208.973 108.887 208.816 109.222Z" fill="#18572D"/>
<defs>
<clipPath id="clip0_20_126">
<rect width="38" height="38" fill="white" transform="translate(161.187 56) rotate(52.5913)"/>
</clipPath>
</defs>
</svg>
