<?xml version="1.0" encoding="UTF-8"?>
<svg width="1200pt" height="1200pt" version="1.1" viewBox="0 0 1200 1200" xmlns="http://www.w3.org/2000/svg">
 <path d="m299.34 333.05c-61.688 46.641-116.91 104.16-148.74 142.69h-0.046874c-54.938 66.188-73.266 120.94-68.672 165.1 4.5469 43.875 32.109 81.609 78.75 113.02 94.031 63.281 257.95 95.25 423.37 95.25 165.94 0 316.55-20.531 415.55-70.641 49.219-24.938 84.469-56.578 103.27-95.391 18.656-38.578 22.219-86.484 3.8906-146.26-35.953-117.47-151.87-185.68-282.71-225.71-129.98-39.75-269.26-49.922-343.6-55.078-26.109-1.7812-55.641 5.3438-87 19.359-31.219 13.969-63.281 34.312-94.078 57.656zm80.953-87.047c34.031-15.234 69.047-24.375 102.33-22.078 74.297 5.1094 216.89 15.422 350.81 56.391 133.13 40.734 263.16 113.39 304.08 247.08 20.156 65.766 17.25 122.29-5.7188 169.69-22.828 47.156-64.453 83.156-117.7 110.11-105.98 53.625-262.87 74.109-430.08 74.109-167.63 0-339.37-32.109-441.37-100.78-51.375-34.594-86.906-79.781-92.766-136.36-5.8594-56.203 18.141-119.34 75.891-188.95 33.094-40.031 90.094-99.375 154.13-147.84 32.062-24.281 66.234-46.078 100.41-61.359z" fill-rule="evenodd"/>
 <path d="m334.6 677.26s0.046875 0.046876 0.09375 0.14063c-0.046875-0.09375-0.09375-0.14063-0.09375-0.14063zm-6.4219 15.141h-0.09375zm29.953 10.594c0.75 0.46875 1.5469 0.98437 2.3438 1.5 14.719 9.6562 29.906 25.172 39.328 47.906 9.2812 22.219 13.406 52.359 4.9688 92.25-0.42188-0.1875-0.84375-0.42188-1.125-0.65625-0.14062-0.14063-0.23438-0.23438-0.28125-0.32813-0.046875-0.046874-0.09375-0.14062-0.09375-0.375-4.6406-29.859-11.859-62.719-21.938-91.5-6.1406-17.531-13.734-34.734-23.203-48.797zm48 141.84h-0.046875zm23.391-104.81c12.281 29.438 16.5 66.984 6.3281 113.34-1.875 8.625-6.9844 15.422-13.969 19.5-6.6562 3.8438-14.156 4.7812-20.766 3.8438-12.797-1.7344-27.047-11.297-29.672-28.453-4.4531-28.688-11.25-59.484-20.484-85.828-9.4688-27.047-20.578-46.547-32.016-55.688-3.8906-3.1406-7.3594-6.4688-10.031-9.9844-2.4844-3.375-5.2969-8.2969-5.4844-14.438-0.28125-7.2656 3.1406-13.359 8.2969-17.203 4.4531-3.2344 9.4219-4.3594 13.125-4.7812 7.6406-0.79688 16.5 0.70312 25.031 3.4688 8.8594 2.8594 18.609 7.4062 28.266 13.734 19.406 12.75 39.188 33.094 51.375 62.484z" fill-rule="evenodd"/>
 <path d="m564.89 694.92s-0.046875 0.046875-0.046875 0.14062c0-0.09375 0.046875-0.14062 0.046875-0.14062zm-15.891 4.1719c-0.046875-0.046875-0.09375-0.046875-0.09375-0.046875s0.046875 0 0.09375 0.046875zm9.9844 30.141 0.28125 2.8125c1.3594 17.531-1.5938 39.047-13.734 60.422-11.859 20.953-33.141 42.703-69.797 60.516-0.14062-0.46875-0.1875-0.89062-0.1875-1.2656 0-0.23438 0.046875-0.375 0.09375-0.46875 0-0.046875 0.046875-0.14062 0.23438-0.28125 20.719-21.984 42.281-47.812 58.828-73.453 10.078-15.609 18.984-32.156 24.281-48.281zm14.578 79.125c-15.75 27.75-42.797 54.141-85.688 74.531-7.9688 3.7969-16.406 3.9375-23.953 0.89062-7.125-2.8594-12.422-8.2031-15.75-13.969-6.4688-11.25-7.6875-28.312 4.2656-40.969 19.922-21.094 40.078-45.375 55.172-68.766 15.562-24.094 24.188-44.812 24.375-59.438 0.09375-5.0156 0.5625-9.7969 1.7812-14.062 1.125-4.0312 3.2812-9.2812 8.0156-13.219 5.5312-4.6406 12.469-5.7188 18.656-3.9375 5.2969 1.4531 9.2344 4.7344 11.812 7.4062 5.3438 5.5312 9.5625 13.453 12.656 21.891 3.1875 8.7656 5.5312 19.219 6.4688 30.75 1.8281 23.109-2.1094 51.234-17.812 78.891z" fill-rule="evenodd"/>
 <path d="m433.4 616.6c4.1719 10.453 7.1719 22.547 9.3281 35.344 3 17.719 4.6406 37.875 5.2969 59.062 1.3125 42.469-1.3594 90.328-5.625 133.5v0.375s0.046875 0 0.046875 0.046875c0.046875 0.046875 0.1875 0.1875 0.375 0.32812l0.046875 0.046875c41.438-115.31 20.719-186.24-2.0625-219.28-2.4844-3.6094-4.9688-6.75-7.4062-9.4219zm33.938-8.8125c30.094 43.641 50.062 126.42 5.3438 249.84-3.0469 8.4375-9.0938 14.719-16.734 17.906-7.3125 3.0469-15.047 2.9062-21.703 0.89062-13.031-3.8906-25.688-16.641-23.859-35.109 4.1719-42.328 6.7031-88.688 5.4375-129.32-0.60938-20.297-2.1562-38.859-4.8281-54.656-2.7188-15.984-6.4219-28.031-10.781-35.953-5.2969-9.6094-9.0938-20.25-7.3594-30.188 0.98438-5.5312 3.7969-11.109 9.1875-15 5.1094-3.75 10.922-4.6875 15.703-4.5 9.1875 0.375 18.234 4.9688 25.922 10.688 8.0625 6.0469 16.219 14.578 23.672 25.406z" fill-rule="evenodd"/>
</svg>
