<?xml version="1.0" encoding="UTF-8"?>
<svg width="1200pt" height="1200pt" version="1.1" viewBox="0 0 1200 1200" xmlns="http://www.w3.org/2000/svg">
 <path d="m88.359 999.32-31.125-93.422c-1.9219-5.7188-0.98438-12 2.5312-16.875 3.5156-4.9219 9.1875-7.7812 15.234-7.7812h431.26v-75h-302.72c-5.4844 0-10.641-2.3438-14.203-6.5156-3.5625-4.125-5.1562-9.6094-4.3594-15 49.688-332.95 326.44-624.05 326.44-624.05 5.2969-5.5312 13.406-7.3594 20.531-4.5s11.766 9.75 11.766 17.391v707.68h21.469v-806.25c0-10.359 8.4375-18.75 18.75-18.75 10.359 0 18.75 8.3906 18.75 18.75v64.547c34.969 22.078 162.1 107.53 266.76 242.72 82.547 106.59 150.98 243.89 150.98 405.24 0 10.359-8.3906 18.75-18.75 18.75h-399v75h522.28c7.8281 0 14.859 4.875 17.578 12.281 2.7188 7.3594 0.5625 15.609-5.3906 20.719l-214.82 184.18c-34.172 29.25-77.625 45.328-122.58 45.328h-616.92c-27.656 0-52.266-17.719-61.031-43.969 0 0-33.422-100.22-33.469-100.41zm43.922 13.172 25.125 75.422c3.6562 10.969 13.922 18.328 25.453 18.328h616.92c36 0 70.828-12.844 98.156-36.281l67.031-57.469zm876.42-37.5 65.625-56.25h-973.26l18.75 56.25zm-405.94-790.6v584.34h379.92c-5.0625-144.14-68.109-267.1-142.78-363.47-86.438-111.61-188.63-188.02-237.14-220.87zm-96.469 584.34v-545.63c-70.781 83.766-236.63 301.22-280.6 545.63z" fill-rule="evenodd"/>
</svg>
