<?xml version="1.0" encoding="UTF-8"?>
<svg width="1200pt" height="1200pt" version="1.1" viewBox="0 0 1200 1200" xmlns="http://www.w3.org/2000/svg">
 <path d="m995.21 1071.5c0.60938-0.75 1.2188-1.5 1.6406-2.4375 0.23438-0.51562 0.23438-1.125 0.375-1.6406 0.23438-0.89062 0.5625-1.6875 0.5625-2.625v-0.14062c0.60938-41.578-10.781-74.531-33.844-97.922-26.297-26.719-67.266-40.219-121.74-40.219h-20.438c29.297-75.703 32.906-176.53 9.1406-273.98-26.391-108.33-82.406-195.84-153.94-241.22-6.5625-24.844-27.562-43.641-53.531-46.969-0.65625-15.609-6.8438-30.328-17.438-41.344l42.188-77.109c4.125 1.9219 8.4844 3.0938 12.938 3.0938 2.9062 0 5.8125-0.42188 8.7188-1.2656 7.875-2.2969 14.391-7.5469 18.328-14.719l12.656-23.109c8.1562-14.859 2.6719-33.562-12.188-41.719l-73.781-40.359c-7.1719-3.9375-15.469-4.8281-23.391-2.5312-7.875 2.2969-14.391 7.5469-18.328 14.719l-12.656 23.109c-3.9375 7.1719-4.8281 15.469-2.5312 23.391 2.1562 7.2656 6.8438 13.312 13.172 17.297l-42.281 77.25c-10.031-2.0156-20.438-1.7812-30.609 1.3594-16.172 4.9688-29.578 15.938-37.734 30.844l-123.05 224.86c-12.656-1.6875-25.688 4.3125-32.156 16.172l-14.016 25.594c-8.4375 15.375-2.7656 34.781 12.656 43.219l136.03 74.438c4.8281 2.625 10.078 3.8906 15.234 3.8906 11.25 0 22.219-6 27.984-16.547l14.016-25.594c4.0781-7.4531 5.0156-16.031 2.625-24.234-1.3594-4.6875-3.8438-8.8125-7.0312-12.328l49.5-90.469c42.75 11.859 94.125 50.25 119.81 82.5-4.8281 8.2969-7.8281 17.812-7.8281 28.125 0 31.031 25.219 56.25 56.25 56.25 1.8281 0 3.5156-0.375 5.2969-0.51562 10.078 26.578 18.516 61.031 21.844 94.875-14.156-12.797-34.828-19.406-61.781-19.406h-177.74c-20.203 0-37.172 4.125-50.438 12l-200.44-110.02c-5.5312-3.0469-12.422-1.0312-15.469 4.5l-28.078 51.188c-1.4531 2.625-1.7812 5.7656-0.9375 8.6719s2.8125 5.3438 5.4375 6.7969l211.69 116.16c0.23438 0.14063 0.46875 0.1875 0.70312 0.28125 0.14062 0.046876 0.23438 0.1875 0.375 0.23438 0.14062 0.046874 0.375 0.046874 0.51562 0.09375 1.2656 0.46875 2.5781 0.79687 3.8906 0.79687l202.4 0.375c-14.438 16.594-23.531 37.922-24.656 61.359h-113.06c-54.188 0-94.828 13.219-120.79 39.234-23.062 23.109-34.781 56.391-34.781 98.953 0 0.9375 0.32812 1.7812 0.5625 2.6719 0.14062 0.5625 0.14062 1.2188 0.375 1.7344 0.375 0.84375 0.9375 1.5 1.5 2.2031 0.32812 0.46875 0.5625 0.98438 0.9375 1.4062 0.32812 0.32813 0.79688 0.51563 1.1719 0.79688 1.9219 1.5 4.2188 2.5312 6.8438 2.5312h640.69c1.5469 0 3.0469-0.32813 4.4062-0.89063 0.32812-0.14062 0.5625-0.42187 0.89062-0.60937 0.98438-0.51563 1.9219-1.0312 2.7188-1.8281 0.32812-0.32812 0.51562-0.79687 0.79688-1.1719zm-338.72-644.06c0 22.688-18.469 41.203-41.203 41.203-22.688 0-41.203-18.469-41.203-41.203 0-22.688 18.469-41.203 41.203-41.203 22.688 0 41.203 18.469 41.203 41.203zm-76.125-253.4 12.656-23.109c1.0312-1.8281 2.7188-3.1875 4.7812-3.7969 0.75-0.23438 1.5-0.32812 2.2969-0.32812 1.3125 0 2.625 0.32812 3.7969 0.98438l73.781 40.359c3.8438 2.1094 5.2969 6.9844 3.1875 10.828l-12.656 23.109c-1.0312 1.8281-2.7188 3.1875-4.7812 3.7969s-4.2188 0.375-6.0469-0.65625l-8.3438-4.5938-12.516-6.8438-52.922-28.969c-1.8281-1.0312-3.1875-2.7188-3.7969-4.7812s-0.375-4.2188 0.65625-6.0469zm10.594 40.828 37.078 20.297-40.734 74.391-37.078-20.297zm-110.58 109.31c5.2969-9.7031 14.016-16.828 24.469-20.062 10.359-3.1875 21.188-2.1562 30.422 2.9062l45.094 24.656c12.188 6.6562 19.734 19.594 20.25 33.656-28.219 6.6562-49.312 31.875-49.312 62.109 0 10.125 2.5781 19.594 6.7969 28.125l-84.562 154.55-115.22-63.047 122.02-222.94zm-3.2812 324.19-14.016 25.594c-2.3906 4.4062-7.9219 6-12.328 3.6094l-136.03-74.438c-4.4062-2.3906-6-7.9219-3.6094-12.328l14.016-25.594c1.6406-3 4.7812-4.7344 7.9688-4.7344 1.4531 0 2.9531 0.375 4.3594 1.125l136.03 74.438c2.1094 1.1719 3.6562 3.0938 4.3125 5.4375 0.70312 2.3438 0.42188 4.7812-0.70312 6.8906zm199.82-5.4844c0-18.469 15.047-33.516 33.516-33.516s33.516 15.047 33.516 33.516-15.047 33.516-33.516 33.516-33.516-15.047-33.516-33.516zm89.766 0c0-31.031-25.219-56.25-56.25-56.25-12.422 0-23.812 4.1719-33.141 11.016-25.875-30.797-75.891-70.734-123.98-85.734l20.016-36.609c11.25 9.8906 25.828 16.078 41.953 16.078 31.078 0 57-22.312 62.719-51.797 60.281 44.391 107.44 122.58 130.74 218.29 21.938 90 19.594 182.44-5.5781 252.98-5.4375-26.25-21.047-48.797-42.516-63.328 5.3438-51.141-7.3125-113.44-23.062-155.76 17.25-9.6094 29.062-27.844 29.062-48.938zm-90.844 153.94c35.109 0 53.906 12.141 59.438 38.344-9.8438-3.1875-20.344-4.9688-31.219-4.9688-17.438 0-33.891 4.4531-48.234 12.234l-218.34-0.42187c3.8438-30.281 23.672-45.188 60.609-45.188zm-429.61-95.344 183.28 100.55c-7.0312 9-11.766 20.016-14.016 32.906l-186.37-102.28 17.156-31.219zm139.03 280.31c21.562-21.609 56.812-32.578 104.72-32.578h124.4c0.14062 0 0.28125-0.09375 0.375-0.09375 0.14062 0 0.28125 0.046875 0.375 0.046875 0.65625-0.046875 1.1719-0.32812 1.7812-0.51562 0.75-0.1875 1.5-0.28125 2.1562-0.60938s1.2188-0.79688 1.7812-1.2188c0.60938-0.42188 1.2188-0.79688 1.6875-1.3125 0.51562-0.51562 0.79688-1.1719 1.2188-1.7812 0.375-0.60938 0.79688-1.1719 1.0781-1.875s0.32812-1.4531 0.46875-2.2031c0.09375-0.60938 0.375-1.1719 0.375-1.8281 0-0.14062-0.09375-0.23438-0.09375-0.375s0.046875-0.28125 0.046875-0.42188c-0.14062-1.875-0.1875-3.75-0.1875-5.625 0-43.312 35.25-78.516 78.516-78.516 43.312 0 78.516 35.203 78.516 78.516 0 1.875-0.046875 3.75-0.1875 5.625 0 0.14062 0.046875 0.28125 0.046875 0.42188s-0.09375 0.23438-0.09375 0.375c0 0.65625 0.28125 1.2188 0.375 1.8281 0.14062 0.75 0.1875 1.5 0.46875 2.2031s0.70312 1.2656 1.0781 1.875 0.70312 1.2656 1.2188 1.7812 1.125 0.89062 1.6875 1.3125c0.60938 0.42188 1.125 0.89062 1.7812 1.2188s1.4531 0.42188 2.1562 0.60938c0.60938 0.14062 1.1719 0.46875 1.7812 0.51562 0.28125 0 0.51562 0.046875 0.79688 0.046875h48.469c48.141 0 83.672 11.25 105.52 33.422 16.641 16.875 25.688 40.641 27.094 70.594h-617.21c1.7812-31.078 10.828-54.562 27.75-71.484zm53.766-545.63 38.812-70.922c2.5312-4.5938 8.2969-6.2812 12.891-3.75s6.2812 8.2969 3.75 12.891l-38.812 70.922c-1.7344 3.1406-4.9688 4.9219-8.3438 4.9219-1.5469 0-3.0938-0.375-4.5469-1.1719-4.5938-2.5312-6.2812-8.2969-3.75-12.891zm-27.75 50.672 7.7812-14.203c2.5312-4.5938 8.2969-6.2812 12.891-3.75s6.2812 8.2969 3.75 12.891l-7.7812 14.203c-1.7344 3.1406-4.9688 4.9219-8.3438 4.9219-1.5469 0-3.0938-0.375-4.5469-1.1719-4.5938-2.5312-6.2812-8.2969-3.75-12.891zm179.81-59.391c0 13.406 10.875 24.281 24.281 24.281s24.281-10.875 24.281-24.281-10.875-24.281-24.281-24.281-24.281 10.875-24.281 24.281zm29.625 0c0 2.9531-2.3906 5.3438-5.3438 5.3438s-5.3438-2.3906-5.3438-5.3438 2.3906-5.3438 5.3438-5.3438 5.3438 2.3906 5.3438 5.3438zm83.203 546.24c25.359 0 45.938-20.625 45.938-45.938 0-25.359-20.625-45.938-45.938-45.938-25.359 0-45.938 20.625-45.938 45.938 0 25.359 20.625 45.938 45.938 45.938zm0-69.141c12.797 0 23.203 10.406 23.203 23.203s-10.406 23.203-23.203 23.203-23.203-10.406-23.203-23.203 10.406-23.203 23.203-23.203z"/>
</svg>
