<?xml version="1.0" encoding="UTF-8"?>
<svg width="1200pt" height="1200pt" version="1.1" viewBox="0 0 1200 1200" xmlns="http://www.w3.org/2000/svg">
 <path d="m998.11 617.26c-91.031-55.875-156 89.953-169.92 170.44-7.5938 38.156-39.75 26.531-77.484 7.5938-10.594-5.8125-17.391-16.688-17.766-28.594l-3.7031-97.734c7.8281-6.2344 12.938-15.656 13.359-26.016 2.1562-54.797 0.75-107.58-3.1406-157.55 124.08-114.05 124.18-145.31 124.18-155.63 0-51.469-146.58-186.24-234.98-262.82-6.4219-9.4688-11.812-17.109-23.109-18.281-2.3438-0.60937-4.875-0.65625-7.1719 0.09375-10.547 1.5469-15.656 8.6719-21.797 17.625-88.641 77.062-235.5 212.44-235.5 263.44 0 17.859 13.172 53.531 124.26 155.81-3.8906 49.922-5.2969 102.61-3.1406 157.36 0.32812 8.1562 3.5625 15.703 8.7188 21.609l-3.8906 102.28c-0.32812 11.766-7.1719 22.688-17.766 28.5-37.688 18.938-69.844 30.562-77.438-7.6406-12.562-67.969-39.516-122.63-80.203-162.52-23.344-23.531-62.766-27.094-89.766-7.875-13.078 8.4844-10.969 29.672 3.3281 35.672 47.016 21.281 74.344 52.172 93.188 162 12.938 85.781 94.125 89.438 157.03 65.016-15.609 32.625-41.625 59.906-74.625 77.812-50.25 27.328-83.062 49.922-97.641 67.125-12.281 14.625-21.75 34.5-28.125 59.203-6.5625 24.984 5.0625 52.594 27.562 65.109 12.938 8.0625 31.078-2.0625 31.125-17.297 0.89062-80.766 79.406-88.172 133.6-124.6 34.969-26.953 60.188-56.156 77.203-79.781-7.1719 40.406-23.766 99.469-62.062 159.61-11.297 15.938 2.8594 40.312 22.078 38.109 26.016-2.3438 49.547-17.766 62.484-40.312 28.031-48.703 43.969-93.234 53.062-128.34 9.0938 35.062 25.031 79.594 53.062 128.29 12.75 22.266 35.578 37.312 61.125 40.266 20.062 2.9531 34.922-21.375 23.484-37.922-38.344-60.188-54.938-119.25-62.109-159.71 17.016 23.625 42.188 52.781 77.156 79.734 54.328 36.469 132.79 43.828 133.6 124.78 0.375 15.234 18.047 25.031 30.984 17.156 22.922-12.984 34.312-39.844 27.656-65.297-6.3281-24.562-15.797-44.438-28.125-59.109-14.531-17.203-47.391-39.75-97.641-67.125-32.953-17.906-58.969-45.141-74.625-77.812 63.047 24.375 144.05 20.766 157.03-65.062 18.844-109.78 46.172-140.68 93.281-162.05 14.344-6 16.266-27.375 3.1875-35.672zm-504.14 34.922c-4.5-1.4531-7.5938-5.5312-7.7812-10.172-11.531-292.36 74.062-505.87 108.66-559.74 2.8594-2.4844 5.3906-4.6875 7.5-6.4688 2.25 1.9219 4.9688 4.3594 8.0625 7.0312 27.984 44.016 88.219 190.08 104.91 396.84-0.046875 0.32812 0.09375 0.65625 0.09375 0.98438 4.0312 50.391 5.5312 104.34 3.2812 161.34-0.1875 4.6406-3.3281 8.7188-7.7812 10.172-70.922 22.734-145.92 22.734-216.84 0zm345.66-322.4c0 7.0312-7.875 36.141-102.84 125.34-14.25-141.98-48.328-258.61-78.375-329.81 110.11 99.281 181.22 178.97 181.22 204.47zm-474.56 0c0-25.688 69.797-103.92 181.45-204.74-30.094 71.203-64.219 188.02-78.469 330.24-95.062-89.438-102.94-118.55-102.94-125.53zm512.9 481.08c-12.141 89.438-116.11 53.156-148.36 36.891-6.9375-4.1719-16.875 0.23438-17.766 8.4375-0.9375 5.3906 1.7812 10.594 3.9844 17.203 16.266 44.672 48.938 82.125 91.922 105.42 46.266 25.219 78.516 47.062 90.75 61.5 9.9844 11.859 17.812 28.594 23.25 49.688 3.4219 13.172-1.3125 26.953-11.766 35.297-6.5156-89.203-79.406-98.766-142.6-137.02-69.094-53.203-98.062-117.23-98.344-117.89-4.7344-11.578-23.156-7.875-22.969 4.6875-0.09375 4.5-0.89062 111.56 71.344 225.05 0 0-0.51562 1.1719-0.51562 1.2188-17.953-2.0625-34.078-12.703-43.078-28.359-60.938-105.84-61.875-192.61-61.875-193.45-0.28125-15.703-23.719-15.797-24 0.046875 0 1.7344-1.2656 88.172-61.875 193.45-9 15.75-25.219 26.297-43.219 28.406l-0.32812-1.2656c72.281-113.44 71.438-220.55 71.344-225.05-0.046875-12.609-18-16.312-22.969-4.6875-0.28125 0.65625-29.25 64.688-98.391 117.89-63.188 38.25-136.03 47.766-142.6 136.97-10.359-8.1562-15.094-22.5-11.766-35.344 5.4375-21.094 13.266-37.781 23.203-49.594 12.281-14.484 44.484-36.328 90.75-61.547 46.594-25.266 81.188-67.266 95.672-116.77 3.9375-9.7031-7.7344-19.828-16.781-14.484l-0.09375-0.1875c-29.203 15-136.74 54.422-149.02-36.609-17.672-103.12-43.547-148.92-101.16-177.05 17.344-8.8125 39.797-5.3438 53.953 8.4844 37.078 36.375 61.781 86.766 73.406 149.72 10.125 60.703 72.422 48.188 112.59 24.328 18.047-9.8438 29.625-28.594 30.234-48.703l3.4219-90.422c69.234 20.812 141.71 21.281 211.13 1.3125l3.375 89.016c0.60938 20.25 12.188 38.953 30.234 48.797 40.172 23.859 102.47 36.375 112.64-24.281 11.625-63 36.328-113.39 73.359-149.72 14.531-14.156 36.281-17.344 53.906-8.4844-57.609 28.172-83.438 73.969-101.11 177.05z"/>
 <path d="m538.82 715.08c-23.906 0.42188-23.906 35.953 0 36.375 23.906-0.42188 23.906-35.953 0-36.375z"/>
 <path d="m666 715.08c-23.906 0.42188-23.906 35.953 0 36.375 23.906-0.42188 23.906-35.953 0-36.375z"/>
</svg>
