<svg width="186" height="145" viewBox="0 0 186 145" fill="none" xmlns="http://www.w3.org/2000/svg">
<path fill-rule="evenodd" clip-rule="evenodd" d="M43.7291 102.396L46.2921 102.419L46.275 104.347L43.712 104.324C43.6038 105.133 43.3735 105.903 43.0363 106.617L45.2844 107.985L44.2514 109.624L42.0012 108.254C41.5842 108.762 41.1053 109.22 40.5732 109.614L41.9364 111.923L40.2391 112.889L38.878 110.582C38.1707 110.88 37.4126 111.08 36.619 111.167L36.5953 113.834L34.6339 113.816L34.6576 111.15C33.8657 111.048 33.1113 110.835 32.4093 110.525L31.0075 112.807L29.3276 111.811L30.7316 109.527C30.2088 109.123 29.7359 108.657 29.328 108.141L27.0538 109.471L26.0501 107.814L28.3222 106.487C27.9977 105.769 27.7811 104.993 27.6873 104.182L25.1222 104.159L25.1393 102.231L27.7045 102.254C27.8126 101.445 28.0429 100.673 28.3801 99.9605L26.1321 98.5925L27.165 96.9543L29.4152 98.3243C29.8323 97.8154 30.3112 97.3577 30.8432 96.9637L29.4801 94.6544L31.1774 93.6886L32.5384 95.9958C33.2458 95.6983 34.0038 95.4983 34.7974 95.4104L34.8211 92.7443L36.7826 92.7617L36.7589 95.4279C37.5508 95.5298 38.3052 95.7432 39.0071 96.0532L40.4089 93.7706L42.0888 94.7664L40.6849 97.0512C41.2098 97.4545 41.6805 97.9207 42.0884 98.4369L44.3626 97.1071L45.3663 98.7635L43.0943 100.091C43.4188 100.809 43.6375 101.585 43.7291 102.396ZM35.6518 109.288C39.0247 109.318 41.7878 106.653 41.8172 103.341C41.8466 100.03 39.1313 97.3183 35.7584 97.2883C32.3855 97.2583 29.6224 99.9233 29.593 103.233C29.5636 106.544 32.2789 109.258 35.6518 109.288ZM35.6704 107.193C33.4748 107.174 31.7072 105.407 31.7264 103.252C31.7455 101.096 33.5442 99.3612 35.7398 99.3807C37.9354 99.4002 39.703 101.167 39.6838 103.322C39.6647 105.478 37.866 107.213 35.6704 107.193ZM35.6875 105.268C36.8003 105.278 37.7106 104.398 37.7203 103.307C37.73 102.214 36.8355 101.32 35.7227 101.311C34.6098 101.301 33.6996 102.179 33.6899 103.271C33.6802 104.364 34.5747 105.258 35.6875 105.268Z" fill="#A4832E"/>
<path fill-rule="evenodd" clip-rule="evenodd" d="M27.9335 114.233L30.4986 114.256L30.4815 116.184L27.9164 116.161C27.8082 116.97 27.5779 117.74 27.2407 118.454L29.4888 119.822L28.4558 121.461L26.2056 120.09C25.7885 120.599 25.3097 121.057 24.7776 121.451L26.1408 123.76L24.4434 124.726L23.0824 122.419C22.375 122.717 21.617 122.917 20.8234 123.002L20.7997 125.668L18.8383 125.651L18.862 122.985C18.0701 122.883 17.3157 122.669 16.6137 122.362L15.2119 124.644L13.532 123.648L14.936 121.364C14.411 120.96 13.9403 120.494 13.5324 119.978L11.2582 121.308L10.2545 119.651L12.5265 118.324C12.202 117.603 11.9833 116.829 11.8917 116.019L9.32871 115.996L9.34584 114.068L11.9088 114.091C12.017 113.282 12.2473 112.512 12.5845 111.797L10.3364 110.429L11.3694 108.791L13.6196 110.161C14.0367 109.652 14.5155 109.195 15.0476 108.801L13.6844 106.491L15.3818 105.526L16.7428 107.833C17.4502 107.535 18.2082 107.335 19.0018 107.247L19.0255 104.581L20.9869 104.599L20.9633 107.265C21.7552 107.367 22.5095 107.58 23.2115 107.89L24.6133 105.608L26.2932 106.603L24.8892 108.888C25.412 109.291 25.8849 109.758 26.2928 110.274L28.567 108.944L29.5707 110.6L27.2987 111.928C27.6232 112.648 27.8397 113.422 27.9335 114.233ZM19.8562 121.125C23.2291 121.155 25.9921 118.49 26.0216 115.181C26.051 111.869 23.3357 109.155 19.9628 109.125C16.59 109.095 13.8268 111.76 13.7974 115.072C13.7679 118.383 16.4832 121.095 19.8562 121.125ZM19.8748 119.03C17.6792 119.011 15.9116 117.244 15.9308 115.089C15.9499 112.933 17.7486 111.198 19.9442 111.218C22.1398 111.237 23.9074 113.004 23.8882 115.159C23.8691 117.315 22.0704 119.05 19.8748 119.03ZM19.8919 117.102C21.0047 117.112 21.915 116.232 21.9246 115.142C21.9344 114.049 21.0399 113.155 19.9271 113.145C18.8142 113.136 17.904 114.016 17.8943 115.106C17.8846 116.199 18.7791 117.093 19.8919 117.102Z" fill="#1D88A4"/>
<path fill-rule="evenodd" clip-rule="evenodd" d="M39.9332 129.893L42.4962 129.916L42.4791 131.844L39.9161 131.821C39.8079 132.63 39.5776 133.402 39.2404 134.114L41.4885 135.482L40.4555 137.12L38.2053 135.75C37.7883 136.259 37.3094 136.717 36.7773 137.111L38.1405 139.42L36.4432 140.386L35.08 138.079C34.3726 138.376 33.6146 138.576 32.821 138.664L32.7973 141.33L30.8337 141.313L30.8574 138.647C30.0655 138.545 29.3111 138.331 28.6091 138.021L27.2073 140.304L25.5274 139.308L26.9314 137.023C26.4086 136.62 25.9357 136.154 25.5278 135.638L23.2536 136.967L22.2499 135.311L24.5219 133.983C24.1975 133.265 23.9809 132.489 23.8871 131.678L21.322 131.656L21.3391 129.728L23.9043 129.75C24.0124 128.941 24.2427 128.171 24.5799 127.457L22.3319 126.089L23.3648 124.451L25.615 125.821C26.0321 125.312 26.511 124.854 27.043 124.46L25.6799 122.151L27.3772 121.185L28.7382 123.492C29.4456 123.195 30.2036 122.995 30.9972 122.907L31.0209 120.241L32.9845 120.258L32.9608 122.925C33.7527 123.027 34.5071 123.24 35.2091 123.55L36.613 121.267L38.2929 122.263L36.889 124.548C37.4139 124.951 37.8846 125.417 38.2925 125.934L40.5667 124.604L41.5704 126.26L39.2984 127.588C39.6229 128.306 39.8395 129.082 39.9332 129.893ZM31.8559 136.785C35.2288 136.815 37.9896 134.15 38.019 130.84C38.0484 127.529 35.3331 124.815 31.9625 124.785C28.5896 124.755 25.8265 127.42 25.7971 130.732C25.7677 134.043 28.483 136.755 31.8559 136.785ZM31.8745 134.69C29.6789 134.671 27.9113 132.904 27.9305 130.748C27.9496 128.593 29.7483 126.858 31.9439 126.877C34.1395 126.897 35.9071 128.663 35.8879 130.819C35.8688 132.975 34.0701 134.71 31.8745 134.69ZM31.8916 132.762C33.0045 132.772 33.9147 131.894 33.9244 130.802C33.9341 129.709 33.0396 128.815 31.9268 128.805C30.814 128.795 29.9037 129.675 29.894 130.766C29.8843 131.858 30.7809 132.752 31.8916 132.762Z" fill="#7A2D4A"/>
<path fill-rule="evenodd" clip-rule="evenodd" d="M73.527 12.6572L76.09 12.6799L76.0728 14.6078L73.5099 14.5851C73.4017 15.3941 73.1714 16.1641 72.8342 16.8784L75.0822 18.2463L74.0493 19.8846L71.7991 18.5145C71.382 19.0234 70.9032 19.4811 70.3711 19.8751L71.7342 22.1844L70.0369 23.1503L68.6759 20.8431C67.9685 21.1406 67.2105 21.3406 66.4169 21.4284L66.3932 24.0946L64.4317 24.0771L64.4554 21.411C63.6635 21.309 62.9091 21.0956 62.2072 20.7856L60.8054 23.0682L59.1255 22.0724L60.5295 19.7877C60.0067 19.3843 59.5338 18.9182 59.1259 18.4019L56.8517 19.7318L55.848 18.0754L58.12 16.7476C57.7955 16.0296 57.579 15.2535 57.4852 14.4427L54.92 14.4199L54.9372 12.492L57.5023 12.5148C57.6105 11.7057 57.8408 10.9336 58.178 10.2214L55.9299 8.85353L56.9629 7.21524L59.2131 8.58529C59.6301 8.07638 60.109 7.61869 60.6411 7.2247L59.2779 4.91539L60.9753 3.94956L62.3363 6.25675C63.0436 5.95927 63.8017 5.75927 64.5953 5.67141L64.619 3.00527L66.5804 3.0227L66.5567 5.68884C67.3486 5.7908 68.103 6.00423 68.805 6.31423L70.2068 4.03159L71.8867 5.02742L70.4827 7.31215C71.0077 7.71551 71.4784 8.18166 71.8863 8.6979L74.1605 7.36805L75.1642 9.02444L72.8922 10.3522C73.2167 11.0702 73.4354 11.8463 73.527 12.6572ZM65.4496 19.549C68.8226 19.5789 71.5856 16.9139 71.6151 13.6023C71.6445 10.2907 68.9292 7.57925 65.5563 7.54928C62.1833 7.51931 59.4203 10.1843 59.3909 13.4937C59.3614 16.8053 62.0767 19.519 65.4496 19.549ZM65.4683 17.4544C63.2726 17.4349 61.5051 15.6684 61.5242 13.5127C61.5434 11.357 63.3421 9.62214 65.5377 9.64165C67.7333 9.66116 69.5008 11.4277 69.4817 13.5834C69.4625 15.7391 67.6639 17.4739 65.4683 17.4544ZM65.4854 15.5286C66.5982 15.5385 67.5084 14.6585 67.5181 13.568C67.5278 12.4754 66.6334 11.5815 65.5205 11.5716C64.4077 11.5617 63.4975 12.4396 63.4878 13.5322C63.4781 14.6248 64.3725 15.5187 65.4854 15.5286Z" fill="#A4832E"/>
<path fill-rule="evenodd" clip-rule="evenodd" d="M57.7314 24.4941L60.2965 24.5169L60.2794 26.4448L57.7142 26.422C57.6061 27.2311 57.3758 28.0011 57.0385 28.7153L59.2866 30.0832L58.2536 31.7215L56.0034 30.3515C55.5864 30.8604 55.1075 31.3181 54.5755 31.7121L55.9386 34.0214L54.2413 34.9872L52.8803 32.68C52.1729 32.9775 51.4148 33.1775 50.6213 33.2632L50.5976 35.9294L48.6361 35.9119L48.6598 33.2458C47.8679 33.1438 47.1135 32.9304 46.4116 32.6225L45.0098 34.9052L43.3298 33.9093L44.7338 31.6246C44.2089 31.2213 43.7382 30.7551 43.3302 30.2389L41.056 31.5687L40.0524 29.9123L42.3244 28.5846C41.9999 27.8644 41.7812 27.0905 41.6896 26.2796L39.1266 26.2568L39.1437 24.3289L41.7067 24.3517C41.8149 23.5426 42.0451 22.7726 42.3824 22.0584L40.1343 20.6905L41.1673 19.0522L43.4175 20.4222C43.8345 19.9133 44.3134 19.4556 44.8455 19.0616L43.4823 16.7523L45.1796 15.7865L46.5406 18.0937C47.248 17.7962 48.0061 17.5962 48.7997 17.5083L48.8233 14.8422L50.7848 14.8596L50.7611 17.5258C51.553 17.6277 52.3074 17.8412 53.0094 18.1512L54.4112 15.8685L56.0911 16.8644L54.6871 19.1491C55.2099 19.5524 55.6827 20.0186 56.0907 20.5348L58.3649 19.205L59.3685 20.8614L57.0965 22.1891C57.421 22.9092 57.6376 23.6832 57.7314 24.4941ZM49.654 31.3859C53.0269 31.4159 55.79 28.7508 55.8194 25.4415C55.8488 22.1299 53.1336 19.4162 49.7606 19.3862C46.3879 19.3562 43.6246 22.0213 43.5952 25.3329C43.5658 28.6445 46.2811 31.3559 49.654 31.3859ZM49.6726 29.2914C47.477 29.2719 45.7094 27.5053 45.7286 25.3496C45.7478 23.1939 47.5464 21.4591 49.742 21.4786C51.9376 21.4981 53.7052 23.2646 53.6861 25.4203C53.6669 27.576 51.8682 29.3109 49.6726 29.2914ZM49.6897 27.3635C50.8026 27.3733 51.7128 26.4934 51.7225 25.4028C51.7322 24.3102 50.8377 23.4163 49.7249 23.4064C48.6121 23.3965 47.7019 24.2765 47.6922 25.367C47.6825 26.4596 48.5769 27.3536 49.6897 27.3635Z" fill="#1D88A4"/>
<path fill-rule="evenodd" clip-rule="evenodd" d="M69.7311 40.1537L72.2941 40.1765L72.2769 42.1044L69.714 42.0816C69.6058 42.8907 69.3755 43.6628 69.0383 44.375L71.2863 45.7429L70.2534 47.3812L68.0032 46.0111C67.5861 46.52 67.1073 46.9777 66.5752 47.3717L67.9383 49.681L66.241 50.6468L64.8778 48.3396C64.1705 48.6371 63.4124 48.8371 62.6188 48.925L62.5951 51.5911L60.6315 51.5737L60.6552 48.9075C59.8633 48.8056 59.1089 48.5921 58.407 48.2821L57.0052 50.5648L55.3253 49.5689L56.7292 47.2842C56.2065 46.8809 55.7336 46.4147 55.3257 45.8985L53.0515 47.2283L52.0478 45.5719L54.3198 44.2442C53.9953 43.5262 53.7787 42.7501 53.685 41.9392L51.1198 41.9164L51.137 39.9885L53.7021 40.0113C53.8103 39.2022 54.0406 38.4322 54.3778 37.718L52.1297 36.3501L53.1627 34.7118L55.4129 36.0818C55.8299 35.5729 56.3088 35.1152 56.8409 34.7212L55.4777 32.4119L57.1751 31.4461L58.5361 33.7533C59.2434 33.4558 60.0015 33.2558 60.7951 33.168L60.8188 30.5018L62.7824 30.5193L62.7587 33.1854C63.5506 33.2874 64.305 33.5008 65.0069 33.8108L66.4109 31.5282L68.0908 32.524L66.6868 34.8087C67.2118 35.2121 67.6825 35.6782 68.0904 36.1945L70.3646 34.8646L71.3683 36.521L69.0963 37.8488C69.4208 38.5668 69.6373 39.3429 69.7311 40.1537ZM61.6537 47.0455C65.0267 47.0755 67.7874 44.4105 67.8168 41.1011C67.8463 37.7895 65.131 35.0758 61.7604 35.0459C58.3874 35.0159 55.6244 37.6809 55.5949 40.9925C55.5655 44.3041 58.2808 47.0156 61.6537 47.0455ZM61.6724 44.951C59.4767 44.9315 57.7092 43.165 57.7283 41.0093C57.7475 38.8536 59.5462 37.1187 61.7418 37.1382C63.9374 37.1577 65.7049 38.9243 65.6858 41.08C65.6666 43.2357 63.868 44.9705 61.6724 44.951ZM61.6895 43.0231C62.8023 43.033 63.7125 42.1551 63.7222 41.0625C63.7319 39.9699 62.8375 39.0759 61.7246 39.066C60.6118 39.0562 59.7016 39.9361 59.6919 41.0267C59.6822 42.1193 60.5788 43.0132 61.6895 43.0231Z" fill="#7A2D4A"/>
<path fill-rule="evenodd" clip-rule="evenodd" d="M61.1188 58.5486L63.6818 58.5714L63.6646 60.4993L61.1017 60.4765C60.9935 61.2856 60.7632 62.0556 60.426 62.7699L62.674 64.1378L61.6411 65.7761L59.3909 64.406C58.9738 64.9149 58.495 65.3726 57.9629 65.7666L59.326 68.0759L57.6287 69.0417L56.2677 66.7346C55.5603 67.032 54.8023 67.232 54.0087 67.3199L53.985 69.986L52.0235 69.9686L52.0472 67.3025C51.2553 67.2005 50.5009 66.9871 49.799 66.6771L48.3972 68.9597L46.7173 67.9639L48.1212 65.6792C47.5985 65.2758 47.1256 64.8096 46.7177 64.2934L44.4435 65.6232L43.4398 63.9669L45.7118 62.6391C45.3873 61.9211 45.1707 61.145 45.077 60.3342L42.5118 60.3114L42.529 58.3835L45.0941 58.4062C45.2023 57.5972 45.4326 56.8251 45.7698 56.1129L43.5217 54.745L44.5547 53.1067L46.8049 54.4768C47.2219 53.9679 47.7008 53.5102 48.2329 53.1162L46.8697 50.8069L48.5671 49.841L49.9281 52.1482C50.6354 51.8508 51.3935 51.6507 52.1871 51.5629L52.2108 48.8967L54.1722 48.9142L54.1485 51.5803C54.9404 51.6823 55.6948 51.8957 56.3968 52.2057L57.7986 49.9231L59.4785 50.9189L58.0745 53.2036C58.5995 53.607 59.0702 54.0731 59.4781 54.5894L61.7523 53.2595L62.756 54.9159L60.484 56.2437C60.8085 56.9617 61.0272 57.7378 61.1188 58.5486ZM53.0414 65.4404C56.4144 65.4704 59.1774 62.8054 59.2068 59.4938C59.2363 56.1822 56.521 53.4707 53.1481 53.4408C49.7751 53.4108 47.0121 56.0758 46.9827 59.3852C46.9532 62.6968 49.6685 65.4105 53.0414 65.4404ZM53.06 63.3459C50.8644 63.3264 49.0969 61.5599 49.116 59.4042C49.1352 57.2485 50.9339 55.5136 53.1295 55.5331C55.3251 55.5526 57.0926 57.3192 57.0735 59.4749C57.0543 61.6306 55.2557 63.3654 53.06 63.3459ZM53.0772 61.4201C54.19 61.43 55.1002 60.55 55.1099 59.4595C55.1196 58.3669 54.2252 57.4729 53.1123 57.4631C51.9995 57.4532 51.0893 58.3311 51.0796 59.4237C51.0699 60.5163 51.9643 61.4102 53.0772 61.4201Z" fill="#A4832E"/>
<path fill-rule="evenodd" clip-rule="evenodd" d="M45.3232 70.3856L47.8883 70.4084L47.8712 72.3363L45.306 72.3135C45.1979 73.1225 44.9676 73.8925 44.6303 74.6068L46.8784 75.9747L45.8454 77.613L43.5952 76.2429C43.1782 76.7519 42.6993 77.2095 42.1673 77.6035L43.5304 79.9129L41.8331 80.8787L40.4721 78.5715C39.7647 78.869 39.0066 79.069 38.2131 79.1547L38.1894 81.8209L36.2279 81.8034L36.2516 79.1373C35.4597 79.0353 34.7053 78.8219 34.0033 78.514L32.6015 80.7966L30.9216 79.8008L32.3256 77.5161C31.8007 77.1127 31.33 76.6466 30.922 76.1303L28.6478 77.4602L27.6442 75.8038L29.9162 74.476C29.5917 73.7559 29.373 72.9819 29.2813 72.1711L26.7184 72.1483L26.7355 70.2204L29.2985 70.2432C29.4066 69.4341 29.6369 68.6641 29.9742 67.9499L27.7261 66.582L28.7591 64.9437L31.0093 66.3137C31.4263 65.8048 31.9052 65.3471 32.4372 64.9531L31.0741 62.6438L32.7714 61.678L34.1324 63.9852C34.8398 63.6877 35.5979 63.4877 36.3914 63.3998L36.4151 60.7337L38.3766 60.7511L38.3529 63.4173C39.1448 63.5192 39.8992 63.7326 40.6012 64.0426L42.0029 61.76L43.6829 62.7558L42.2789 65.0406C42.8017 65.4439 43.2745 65.9101 43.6825 66.4263L45.9567 65.0965L46.9603 66.7529L44.6883 68.0806C45.0128 68.8007 45.2294 69.5747 45.3232 70.3856ZM37.2458 77.2774C40.6187 77.3073 43.3818 74.6423 43.4112 71.333C43.4406 68.0214 40.7254 65.3077 37.3524 65.2777C33.9797 65.2477 31.2164 67.9128 31.187 71.2243C31.1576 74.5359 33.8729 77.2474 37.2458 77.2774ZM37.2644 75.1828C35.0688 75.1633 33.3012 73.3968 33.3204 71.2411C33.3396 69.0854 35.1382 67.3506 37.3338 67.3701C39.5294 67.3896 41.297 69.1561 41.2779 71.3118C41.2587 73.4675 39.46 75.2023 37.2644 75.1828ZM37.2815 73.2549C38.3944 73.2648 39.3046 72.3848 39.3143 71.2943C39.324 70.2017 38.4295 69.3078 37.3167 69.2979C36.2039 69.288 35.2937 70.168 35.284 71.2585C35.2743 72.3511 36.1687 73.245 37.2815 73.2549Z" fill="#1D88A4"/>
<path fill-rule="evenodd" clip-rule="evenodd" d="M57.3229 86.0452L59.8859 86.068L59.8687 87.9959L57.3058 87.9731C57.1976 88.7822 56.9673 89.5543 56.6301 90.2664L58.8781 91.6344L57.8452 93.2726L55.595 91.9026C55.1779 92.4115 54.6991 92.8692 54.167 93.2632L55.5301 95.5725L53.8328 96.5383L52.4696 94.2311C51.7623 94.5286 51.0042 94.7286 50.2106 94.8165L50.1869 97.4826L48.2233 97.4652L48.247 94.799C47.4551 94.697 46.7007 94.4836 45.9988 94.1736L44.597 96.4563L42.9171 95.4604L44.321 93.1757C43.7983 92.7724 43.3254 92.3062 42.9175 91.7899L40.6433 93.1198L39.6396 91.4634L41.9116 90.1357C41.5871 89.4176 41.3705 88.6416 41.2768 87.8307L38.7116 87.8079L38.7288 85.88L41.2939 85.9028C41.4021 85.0937 41.6324 84.3237 41.9696 83.6095L39.7215 82.2416L40.7545 80.6033L43.0047 81.9733C43.4217 81.4644 43.9006 81.0067 44.4327 80.6127L43.0695 78.3034L44.7669 77.3376L46.1279 79.6448C46.8352 79.3473 47.5933 79.1473 48.3869 79.0594L48.4106 76.3933L50.3742 76.4107L50.3505 79.0769C51.1424 79.1788 51.8968 79.3923 52.5987 79.7023L54.0027 77.4197L55.6826 78.4155L54.2786 80.7002C54.8036 81.1036 55.2743 81.5697 55.6822 82.086L57.9564 80.7561L58.9601 82.4125L56.6881 83.7403C57.0126 84.4583 57.2291 85.2344 57.3229 86.0452ZM49.2455 92.937C52.6185 92.967 55.3792 90.3019 55.4086 86.9926C55.4381 83.681 52.7228 80.9673 49.3522 80.9373C45.9792 80.9074 43.2162 83.5724 43.1867 86.884C43.1573 90.1956 45.8726 92.907 49.2455 92.937ZM49.2641 90.8425C47.0685 90.823 45.301 89.0564 45.3201 86.9007C45.3393 84.7451 47.138 83.0102 49.3336 83.0297C51.5292 83.0492 53.2967 84.8158 53.2776 86.9715C53.2584 89.1271 51.4598 90.862 49.2641 90.8425ZM49.2813 88.9146C50.3941 88.9245 51.3043 88.0466 51.314 86.954C51.3237 85.8614 50.4293 84.9674 49.3164 84.9575C48.2036 84.9476 47.2934 85.8276 47.2837 86.9181C47.274 88.0108 48.1706 88.9047 49.2813 88.9146Z" fill="#7A2D4A"/>
<g clip-path="url(#clip0_78_29)">
<path d="M157.53 88.9955C151.55 82.9179 143.715 92.97 141.091 98.9394C139.77 101.75 137.501 100.232 134.941 98.0399C134.232 97.3861 133.914 96.4129 134.114 95.4831L135.703 87.8389C136.43 87.5062 137.007 86.8743 137.238 86.0796C138.457 81.875 139.362 77.758 140.02 73.8113C151.825 67.3566 152.433 64.9363 152.631 64.1366C153.619 60.1485 144.849 46.8908 139.47 39.2594C139.154 38.4024 138.883 37.7069 138.03 37.3991C137.86 37.3069 137.665 37.2547 137.473 37.2687C136.626 37.186 136.093 37.64 135.445 38.2158C127.097 42.485 113.118 50.1549 112.139 54.1067C111.796 55.4905 112.131 58.5075 118.775 68.566C117.515 72.3595 116.394 76.4151 115.51 80.6989C115.379 81.3372 115.485 81.9841 115.771 82.5408L113.505 90.3914C113.254 91.2968 112.514 92.0117 111.581 92.2586C108.297 93.0023 105.582 93.2855 105.728 90.1795C106.059 84.6716 105.02 79.9186 102.634 76.0463C101.277 73.7747 98.2905 72.7417 95.8293 73.7124C94.653 74.1187 94.4096 75.8009 95.4022 76.5404C98.6367 79.0922 100.161 82.0106 99.5122 90.8827C98.8675 97.778 105.088 99.6203 110.431 98.9359C108.596 101.164 106.056 102.778 103.155 103.532C98.7364 104.685 95.7601 105.806 94.3 106.859C93.0676 107.756 91.9522 109.114 90.9839 110.906C89.9956 112.716 90.3662 115.079 91.8693 116.48C92.717 117.353 94.317 116.917 94.6132 115.738C96.2331 109.497 102.459 110.43 107.358 108.648C110.585 107.231 113.1 105.453 114.872 103.949C113.541 106.942 111.121 111.2 106.998 115.125C105.817 116.143 106.446 118.303 107.977 118.502C110.038 118.82 112.158 118.076 113.593 116.578C116.7 113.342 118.79 110.198 120.169 107.652C120.2 110.544 120.58 114.3 121.817 118.612C122.378 120.582 123.858 122.186 125.78 122.906C127.278 123.52 128.897 121.92 128.328 120.418C126.513 115.018 126.361 110.123 126.582 106.85C127.447 109.007 128.838 111.75 131.03 114.51C134.539 118.379 140.478 120.456 138.986 126.744C138.723 127.932 139.904 129.03 141.057 128.669C143.083 128.103 144.481 126.24 144.454 124.14C144.436 122.115 144.084 120.393 143.41 119.02C142.614 117.408 140.501 115.03 137.133 111.944C134.924 109.923 133.431 107.313 132.845 104.481C137.262 107.581 143.608 108.856 146.262 102.455C149.83 94.3105 152.541 92.4409 156.602 91.6896C157.828 91.5002 158.388 89.8808 157.534 88.9867L157.53 88.9955ZM117.796 82.0207C117.475 81.8217 117.313 81.4463 117.388 81.0831C122.109 58.2077 132.841 43.3072 136.556 39.7973C136.825 39.6597 137.064 39.5376 137.262 39.4401C137.399 39.6322 137.563 39.8733 137.751 40.1398C139.074 44.0878 140.937 56.5624 138.26 72.904C138.25 72.9286 138.255 72.9567 138.248 72.9821C137.593 76.9641 136.673 81.1733 135.405 85.5468C135.301 85.9028 134.979 86.1585 134.606 86.1856C128.674 86.5853 122.863 85.1451 117.804 82.0217L117.796 82.0207ZM150.771 63.6766C150.636 64.2214 149.466 66.3258 140.395 71.414C142.017 60.1388 141.616 50.4472 140.655 44.3531C147.281 54.1605 151.261 61.7008 150.771 63.6767L150.771 63.6766ZM113.999 54.5639C114.492 52.5734 121.402 47.8517 131.99 42.1836C128.291 47.123 123.403 55.5194 119.568 66.2659C113.92 57.5103 113.868 55.1032 114.002 54.5623L113.999 54.5639ZM144.503 101.69C141.845 108.387 134.486 103.579 132.299 101.7C131.842 101.243 130.987 101.394 130.761 102.012C130.584 102.412 130.695 102.867 130.739 103.422C131.142 107.196 132.954 110.725 135.837 113.356C138.938 116.198 141.018 118.51 141.688 119.864C142.234 120.974 142.519 122.421 142.536 124.16C142.548 125.247 141.916 126.224 140.946 126.669C142.154 119.632 136.69 117.492 132.528 113.314C128.196 107.865 127.18 102.347 127.171 102.291C127.027 101.303 125.528 101.236 125.301 102.213C125.208 102.56 123.09 110.84 126.508 121.021C126.508 121.021 126.446 121.102 126.445 121.106C125.093 120.601 124.048 119.467 123.651 118.081C120.962 108.71 122.555 101.968 122.572 101.903C122.851 100.681 121.037 100.224 120.711 101.446C120.678 101.58 118.92 108.254 112.202 115.247C111.202 116.295 109.743 116.801 108.307 116.619L108.306 116.514C116.085 109.112 118.077 100.796 118.156 100.446C118.395 99.4679 117.074 98.8362 116.466 99.6416C116.432 99.687 112.958 104.092 106.578 106.887C100.948 108.638 95.1208 107.976 92.8987 114.762C92.2527 113.931 92.1612 112.729 92.6657 111.798C93.4921 110.267 94.4192 109.125 95.416 108.4C96.6457 107.514 99.5605 106.439 103.63 105.374C107.725 104.311 111.212 101.721 113.285 98.1628C113.777 97.4866 113.067 96.4779 112.263 96.7183L112.259 96.7019C109.709 97.3035 100.619 98.2932 101.415 91.0037C102.026 82.6739 100.901 78.6282 96.9767 75.3422C98.4898 74.9924 100.163 75.6923 100.994 77.0356C103.169 80.5662 104.115 84.9452 103.807 90.0465C103.426 94.9446 108.494 95.1711 112.064 94.0936C113.652 93.6774 114.909 92.4468 115.342 90.9003L117.344 83.9596C122.309 86.9017 127.916 88.3297 133.678 88.1155L132.231 95.0778C131.889 96.6586 132.427 98.3302 133.636 99.4395C136.291 102.06 140.878 104.226 142.831 99.721C144.941 95.0626 147.823 91.6324 151.39 89.5284C152.788 88.7105 154.534 88.8812 155.73 89.9061C150.725 90.9828 147.844 94.0355 144.495 101.684L144.503 101.69Z" fill="#1D88A4"/>
<path d="M120.063 87.7557C118.203 87.3293 117.52 90.0825 119.365 90.5742C121.225 91.0006 121.907 88.2474 120.063 87.7557Z" fill="#1D88A4"/>
<path d="M129.918 90.1979C128.057 89.7716 127.375 92.5247 129.219 93.0165C131.08 93.4429 131.762 90.6897 129.918 90.1979Z" fill="#1D88A4"/>
<path d="M106.671 65.6811L105.317 65.3218C105.292 64.7213 105.072 64.1462 104.69 63.6814L105.794 62.6042C105.847 62.5522 105.877 62.4812 105.878 62.4066C105.879 62.3314 105.851 62.2597 105.798 62.2063C105.746 62.1528 105.675 62.1226 105.6 62.1219C105.525 62.1205 105.453 62.1493 105.4 62.202L104.292 63.2849L104.292 63.2842C103.674 62.7842 102.873 62.5712 102.088 62.6984L101.637 61.4202C101.583 61.2767 101.424 61.2022 101.28 61.2535C101.135 61.3049 101.058 61.4617 101.106 61.6072L101.542 62.8426C101.169 62.9825 100.83 63.2012 100.549 63.4838L99.723 64.3156L98.6542 63.2539L98.6542 63.2532C98.5431 63.147 98.368 63.1491 98.2598 63.2581C98.1515 63.3671 98.1508 63.5429 98.2576 63.6526L99.3264 64.7143L97.3647 66.6895L96.3473 65.5926C96.2411 65.4787 96.0632 65.4724 95.95 65.5779C95.8361 65.6833 95.8291 65.8612 95.9345 65.9751L96.9681 67.0889L95.3565 68.7117L94.1008 67.4644C93.9897 67.3582 93.8146 67.3603 93.7063 67.4693C93.598 67.5783 93.5973 67.7534 93.7042 67.8638L94.96 69.1111L93.8701 70.208C93.7619 70.3184 93.6627 70.4379 93.5734 70.5645L92.1939 69.675C92.0631 69.5948 91.893 69.6335 91.81 69.7622C91.727 69.8909 91.7622 70.0624 91.8887 70.1482L93.295 71.0545C93.1719 71.3351 93.096 71.6339 93.07 71.9398L91.3445 72.2977L91.3452 72.2977C91.1926 72.3293 91.0949 72.4777 91.1266 72.6302C91.1582 72.7821 91.3073 72.8799 91.4591 72.8482L93.0805 72.5114L93.0812 72.5121C93.1431 73.0416 93.3568 73.5415 93.6964 73.9521L92.6221 75.0673C92.5138 75.1791 92.5173 75.3577 92.6291 75.4652C92.7409 75.5728 92.9188 75.57 93.0271 75.4582L94.0965 74.348C94.5071 74.6805 95.0042 74.8894 95.5295 74.9484L94.8974 76.3673C94.8671 76.4355 94.865 76.5136 94.8917 76.5832C94.9184 76.6528 94.9719 76.7091 95.0401 76.7393C95.1076 76.7695 95.1856 76.7716 95.2552 76.7449C95.3249 76.7182 95.3811 76.6648 95.4113 76.5966L96.1433 74.9533L96.1426 74.9533C96.9111 74.8591 97.6135 74.4717 98.1029 73.8719L98.6275 74.7726C98.7076 74.9034 98.8771 74.9463 99.0093 74.8689C99.1415 74.7923 99.1886 74.6235 99.114 74.4893L98.5136 73.4585L99.924 72.0381L101.017 73.5716L101.017 73.5723C101.108 73.6953 101.281 73.7228 101.406 73.6335C101.531 73.5449 101.562 73.3719 101.475 73.2453L100.326 71.6331L101.601 70.3492L102.367 71.11L102.367 71.1107C102.478 71.2169 102.654 71.2148 102.762 71.1058C102.87 70.9968 102.871 70.8217 102.764 70.7113L101.998 69.9506L103.585 68.3523L104.476 69.0379L104.477 69.0379C104.6 69.1286 104.774 69.104 104.866 68.9823C104.96 68.8607 104.939 68.687 104.819 68.5914L103.985 67.9494C104.574 67.4003 105.195 66.7253 105.285 65.8949L106.526 66.2246C106.677 66.2647 106.831 66.1754 106.871 66.025C106.91 65.8752 106.821 65.7212 106.671 65.6811L106.671 65.6811ZM104.112 67.0227L97.4336 73.7466C96.0814 75.1542 93.596 74.1368 93.6219 72.1828C93.6184 71.5915 93.8511 71.0227 94.2695 70.6044L99.9233 64.9119C99.9247 64.9105 100.947 63.8811 100.948 63.8804C103.101 61.8596 106.121 64.8584 104.112 67.0226L104.112 67.0227Z" fill="#a4832e"/>
<path d="M102.538 64.175C102.463 64.1786 102.393 64.2109 102.342 64.2665C102.293 64.3213 102.266 64.3944 102.269 64.469L102.342 66.0587C102.346 66.1332 102.379 66.2035 102.434 66.2541C102.489 66.304 102.562 66.3308 102.636 66.3272C102.712 66.3237 102.781 66.2907 102.832 66.2358C102.882 66.1803 102.908 66.1072 102.905 66.0326L102.832 64.4429C102.823 64.2883 102.693 64.1687 102.538 64.175Z" fill="#a4832e"/>
<path d="M100.877 67.5741L99.259 67.3034C99.1071 67.2809 98.9657 67.3842 98.9404 67.5354C98.9151 67.6866 99.015 67.83 99.1661 67.8588L100.784 68.1295C100.937 68.1549 101.082 68.0515 101.108 67.8982C101.133 67.7449 101.03 67.6001 100.877 67.5741Z" fill="#a4832e"/>
<path d="M96.8864 69.2313C96.776 69.1251 96.6002 69.1273 96.4919 69.2362C96.3836 69.3445 96.3829 69.5203 96.4898 69.6307C96.8505 70.1081 97.1767 70.6102 97.4671 71.1332C97.5473 71.2647 97.7167 71.3076 97.8496 71.231C97.9818 71.1536 98.0289 70.9849 97.9544 70.8506C97.638 70.286 97.2815 69.7446 96.8863 69.2313L96.8864 69.2313Z" fill="#a4832e"/>
<path d="M96.3595 72.1788L95.3997 71.8498L95.399 71.8498C95.3287 71.8252 95.2514 71.8301 95.1839 71.8624C95.1171 71.8955 95.0658 71.9538 95.0419 72.0241C95.0172 72.0952 95.0222 72.1725 95.0552 72.2393C95.0883 72.3061 95.1459 72.3574 95.2169 72.382C95.2556 72.3898 96.2568 72.7547 96.2681 72.7266C96.4038 72.7245 96.5191 72.6253 96.5416 72.491C96.5641 72.356 96.4875 72.2252 96.3595 72.1788L96.3595 72.1788Z" fill="#a4832e"/>
<path d="M170.671 82.6811L169.317 82.3218C169.292 81.7213 169.072 81.1462 168.69 80.6814L169.794 79.6042C169.847 79.5522 169.877 79.4812 169.878 79.4066C169.879 79.3314 169.851 79.2597 169.798 79.2063C169.746 79.1528 169.675 79.1226 169.6 79.1219C169.525 79.1205 169.453 79.1493 169.4 79.202L168.292 80.2849L168.292 80.2842C167.674 79.7842 166.873 79.5712 166.088 79.6984L165.637 78.4202C165.583 78.2767 165.424 78.2022 165.28 78.2535C165.135 78.3049 165.058 78.4617 165.106 78.6072L165.542 79.8426C165.169 79.9825 164.83 80.2012 164.549 80.4838L163.723 81.3156L162.654 80.2539L162.654 80.2532C162.543 80.147 162.368 80.1491 162.26 80.2581C162.151 80.3671 162.151 80.5429 162.258 80.6526L163.326 81.7143L161.365 83.6895L160.347 82.5926C160.241 82.4787 160.063 82.4724 159.95 82.5779C159.836 82.6833 159.829 82.8612 159.935 82.9751L160.968 84.0889L159.357 85.7117L158.101 84.4644C157.99 84.3582 157.815 84.3603 157.706 84.4693C157.598 84.5783 157.597 84.7534 157.704 84.8638L158.96 86.1111L157.87 87.208C157.762 87.3184 157.663 87.4379 157.573 87.5645L156.194 86.675C156.063 86.5948 155.893 86.6335 155.81 86.7622C155.727 86.8909 155.762 87.0624 155.889 87.1482L157.295 88.0545C157.172 88.3351 157.096 88.6339 157.07 88.9398L155.345 89.2977L155.345 89.2977C155.193 89.3293 155.095 89.4777 155.127 89.6302C155.158 89.7821 155.307 89.8799 155.459 89.8482L157.08 89.5114L157.081 89.5121C157.143 90.0416 157.357 90.5415 157.696 90.9521L156.622 92.0673C156.514 92.1791 156.517 92.3577 156.629 92.4652C156.741 92.5728 156.919 92.57 157.027 92.4582L158.097 91.348C158.507 91.6805 159.004 91.8894 159.529 91.9484L158.897 93.3673C158.867 93.4355 158.865 93.5136 158.892 93.5832C158.918 93.6528 158.972 93.7091 159.04 93.7393C159.108 93.7695 159.186 93.7716 159.255 93.7449C159.325 93.7182 159.381 93.6648 159.411 93.5966L160.143 91.9533L160.143 91.9533C160.911 91.8591 161.614 91.4717 162.103 90.8719L162.627 91.7726C162.708 91.9034 162.877 91.9463 163.009 91.8689C163.141 91.7923 163.189 91.6235 163.114 91.4893L162.514 90.4585L163.924 89.0381L165.017 90.5716L165.017 90.5723C165.108 90.6953 165.281 90.7228 165.406 90.6335C165.531 90.5449 165.562 90.3719 165.475 90.2453L164.326 88.6331L165.601 87.3492L166.367 88.11L166.367 88.1107C166.478 88.2169 166.654 88.2148 166.762 88.1058C166.87 87.9968 166.871 87.8217 166.764 87.7113L165.998 86.9506L167.585 85.3523L168.476 86.0379L168.477 86.0379C168.6 86.1286 168.774 86.104 168.866 85.9823C168.96 85.8607 168.939 85.687 168.819 85.5914L167.985 84.9494C168.574 84.4003 169.195 83.7253 169.285 82.8949L170.526 83.2246C170.677 83.2647 170.831 83.1754 170.871 83.025C170.91 82.8752 170.821 82.7212 170.671 82.6811L170.671 82.6811ZM168.112 84.0227L161.434 90.7466C160.081 92.1542 157.596 91.1368 157.622 89.1828C157.618 88.5915 157.851 88.0227 158.269 87.6044L163.923 81.9119C163.925 81.9105 164.947 80.8811 164.948 80.8804C167.101 78.8596 170.121 81.8584 168.112 84.0226L168.112 84.0227Z" fill="#a4832e"/>
<path d="M166.538 81.175C166.463 81.1786 166.393 81.2109 166.342 81.2665C166.293 81.3213 166.266 81.3944 166.269 81.469L166.342 83.0587C166.346 83.1332 166.379 83.2035 166.434 83.2541C166.489 83.304 166.562 83.3308 166.636 83.3272C166.712 83.3237 166.781 83.2907 166.832 83.2358C166.882 83.1803 166.908 83.1072 166.905 83.0326L166.832 81.4429C166.823 81.2883 166.693 81.1687 166.538 81.175Z" fill="#a4832e"/>
<path d="M164.877 84.5741L163.259 84.3034C163.107 84.2809 162.966 84.3842 162.94 84.5354C162.915 84.6866 163.015 84.83 163.166 84.8588L164.784 85.1295C164.937 85.1549 165.082 85.0515 165.108 84.8982C165.133 84.7449 165.03 84.6001 164.877 84.5741Z" fill="#a4832e"/>
<path d="M160.886 86.2313C160.776 86.1251 160.6 86.1273 160.492 86.2362C160.384 86.3445 160.383 86.5203 160.49 86.6307C160.85 87.1081 161.177 87.6102 161.467 88.1332C161.547 88.2647 161.717 88.3076 161.85 88.231C161.982 88.1536 162.029 87.9849 161.954 87.8506C161.638 87.286 161.282 86.7446 160.886 86.2313L160.886 86.2313Z" fill="#a4832e"/>
<path d="M160.36 89.1788L159.4 88.8498L159.399 88.8498C159.329 88.8252 159.251 88.8301 159.184 88.8624C159.117 88.8955 159.066 88.9538 159.042 89.0241C159.017 89.0952 159.022 89.1725 159.055 89.2393C159.088 89.3061 159.146 89.3574 159.217 89.382C159.256 89.3898 160.257 89.7547 160.268 89.7266C160.404 89.7245 160.519 89.6253 160.542 89.491C160.564 89.356 160.487 89.2252 160.359 89.1788L160.36 89.1788Z" fill="#a4832e"/>
</g>
<defs>
<clipPath id="clip0_78_29">
<rect width="95.7965" height="95.7965" fill="white" transform="translate(92.043 22) rotate(13.9185)"/>
</clipPath>
</defs>
</svg>
