<?xml version="1.0" encoding="UTF-8"?>
<svg width="1200pt" height="1200pt" version="1.1" viewBox="0 0 1200 1200" xmlns="http://www.w3.org/2000/svg">
 <path d="m341.16 750h72l-24.141 27.938c-6.1406 6.9844-7.4531 17.016-3.5625 25.453 3.9375 8.4375 12.375 13.828 21.562 13.828h101.25l-65.016 242.72c-2.8125 10.641 2.0625 21.938 11.859 27.188 3.5625 1.8281 7.3594 2.8125 11.156 2.8125 6.75 0 13.359-2.8125 18-8.2031l285.66-331.6h133.97c102.47 0 185.86-83.391 185.86-185.86 0-53.859-23.25-104.95-63.938-140.21-33.328-28.875-75.422-44.812-118.88-45.656 0.23438-72.469-44.344-139.97-113.62-166.87-38.812-15.047-81.797-15.938-120.98-2.8125-20.578-33.188-50.344-60.375-85.594-77.531-37.828-18.375-79.969-24.844-121.6-18.469-41.625 6.375-79.969 24.844-110.67 53.766-35.766 33.422-58.406 79.125-64.031 127.6-47.25 10.641-90.375 36-122.68 72.844-37.125 41.812-57.562 96.047-57.562 152.11 0 127.36 103.59 230.95 230.95 230.95zm216.98 29.016c-4.5469-5.8594-11.531-9.3281-18.844-9.3281h-80.438l24-27.797c0.23438-0.23438 0.46875-0.46875 0.60938-0.75l200.44-232.64-46.172 172.18c-1.9688 7.125-0.375 14.812 4.1719 20.578 4.5469 5.8594 11.531 9.3281 18.844 9.3281h80.438l-225.05 261.19 46.172-172.18c1.8281-7.125 0.32812-14.719-4.1719-20.578zm-242.11-441.56c11.625-1.5938 20.344-11.391 20.578-23.156 0.84375-42.844 19.219-84.141 50.344-113.39 48-44.953 119.86-55.828 179.02-27.047 32.438 15.797 58.781 42.375 74.203 74.953 2.6719 5.7656 7.5938 10.172 13.594 12.234s12.469 1.7344 18.234-0.98438c32.578-15.797 70.547-17.25 104.2-4.2656 57.656 22.406 91.969 82.875 81.422 143.86-1.2188 7.4531 1.125 15.047 6.375 20.578 5.25 5.3906 12.844 8.0625 20.344 6.9844 39.797-5.625 80.062 6.2344 110.34 32.672 30.234 26.203 47.531 64.266 47.531 104.34 0 76.266-62.062 138.37-138.37 138.37h-93.047l0.14062-0.14062c6.1406-6.9844 7.4531-17.016 3.5625-25.453-3.9375-8.4375-12.375-13.828-21.562-13.828h-101.25l65.016-242.68c2.8125-10.641-2.0625-21.938-11.859-27.188-9.7969-5.1562-21.938-2.9531-29.156 5.5312l-261.66 303.61h-112.88c-101.16 0-183.42-82.266-183.42-183.42 0-91.219 68.062-169.31 158.29-181.6zm-91.688 181.6c0-58.172 43.359-107.86 100.78-115.73 12.984-1.7344 24.984 7.3594 26.672 20.344 1.7344 12.984-7.3594 24.984-20.344 26.672-34.031 4.6406-59.625 34.172-59.625 68.672 0 13.125-10.641 23.766-23.766 23.766-13.078 0.046875-23.719-10.594-23.719-23.719zm-19.969 425.16c-11.391-6.6094-15.328-21.047-8.6719-32.438l41.156-71.25c6.6094-11.391 21.047-15.328 32.438-8.6719 11.391 6.6094 15.328 21.047 8.6719 32.438l-41.156 71.25c-4.4062 7.5938-12.375 11.859-20.578 11.859-4.1719 0-8.2031-0.98438-11.859-3.1875zm-8.7188 62.578-41.156 71.156c-4.3594 7.5938-12.328 11.859-20.531 11.859-4.0312 0-8.0625-0.98438-11.859-3.1875-11.391-6.6094-15.328-21.047-8.6719-32.438l41.156-71.156c6.6094-11.391 21.047-15.328 32.438-8.6719 11.344 6.4688 15.141 21.047 8.625 32.438zm170.48-62.578c-11.391-6.6094-15.328-21.047-8.6719-32.438l41.156-71.25c6.6094-11.391 21.047-15.328 32.438-8.6719 11.391 6.6094 15.328 21.047 8.6719 32.438l-41.156 71.25c-4.4062 7.5938-12.375 11.859-20.578 11.859-4.0312 0-8.2031-0.98438-11.859-3.1875zm-90.984 109.97 41.156-71.156c6.6094-11.391 21.047-15.328 32.438-8.6719 11.391 6.6094 15.328 21.047 8.6719 32.438l-41.156 71.156c-4.4062 7.5938-12.328 11.859-20.531 11.859-4.0312 0-8.0625-0.98438-11.859-3.1875-11.438-6.6094-15.328-21.047-8.7188-32.438zm414.37-109.97c-11.391-6.6094-15.328-21.047-8.6719-32.438l41.156-71.25c6.6094-11.391 21.047-15.328 32.438-8.6719 11.391 6.6094 15.328 21.047 8.6719 32.438l-41.156 71.25c-4.4062 7.5938-12.375 11.859-20.578 11.859-4.0312 0-8.0625-0.98438-11.859-3.1875zm-8.5781 62.578-41.156 71.156c-4.4062 7.5938-12.375 11.859-20.578 11.859-4.0312 0-8.0625-0.98438-11.859-3.1875-11.391-6.6094-15.328-21.047-8.6719-32.438l41.156-71.156c6.6094-11.391 21.047-15.328 32.438-8.6719 11.344 6.4688 15.141 21.047 8.6719 32.438zm170.29-62.578c-11.391-6.6094-15.328-21.047-8.6719-32.438l41.156-71.25c6.6094-11.391 21.047-15.328 32.438-8.6719 11.391 6.6094 15.328 21.047 8.6719 32.438l-41.156 71.25c-4.4062 7.5938-12.375 11.859-20.578 11.859-3.9844 0-8.0625-0.98438-11.859-3.1875zm-90.984 109.97 41.156-71.156c6.6094-11.391 21.047-15.328 32.438-8.6719 11.391 6.6094 15.328 21.047 8.6719 32.438l-41.156 71.156c-4.2188 7.5938-12.328 11.859-20.531 11.859-4.0312 0-8.0625-0.98438-11.859-3.1875-11.25-6.6094-15.188-21.047-8.7188-32.438zm252.74-109.97c-11.391-6.6094-15.328-21.047-8.6719-32.438l41.156-71.25c6.6094-11.391 21.047-15.328 32.438-8.6719 11.391 6.6094 15.328 21.047 8.6719 32.438l-41.156 71.25c-4.4062 7.5938-12.375 11.859-20.578 11.859-4.0312 0-8.0625-0.98438-11.859-3.1875zm-90.844 109.97 41.156-71.156c6.6094-11.391 21.047-15.328 32.438-8.6719 11.391 6.6094 15.328 21.047 8.6719 32.438l-41.156 71.156c-4.4062 7.5938-12.469 11.859-20.672 11.859-4.0312 0-8.0625-0.98438-11.859-3.1875-11.297-6.6094-15.188-21.047-8.5781-32.438z"/>
</svg>
