<?xml version="1.0" encoding="UTF-8"?>
<svg width="1200pt" height="1200pt" version="1.1" viewBox="0 0 1200 1200" xmlns="http://www.w3.org/2000/svg">
 <path d="m1155.6 670.8c-12-3.6016-21.602-12-28.801-22.801l-10.801-16.801c-3.6016-4.8008-8.3984-7.1992-13.199-7.1992-3.6016 0-7.1992 0-10.801 4.8008-103.2 103.2-188.4-171.6-7.1992-138 8.3984 1.1992 15.602-8.3984 10.801-15.602-31.199-46.801-112.8-63.602-165.6-33.602-54 31.199-68.398 84-82.801 120-14.398 37.199-22.801 62.398-38.398 86.398-10.801 16.801-34.801 16.801-45.602 0l-10.801-16.801c-2.3984-4.8008-8.3984-7.1992-13.199-7.1992-3.6016 0-7.1992 0-10.801 4.8008-103.2 103.2-188.4-171.6-7.1992-138 8.3984 1.1992 15.602-8.3984 10.801-15.602-32.398-45.602-111.6-62.398-164.4-32.398-52.801 30-68.398 84-82.801 120-14.398 37.199-22.801 62.398-38.398 86.398-10.801 16.801-34.801 16.801-45.602 0l-10.801-16.801c-2.3984-4.8008-8.3984-7.1992-13.199-7.1992-3.6016 0-7.1992 0-10.801 4.8008-103.2 103.2-188.4-171.6-7.1992-138 8.3984 1.1992 15.602-8.3984 10.801-15.602-32.398-45.602-111.6-62.398-164.4-32.398-52.801 30-68.398 84-82.801 120-14.398 37.199-22.801 61.199-38.398 86.398-9.6016 15.602-24 21.602-34.801 25.199-8.3984 2.3984-14.398 9.6016-14.398 18v63.602c0 10.801 8.3984 19.199 19.199 19.199h1101.6c10.801 0 19.199-8.3984 19.199-19.199v-64.801c-4.8047-11.996-10.805-17.996-19.203-21.594z"/>
</svg>
